<?xml version="1.0" ?><svg id="Layer_1" style="enable-background:new 0 0 128 128;" version="1.1" viewBox="0 0 128 128" xml:space="preserve" xmlns="http://www.w3.org/2000/svg" xmlns:xlink="http://www.w3.org/1999/xlink"><style type="text/css">
	.st0{fill:#13262F;}
	.st1{fill:#d6ac12;}
</style><g><circle class="st0" cx="64" cy="64" r="64"/></g><path class="st1" d="M60.5,38L38,52H28c-2.2,0-4,1.8-4,4v16c0,2.2,1.8,4,4,4h10l22.5,14c0.6,0.5,1.5,0,1.5-0.8V38.8  C62,38.1,61.2,37.6,60.5,38z"/><g><path class="st1" d="M87.7,96.8l-1.3-1.5c-0.4-0.4-0.3-1,0.1-1.4C95.1,86.3,100,75.5,100,64c0-11.8-5.1-22.9-14.1-30.5   c-0.2-0.1-0.5-0.4-0.9-0.7s-0.5-0.9-0.2-1.3l1.1-1.7c0.3-0.5,1-0.6,1.4-0.2c0.5,0.4,1,0.8,1,0.8C98.3,38.8,104,51,104,64   c0,12.6-5.4,24.6-14.8,33C88.7,97.3,88.1,97.3,87.7,96.8z"/></g><g><path class="st1" d="M79.1,88.3l-1.2-1.6c-0.3-0.4-0.3-1,0.2-1.4C84.4,80,88,72.3,88,64s-3.6-16-10-21.3c-0.4-0.3-0.5-1-0.2-1.4   l1.2-1.6c0.3-0.4,1-0.5,1.4-0.2C87.8,45.7,92,54.5,92,64s-4.2,18.3-11.5,24.4C80.1,88.8,79.5,88.7,79.1,88.3z"/></g><g><path class="st1" d="M69.6,78.2c-0.4-0.4-0.3-1.1,0.1-1.4c4-3.1,6.3-7.8,6.3-12.7c0-5.1-2.3-9.8-6.3-12.7c-0.4-0.3-0.5-1-0.2-1.4   l1.3-1.5c0.3-0.4,0.9-0.5,1.4-0.2C77.1,51.8,80,57.7,80,64c0,6.1-2.9,11.9-7.7,15.8c-0.4,0.3-1,0.3-1.4-0.1L69.6,78.2z"/></g></svg>