<?xml version="1.0" ?><!DOCTYPE svg  PUBLIC '-//W3C//DTD SVG 1.1//EN'  'http://www.w3.org/Graphics/SVG/1.1/DTD/svg11.dtd'><svg enable-background="new 0 0 128 128" id="Слой_1" version="1.1" viewBox="0 0 128 128" xml:space="preserve" xmlns="http://www.w3.org/2000/svg" xmlns:xlink="http://www.w3.org/1999/xlink"><g><g opacity="0.5"><g><g><g><path d="M59.5,104.7L34.5,79.8c-3.4-3.4-3.4-9,0-12.5l37.4-37.4c3.4-3.4,9-3.4,12.5,0l24.9,24.9       c3.4,3.4,3.4,9,0,12.5l-37.4,37.4C68.5,108.1,62.9,108.1,59.5,104.7z" fill="#F9F071"/></g></g></g><g><g><g><path d="M59.5,104.7L34.5,79.8c-3.4-3.4-3.4-9,0-12.5l37.4-37.4c3.4-3.4,9-3.4,12.5,0l24.9,24.9       c3.4,3.4,3.4,9,0,12.5l-37.4,37.4C68.5,108.1,62.9,108.1,59.5,104.7z" fill="#f3d774"/></g></g></g><g opacity="0.15"><g><g><path d="M82.1,90.7v-60c0-0.9-0.1-1.8-0.2-2.6c-3.3-1.5-7.2-0.9-9.9,1.8L34.5,67.3c-3.4,3.4-3.4,9,0,12.5       l24.9,24.9c0.9,0.9,2,1.6,3.1,2h3.5c1.3,0,2.6-0.2,3.8-0.5c0.8-0.4,1.5-0.9,2.1-1.5l9.5-9.5C81.8,93.8,82.1,92.3,82.1,90.7z" fill="#62345B"/></g></g></g><g><g><g><g><path d="M73.2,36.1c3.4-3.4,9-3.4,12.5,0L110.6,61c0.5,0.5,0.9,1,1.2,1.5c0.5-2.7-0.3-5.6-2.4-7.7L84.4,29.9        c-3.4-3.4-9-3.4-12.5,0L34.5,67.3c-3,3-3.4,7.6-1.2,11c0.3-1.7,1.1-3.4,2.4-4.7L73.2,36.1z" fill="#fbf2ce"/></g></g></g></g><g><g><g><path d="M65.7,108.8c-2.8,0-5.3-1.1-7.3-3L33.5,80.8c-1.9-1.9-3-4.5-3-7.3s1.1-5.3,3-7.3l37.4-37.4       c1.9-1.9,4.5-3,7.3-3s5.3,1.1,7.3,3l24.9,24.9c1.9,1.9,3,4.5,3,7.3s-1.1,5.3-3,7.3L73,105.8C71,107.7,68.5,108.8,65.7,108.8z        M78.2,28.8c-2,0-3.8,0.8-5.2,2.1L35.6,68.3c-1.4,1.4-2.1,3.2-2.1,5.2s0.8,3.8,2.1,5.2l24.9,24.9c1.4,1.4,3.2,2.1,5.2,2.1       s3.8-0.8,5.2-2.1l37.4-37.4c1.4-1.4,2.1-3.2,2.1-5.2s-0.8-3.8-2.1-5.2L83.3,30.9C82,29.5,80.1,28.8,78.2,28.8z" fill="#13262F"/></g></g></g></g><g><g><g><g><path d="M66.1,100.7h-40c-5.5,0-10-4.5-10-10v-60c0-5.5,4.5-10,10-10h40c5.5,0,10,4.5,10,10v60       C76.1,96.2,71.6,100.7,66.1,100.7z" fill="#d6ac12"/></g></g></g><g><g><g><g><path d="M22.1,34.7c0-5.5,4.5-10,10-10h40c0.7,0,1.5,0.1,2.2,0.2c-1.8-2.6-4.8-4.2-8.2-4.2h-40        c-5.5,0-10,4.5-10,10v60c0,4.8,3.4,8.8,7.8,9.8c-1.2-1.6-1.8-3.6-1.8-5.8V34.7z" fill="#fbf2ce"/></g></g></g></g><g><g><g><path d="M66.1,102.2h-40c-6.3,0-11.5-5.2-11.5-11.5v-60c0-6.3,5.2-11.5,11.5-11.5h40c6.3,0,11.5,5.2,11.5,11.5       v60C77.6,97.1,72.4,102.2,66.1,102.2z M26.1,22.2c-4.7,0-8.5,3.8-8.5,8.5v60c0,4.7,3.8,8.5,8.5,8.5h40c4.7,0,8.5-3.8,8.5-8.5       v-60c0-4.7-3.8-8.5-8.5-8.5H26.1z" fill="#13262F"/></g></g></g></g></g></svg>