<?xml version="1.0" encoding="UTF-8" standalone="no"?>
<svg
   xmlns:dc="http://purl.org/dc/elements/1.1/"
   xmlns:cc="http://creativecommons.org/ns#"
   xmlns:rdf="http://www.w3.org/1999/02/22-rdf-syntax-ns#"
   xmlns:svg="http://www.w3.org/2000/svg"
   xmlns="http://www.w3.org/2000/svg"
   xmlns:sodipodi="http://sodipodi.sourceforge.net/DTD/sodipodi-0.dtd"
   xmlns:inkscape="http://www.inkscape.org/namespaces/inkscape"
   width="210mm"
   height="297mm"
   viewBox="0 0 210 297"
   version="1.1"
   id="svg8"
   inkscape:version="1.0.2-2 (e86c870879, 2021-01-15)"
   sodipodi:docname="drawing.svg">
  <g
     inkscape:label="Layer 1"
     inkscape:groupmode="layer"
     id="layer1"
     style="display:inline">
    <g
       id="Layer_1"
       data-name="Layer 1"
       style="isolation:isolate"
       transform="matrix(0.26458333,0,0,0.26458333,-226.74303,-35.937432)"
       inkscape:transform-center-x="167.82142"
       inkscape:transform-center-y="9.8273808">
      <path
         id="hp-background"
         fill="#76c9e8"
         d="M 0,0 H 1800 V 1377.37 H 0 Z" />
      <path
         d="m 1315.38,884.2 a 132.65,132.65 0 0 0 -61.86,15.23 c -5.71,-43.1 -42.13,-76.33 -86.22,-76.33 a 86.3,86.3 0 0 0 -65.44,30.08 c 0.26,-3.7 0.4,-7.42 0.4,-11.19 0,-86.19 -68.93,-156.06 -154,-156.06 -85.07,0 -154,69.87 -154,156.06 a 159.33,159.33 0 0 0 1.83,24.11 58.55,58.55 0 0 0 -98.4,17.19 c -9.44,-46.36 -49.94,-81.22 -98.47,-81.22 -55.53,0 -100.55,45.63 -100.55,101.92 a 104.1,104.1 0 0 0 1.11,15.19 111.53,111.53 0 0 0 -68.56,103.31 c 0,61.58 49.25,111.5 110,111.5 60.75,0 699.69,23.26 774.08,23.26 74.39,0 134.69,-61.12 134.69,-136.53 0,-75.41 -60.22,-136.52 -134.61,-136.52 z"
         fill="#ffffff"
         opacity="0.4"
         id="path810" />
      <path
         id="hp-cloud"
         data-name="hp-cloud"
         d="m 1453.25,561.23 a 28.72,28.72 0 0 0 -13.39,3.3 18.93,18.93 0 0 0 -18.67,-16.53 18.68,18.68 0 0 0 -14.17,6.51 c 0.06,-0.8 0.09,-1.61 0.09,-2.42 a 33.34,33.34 0 1 0 -66.66,0 34.49,34.49 0 0 0 0.4,5.22 12.68,12.68 0 0 0 -21.3,3.72 21.75,21.75 0 0 0 -43.09,4.48 22.54,22.54 0 0 0 0.24,3.29 24.19,24.19 0 0 0 9,46.51 c 13.15,0 151.48,5 167.59,5 a 29.56,29.56 0 0 0 -0.04,-59.08 z"
         fill="#ffffff"
         opacity="0.4" />
      <path
         id="hp-cloud-2"
         data-name="hp-cloud"
         d="m 634.5,314.91 a 17.57,17.57 0 0 0 -8.19,2 11.58,11.58 0 0 0 -11.42,-10.11 11.43,11.43 0 0 0 -8.67,4 c 0,-0.49 0.05,-1 0.05,-1.48 a 20.39,20.39 0 1 0 -40.78,0 21.1,21.1 0 0 0 0.24,3.19 7.75,7.75 0 0 0 -13,2.28 13.3,13.3 0 0 0 -26.36,2.74 13.79,13.79 0 0 0 0.15,2 A 14.8,14.8 0 0 0 532,348 c 8,0 92.67,3.08 102.52,3.08 a 18.085003,18.085003 0 0 0 -0.02,-36.17 z"
         fill="#ffffff"
         opacity="0.4" />
      <path
         id="hp-cloud-3"
         data-name="hp-cloud"
         d="m 1149.69,205.91 a 13.29,13.29 0 0 1 6.2,1.53 8.76,8.76 0 0 1 8.63,-7.65 8.64,8.64 0 0 1 6.55,3 v -1.12 a 15.42,15.42 0 1 1 30.84,0 16,16 0 0 1 -0.18,2.41 5.86,5.86 0 0 1 9.86,1.72 10.06,10.06 0 0 1 19.93,2.07 10.43,10.43 0 0 1 -0.11,1.52 11.19,11.19 0 0 1 -4.15,21.51 c -6.08,0 -70.08,2.33 -77.53,2.33 a 13.68,13.68 0 0 1 -0.04,-27.32 z"
         fill="#ffffff"
         opacity="0.4" />
      <path
         id="hp-cloud-4"
         data-name="hp-cloud"
         d="m 1149.69,205.91 a 13.29,13.29 0 0 1 6.2,1.53 8.76,8.76 0 0 1 8.63,-7.65 8.64,8.64 0 0 1 6.55,3 v -1.12 a 15.42,15.42 0 1 1 30.84,0 16,16 0 0 1 -0.18,2.41 5.86,5.86 0 0 1 9.86,1.72 10.06,10.06 0 0 1 19.93,2.07 10.43,10.43 0 0 1 -0.11,1.52 11.19,11.19 0 0 1 -4.15,21.51 c -6.08,0 -70.08,2.33 -77.53,2.33 a 13.68,13.68 0 0 1 -0.04,-27.32 z"
         fill="#ffffff" x="200px"
         y="-200px"
         opacity="0.4" />
      <path
         id="hp-cloud-4"
         data-name="hp-cloud"
         d="m 2980,654.3 a 28.72,28.72 0 0 0 -13.39,3.3 18.93,18.93 0 0 0 -18.67,-16.53 18.68,18.68 0 0 0 -14.17,6.51 c 0.06,-0.8 0.09,-1.61 0.09,-2.42 a 33.34,33.34 0 1 0 -66.66,0 34.49,34.49 0 0 0 0.4,5.22 12.68,12.68 0 0 0 -21.3,3.72 21.75,21.75 0 0 0 -43.09,4.48 22.54,22.54 0 0 0 0.24,3.29 24.19,24.19 0 0 0 9,46.51 c 13.15,0 151.48,5 167.59,5 A 29.56,29.56 0 0 0 2980,654.3 Z"
         fill="#ffffff"
         opacity="0.4" />

      <path
         id="hp-cloud-6"
         data-name="hp-cloud"
         d="m 2676.44,299 a 13.29,13.29 0 0 1 6.2,1.53 8.76,8.76 0 0 1 8.63,-7.65 8.64,8.64 0 0 1 6.55,3 v -1.12 a 15.42,15.42 0 1 1 30.84,0 16,16 0 0 1 -0.18,2.41 5.86,5.86 0 0 1 9.86,1.72 10.06,10.06 0 0 1 19.93,2.07 10.43,10.43 0 0 1 -0.11,1.52 A 11.19,11.19 0 0 1 2754,324 c -6.08,0 -70.08,2.33 -77.53,2.33 A 13.68,13.68 0 0 1 2676.44,299 Z"
         fill="#ffffff"
         opacity="0.4" />
      <path
         id="hp-cloud-7"
         data-name="hp-cloud"
         d="m 629.25,505.08 a 4.76,4.76 0 0 1 2.22,0.55 3.14,3.14 0 0 1 3.09,-2.74 3.1,3.1 0 0 1 2.35,1.08 v -0.4 a 5.52,5.52 0 1 1 11,0 5.72,5.72 0 0 1 -0.07,0.86 2.1,2.1 0 0 1 3.53,0.62 3.6,3.6 0 0 1 7.14,0.74 3.73,3.73 0 0 1 0,0.54 A 4,4 0 0 1 657,514 c -2.18,0 -25.1,0.83 -27.77,0.83 a 4.9,4.9 0 0 1 0.02,-9.75 z"
         fill="#ffffff"
         opacity="0.4" />
      <path
         fill="#5cc29f"
         d="m 0,1300.65 h 1800 v 142.92 H 0 Z"
         id="path819" />
      <g
         id="g1595">
        <g
           id="hp-plane-a">
          <g
             id="hp-banner-a">
            <path
               d="m 1392.85,467.53 -39,-0.42 a 104.71,104.71 0 0 0 -103.47,-105.7 l 0.42,-39 c 79.2,0.85 142.9,65.95 142.05,145.12 z"
               fill="#e23c52"
               id="path821" />
            <path
               fill="#5f5863"
               d="m 1219.93,341.86 34.67,-21.67 0.26,1.05 -33.09,20.52 31.31,17.66 -0.35,0.75 z"
               id="path823" />
            <path
               fill="#ffff85"
               d="m 1261.14,319.61 -3.64,42.27 -5.74,0.07 2.14,-43 z"
               id="path825" />
          </g>
          <path
             id="hp-prop-a"
             d="m 1078.95,316.58 a 162.82,162.82 0 0 1 -0.17,53.11 c 0,1.47 1.47,2.67 3.29,2.68 1.82,0.01 3.3,-1.18 3.31,-2.66 0,-1.16 -2.15,-7.83 -2.09,-26.56 0.06,-18.73 2.26,-25.39 2.27,-26.55 0,-1.47 -1.47,-2.67 -3.29,-2.68 -1.82,-0.01 -3.27,1.19 -3.32,2.66 z"
             fill="#352c3a" />
          <path
             d="m 1086.61,338.56 c 2.69,0 3.55,2.19 3.54,4.88 -0.01,2.69 -0.88,4.87 -3.57,4.86 -2.69,-0.01 -7.73,-3.16 -7.72,-4.89 0.01,-1.73 5.06,-4.86 7.75,-4.85 z"
             fill="#ffff85"
             id="path829" />
          <path
             fill="#5d899f"
             d="m 1151.6,278.13 -7.34,125.15 -11.27,0.3 6.6,-127.19 z"
             id="path831" />
          <path
             d="m 1090.83,321.12 c 11.44,1 137.3,11 137.26,22.5 0,10.56 -133.63,20.35 -134.55,20.35 -9.77,-6.26 -9.6,-34.9 -2.71,-42.85 z"
             fill="#e9e8e8"
             id="path833" />
          <path
             d="m 1085.91,340.62 a 55.56,55.56 0 0 0 0.47,7.81 l 118,3.35 c 14.08,-2.55 23.69,-5.32 23.7,-8.15 a 1.77,1.77 0 0 0 -0.19,-0.73 z"
             fill="#352c3a"
             opacity="0.1"
             id="path835" />
          <path
             d="m 1085,343.16 c 0.32,9.07 2.75,17.93 7.7,21.1 0.93,0 136.33,-9.92 136.36,-20.62 v -0.09 z"
             fill="#ededed"
             id="path837" />
          <path
             d="m 1110.45,339.47 h -1.14 l -0.06,0.91 h 1.21 V 344 h -1.38 v 1.1 h 1.39 l 0.21,17.47 c 8.95,-0.74 21,-1.71 34,-3 l 0.87,-13.66 h 0.55 l 0.07,-0.91 h -0.55 l 0.18,-2.82 0.06,-1 h 0.44 v -1.1 h -0.3 l 0.88,-13.88 c -13.75,-1.5 -26.7,-2.87 -36.6,-3.76 z"
             fill="#352c3a"
             opacity="0.1"
             id="path839" />
          <path
             fill="#e23c52"
             d="m 1144.67,266 -9.32,147.51 -29.98,-5.92 -1.68,-137.01 z m 78.41,54.76 -4.02,43.6 -13.16,-1.76 -0.8,-40.51 z"
             id="path841" />
          <path
             fill="#ffff85"
             d="m 1223.08,320.76 -1.68,43.91 -5.92,-0.02 0.97,-43.92 z m -75.6,-50.71 0.17,-5.13 -43.14,0.43 -0.03,8.08 z m -8.48,139.37 0.14,5.13 -32.84,0.33 0.03,-8.08 z"
             id="path843" />
          <g
             fill="#ffff85"
             id="g847">
            <path
               d="m 1139.19,383.54 0.28,-4.4 -32.58,-0.1 0.05,3.89 z m -32.76,-42.27 0.05,3.95 35.11,0.49 0.27,-4.33 z m -0.51,-41.85 0.07,5.52 38.14,0.46 0.32,-5.01 z"
               id="path845" />
          </g>
          <path
             fill="#495176"
             d="m 1106.27,383.62 0.01,-1.1 33.59,1.03 -0.06,0.9 z m -1.16,25.65 -0.06,-1.1 33.61,-0.84 -0.01,0.91 z m 34.85,-31.44 0.04,1.1 -33.61,0.29 0.03,-0.91 z m -34.87,-32.56 v -1.1 l 37.08,1.04 -0.06,0.9 z m 37.2,-4.98 0.01,1.1 -37.09,-0.81 0.06,-0.91 z m -37.81,-36.41 0.04,-1.09 41.34,2.38 -0.1,0.9 z m 41.38,-5.23 0.03,1.1 -41.41,-0.09 0.05,-0.91 z m 0.34,-27.67 0.03,1.1 -41.41,-0.09 0.05,-0.91 z"
             id="path849" />
          <path
             d="m 1113.83,381 a 1,1 0 1 0 1,-1 1,1 0 0 0 -1,1 z m 1.63,-0.07 a 0.66,0.66 0 1 1 -0.66,-0.66 0.66,0.66 0 0 1 0.66,0.63 z m 7.42,0.78 a 1,1 0 1 0 0,-1.45 1,1 0 0 0 0,1.45 z m 1.13,-1.17 a 0.66,0.66 0 1 1 -0.93,0 0.66,0.66 0 0 1 0.92,-0.01 z m 7.87,1.18 a 1,1 0 1 0 0,-1.45 1,1 0 0 0 0,1.45 z m 1.13,-1.17 a 0.66,0.66 0 1 1 -0.93,0 0.66,0.66 0 0 1 0.92,0 z M 1114,342.76 a 1,1 0 1 0 1,-1 1,1 0 0 0 -1,1 z m 1.63,-0.07 a 0.66,0.66 0 1 1 -0.66,-0.66 0.66,0.66 0 0 1 0.62,0.65 z m 9.3,0.63 a 1,1 0 1 0 1,-1.07 1,1 0 0 0 -1,1.07 z m 1.62,-0.16 a 0.66,0.66 0 1 1 -0.69,-0.63 0.66,0.66 0 0 1 0.69,0.64 z m -12.31,-40.92 a 1,1 0 1 0 0.34,-1.41 1,1 0 0 0 -0.34,1.41 z m 1.35,-0.92 a 0.66,0.66 0 1 1 -0.91,-0.22 0.66,0.66 0 0 1 0.91,0.22 z m 10.88,0.58 a 1,1 0 1 0 1,-1.07 1,1 0 0 0 -1,1.07 z m 1.62,-0.16 a 0.66,0.66 0 1 1 -0.69,-0.63 0.66,0.66 0 0 1 0.69,0.63 z m 8.62,1.67 a 1,1 0 1 0 -0.53,-1.35 1,1 0 0 0 0.53,1.35 z m 0.58,-1.52 a 0.66,0.66 0 1 1 -0.87,0.34 0.66,0.66 0 0 1 0.86,-0.35 z m -0.96,42.11 a 1,1 0 1 0 0,-1.45 1,1 0 0 0 0,1.45 z m 1.13,-1.17 a 0.66,0.66 0 1 1 -0.93,0 0.66,0.66 0 0 1 0.93,0.03 z"
             fill="#353e67"
             id="path851" />
          <path
             fill="#495176"
             d="m 1215.83,319.93 1.1,-0.07 0.17,44.29 h -0.9 z"
             id="path853" />
          <path
             d="m 1210.89,338.08 a 1,1 0 1 0 1,-1.07 1,1 0 0 0 -1,1.07 z m 1.62,-0.16 a 0.66,0.66 0 1 1 -0.69,-0.63 0.66,0.66 0 0 1 0.69,0.63 z m -1.58,5.15 a 1,1 0 1 0 1,-1.07 1,1 0 0 0 -1,1.07 z m 1.62,-0.16 a 0.66,0.66 0 1 1 -0.69,-0.63 0.66,0.66 0 0 1 0.69,0.63 z m -1.55,5.15 a 1,1 0 1 0 1,-1.07 1,1 0 0 0 -1,1.07 z m 1.62,-0.16 a 0.66,0.66 0 1 1 -0.69,-0.63 0.66,0.66 0 0 1 0.67,0.63 z"
             fill="#ffff85"
             id="path855" />
          <g
             fill="#ffffff"
             id="g859" />
        </g>
        <path
           d="m 865.82,823.51 c 0,0 2.42,-32.73 25.39,-32.73 22.97,0 20.37,35.34 20.37,35.34 0,0 -9.31,7.81 -24.56,5.21 -15.25,-2.6 -21.2,-7.82 -21.2,-7.82 z"
           fill="#e1e2e8"
           id="path862" />
        <path
           d="m 911.42,820.39 c 0,-1.09 -0.11,-2.3 -0.23,-3.58 -4.25,-2.07 -19.62,-10.47 -19.62,-10.47 0,0 -20.31,9.42 -25.24,12.24 -0.24,1.26 -0.4,2.33 -0.51,3.16 0.45,0.4 44,-1.28 45.6,-1.35 z"
           fill="#d7d8e1"
           id="path864" />
        <path
           d="m 867.65,815.68 c 0,0 0.59,-24.9 23.56,-24.9 22.97,0 20,26 20,26 L 891.6,803.56 Z"
           fill="#e1e2e8"
           id="path866" />
        <g
           id="hp-whitehouse">
          <g
             id="g1034">
            <path
               d="m 580.85,949.49 8,42.24 c 0,0 61.74,3 67.62,1.08 5.88,-1.92 -0.79,-47.11 -0.79,-47.11 z m 660.7,12.02 -8,42.24 c 0,0 -61.74,3 -67.62,1.08 -5.88,-1.92 0.79,-47.11 0.79,-47.11 z"
               fill="#ebecf0"
               id="path868" />
            <path
               d="m 900.32,985.42 c -10,-0.93 -544.17,5.3 -544.17,5.3 l 7.63,314.72 h 1096.77 l 1.91,-307.09 c 0,0 -552.09,-12.01 -562.14,-12.93 z m -500,41.17 L 398,996 h 7.92 l 1.47,30.63 h -7.06 z m 14.28,0 -2.12,-30.59 h 7.92 l 1.27,30.63 h -7.06 z m 14.22,0 -0.71,-30.91 7.89,0.32 -0.16,30.87 z m 16.15,0 -0.71,-30.91 7.94,0.32 -0.2,30.89 z m 16.3,0 -0.71,-30.91 7.94,0.32 -0.16,30.87 z m 51.71,-2.87 -2.24,-30.63 h 7.92 l 1.37,30.63 H 513 Z m 14.48,0 -2.24,-30.63 h 7.92 l 1.37,30.63 h -7.06 z m 14.22,0 -0.81,-30.91 7.91,0.37 -0.03,30.82 z m 16.15,0 -0.83,-30.96 7.91,0.37 -0.01,30.87 z m 16.3,0 -0.81,-30.91 7.91,0.37 -0.03,30.82 z m 671.32,8.35 -7.05,0.33 1,-30.87 7.91,-0.37 z m 16.3,0 -7.05,0.33 1,-30.87 7.91,-0.37 z m 16.15,0 -7.05,0.33 1,-30.87 7.91,-0.37 z m 14.22,0 h -7.06 l 2.45,-30.63 h 7.92 z m 14.48,0 h -7.06 l 2.45,-30.63 h 7.92 z m 53.08,2.74 -7.05,0.33 -0.46,-30.74 7.91,-0.37 z m 16.3,0 -7.05,0.33 -0.46,-30.74 7.91,-0.37 z m 16.15,0 -7.05,0.33 -0.46,-30.74 7.91,-0.37 z m 14.22,0 h -7.06 l 1,-30.49 h 7.92 z m 14.48,0 h -7.06 l 1,-30.49 h 7.92 z"
               fill="#f5f5f7"
               id="path870" />
            <path
               d="m 674.75,1003.07 c -0.3,-4.54 -4.55,-7.62 -10.26,-7.62 -0.58,0 -5.7,0.59 -6.25,0.67 h -15.77 l -13.63,-0.66 c -0.56,-0.07 -2.65,0.54 -3.23,0.54 -5.71,0 -9.7,5.7 -9.4,10.24 0.3,4.54 4.68,8.83 10.39,8.83 a 12.65,12.65 0 0 0 5.7,-1.33 l 0.7,276.13 h -3.23 l 2,31.28 18.75,1.09 h 40.66 l -2,-31.28 h -10.1 l -18.77,-277.49 c 1.79,1 4.31,2.19 6.62,1.9 7.07,-0.91 8.07,-7.76 7.82,-12.3 z m 477.34,4.2 c 0.3,-4.54 4.55,-7.62 10.26,-7.62 0.58,0 5.7,0.59 6.25,0.67 h 15.77 l 13.63,-0.66 c 0.56,-0.07 2.65,0.54 3.23,0.54 5.71,0 9.7,5.7 9.4,10.24 -0.3,4.54 -4.68,8.83 -10.39,8.83 a 12.65,12.65 0 0 1 -5.7,-1.33 l 3.56,277.22 h 3.23 l -2,31.28 h -76.88 l 2,-31.28 h 10.06 l 32,-277.49 c -1.79,1 -4.31,2.19 -6.62,1.9 -7.09,-0.92 -8.1,-7.77 -7.8,-12.3 z"
               fill="#ebecf0"
               id="path872" />
            <path
               fill="#f5f5f7"
               d="m 388.88,994.47 88.2,-0.11 0.02,-19.66 -88.22,2.61 z m 108.63,-1.91 h 93.33 l 2.46,-15.27 -96.55,-1.5 z"
               id="path874" />
            <path
               d="m 646.84,1017.6 21,301.27 c 0,0 66.41,8 67,4.54 0.59,-3.46 -10,-313.33 -10,-313.33 l -78.3,-17.32 z"
               fill="#ebecf0"
               id="path876" />
            <path
               d="m 724.86,1010.08 c 0,0 16.53,297.06 10,307.62 l 350.08,2.22 2,-301.92 z"
               fill="#ffffff"
               id="path878" />
            <path
               fill="#ebecf0"
               d="m 1174.62,1017.6 -17.09,300.1 -75.3,2.22 4.66,-301.91 87.73,-18.34 z"
               id="path880" />
            <path
               fill="#e1e2e8"
               d="m 637.66,995.37 87.2,14.71 362.03,7.93 109.24,-18.8 -257.14,-18.99 -299.06,10.7 z"
               id="path882" />
            <path
               d="m 609.66,871.73 c 0,0 276,-30.07 279.37,-28.85 3.37,1.22 331.34,36.77 331.34,36.77 l -21,120.19 -566.45,-7.74 z"
               fill="#ffffff"
               id="path884" />
            <path
               d="m 678.84,999.7 c -0.3,-4.54 -4.25,-7.18 -10,-7.18 -0.58,0 -6.07,-0.28 -6.62,-0.2 h -15.73 l -13.61,-0.19 c -0.56,-0.07 -2.65,0.54 -3.23,0.54 -5.71,0 -9.7,5.7 -9.4,10.24 0.3,4.54 4.68,8.83 10.39,8.83 a 12.65,12.65 0 0 0 5.7,-1.33 l 1,277.22 h -3.24 l 2,31.28 h 60.5 l -15.73,-31.28 h -10.01 l -6.47,-277.49 c 1.79,1 4.31,2.19 6.62,1.9 7.12,-0.95 8.12,-7.8 7.83,-12.34 z"
               fill="#f3f3f6"
               id="path886" />
            <g
               id="g894">
              <path
                 fill="#ebecf0"
                 d="m 571.43,1123.09 -49.96,1.96 -0.95,-79.71 48.94,1.12 z"
                 id="path888" />
              <path
                 fill="#dfe0e7"
                 d="m 575.1,1121.61 -57.42,-0.3 -0.54,13.18 58.27,0.6 z"
                 id="path890" />
              <path
                 fill="#ffffff"
                 d="m 545.01,1066.41 -14.06,0.34 0.21,-13.24 13.14,0.61 z m 16.71,32.5 -14.06,0.34 0.21,-13.24 13.14,0.61 z m 0.25,-31.58 -13.69,-0.56 -0.68,-12.92 h 14.06 z m -15.39,48.28 -13.69,-0.56 -0.67,-12.91 h 14.06 z m -0.73,-32.48 -13.69,-0.56 -0.68,-12.92 h 14.07 z m 16.71,0 h -13.51 l -0.68,-12.98 13.38,-0.23 z m -16.27,16.1 h -13.5 l -0.68,-12.97 13.38,-0.23 z m 17.08,16.25 -14.37,0.47 0.39,-13.68 h 13.18 z"
                 id="path892" />
            </g>
            <g
               id="g902">
              <path
                 fill="#ebecf0"
                 d="m 459.28,1123.09 -49.96,1.96 -0.95,-79.71 48.94,1.12 z"
                 id="path896" />
              <path
                 fill="#dfe0e7"
                 d="m 462.95,1121.61 -57.42,-0.3 -0.54,13.18 58.27,0.6 z"
                 id="path898" />
              <path
                 fill="#ffffff"
                 d="m 432.86,1066.41 -14.06,0.34 0.21,-13.24 13.14,0.61 z m 16.71,32.5 -14.06,0.34 0.21,-13.24 13.14,0.61 z m 0.25,-31.58 -13.69,-0.56 -0.68,-12.92 h 14.06 z m -15.38,48.28 -13.69,-0.56 -0.68,-12.91 h 14.06 z m -0.74,-32.48 -13.69,-0.56 -0.68,-12.92 h 14.07 z m 16.71,0 H 436.9 l -0.68,-12.98 13.38,-0.23 z m -16.27,16.1 h -13.5 l -0.68,-12.97 13.38,-0.23 z m 17.08,16.25 -14.37,0.47 0.4,-13.68 h 13.17 z"
                 id="path900" />
            </g>
            <g
               id="g910">
              <path
                 fill="#ebecf0"
                 d="m 571.43,1253.27 -49.96,1.96 -0.95,-79.71 48.94,1.11 z"
                 id="path904" />
              <path
                 fill="#ebecf0"
                 d="m 575.1,1251.79 -57.42,-0.31 -0.54,13.19 58.27,0.59 z"
                 id="path906" />
              <path
                 fill="#ffffff"
                 d="m 545.01,1196.59 -14.06,0.34 0.21,-13.25 13.14,0.62 z m 16.71,32.5 -14.06,0.34 0.21,-13.24 13.14,0.61 z m 0.25,-31.59 -13.69,-0.56 -0.68,-12.91 h 14.06 z m -15.39,48.29 -13.69,-0.56 -0.67,-12.92 h 14.06 z m -0.73,-32.48 -13.69,-0.56 -0.68,-12.92 h 14.07 z m 16.71,0 h -13.51 l -0.68,-12.98 13.38,-0.23 z m -16.27,16.1 h -13.5 l -0.68,-12.98 13.38,-0.22 z m 17.08,16.24 -14.37,0.48 0.39,-13.68 h 13.18 z"
                 id="path908" />
            </g>
            <g
               id="g918">
              <path
                 fill="#ebecf0"
                 d="m 459.28,1253.27 -49.96,1.96 -0.95,-79.71 48.94,1.11 z"
                 id="path912" />
              <path
                 fill="#ebecf0"
                 d="m 462.95,1251.79 -57.42,-0.31 -0.54,13.19 58.27,0.59 z"
                 id="path914" />
              <path
                 fill="#ffffff"
                 d="m 432.86,1196.59 -14.06,0.34 0.21,-13.25 13.14,0.62 z m 16.71,32.5 -14.06,0.34 0.21,-13.24 13.14,0.61 z m 0.25,-31.59 -13.69,-0.56 -0.68,-12.91 h 14.06 z m -15.38,48.29 -13.69,-0.56 -0.68,-12.92 h 14.06 z m -0.74,-32.48 -13.69,-0.56 -0.68,-12.92 h 14.07 z m 16.71,0 H 436.9 l -0.68,-12.98 13.38,-0.23 z m -16.27,16.1 h -13.5 l -0.68,-12.98 13.38,-0.22 z m 17.08,16.24 -14.37,0.48 0.4,-13.68 h 13.17 z"
                 id="path916" />
            </g>
            <g
               id="g926">
              <path
                 fill="#ebecf0"
                 d="m 1245.36,1126.52 49.97,1.94 0.7,-78.84 -48.94,1.1 z"
                 id="path920" />
              <path
                 fill="#dfe0e7"
                 d="m 1241.69,1125.06 57.42,-0.3 0.58,13.04 -58.27,0.59 z"
                 id="path922" />
              <path
                 fill="#ffffff"
                 d="m 1271.61,1070.46 14.06,0.34 -0.25,-13.1 -13.14,0.6 z m -16.61,32.15 14.06,0.34 -0.25,-13.1 -13.15,0.6 z m -0.35,-31.25 13.69,-0.55 0.64,-12.77 h -14.07 z m 15.53,47.76 13.69,-0.55 0.64,-12.77 h -14.06 z m 0.64,-32.13 13.69,-0.55 0.63,-12.77 h -14.06 z m -16.71,0 h 13.51 l 0.64,-12.83 -13.39,-0.23 z m 16.32,15.94 h 13.5 l 0.64,-12.84 -13.38,-0.23 z m -17.03,16.06 14.37,0.47 -0.44,-13.53 h -13.17 z"
                 id="path924" />
            </g>
            <g
               id="g934">
              <path
                 fill="#ebecf0"
                 d="m 1353.8,1126.52 49.96,1.94 0.7,-78.84 -48.94,1.1 z"
                 id="path928" />
              <path
                 fill="#dfe0e7"
                 d="m 1350.12,1125.06 57.42,-0.3 0.58,13.04 -58.26,0.59 z"
                 id="path930" />
              <path
                 fill="#ffffff"
                 d="m 1380.04,1070.46 14.06,0.34 -0.25,-13.1 -13.14,0.6 z m -16.61,32.15 14.06,0.34 -0.25,-13.1 -13.14,0.6 z m -0.34,-31.25 13.68,-0.55 0.64,-12.77 h -14.06 z m 15.53,47.76 13.69,-0.55 0.63,-12.77 h -14.06 z m 0.63,-32.13 13.69,-0.55 0.64,-12.77 h -14.07 z m -16.7,0 h 13.5 l 0.64,-12.83 -13.38,-0.23 z m 16.31,15.94 h 13.5 l 0.65,-12.84 -13.39,-0.23 z m -17.03,16.06 14.37,0.47 -0.43,-13.53 h -13.18 z"
                 id="path932" />
            </g>
            <g
               id="g942">
              <path
                 fill="#ebecf0"
                 d="m 1245.36,1243.57 49.97,1.94 0.7,-78.84 -48.94,1.1 z"
                 id="path936" />
              <path
                 fill="#ebecf0"
                 d="m 1241.69,1242.1 57.42,-0.3 0.58,13.04 -58.27,0.59 z"
                 id="path938" />
              <path
                 fill="#ffffff"
                 d="m 1271.61,1187.5 14.06,0.34 -0.25,-13.1 -13.14,0.61 z m -16.61,32.15 14.06,0.34 -0.25,-13.1 -13.15,0.6 z m -0.35,-31.24 13.69,-0.55 0.64,-12.78 h -14.07 z m 15.53,47.76 13.69,-0.55 0.64,-12.78 h -14.06 z m 0.64,-32.13 13.69,-0.55 0.63,-12.78 h -14.06 z m -16.71,0 h 13.51 l 0.64,-12.84 -13.39,-0.22 z m 16.32,15.93 h 13.5 l 0.64,-12.84 -13.38,-0.22 z m -17.03,16.07 14.37,0.47 -0.44,-13.54 h -13.17 z"
                 id="path940" />
            </g>
            <g
               id="g950">
              <path
                 fill="#ebecf0"
                 d="m 1353.8,1243.57 49.96,1.94 0.7,-78.84 -48.94,1.1 z"
                 id="path944" />
              <path
                 fill="#ebecf0"
                 d="m 1350.12,1242.1 57.42,-0.3 0.58,13.04 -58.26,0.59 z"
                 id="path946" />
              <path
                 fill="#ffffff"
                 d="m 1380.04,1187.5 14.06,0.34 -0.25,-13.1 -13.14,0.61 z m -16.61,32.15 14.06,0.34 -0.25,-13.1 -13.14,0.6 z m -0.34,-31.24 13.68,-0.55 0.64,-12.78 h -14.06 z m 15.53,47.76 13.69,-0.55 0.63,-12.78 h -14.06 z m 0.63,-32.13 13.69,-0.55 0.64,-12.78 h -14.07 z m -16.7,0 h 13.5 l 0.64,-12.84 -13.38,-0.22 z m 16.31,15.93 h 13.5 l 0.65,-12.84 -13.39,-0.22 z m -17.03,16.07 14.37,0.47 -0.43,-13.54 h -13.18 z"
                 id="path948" />
            </g>
            <path
               fill="#e1e2e8"
               d="m 625,952.45 2.25,9.76 286.88,-6.38 289.99,16.75 1.39,-7.56 -290.26,-21.39 z"
               id="path952" />
            <path
               fill="#ebecf0"
               d="m 612.17,884.72 2.7,12.95 299.26,-25.36 301.68,33.44 1.51,-8.65 -325.13,-68.67 z"
               id="path954" />
            <path
               fill="#f5f5f7"
               d="m 571.64,902.93 319,-89.39 356.14,101 -42.89,55.03 -297.4,-16.57 -279.81,4.38 z"
               id="path956" />
            <path
               fill="#ffffff"
               d="M 626.12,917.24 888.83,842.48 1193.45,931.11 855.29,914.8 Z"
               id="path958" />
            <path
               fill="#ebecf0"
               d="m 888.83,850.09 273.23,79.51 31.39,1.51 -304.62,-88.63 -262.71,74.76 27.81,-0.3 z"
               id="path960" />
            <path
               d="m 631.44,1007.72 a 6.82,6.82 0 0 1 -3.88,-1.23 4.86,4.86 0 0 1 -2.09,-3.25 5.47,5.47 0 0 1 1.23,-4.1 4.55,4.55 0 0 1 3.19,-1.77 5.09,5.09 0 0 1 3.59,1.28 3.49,3.49 0 0 1 1.22,2.46 3.61,3.61 0 0 1 -3,3.67 3.52,3.52 0 0 1 -3.7,-2.69 0.61,0.61 0 0 1 0.43,-0.74 0.6,0.6 0 0 1 0.74,0.43 2.3,2.3 0 0 0 2.39,1.78 2.39,2.39 0 0 0 1.9,-2.42 2.29,2.29 0 0 0 -0.82,-1.59 3.81,3.81 0 0 0 -2.69,-1 3.35,3.35 0 0 0 -2.33,1.32 4.3,4.3 0 0 0 -1,3.16 3.65,3.65 0 0 0 1.59,2.43 5.16,5.16 0 0 0 8.17,-4.94 0.61165758,0.61165758 0 0 1 1.22,-0.09 6.71,6.71 0 0 1 -5.06,7.14 5.9,5.9 0 0 1 -1.1,0.15 z m 37.38,-11.17 a 6.82,6.82 0 0 1 3.92,1.1 4.86,4.86 0 0 1 2.2,3.18 5.47,5.47 0 0 1 -1.09,4.14 4.55,4.55 0 0 1 -3.13,1.88 5.09,5.09 0 0 1 -3.63,-1.16 3.49,3.49 0 0 1 -1.3,-2.42 3.61,3.61 0 0 1 2.86,-3.77 3.52,3.52 0 0 1 3.79,2.56 0.61,0.61 0 0 1 -0.41,0.76 0.6,0.6 0 0 1 -0.76,-0.41 2.3,2.3 0 0 0 -2.45,-1.7 2.39,2.39 0 0 0 -1.81,2.48 2.29,2.29 0 0 0 0.87,1.56 3.81,3.81 0 0 0 2.72,0.88 3.35,3.35 0 0 0 2.29,-1.4 4.3,4.3 0 0 0 0.86,-3.19 3.65,3.65 0 0 0 -1.67,-2.38 5.16,5.16 0 0 0 -8,5.21 0.61,0.61 0 1 1 -1.21,0.13 6.71,6.71 0 0 1 4.82,-7.31 5.9,5.9 0 0 1 1.13,-0.14 z"
               fill="#d7d8e1"
               id="path962" />
            <path
               fill="#f5f5f7"
               d="m 1436.19,1007.71 -94.02,-0.82 1.43,-16.95 91.46,1.15 z m -116.82,-3.16 h -89.14 l 0.91,-16.85 88.23,2.22 z"
               id="path964" />
            <g
               id="g972">
              <path
                 fill="#ebecf0"
                 d="m 880.4,1122.22 40.86,1.91 -0.7,-77.45 -39.97,1.08 z"
                 id="path966" />
              <path
                 d="m 868.34,1037.32 v 103.23 h 60.92 l 0.87,-104.9 z m 3.45,99.32 1.21,-95.54 53.91,-1.79 -0.34,97.17 z"
                 fill="#ebecf0"
                 id="path968" />
              <path
                 fill="#ffffff"
                 d="m 902.38,1064.52 15.36,0.38 -0.55,-14.72 -14.34,0.68 z m -18.85,36.13 15.36,0.38 -0.55,-14.72 -14.34,0.68 z m 0.35,-35.11 14.94,-0.62 0.42,-14.36 h -15.36 z m 17.99,53.67 14.94,-0.62 0.42,-14.36 h -15.36 z m 0,-36.11 14.94,-0.62 0.42,-14.35 h -15.36 z m -18.24,0 h 14.75 l 0.42,-14.42 -14.62,-0.26 z m 18.16,17.91 h 14.74 l 0.43,-14.43 -14.62,-0.25 z m -18.26,18.05 15.71,0.53 -0.77,-15.21 h -14.38 z"
                 id="path970" />
            </g>
            <g
               id="g984">
              <path
                 fill="#ebecf0"
                 d="m 880.4,1302.66 40.86,1.91 -0.7,-77.45 -39.97,1.08 z"
                 id="path974" />
              <path
                 d="M 861.19,1217.76 V 1321 h 75 l 1.07,-104.9 z m 4.24,99.32 1.46,-95.54 66.39,-1.79 -0.42,97.17 z"
                 fill="#ebecf0"
                 id="path976" />
              <path
                 fill="#ffffff"
                 d="m 902.38,1244.96 15.36,0.38 -0.55,-14.72 -14.34,0.68 z m -18.85,36.12 15.36,0.39 -0.55,-14.73 -14.34,0.68 z m 0.35,-35.1 14.94,-0.62 0.42,-14.36 h -15.36 z m 17.99,53.67 14.94,-0.62 0.42,-14.36 h -15.36 z m 0,-36.11 14.94,-0.62 0.42,-14.36 h -15.36 z m -18.24,0 h 14.75 l 0.42,-14.42 -14.62,-0.26 z m 18.16,17.9 h 14.74 l 0.43,-14.42 -14.62,-0.25 z m -18.26,18.06 15.71,0.53 -0.77,-15.21 h -14.38 z"
                 id="path978" />
              <path
                 d="m 865.05,1211.83 a 34.19,34.19 0 0 1 68.37,0 m -63.07,0 a 28.89,28.89 0 0 1 57.78,0"
                 fill="none"
                 stroke="#ebecf0"
                 stroke-miterlimit="10"
                 stroke-width="3"
                 id="path980" />
              <path
                 fill="none"
                 stroke="#ebecf0"
                 stroke-miterlimit="10"
                 stroke-width="3"
                 d="m 937.29,1218.22 -77.29,1.53 v -9.05 h 77.29 z"
                 id="path982" />
            </g>
            <g
               id="g992">
              <path
                 fill="#ebecf0"
                 d="m 1031.16,1125.1 -40.85,1.91 0.7,-77.45 39.96,1.08 z"
                 id="path986" />
              <path
                 d="m 981.43,1038.52 0.87,104.9 h 60.92 V 1040.2 Z m 3.57,100.83 -0.34,-97.17 53.91,1.79 1.19,95.54 z"
                 fill="#ebecf0"
                 id="path988" />
              <path
                 fill="#ffffff"
                 d="m 1009.19,1067.4 -15.36,0.38 0.55,-14.72 14.34,0.67 z m 18.84,36.12 -15.36,0.38 0.56,-14.72 14.34,0.68 z m -0.35,-35.11 -14.93,-0.61 -0.42,-14.36 h 15.35 z m -17.98,53.67 -14.94,-0.62 -0.42,-14.35 h 15.36 z m 0,-36.1 -14.94,-0.62 -0.42,-14.36 h 15.36 z m 18.24,0 h -14.75 l -0.42,-14.43 14.62,-0.25 z m -18.16,17.9 h -14.75 l -0.42,-14.42 14.62,-0.26 z m 18.25,18.05 -15.7,0.53 0.76,-15.2 h 14.39 z"
                 id="path990" />
            </g>
            <g
               id="g1000">
              <path
                 fill="#ebecf0"
                 d="m 821.43,1056.85 -40.85,-1.91 0.7,77.45 39.96,-1.08 z"
                 id="path994" />
              <path
                 d="m 833.49,1141.75 v -103.23 h -60.92 l -0.87,104.9 z m -3.49,-99.32 -1.14,95.57 -53.91,1.79 0.34,-97.17 z"
                 fill="#ebecf0"
                 id="path996" />
              <path
                 fill="#ffffff"
                 d="m 799.46,1114.55 -15.36,-0.38 0.55,14.72 14.34,-0.68 z m 18.84,-36.12 -15.35,-0.38 0.55,14.72 14.34,-0.68 z m -0.34,35.1 -14.94,0.62 -0.42,14.36 h 15.36 z m -17.99,-53.66 -14.94,0.61 -0.42,14.36 h 15.36 z m 0,36.1 -14.94,0.62 -0.42,14.36 h 15.36 z m 18.24,0 h -14.75 l -0.42,14.42 14.62,0.26 z m -18.16,-17.9 H 785.3 l -0.42,14.42 14.62,0.25 z m 18.25,-18.06 -15.7,-0.53 0.77,15.21 h 14.38 z"
                 id="path998" />
            </g>
            <g
               id="g1008">
              <path
                 fill="#ebecf0"
                 d="m 1031.16,1254.11 -40.85,1.91 0.7,-77.45 39.96,1.08 z"
                 id="path1002" />
              <path
                 d="m 981.43,1167.54 0.87,104.9 h 60.92 v -103.23 z m 3.57,100.83 -0.34,-97.17 53.91,1.79 1.19,95.54 z"
                 fill="#ebecf0"
                 id="path1004" />
              <path
                 fill="#ffffff"
                 d="m 1009.19,1196.41 -15.36,0.38 0.55,-14.72 14.34,0.68 z m 18.84,36.13 -15.36,0.38 0.56,-14.72 14.34,0.68 z m -0.35,-35.11 -14.93,-0.62 -0.42,-14.36 h 15.35 z m -17.98,53.67 -14.94,-0.62 -0.42,-14.36 h 15.36 z m 0,-36.11 -14.94,-0.61 -0.42,-14.36 h 15.36 z m 18.24,0 h -14.75 l -0.42,-14.42 14.62,-0.25 z m -18.16,17.91 h -14.75 l -0.42,-14.43 14.62,-0.25 z m 18.25,18.05 -15.7,0.53 0.76,-15.21 h 14.39 z"
                 id="path1006" />
            </g>
            <g
               id="g1016">
              <path
                 fill="#ebecf0"
                 d="m 821.43,1185.87 -40.85,-1.91 0.7,77.45 39.96,-1.08 z"
                 id="path1010" />
              <path
                 d="m 833.49,1270.77 v -103.23 h -60.92 l -0.87,104.9 z m -3.49,-99.33 -1.14,95.56 -53.91,1.79 0.34,-97.17 z"
                 fill="#ebecf0"
                 id="path1012" />
              <path
                 fill="#ffffff"
                 d="m 799.46,1243.57 -15.36,-0.38 0.55,14.72 14.34,-0.68 z m 18.84,-36.13 -15.35,-0.38 0.55,14.72 14.34,-0.68 z m -0.34,35.11 -14.94,0.62 -0.42,14.36 h 15.36 z m -17.99,-53.67 -14.94,0.62 -0.42,14.36 h 15.36 z m 0,36.11 -14.94,0.62 -0.42,14.35 h 15.36 z m 18.24,0 h -14.75 l -0.42,14.42 14.62,0.25 z m -18.16,-17.91 H 785.3 l -0.42,14.43 14.62,0.25 z m 18.25,-18.05 -15.7,-0.53 0.77,15.21 h 14.38 z"
                 id="path1014" />
            </g>
            <path
               d="m 836,1002 c -0.3,-4.54 -4.55,-7.62 -10.26,-7.62 h -35.61 c -10.17,-0.45 -12.93,6.24 -12.63,10.78 0.3,4.54 4.68,8.83 10.39,8.83 a 12.65,12.65 0 0 0 5.7,-1.33 l 4.3,273.71 h -3.23 l 2,31.28 h 44.13 l -3.76,-31.28 H 827 l -5.42,-274 c 1.79,1 4.31,2.19 6.62,1.9 7.13,-0.84 8.14,-7.69 7.8,-12.27 z"
               fill="#f3f3f6"
               id="path1018" />
            <path
               d="m 788.48,1010 a 6.82,6.82 0 0 1 -3.88,-1.23 4.86,4.86 0 0 1 -2.09,-3.25 5.47,5.47 0 0 1 1.23,-4.1 4.55,4.55 0 0 1 3.19,-1.77 5.09,5.09 0 0 1 3.59,1.28 3.49,3.49 0 0 1 1.22,2.46 3.61,3.61 0 0 1 -3,3.67 3.52,3.52 0 0 1 -3.7,-2.69 0.61,0.61 0 0 1 0.43,-0.74 0.6,0.6 0 0 1 0.74,0.43 2.3,2.3 0 0 0 2.39,1.78 2.39,2.39 0 0 0 1.9,-2.42 2.29,2.29 0 0 0 -0.82,-1.59 3.81,3.81 0 0 0 -2.69,-1 3.35,3.35 0 0 0 -2.33,1.32 4.3,4.3 0 0 0 -1,3.16 3.65,3.65 0 0 0 1.59,2.43 5.16,5.16 0 0 0 8.17,-4.94 0.61165758,0.61165758 0 1 1 1.22,-0.09 6.71,6.71 0 0 1 -5.06,7.14 5.9,5.9 0 0 1 -1.1,0.15 z m 37.39,-11.21 a 6.82,6.82 0 0 1 3.92,1.1 4.86,4.86 0 0 1 2.2,3.18 5.47,5.47 0 0 1 -1.09,4.14 4.55,4.55 0 0 1 -3.13,1.88 5.09,5.09 0 0 1 -3.63,-1.16 3.49,3.49 0 0 1 -1.3,-2.42 3.61,3.61 0 0 1 2.86,-3.77 3.52,3.52 0 0 1 3.79,2.56 0.61,0.61 0 0 1 -0.41,0.76 0.6,0.6 0 0 1 -0.76,-0.41 2.3,2.3 0 0 0 -2.45,-1.7 2.39,2.39 0 0 0 -1.81,2.48 2.29,2.29 0 0 0 0.87,1.56 3.81,3.81 0 0 0 2.72,0.88 3.35,3.35 0 0 0 2.29,-1.4 4.3,4.3 0 0 0 0.86,-3.19 3.65,3.65 0 0 0 -1.67,-2.38 5.16,5.16 0 0 0 -8,5.21 0.61,0.61 0 1 1 -1.21,0.13 6.71,6.71 0 0 1 4.82,-7.31 5.9,5.9 0 0 1 1.13,-0.14 z"
               fill="#d7d8e1"
               id="path1020" />
            <path
               d="m 976.86,1003.8 c 0.53,-4.51 4.95,-7.37 10.65,-7.07 0.58,0 39.28,0.67 39.86,0.7 5.7,0.3 9.39,6.2 8.85,10.72 -0.54,4.52 -5.14,8.57 -10.83,8.27 a 12.65,12.65 0 0 1 -5.62,-1.62 l -8.7,273.83 3.22,0.17 -3.68,31.13 -19.81,-1 -24.26,-1.28 5.4,-31 10,0.53 9.82,-274 c -1.85,0.94 -3.9,2 -6.19,1.55 -7.01,-1.41 -9.25,-6.42 -8.71,-10.93 z"
               fill="#f3f3f6"
               id="path1022" />
            <path
               d="m 1026.41,1012.94 a 6.82,6.82 0 0 0 3.94,-1 4.86,4.86 0 0 0 2.26,-3.14 5.47,5.47 0 0 0 -1,-4.16 4.55,4.55 0 0 0 -3.1,-1.94 5.09,5.09 0 0 0 -3.66,1.09 3.49,3.49 0 0 0 -1.35,2.39 3.61,3.61 0 0 0 2.78,3.82 3.52,3.52 0 0 0 3.84,-2.49 0.61,0.61 0 0 0 -0.39,-0.77 0.6,0.6 0 0 0 -0.77,0.39 2.3,2.3 0 0 1 -2.48,1.66 2.39,2.39 0 0 1 -1.77,-2.52 2.29,2.29 0 0 1 0.9,-1.54 3.88,3.88 0 0 1 2.78,-0.78 3.21,3.21 0 0 1 2.22,1.4 4.3,4.3 0 0 1 0.8,3.21 3.65,3.65 0 0 1 -1.71,2.34 5.16,5.16 0 0 1 -7.9,-5.37 0.61,0.61 0 1 0 -1.21,-0.15 6.71,6.71 0 0 0 4.68,7.4 5.9,5.9 0 0 0 1.14,0.16 z m -36.74,-13.13 a 6.82,6.82 0 0 0 -4,0.89 4.86,4.86 0 0 0 -2.36,3.06 5.47,5.47 0 0 0 0.87,4.19 4.55,4.55 0 0 0 3,2 5.09,5.09 0 0 0 3.69,-1 3.49,3.49 0 0 0 1.43,-2.34 3.61,3.61 0 0 0 -2.66,-3.91 3.52,3.52 0 0 0 -3.92,2.36 0.61,0.61 0 0 0 0.37,0.78 0.6,0.6 0 0 0 0.78,-0.37 2.3,2.3 0 0 1 2.53,-1.57 2.39,2.39 0 0 1 1.68,2.58 2.29,2.29 0 0 1 -1,1.51 3.81,3.81 0 0 1 -2.76,0.74 3.35,3.35 0 0 1 -2.21,-1.52 4.3,4.3 0 0 1 -0.69,-3.23 3.65,3.65 0 0 1 1.79,-2.29 5.16,5.16 0 0 1 7.72,5.62 0.61,0.61 0 1 0 1.2,0.19 6.71,6.71 0 0 0 -4.43,-7.55 5.9,5.9 0 0 0 -1.03,-0.14 z"
               fill="#d7d8e1"
               id="path1024" />
            <path
               d="m 1147.5,1006.38 c 0.42,-4.53 4.77,-7.48 10.47,-7.32 l 39.55,0.78 c 5.7,0.16 9.53,6 9.11,10.5 -0.42,4.5 -4.93,8.69 -10.63,8.53 a 12.65,12.65 0 0 1 -5.66,-1.49 l 4.81,276.75 3.23,0.09 3.28,31.21 -26,-0.56 -33,-1.15 2.93,-31.21 10.05,0.28 6.69,-276.47 c -1.82,1 -4.37,2.07 -6.67,1.71 -7.07,-1.11 -8.58,-7.12 -8.16,-11.65 z"
               fill="#f3f3f6"
               id="path1026" />
            <path
               d="m 1195.9,1014.87 a 6.82,6.82 0 0 0 3.92,-1.12 4.86,4.86 0 0 0 2.18,-3.19 5.47,5.47 0 0 0 -1.11,-4.13 4.55,4.55 0 0 0 -3.14,-1.86 5.09,5.09 0 0 0 -3.63,1.18 3.49,3.49 0 0 0 -1.29,2.42 3.61,3.61 0 0 0 2.88,3.76 3.52,3.52 0 0 0 3.78,-2.58 0.61,0.61 0 0 0 -0.41,-0.76 0.6,0.6 0 0 0 -0.76,0.41 2.3,2.3 0 0 1 -2.44,1.71 2.39,2.39 0 0 1 -1.83,-2.48 2.29,2.29 0 0 1 0.87,-1.57 3.81,3.81 0 0 1 2.72,-0.89 3.35,3.35 0 0 1 2.29,1.39 4.43,4.43 0 0 1 0.92,3.23 3.6,3.6 0 0 1 -1.7,2.34 5.16,5.16 0 0 1 -8,-5.17 0.61,0.61 0 1 0 -1.21,-0.12 6.71,6.71 0 0 0 4.86,7.28 5.9,5.9 0 0 0 1.1,0.15 z m -38.25,-11.95 a 6.82,6.82 0 0 0 -4,1 4.86,4.86 0 0 0 -2.29,3.12 5.47,5.47 0 0 0 1,4.17 4.55,4.55 0 0 0 3.08,2 5.09,5.09 0 0 0 3.67,-1.06 3.49,3.49 0 0 0 1.37,-2.38 3.61,3.61 0 0 0 -2.75,-3.85 3.52,3.52 0 0 0 -3.86,2.45 0.61,0.61 0 0 0 0.39,0.77 0.6,0.6 0 0 0 0.77,-0.39 2.3,2.3 0 0 1 2.5,-1.63 2.39,2.39 0 0 1 1.74,2.53 2.29,2.29 0 0 1 -0.92,1.54 3.81,3.81 0 0 1 -2.74,0.8 3.35,3.35 0 0 1 -2.25,-1.46 4.3,4.3 0 0 1 -0.77,-3.22 3.65,3.65 0 0 1 1.73,-2.33 5.49,5.49 0 0 1 4.14,-0.67 5.55,5.55 0 0 1 3.76,6.14 0.54,0.54 0 0 0 0.48,0.64 0.62,0.62 0 0 0 0.69,-0.52 6.71,6.71 0 0 0 -4.62,-7.44 5.9,5.9 0 0 0 -1.12,-0.21 z"
               fill="#d7d8e1"
               id="path1028" />
            <ellipse
               cx="900.83002"
               cy="1003.62"
               rx="9.2299995"
               ry="2.9300001"
               fill="#cccfd9"
               id="ellipse1030" />
            <path
               d="M 899.24,1004.23 897,1203.84 h 2.3 l 3,-199.81 a 2.29,2.29 0 0 0 -1.55,-0.71 2,2 0 0 0 -1.51,0.91 z"
               fill="#cccfd9"
               id="path1032" />
          </g>
          <path
             fill="#f3f3f6"
             d="m 887.15,1176.07 h 22.6 v 30.28 h -22.6 z"
             id="path1036" />
          <path
             d="m 727.69,1010.61 c 0,0 77.61,165.31 172.48,165.31 94.87,0 183.69,-165.31 183.69,-165.31"
             fill="none"
             stroke="#cccfd9"
             stroke-miterlimit="10"
             id="path1038" />
          <path
             d="m 727.69,1004 c 0,0 77.61,153 172.47,153 94.86,0 183.69,-153 183.69,-153"
             fill="none"
             stroke="#cccfd9"
             stroke-miterlimit="10"
             id="path1040" />
          <path
             fill="#2f251b"
             d="M 885.28,1205 H 911 v 2.7 h -25.72 z m 0,-3.76 H 911 v 0.88 h -25.72 z m 0,-27.14 H 911 v 1.97 h -25.72 z"
             id="path1042" />
          <path
             fill="#2f251b"
             d="m 904.36,1175.09 h 1.35 v 31.26 h -1.35 z m -12.76,0 h 1.35 v 31.26 h -1.35 z"
             id="path1044" />
          <path
             d="m 910.58,1176.07 c 0,5 -5.55,4 -5.55,4 -5.44,0 -6.9,-4 -6.9,-4 0,4.15 -5.18,4 -5.18,4 -1.87,0 -5.81,-0.93 -5.81,-4"
             fill="none"
             stroke="#2f251b"
             stroke-linecap="round"
             stroke-linejoin="round"
             id="path1046" />
          <path
             fill="#2f251b"
             d="m 904.76,1174.44 -1.71,-2.73 2.38,-4.35 1.59,4.2 -1.25,2.88 m -13.76,0 -1.71,-2.73 2.38,-4.35 1.58,4.2 -1.24,2.88 m 2.66,-20.66 h 6.09 v 6.09 h -6.09 z"
             id="path1048" />
          <path
             d="m 900.08,1159.27 c 0,0 1.56,0 1.56,2.33 v 8.94 c 0,0 -0.62,4.54 2.72,4.54 m -7.13,-15.81 c 0,0 -1.56,0 -1.56,2.33 v 8.94 c 0,0 0.62,4.54 -2.72,4.54 m 5.77,-15.81 v 15.82"
             fill="none"
             stroke="#2f251b"
             stroke-miterlimit="10"
             id="path1050" />
        </g>
        <g
           id="hp-flag-pole">
          <path
             d="m 892.76,547.5 0.52,-0.36"
             fill="#ffffff"
             id="path1053" />
          <g
             id="hp-flag">
            <path
               d="m 856.06,500 -36.24,-52.92 c 11.77,-8.06 14.55,-13.58 14.65,-14.62 a 38.81,38.81 0 0 0 -0.47,-5 c -1,-7.77 -2.51,-19.52 2.72,-34.1 5,-13.83 14.25,-25.57 27.63,-34.89 L 901,411.16 c -2.84,2 -3.66,3.35 -3.87,3.78 0,0.88 -0.18,-0.64 0,0.88 0.61,4.78 -14.18,11.48 -14.94,19.39 -11.31,20.45 -0.31,47.11 -26.13,64.79 z"
               fill="#e94b59"
               id="path1055" />
            <path
               d="m 856.06,500 -36.24,-52.92 c 11.77,-8.06 14.55,-13.58 14.65,-14.62 a 38.81,38.81 0 0 0 -0.47,-5 c -1,-7.77 -2.51,-19.52 2.72,-34.1 5,-13.83 14.25,-25.57 27.63,-34.89 L 901,411.16 c -2.84,2 -3.66,3.35 -3.87,3.78 0,0.88 -0.18,-0.64 0,0.88 0.61,4.78 -14.18,11.48 -14.94,19.39 -11.31,20.45 -0.31,47.11 -26.13,64.79 z"
               fill="#e23c52"
               id="path1057"
               style="fill:#ffffff;fill-opacity:1" />
            <g
               opacity="0.9"
               fill="#ffffff"
               id="g1071" />
          </g>
          <path
             d="m 851.67,533.37 c 0.35,-0.31 7.43,-1.93 6.15,3.38 -1.24,5.11 -6.92,3.65 -8.13,3.77 -1.21,0.12 1.98,-7.15 1.98,-7.15 z"
             fill="#f3c7ad"
             id="path1074" />
          <path
             d="m 894.28,701.33 -1.12,0.54 c 0,0 -11.08,-24.71 -16.65,-36.39 -5.57,-11.68 -0.82,-17.41 0.49,-18.3 7.46,-1.12 19.78,18 19.78,18 z"
             fill="#41393c"
             id="path1076" />
          <path
             d="m 866,540.13 c -1.21,-0.56 -6.79,-2.78 -6.79,-2.78 l -4.38,24.27 3.45,2.28 z"
             fill="#fdfbee"
             id="path1078" />
          <path
             fill="#413946"
             d="m 850.95,581.94 42.76,7.9 61.98,4.28 -9.09,-32.6 -29.76,-4.88 -51.3,-20.85 z"
             id="path1080" />
          <path
             d="m 892.71,793.68 h -4.09 c 7.33,-118.5 -20.35,-201.16 -38.72,-257.58 -19.85,-61 -55.82,-92.17 -56,-92.5 l 23.35,-6 c 0.91,1.38 28.22,33.69 48.37,95.6 18.52,56.96 34.49,140.91 27.09,260.48 z"
             fill="#fdfdfd"
             id="path1082"
             style="fill:#ebecf0;fill-opacity:1" />
          <path
             d="m 896.78,665.17 49.8,-9.76 42,8.23 c 0,0 -18.51,54 -22.09,52.59 C 962.91,714.82 892,705.06 892,705.06 Z"
             fill="#39303e"
             id="path1084" />
          <path
             fill="#3d3442"
             d="m 1066.22,676.72 -129.45,100.23 -22.66,-38.69 55.1,-74.74 1.78,-4.77 78.39,-13.39 z"
             id="path1086" />
          <path
             fill="#3b323e"
             d="m 1018.98,661.82 -99.32,83.14 -5.55,-6.7 55.1,-74.74 1.78,-4.77 78.39,-13.39 z"
             id="path1088" />
          <g
             id="g1281">
            <path
               d="m 965.81,495.32 c 0,0 30.7,-10.18 33.09,2.47 0,0 9.72,51.65 10.66,56.41 0.6,3 -13.69,14.72 -13.69,14.72 0,0 -40.7,-8.44 -41.3,-11.45 -0.63,-3.18 -10.3,-50.76 -10.3,-50.76 -0.91,-4.62 21.54,-11.39 21.54,-11.39 z"
               fill="#f8bb97"
               id="path1090" />
            <path
               d="m 996.72,513.27 a 4.06,4.06 0 1 1 -4.78,-3.19 3.9,3.9 0 0 1 4.78,3.19 z"
               fill="#ffffff"
               id="path1092" />
            <path
               d="m 993.52,518 a 3.85,3.85 0 0 0 3.27,-3.62 l -7.93,0.89 a 3.87,3.87 0 0 0 4.66,2.73 z"
               fill="#e4a27e"
               id="path1094" />
            <circle
               cx="994.91998"
               cy="514.32001"
               r="0.68000001"
               transform="rotate(-11.24,994.507,514.138)"
               fill="#66596d"
               id="circle1096" />
            <path
               d="m 977.28,516.11 a 4.06,4.06 0 1 1 -5.42,-1.91 3.9,3.9 0 0 1 5.42,1.91 z"
               fill="#ffffff"
               id="path1098" />
            <path
               d="m 975.36,521.52 a 3.85,3.85 0 0 0 2.28,-4.32 l -7.46,2.8 a 3.87,3.87 0 0 0 5.18,1.52 z"
               fill="#e4a27e"
               id="path1100" />
            <circle
               cx="975.66998"
               cy="517.45001"
               r="0.68000001"
               transform="rotate(-11.24,975.268,517.272)"
               fill="#66596d"
               id="circle1102" />
            <path
               fill="#f6e284"
               d="m 977.64,511.93 1.58,3.18 -8.41,0.72 -4.62,2.07 -1.1,-0.88 4.32,-5.04 z"
               id="path1104"
               style="fill:#413946;fill-opacity:1" />
            <path
               d="m 985.66,511.93 c 0,0 5.26,17.38 5.16,19 -0.17,2.6 -2.62,2.72 -3.75,2.46 -2.07,-0.48 -2.57,-4.6 -0.59,-4.67 -0.7,-5.48 -3,-16.5 -3,-16.5 z"
               fill="#e4a27e"
               id="path1106" />
            <path
               d="m 949.63,526.76 c 0,0 -4.06,0.62 -3.66,3 0.4,2.38 4.56,10.93 4.37,12.21 -0.4,2.59 0.93,3.53 2.45,2.9 -0.52,-3.76 -3.16,-18.11 -3.16,-18.11 z"
               fill="#efb592"
               id="path1108" />
            <g
               id="hp-toupe">
              <g
                 fill="#ffe885"
                 id="g1264" />
            </g>
            <path
               d="m 965.23,539.33 a 1,1 0 0 1 -1.89,0.37 0.89,0.89 0 0 1 0.76,-1.1 1,1 0 0 1 1.13,0.73 z m 0.61,3.08 a 0.78,0.78 0 0 1 -0.67,0.81 0.68,0.68 0 1 1 -0.26,-1.31 0.79,0.79 0 0 1 0.93,0.5 z M 962,541.16 a 0.78,0.78 0 0 1 1,0.25 0.68,0.68 0 1 1 -1.06,0.81 0.79,0.79 0 0 1 0.06,-1.06 z m 5,-0.16 a 0.39,0.39 0 1 1 -0.76,0.15 0.34,0.34 0 0 1 0.3,-0.45 0.38,0.38 0 0 1 0.46,0.3 z m 34.09,-13 a 1,1 0 0 1 -1.89,0.37 0.89,0.89 0 0 1 0.76,-1.1 1,1 0 0 1 1.13,0.73 z m 0.56,3.21 a 0.78,0.78 0 0 1 -0.67,0.81 0.68,0.68 0 1 1 -0.26,-1.31 0.79,0.79 0 0 1 0.93,0.5 z m -3.84,-1.33 a 0.78,0.78 0 0 1 1,0.25 0.68,0.68 0 1 1 -1.06,0.81 0.79,0.79 0 0 1 0.06,-1.06 z m 4.95,-0.12 a 0.39,0.39 0 0 1 -0.76,0.15 0.34,0.34 0 0 1 0.3,-0.45 0.38,0.38 0 0 1 0.46,0.3 z"
               fill="#efb592"
               id="path1267" />
            <path
               d="m 947.17,500.55 c -11.59,5.21 -1.25,28.56 2.83,27 -1.36,-5.26 7.63,-27.15 -2.83,-27 z m 23.52,13.08 7.61,-0.37 -0.66,-1.33 -8.23,0.05 -4.32,5.04 0.61,0.48 z"
               fill="#ffe885"
               id="path1269"
               style="fill:#413946;fill-opacity:1" />
            <path
               fill="#f6e284"
               d="m 987.4,509.99 -0.25,3.54 8.05,-2.55 5.06,0.15 0.68,-1.23 -5.92,-3.01 z"
               id="path1271"
               style="fill:#413946;fill-opacity:1" />
            <path
               fill="#ffe885"
               d="m 994.47,508.9 -7.17,2.57 0.1,-1.48 7.62,-3.1 5.92,3.01 -0.37,0.68 z"
               id="path1273"
               style="fill:#413946;fill-opacity:1" />
            <path
               d="m 982,541.38 c 0,0 9,-3.24 12,-2.74 1.89,4.7 3.32,10.65 -3.71,10.8 -7.35,0.15 -8.29,-8.06 -8.29,-8.06 z"
               fill="#a84751"
               id="path1275" />
            <path
               d="m 996.93,540.58 a 18.25,18.25 0 0 0 -0.87,-2.92 c -3,-0.5 -14.1,3.72 -14.1,3.72 a 10.09,10.09 0 0 0 0.55,2.38 c 1.49,-0.52 10.49,-2.94 14.42,-3.18 z"
               fill="#ffffff"
               id="path1277" />
            <path
               fill="#f8bb97"
               d="M 965.81,495.32"
               id="path1279" />
            <path
               d="m 947.17,500.55 c -11.59,5.21 -1.25,28.56 2.83,27 -1.36,-5.26 7.63,-27.15 -2.83,-27 z m 23.52,13.08 7.61,-0.37 -0.66,-1.33 -8.23,0.05 -4.32,5.04 0.61,0.48 z"
               fill="#ffe885"
               id="path4276"
               style="fill:#413946;fill-opacity:1" />
          </g>
          <path
             fill="#fdfbee"
             d="m 956.09,659.4 89.67,9.9 -30.13,-110.05 -5.58,0.13 -28.04,6.75 -28.35,-8.59 z"
             id="path1283" />
          <path
             d="M 953.33,559.21 954,558 c 0,0 14,11.94 35.69,7.52 18.51,-3.76 18.24,-10.44 18.24,-10.44 l 0.85,1.71 c 0,0 -1.75,27 -18.07,10.55 -8.18,24.39 -37.38,-8.13 -37.38,-8.13 z"
             fill="#e9e8e8"
             opacity="0.39"
             style="mix-blend-mode:multiply"
             id="path1285" />
          <path
             d="m 953.66,557.54 0.67,-1.18 c 0,0 14.89,10.88 36.62,6.46 18.51,-3.76 18.24,-10.44 18.24,-10.44 l 0.85,1.71 c 0,0 -1.75,27 -18.07,10.55 -8.17,24.36 -38.31,-7.1 -38.31,-7.1 z"
             fill="#ffffff"
             id="path1287" />
          <path
             d="m 813.73,430.15 -22.4,11.34 c 0.1,0.19 2.69,5.71 9.6,12.37 4.79,1 10.66,-0.31 15.4,-3.3 a 21.37,21.37 0 0 0 5.19,-4.62 C 817,436.31 814.17,431 813.73,430.15 Z"
             fill="#e1dfe1"
             id="path1289" />
          <path
             d="m 856.06,558.87 c 0.27,-1.23 1.76,-3.51 2.92,-6.08 q -1.58,-5.89 -3.17,-11.5 a 38.14,38.14 0 0 0 -10.67,-3.11 c 0,0 -0.28,0.4 -0.72,1.09 q 2.91,10 5.81,21 c 0.39,1.49 0.78,3 1.18,4.53 4.42,-0.74 4.24,-4.12 4.65,-5.93 z"
             fill="#c2c0c4"
             id="path1291" />
          <path
             fill="#413946"
             d="m 940.54,560.54 -27.14,101.37 46.79,13.04 13.03,-57.09 -19.56,-60.32 z m 114.1,27.42 -25.52,-29.22 -16.43,-3.11 -19.75,66.58 43.89,62.84 59.98,-41.92 z"
             id="path1293" />
          <path
             fill="#3d3442"
             d="m 945.51,557.48 -6.23,13.15 9.29,3.63 12.06,-3.63 -6.97,-13.09 z"
             id="path1295" />
          <path
             fill="#39303e"
             d="m 960.76,569.66 -17.64,6.65 29.13,41.87 1.49,-1.3 z m 45.8,-2.3 22.09,13.93 -35.71,44.26 -1.49,-1.3 z"
             id="path1297" />
          <path
             fill="#3d3442"
             d="m 1010.01,553.92 18.27,3.72 v 15.77 l -9.07,3.97 -12.76,-8.65 z"
             id="path1299" />
          <path
             d="M 874.56,738.4"
             fill="#e7e6e9"
             id="path1301" />
          <path
             d="m 892,738.4 c -3.69,-0.43 -3.87,-1.42 -6.06,0.56 -1,1.25 -2.85,2.5 3.22,13 0.43,0.74 2.77,1.28 3.58,1.95 -0.43,-6.48 -0.27,-9.21 -0.74,-15.51 z"
             fill="#e1dfe1"
             id="path1303" />
          <path
             d="m 843.11,535.07 c 0,0 -12.89,18.2 -2.08,25.87 13,3.11 12.43,-2.62 13,-5.19 0.57,-2.57 6.49,-9.79 3.5,-14.5 -2.99,-4.71 -14.42,-6.18 -14.42,-6.18 z"
             fill="#f8bb97"
             id="path1305" />
          <path
             fill="#e9e8e8"
             opacity="0.39"
             style="mix-blend-mode:multiply"
             d="m 995.94,575.99 -25.17,85.2 7.75,1.58 18.47,-87.56 z"
             id="path1307" />
          <path
             fill="#ffffff"
             d="m 993.02,576.81 -25.16,85.2 7.75,1.58 20.83,-89.33 z"
             id="path1309" />
          <path
             d="m 838.72,556.44 a 1.118034,1.118034 0 0 1 2,1 1,1 0 0 1 -1.46,0.48 1.11,1.11 0 0 1 -0.54,-1.48 z m 0.89,-10.26 a 1.118034,1.118034 0 0 1 2,1 1,1 0 0 1 -1.46,0.48 1.11,1.11 0 0 1 -0.54,-1.48 z m 4.25,3.82 c 0.37,-0.76 0.82,-1.3 2.08,-0.69 1.26,0.61 1.12,1.3 0.75,2.06 a 1.46,1.46 0 0 1 -2.08,0.69 1.58,1.58 0 0 1 -0.75,-2.06 z m -5.67,0.17 a 0.89,0.89 0 0 1 1.18,-0.28 0.78,0.78 0 1 1 -0.67,1.38 0.9,0.9 0 0 1 -0.51,-1.1 z m 4.94,7.4 a 0.89,0.89 0 0 1 -0.77,-0.94 0.78,0.78 0 1 1 1.53,0 0.9,0.9 0 0 1 -0.76,0.94 z m -4.01,-4.39 a 0.445,0.445 0 0 1 0.8,0.39 0.39,0.39 0 0 1 -0.59,0.21 0.44,0.44 0 0 1 -0.21,-0.6 z"
             fill="#efb592"
             id="path1311" />
          <ellipse
             cx="803.27002"
             cy="436.13"
             rx="19.040001"
             ry="12.77"
             transform="rotate(-32.3,803.21,436.111)"
             fill="#ebecf0"
             id="ellipse1313" />
          <path
             fill="#352c3a"
             opacity="0.3"
             d="m 1071.33,607.56 -26.43,24.94 6.83,7.25 24.58,-26.9 z"
             id="path1315" />
          <path
             d="m 1011.82,631.33 c 1,-0.82 1.89,-1.39 1.44,-1.93 -0.45,-0.54 -1.17,0.23 -2.17,1 -1,0.77 -1.77,1.46 -1.44,1.93 0.33,0.47 1.17,-0.18 2.17,-1 z m 15.79,20.94 c 1.06,-0.73 2,-1.22 1.6,-1.8 -0.4,-0.58 -1.19,0.12 -2.25,0.86 -1.06,0.74 -1.89,1.3 -1.6,1.8 0.29,0.5 1.18,-0.13 2.25,-0.86 z"
             fill="#352c3a"
             id="path1317" />
          <g
             id="g1327">
            <circle
               cx="965.03003"
               cy="626.60999"
               r="2.3099999"
               transform="rotate(-68.89,964.957,626.61)"
               fill="#352c3a"
               opacity="0.3"
               id="circle1319" />
            <circle
               cx="965.73999"
               cy="626.54999"
               r="2.3099999"
               transform="rotate(-68.89,965.672,626.553)"
               fill="#352c3a"
               id="circle1321" />
            <path
               d="m 965.53,626.55 c -0.17,0.73 -0.37,1.31 0,1.39 0.37,0.08 0.41,-0.53 0.57,-1.27 0.16,-0.74 0.3,-1.31 0,-1.39 -0.3,-0.08 -0.4,0.54 -0.57,1.27 z"
               fill="#49414e"
               id="path1323" />
            <path
               d="m 965.66,626.94 c 0.73,0.17 1.31,0.37 1.39,0 0.08,-0.37 -0.53,-0.41 -1.27,-0.57 -0.74,-0.16 -1.31,-0.3 -1.39,0 -0.08,0.3 0.54,0.4 1.27,0.57 z"
               fill="#49414e"
               id="path1325" />
          </g>
          <g
             id="g1337">
            <circle
               cx="959.95001"
               cy="645.25"
               r="2.3099999"
               transform="rotate(-46.08,959.938,645.242)"
               fill="#352c3a"
               opacity="0.3"
               id="circle1329" />
            <circle
               cx="960.63"
               cy="645.46997"
               r="2.3099999"
               transform="rotate(-46.08,960.622,645.464)"
               fill="#352c3a"
               id="circle1331" />
            <path
               d="m 960.44,645.39 c -0.44,0.61 -0.85,1.07 -0.57,1.27 0.28,0.2 0.58,-0.33 1,-0.95 0.42,-0.62 0.78,-1.09 0.57,-1.27 -0.21,-0.18 -0.56,0.34 -1,0.95 z"
               fill="#49414e"
               id="path1333" />
            <path
               d="m 960.41,645.8 c 0.61,0.44 1.07,0.85 1.27,0.57 0.2,-0.28 -0.33,-0.58 -0.95,-1 -0.62,-0.42 -1.09,-0.78 -1.27,-0.57 -0.18,0.21 0.34,0.56 0.95,1 z"
               fill="#49414e"
               id="path1335" />
          </g>
          <path
             fill="#352c3a"
             opacity="0.3"
             d="m 934.95,636.27 -18.98,-7.33 -1.71,2.79 18.52,8.93 z"
             id="path1339" />
          <path
             d="m 935,769.55 -0.91,0.85 c 0,0 -35.85,-15 -44.72,-24.39 -8.87,-9.39 -9.41,-14 -8.43,-15.24 8.43,-7.63 33.2,7.48 33.2,7.48 z"
             fill="#41393c"
             id="path1341" />
          <path
             fill="#39303e"
             d="m 1071.38,603 -26.43,24.94 6.83,7.24 24.57,-26.9 z m -132.56,31.09 -21.46,-13.18 -3.96,6.73 22.53,11.36 z"
             id="path1343" />
          <path
             d="m 984.27,558.3 c 0.18,-0.37 6.23,-4.35 13.33,-4.38 h 4.4 a 71,71 0 0 0 -10.54,2.19 c -3.58,1.25 -7.19,2.19 -7.19,2.19 z m 5.59,1.84 a 12.69,12.69 0 0 1 7.2,-2.84 9.92,9.92 0 0 1 2.38,0 32.85,32.85 0 0 0 -5.7,1.41 c -1.93,0.82 -3.88,1.43 -3.88,1.43 z"
             fill="#efb592"
             id="path1345" />
          <path
             d="m 991.92,564.64 a 11.13,11.13 0 0 1 -6.12,7.9 c -0.46,0.56 1.2,2.81 1.94,3.31 l 5.27,1 c 7.66,-1.76 7.92,-6.84 7.92,-6.84 -5.07,-1.09 -9.01,-5.37 -9.01,-5.37 z"
             fill="#e94b59"
             id="path1347" />
          <ellipse
             cx="972.48999"
             cy="659.31"
             rx="0.89999998"
             ry="1.17"
             transform="rotate(-67.4,972.505,659.315)"
             fill="#e9e8e8"
             id="ellipse1349" />
          <ellipse
             cx="977"
             cy="644.71002"
             rx="0.89999998"
             ry="1.17"
             transform="rotate(-86,973.87,643.119)"
             fill="#e9e8e8"
             id="ellipse1351" />
          <ellipse
             cx="980.78003"
             cy="628.10999"
             rx="0.69999999"
             ry="0.91000003"
             transform="rotate(-85.81,980.746,628.118)"
             fill="#e9e8e8"
             id="ellipse1353" />
          <ellipse
             cx="984.78998"
             cy="613.41998"
             rx="0.69999999"
             ry="0.91000003"
             transform="rotate(-85.81,984.751,613.43)"
             fill="#e9e8e8"
             id="ellipse1355" />
          <ellipse
             cx="988.16998"
             cy="599.15997"
             rx="0.56"
             ry="0.72000003"
             transform="rotate(-73.6,988.185,599.157)"
             fill="#e9e8e8"
             id="ellipse1357" />
          <ellipse
             cx="991.20001"
             cy="590.14001"
             rx="0.56"
             ry="0.72000003"
             transform="rotate(-73.6,991.21,590.14)"
             fill="#e9e8e8"
             id="ellipse1359" />
          <g
             id="g1537">
            <g
               id="hp-dollar"
               data-name="hp-dollar">
              <path
                 fill="#d9dec8"
                 d="m 1068.06,619.17 -1.86,11.63 28.04,5.82 2.86,-12.2 z"
                 id="path1361" />
              <ellipse
                 cx="1081.1"
                 cy="627.88"
                 rx="5.23"
                 ry="4.6999998"
                 transform="matrix(0.18,-0.98,0.98,0.18,270.88,1580.01)"
                 fill="#899a7a"
                 opacity="0.47"
                 id="ellipse1363" />
              <g
                 opacity="0.38"
                 fill="#899a7a"
                 id="g1367">
                <path
                   d="m 1075.89,630.3 -7.73,-1.09 1.05,-7.56 8,1.34 a 3.39,3.39 0 0 1 0.8,-0.78 l -9.32,-1.59 -1.31,9.29 8.87,1.48 a 1.82,1.82 0 0 1 -0.36,-1.09 z m 9.85,-6.9 a 3.37,3.37 0 0 1 0.49,1 l 8.38,1.71 -1.94,8.11 -7.1,-2.26 a 4.34,4.34 0 0 1 -1.12,1.43 l 9,2 2.41,-10.33 z"
                   id="path1365" />
              </g>
              <path
                 d="m 1091.33,629.67 a 1.28082,1.28082 0 1 1 -2.52,-0.46 1.28082,1.28082 0 1 1 2.52,0.46 z m -19.47,-4.53 a 1.2801562,1.2801562 0 0 1 1.24,2.24 1.2801562,1.2801562 0 0 1 -1.24,-2.24 z"
                 fill="#899a7a"
                 id="path1369" />
            </g>
            <g
               id="hp-dollar-2"
               data-name="hp-dollar">
              <path
                 fill="#d9dec8"
                 d="m 1068.21,619.95 -11.17,7.29 16.43,27.94 12.4,-6.88 z"
                 id="path1372" />
              <ellipse
                 cx="1070.8101"
                 cy="637.52002"
                 rx="5.9200001"
                 ry="5.3200002"
                 transform="rotate(-31.91,1070.867,637.53)"
                 fill="#899a7a"
                 opacity="0.47"
                 id="ellipse1374" />
              <g
                 opacity="0.38"
                 fill="#899a7a"
                 id="g1378">
                <path
                   d="m 1064.82,635 -5,-7.31 7.14,-4.86 5,7.73 a 3.83,3.83 0 0 1 1.26,0.07 l -5.75,-9 -8.79,6 5.5,8.57 a 2.07,2.07 0 0 1 0.64,-1.2 z m 13.27,3 a 3.82,3.82 0 0 1 -0.47,1.17 l 4.93,8.34 -8.28,4.54 -3.49,-7.68 a 4.91,4.91 0 0 1 -2.05,0.14 l 5.15,9.14 10.5,-5.82 z"
                   id="path1376" />
              </g>
              <path
                 d="m 1077.08,647.46 a 1.45,1.45 0 0 1 -1.53,-2.46 1.45,1.45 0 0 1 1.53,2.46 z m -10.99,-19.78 a 1.4531087,1.4531087 0 0 1 -0.94,2.75 1.4531087,1.4531087 0 0 1 0.94,-2.75 z"
                 fill="#899a7a"
                 id="path1380" />
            </g>
            <g
               id="hp-dollar-3"
               data-name="hp-dollar">
              <path
                 fill="#d9dec8"
                 d="m 1078.36,614.6 -11.54,2.69 5.23,28.31 12.44,-1.97 z"
                 id="path1383" />
              <ellipse
                 cx="1075.1899"
                 cy="630.04999"
                 rx="5.2600002"
                 ry="4.7199998"
                 transform="rotate(-11.92,1075.55,630.234)"
                 fill="#899a7a"
                 opacity="0.47"
                 id="ellipse1385" />
              <g
                 opacity="0.38"
                 fill="#899a7a"
                 id="g1389">
                <path
                   d="m 1071,626.12 -1.92,-7.61 7.44,-1.89 1.79,8 a 3.4,3.4 0 0 1 1,0.45 l -2.06,-9.29 -9.15,2.22 2,8.82 a 1.83,1.83 0 0 1 0.9,-0.7 z m 10.12,6.55 a 3.39,3.39 0 0 1 -0.75,0.84 l 1.63,8.49 -8.29,1.27 -0.58,-7.47 a 4.36,4.36 0 0 1 -1.76,-0.5 l 1.53,9.2 10.53,-1.67 z"
                   id="path1387" />
              </g>
              <path
                 d="m 1077.41,640.25 a 1.29,1.29 0 0 1 -0.53,-2.52 1.29,1.29 0 0 1 0.53,2.52 z m -3.17,-19.84 a 1.29,1.29 0 0 1 -1.61,2 1.29,1.29 0 1 1 1.61,-2 z"
                 fill="#899a7a"
                 id="path1391" />
            </g>
            <g
               id="hp-dollar-4"
               data-name="hp-dollar">
              <path
                 fill="#d9dec8"
                 d="m 1090.1,625.02 -8.72,-6.81 -17.5,20.39 8.72,7.88 z"
                 id="path1394" />
              <ellipse
                 cx="1077.02"
                 cy="631.77002"
                 rx="4.4099998"
                 ry="4.9099998"
                 transform="rotate(-50.81,1077.095,631.781)"
                 fill="#899a7a"
                 opacity="0.47"
                 id="ellipse1396" />
              <g
                 opacity="0.38"
                 fill="#899a7a"
                 id="g1400">
                <path
                   d="m 1077.4,626.4 4.4,-5.85 5.73,4.29 -4.73,6 a 3.18,3.18 0 0 1 0.28,1 l 5.54,-6.93 -7,-5.29 -5.24,6.62 a 1.71,1.71 0 0 1 1.02,0.16 z m 1.19,11.21 a 3.16,3.16 0 0 1 -1,-0.05 l -5.21,6.11 -5.78,-5.27 5.08,-4.8 A 4.07,4.07 0 0 1 1071,632 l -5.79,6.5 7.39,6.67 z"
                   id="path1398" />
              </g>
              <path
                 d="m 1070.91,639.36 a 1.2010412,1.2010412 0 1 1 1.52,-1.86 1.2010412,1.2010412 0 1 1 -1.52,1.86 z m 12.56,-13.93 a 1.205,1.205 0 0 1 -2.41,0 1.205,1.205 0 0 1 2.41,0 z"
                 fill="#899a7a"
                 id="path1402" />
            </g>
            <g
               id="hp-dollar-5"
               data-name="hp-dollar">
              <path
                 fill="#d9dec8"
                 d="m 1086.86,619.22 -13.31,-0.96 -3.82,32.19 14.04,2.02 z"
                 id="path1405" />
              <ellipse
                 cx="1078.3"
                 cy="634.78003"
                 rx="5.3200002"
                 ry="5.9200001"
                 transform="rotate(-84.69,1078.367,634.764)"
                 fill="#899a7a"
                 opacity="0.47"
                 id="ellipse1407" />
              <g
                 opacity="0.38"
                 fill="#899a7a"
                 id="g1411">
                <path
                   d="m 1075.07,629.14 0.47,-8.82 8.63,0.45 -0.73,9.15 a 3.83,3.83 0 0 1 1,0.82 l 0.89,-10.67 -10.61,-0.57 -0.8,10.15 a 2.07,2.07 0 0 1 1.15,-0.51 z m 8.74,10.43 a 3.82,3.82 0 0 1 -1.08,0.65 l -1.12,9.62 -9.34,-1.39 1.86,-8.23 a 4.91,4.91 0 0 1 -1.72,-1.13 l -1.43,10.4 11.88,1.71 z"
                   id="path1409" />
              </g>
              <path
                 d="m 1077.28,646.48 a 1.4512925,1.4512925 0 1 1 0.27,-2.89 1.4512925,1.4512925 0 1 1 -0.27,2.89 z m 3.21,-22.39 a 1.4519384,1.4519384 0 1 1 -2.41,1.62 1.4519384,1.4519384 0 1 1 2.41,-1.62 z"
                 fill="#899a7a"
                 id="path1413" />
            </g>
            <g
               id="hp-dollar-6"
               data-name="hp-dollar">
              <path
                 fill="#d9dec8"
                 d="m 1099.26,623.56 -14.13,-8.79 -22.92,33.31 14.32,10.38 z"
                 id="path1416" />
              <ellipse
                 cx="1080.77"
                 cy="635.76001"
                 rx="6.6300001"
                 ry="7.3899999"
                 transform="rotate(-56.93,1080.816,635.765)"
                 fill="#899a7a"
                 opacity="0.47"
                 id="ellipse1418" />
              <g
                 opacity="0.38"
                 fill="#899a7a"
                 id="g1422">
                <path
                   d="m 1080.48,627.65 5.65,-9.46 9.26,5.5 -6.12,9.67 a 4.78,4.78 0 0 1 0.58,1.47 l 7.18,-11.26 -11.37,-6.79 -6.78,10.74 c 1.12,0.01 0.49,-0.22 1.6,0.13 z m 3.59,16.59 a 4.76,4.76 0 0 1 -1.57,0.09 l -6.82,10 -9.49,-7 6.83,-8 a 6.12,6.12 0 0 1 -1.24,-2.25 l -7.62,10.65 12.12,8.79 z"
                   id="path1420" />
              </g>
              <path
                 d="m 1072.85,648.08 a 1.81,1.81 0 0 1 2,-3 1.81,1.81 0 0 1 -2,3 z m 16.55,-22.85 a 1.8105317,1.8105317 0 0 1 -3.6,0.39 1.8105317,1.8105317 0 0 1 3.6,-0.39 z"
                 fill="#899a7a"
                 id="path1424" />
            </g>
            <g
               id="hp-dollar-7"
               data-name="hp-dollar">
              <path
                 d="m 1072.88,645.24 c 0.4,0.31 13.51,10 13.51,10 0,0 6.4,-11.65 -2.32,-24.92 -8.72,-13.27 -17.9,-13.77 -17.9,-13.77 l -0.11,18.18 c 0,0 4.23,-3.63 7.7,2.3 a 6.37,6.37 0 0 1 -0.88,8.21 z"
                 fill="#d9dec8"
                 id="path1427" />
              <path
                 d="m 1079.55,630.77 c 2.55,-0.25 4,0.27 4.54,3.38 0.35,2 -1.54,4.58 -4.09,4.83 -2.55,0.25 -4.78,-1.17 -5,-3.19 -0.22,-2.02 2,-4.79 4.55,-5.02 z"
                 fill="#899a7a"
                 opacity="0.47"
                 id="path1429" />
              <path
                 d="m 1080.23,644.6 a 1.14,1.14 0 1 1 1.54,-1.56 1.14,1.14 0 1 1 -1.54,1.56 z m -5.77,-15.6 a 1.05,1.05 0 1 1 -2,-0.31 1.05,1.05 0 1 1 2,0.31 z"
                 fill="#899a7a"
                 id="path1431" />
              <g
                 opacity="0.47"
                 fill="#899a7a"
                 id="g1435">
                <path
                   d="m 1083.91,638.12 a 24.57,24.57 0 0 1 0.09,11.33 l -6.47,-4.7 a 7.07,7.07 0 0 0 0.64,-4.27 6.05,6.05 0 0 1 -1.84,-0.52 c 0.84,3.56 -1.2,5.16 -1.2,5.16 l 9.87,7.18 c 0,0 3.18,-8.68 -0.2,-16.93 a 4.35,4.35 0 0 1 -0.89,2.75 z m -16.4,-5.19 c 0,0 2.86,-1.58 5.86,1.6 l 0.09,0.11 a 4.88,4.88 0 0 1 0.67,-1.71 7.07,7.07 0 0 0 -4.66,-2.1 l 0.93,-8.41 c 1.3,0.41 3.55,1.55 6.58,4.76 a 26.43,26.43 0 0 1 2.07,2.4 6.32,6.32 0 0 1 2.38,0.31 34.6,34.6 0 0 0 -3.21,-3.89 c -5.84,-6.18 -9.34,-5.49 -9.34,-5.49 z"
                   id="path1433" />
              </g>
            </g>
            <g
               id="hp-dollar-8"
               data-name="hp-dollar">
              <path
                 d="m 931.41,636.63 c 0.2,-0.35 6.35,-12 6.35,-12 0,0 -10.1,-3.69 -19.65,4.91 -9.55,8.6 -8.82,16 -8.82,16 l 14.55,-2.14 c 0,0 -3.42,-2.94 0.9,-6.44 a 5.16,5.16 0 0 1 6.67,-0.33 z"
                 fill="#d9dec8"
                 id="path1438" />
              <path
                 d="m 919,633.08 c -0.51,-2 -0.27,-3.23 2.15,-4 a 3.74,3.74 0 0 1 4.37,2.68 c 0.51,2 -0.35,4 -1.94,4.37 A 4.31,4.31 0 0 1 919,633.08 Z"
                 fill="#899a7a"
                 opacity="0.47"
                 id="path1440" />
              <path
                 d="m 930,630.84 a 0.92,0.92 0 1 1 -1.44,-1 0.92,0.92 0 1 1 1.44,1 z m -11.8,6.53 a 0.85,0.85 0 1 1 0,1.64 0.85,0.85 0 1 1 0,-1.64 z"
                 fill="#899a7a"
                 id="path1442" />
              <g
                 opacity="0.47"
                 fill="#899a7a"
                 id="g1446">
                <path
                   d="m 924.36,628.69 a 19.88,19.88 0 0 1 9.05,-1.46 l -3,5.75 a 5.72,5.72 0 0 0 -3.5,0 4.9,4.9 0 0 1 -0.19,1.53 c 2.75,-1.11 4.28,0.33 4.28,0.33 l 4.53,-8.78 c 0,0 -7.34,-1.48 -13.52,2.24 a 3.52,3.52 0 0 1 2.35,0.39 z m -2.14,13.75 c 0,0 -1.61,-2.09 0.56,-4.88 l 0.07,-0.08 a 4,4 0 0 1 -1.45,-0.33 5.72,5.72 0 0 0 -1.11,4 l -6.84,0.29 c 0.17,-1.09 0.81,-3 3,-5.85 a 21.38,21.38 0 0 1 1.67,-2 5.12,5.12 0 0 1 0,-1.94 28,28 0 0 0 -2.72,3 c -4.23,5.43 -3.25,8.14 -3.25,8.14 z"
                   id="path1444" />
              </g>
            </g>
            <g
               id="hp-dollar-9"
               data-name="hp-dollar">
              <path
                 d="m 913.77,636.49 c -0.1,0.4 -2.88,13.29 -2.88,13.29 0,0 10.72,0.84 17.6,-10 6.88,-10.84 4.2,-17.78 4.2,-17.78 l -13.44,6 c 0,0 4.08,1.91 0.87,6.45 a 5.16,5.16 0 0 1 -6.35,2.04 z"
                 fill="#d9dec8"
                 id="path1449" />
              <path
                 d="m 926.66,636.58 c 1,1.8 1.13,3 -1,4.48 a 3.74,3.74 0 0 1 -4.93,-1.41 c -1,-1.8 -0.73,-3.91 0.69,-4.73 a 4.31,4.31 0 0 1 5.24,1.66 z"
                 fill="#899a7a"
                 opacity="0.47"
                 id="path1451" />
              <path
                 d="m 916.69,641.69 a 0.92,0.92 0 1 1 1.67,0.62 0.92,0.92 0 1 1 -1.67,-0.62 z m 9.61,-9.46 a 0.85,0.85 0 1 1 -0.44,-1.58 0.85,0.85 0 1 1 0.44,1.58 z"
                 fill="#899a7a"
                 id="path1453" />
              <g
                 opacity="0.47"
                 fill="#899a7a"
                 id="g1457">
                <path
                   d="m 922.7,642.24 a 19.88,19.88 0 0 1 -8.33,3.84 l 1.31,-6.34 a 5.72,5.72 0 0 0 3.36,-1 4.9,4.9 0 0 1 -0.23,-1.53 c -2.35,1.8 -4.21,0.83 -4.21,0.83 l -2,9.67 c 0,0 7.46,-0.55 12.42,-5.79 a 3.52,3.52 0 0 1 -2.32,0.32 z m -1.63,-13.81 c 0,0 2.11,1.58 0.77,4.86 v 0.1 a 4,4 0 0 1 1.49,-0.08 5.72,5.72 0 0 0 0,-4.14 l 6.51,-2.11 c 0.13,1.09 0,3.14 -1.32,6.44 a 21.38,21.38 0 0 1 -1.08,2.33 5.12,5.12 0 0 1 0.56,1.86 28,28 0 0 0 1.8,-3.66 c 2.61,-6.36 0.94,-8.72 0.94,-8.72 z"
                   id="path1455" />
              </g>
            </g>
            <g
               id="hp-dollar-10"
               data-name="hp-dollar">
              <path
                 d="m 932.81,624.88 c -0.23,-0.53 -8.37,-17.31 -8.37,-17.31 0,0 -12.68,8.43 -10.89,26.43 1.79,18 10.82,23.45 10.82,23.45 l 9.77,-18.36 c 0,0 -6.21,1.43 -6.58,-6.42 -0.3,-6.49 5.25,-7.79 5.25,-7.79 z"
                 fill="#d9dec8"
                 id="path1460" />
              <path
                 d="m 918.37,636 c -2.72,-1.1 -3.9,-2.39 -2.81,-5.84 0.7,-2.21 4,-3.82 6.71,-2.72 2.71,1.1 4.22,3.73 3.35,5.87 -0.87,2.14 -4.53,3.79 -7.25,2.69 z"
                 fill="#899a7a"
                 opacity="0.47"
                 id="path1462" />
              <path
                 d="m 925,621.63 a 1.3,1.3 0 1 1 -2.39,0.76 1.3,1.3 0 1 1 2.39,-0.76 z m -2.43,18.89 a 1.2,1.2 0 1 1 1.87,1.38 1.2,1.2 0 1 1 -1.87,-1.38 z"
                 fill="#899a7a"
                 id="path1464" />
              <g
                 opacity="0.47"
                 fill="#899a7a"
                 id="g1468">
                <path
                   d="m 917.85,626.24 a 28.11,28.11 0 0 1 5.93,-11.53 l 4.06,8.2 a 8.09,8.09 0 0 0 -2.92,4 6.92,6.92 0 0 1 1.59,1.5 c 1,-4.05 4,-4.59 4,-4.59 l -6.19,-12.52 c 0,0 -7.83,7.11 -8.79,17.26 a 5,5 0 0 1 2.32,-2.32 z m 13.86,13.97 c 0,0 -3.73,0.08 -5.09,-4.74 v -0.16 a 5.58,5.58 0 0 1 -1.59,1.38 8.09,8.09 0 0 0 3.61,4.61 l -5.41,8 c -1.1,-1.1 -2.78,-3.46 -4.14,-8.32 a 30.23,30.23 0 0 1 -0.82,-3.53 7.23,7.23 0 0 1 -2.25,-1.58 39.58,39.58 0 0 0 1.18,5.64 c 2.63,9.36 6.54,10.53 6.54,10.53 z"
                   id="path1466" />
              </g>
            </g>
            <g
               id="hp-dollar-11"
               data-name="hp-dollar">
              <path
                 fill="#d9dec8"
                 d="m 903.23,630.32 1.46,13.21 32.22,-2.08 -0.56,-14.11 z"
                 id="path1471" />
              <ellipse
                 cx="920.01001"
                 cy="635.89001"
                 rx="5.3000002"
                 ry="5.9000001"
                 transform="rotate(-5.15,920.333,636.064)"
                 fill="#899a7a"
                 opacity="0.47"
                 id="ellipse1473" />
              <g
                 opacity="0.38"
                 fill="#899a7a"
                 id="g1477">
                <path
                   d="m 915.07,640.08 -8.72,1.13 -1.12,-8.53 9.09,-0.94 a 3.82,3.82 0 0 1 0.63,-1.09 l -10.61,1.06 1.36,10.49 10.09,-1.05 a 2.06,2.06 0 0 1 -0.72,-1.07 z m 8.64,-10.44 a 3.8,3.8 0 0 1 0.83,0.94 l 9.62,-0.65 0.32,9.39 -8.39,-0.34 a 4.89,4.89 0 0 1 -0.79,1.89 l 10.44,-0.48 -0.47,-11.94 z"
                   id="path1475" />
              </g>
              <path
                 d="m 931.66,634.77 a 1.4458561,1.4458561 0 0 1 -2.88,0.26 1.4458561,1.4458561 0 1 1 2.88,-0.26 z m -22.51,0.91 a 1.44,1.44 0 0 1 2,2.06 1.44,1.44 0 1 1 -2,-2.06 z"
                 fill="#899a7a"
                 id="path1479" />
            </g>
            <g
               id="hp-dollar-12"
               data-name="hp-dollar">
              <path
                 fill="#d9dec8"
                 d="m 917.53,653.16 13.02,-2.64 -4.96,-31.9 -14.01,1.82 z"
                 id="path1482" />
              <ellipse
                 cx="921.57001"
                 cy="635.95001"
                 rx="5.9000001"
                 ry="5.3000002"
                 transform="rotate(-10.29,921.787,636.094)"
                 fill="#899a7a"
                 opacity="0.47"
                 id="ellipse1484" />
              <g
                 opacity="0.38"
                 fill="#899a7a"
                 id="g1488">
                <path
                   d="m 926.18,640.49 1.91,8.59 -8.4,1.92 -1.75,-9 a 3.82,3.82 0 0 1 -1.14,-0.53 l 2,10.47 10.33,-2.29 -2,-10 a 2.06,2.06 0 0 1 -0.95,0.84 z M 915,632.83 a 3.8,3.8 0 0 1 0.87,-0.91 l -1.51,-9.53 9.33,-1.16 0.42,8.39 a 4.89,4.89 0 0 1 2,0.62 l -1.42,-10.36 -11.85,1.54 z"
                   id="path1486" />
              </g>
              <path
                 d="m 919.41,624.45 a 1.4436066,1.4436066 0 1 1 0.52,2.84 1.4436066,1.4436066 0 0 1 -0.52,-2.84 z m 2.92,22.34 a 1.4436845,1.4436845 0 0 1 1.87,-2.2 1.4436845,1.4436845 0 0 1 -1.87,2.2 z"
                 fill="#899a7a"
                 id="path1490" />
            </g>
            <g
               id="hp-dollar-13"
               data-name="hp-dollar">
              <path
                 fill="#d9dec8"
                 d="m 1072.99,610.85 -13.56,9.64 21.87,34 15.11,-9.2 z"
                 id="path1493" />
              <ellipse
                 cx="1077.11"
                 cy="632.60999"
                 rx="7.3899999"
                 ry="6.6300001"
                 transform="rotate(-34.22,1076.94,632.58)"
                 fill="#899a7a"
                 opacity="0.47"
                 id="ellipse1495" />
              <g
                 opacity="0.38"
                 fill="#899a7a"
                 id="g1499">
                <path
                   d="m 1069.52,629.75 -6.54,-8.86 8.65,-6.42 6.56,9.38 a 4.78,4.78 0 0 1 1.58,0 l -7.62,-11 -10.66,7.87 7.29,10.4 c 0.44,-0.95 -0.01,-0.48 0.74,-1.37 z m 16.69,3.1 a 4.76,4.76 0 0 1 -0.53,1.48 l 6.56,10.14 -10.09,6.07 -4.74,-9.39 a 6.12,6.12 0 0 1 -2.55,0.28 l 6.88,11.14 12.79,-7.78 z"
                   id="path1497" />
              </g>
              <path
                 d="m 1085.42,644.68 a 1.81,1.81 0 0 1 -2,-3 1.81,1.81 0 0 1 2,3 z m -14.69,-24.09 a 1.81,1.81 0 0 1 -1,3.47 1.81,1.81 0 0 1 1,-3.47 z"
                 fill="#899a7a"
                 id="path1501" />
            </g>
            <g
               id="hp-dollar-14"
               data-name="hp-dollar">
              <path
                 fill="#d9dec8"
                 d="m 1092.34,616.77 -15.72,-5.45 -14.98,37.56 16.26,6.96 z"
                 id="path1504" />
              <ellipse
                 cx="1077.01"
                 cy="632.76001"
                 rx="6.6300001"
                 ry="7.3899999"
                 transform="rotate(-69.72,1076.935,632.766)"
                 fill="#899a7a"
                 opacity="0.47"
                 id="ellipse1506" />
              <g
                 opacity="0.38"
                 fill="#899a7a"
                 id="g1510">
                <path
                   d="m 1074.93,624.92 3.41,-10.47 10.25,3.32 -3.83,10.79 a 4.78,4.78 0 0 1 0.89,1.3 l 4.51,-12.57 -12.59,-4.11 -4.24,12 c 1.09,-0.27 0.45,-0.36 1.6,-0.26 z m 7.17,15.38 a 4.76,4.76 0 0 1 -1.51,0.43 l -4.45,11.27 -10.8,-4.69 4.89,-9.31 a 6.12,6.12 0 0 1 -1.71,-1.91 l -5.07,12.07 13.76,5.89 z"
                   id="path1508" />
              </g>
              <path
                 d="m 1072,646.53 a 1.81,1.81 0 0 1 1.25,-3.39 1.81,1.81 0 0 1 -1.25,3.39 z m 11.1,-25.95 a 1.81,1.81 0 1 1 -3.42,1.18 1.81,1.81 0 1 1 3.42,-1.18 z"
                 fill="#899a7a"
                 id="path1512" />
            </g>
            <g
               id="hp-dollar-15"
               data-name="hp-dollar">
              <path
                 d="m 1090.07,639.41 c 0.29,-0.5 9,-17.08 9,-17.08 0,0 -14.35,-5.24 -27.9,7 -13.55,12.24 -12.5,22.67 -12.5,22.67 l 20.67,-3 c 0,0 -4.85,-4.17 1.27,-9.15 5.1,-4.15 9.46,-0.44 9.46,-0.44 z"
                 fill="#d9dec8"
                 id="path1515" />
              <path
                 d="m 1072.47,634.36 c -0.73,-2.85 -0.39,-4.58 3.05,-5.75 2.2,-0.75 5.47,1 6.2,3.81 0.73,2.81 -0.5,5.63 -2.75,6.21 -2.25,0.58 -5.77,-1.42 -6.5,-4.27 z"
                 fill="#899a7a"
                 opacity="0.47"
                 id="path1517" />
              <path
                 d="m 1088.06,631.18 a 1.31,1.31 0 1 1 -2,-1.48 1.31,1.31 0 1 1 2,1.48 z m -16.74,9.27 a 1.21,1.21 0 1 1 0,2.33 1.21,1.21 0 1 1 0,-2.33 z"
                 fill="#899a7a"
                 id="path1519" />
              <g
                 opacity="0.47"
                 fill="#899a7a"
                 id="g1523">
                <path
                   d="m 1080.06,628.13 a 28.23,28.23 0 0 1 12.85,-2.08 l -4.22,8.17 a 8.13,8.13 0 0 0 -5,0 7,7 0 0 1 -0.27,2.18 c 3.9,-1.57 6.07,0.47 6.07,0.47 l 6.43,-12.46 c 0,0 -10.42,-2.1 -19.19,3.18 a 5,5 0 0 1 3.33,0.54 z m -3.06,19.52 c 0,0 -2.29,-3 0.8,-6.94 l 0.11,-0.12 a 5.6,5.6 0 0 1 -2.06,-0.46 8.13,8.13 0 0 0 -1.58,5.66 l -9.71,0.41 c 0.24,-1.54 1.15,-4.31 4.26,-8.3 a 30.36,30.36 0 0 1 2.37,-2.77 7.27,7.27 0 0 1 -0.06,-2.76 39.76,39.76 0 0 0 -3.86,4.32 c -6,7.71 -4.61,11.56 -4.61,11.56 z"
                   id="path1521" />
              </g>
            </g>
            <g
               id="hp-dollar-16"
               data-name="hp-dollar">
              <path
                 fill="#d9dec8"
                 d="m 909.8,652.14 16.12,5.14 14.3,-38.55 -16.71,-6.68 z"
                 id="path1526" />
              <ellipse
                 cx="924.97998"
                 cy="635.5"
                 rx="6.75"
                 ry="7.52"
                 transform="rotate(-71.11,924.93,635.499)"
                 fill="#899a7a"
                 opacity="0.47"
                 id="ellipse1528" />
              <g
                 opacity="0.38"
                 fill="#899a7a"
                 id="g1532">
                <path
                   d="m 927.29,643.42 -3.21,10.73 -10.5,-3.15 3.62,-11 a 4.86,4.86 0 0 1 -0.94,-1.3 l -4.26,12.86 12.91,3.86 4,-12.28 c -1.1,0.27 -0.44,0.35 -1.62,0.28 z M 919.62,628 a 4.84,4.84 0 0 1 1.53,-0.48 l 4.24,-11.53 11.1,4.5 -4.75,9.51 a 6.23,6.23 0 0 1 1.79,1.9 l 4.86,-12.4 -14.14,-5.65 z"
                   id="path1530" />
              </g>
              <path
                 d="m 929.73,621.37 a 1.84,1.84 0 1 1 -1.19,3.48 1.84,1.84 0 0 1 1.19,-3.48 z M 919.1,648 a 1.84,1.84 0 0 1 3.45,-1.28 1.84,1.84 0 0 1 -3.45,1.28 z"
                 fill="#899a7a"
                 id="path1534" />
            </g>
          </g>
          <path
             id="hp-tie"
             d="m 988.06,575.21 c 0,1.7 -24.39,19.31 -47.47,6.81 a 40.72,40.72 0 0 0 -17.07,5 c 0,0 2.57,19 8,22 12.17,1.67 57.18,0.57 61.86,-32.83 z"
             fill="#e94b59" />
          <g
             id="hp-trump-arm">
             
            <path
               d="m 1108.88,521.32 c 0,0 7.61,-8.31 9.48,-13 2.57,-6.46 -18.26,-16.3 -21.22,-16.71 -2.18,-0.3 -3.66,5.15 -3.66,5.15 0,0 -4.26,-3.58 -4.69,-3.07 -0.43,0.51 -4.49,16.39 -4.49,16.39 z"
               fill="#f8bb97"
               id="path1540" />
            <path
               d="m 1108.5,509.75 a 1.118034,1.118034 0 0 1 2,1 1,1 0 0 1 -1.46,0.48 1.11,1.11 0 0 1 -0.54,-1.48 z m 2.89,-10.26 a 1.118034,1.118034 0 0 1 2,1 1,1 0 0 1 -1.46,0.48 1.11,1.11 0 0 1 -0.54,-1.48 z m 2.24,3.79 c 0.37,-0.76 0.82,-1.3 2.08,-0.69 1.26,0.61 1.12,1.3 0.75,2.06 a 1.46,1.46 0 0 1 -2.08,0.69 1.58,1.58 0 0 1 -0.75,-2.06 z m -5.63,0.2 a 0.89,0.89 0 0 1 1.18,-0.28 0.78,0.78 0 1 1 -0.67,1.38 0.9,0.9 0 0 1 -0.51,-1.1 z m 4.91,7.4 a 0.89,0.89 0 0 1 -0.77,-0.94 0.78,0.78 0 1 1 1.53,0 0.9,0.9 0 0 1 -0.76,0.94 z m -4.01,-4.4 a 0.445,0.445 0 0 1 0.8,0.39 0.39,0.39 0 0 1 -0.59,0.21 0.44,0.44 0 0 1 -0.21,-0.6 z m -24.57,3.2 24.54,11.64 c 0,0 5,-5.66 5.9,-7.25 l -28.15,-12.57 c -0.62,2.39 -2.29,8.18 -2.29,8.18 z"
               fill="#efb592"
               id="path1542" />
            <path
               d="m 1112.39,525.08 c 0.28,0.21 8,9.33 8,9.33 0,0 -6.08,4.83 -6.36,4.55 -0.28,-0.28 -7,-4.25 -7,-4.81 0,-0.56 5.36,-9.07 5.36,-9.07 z"
               fill="#e1e0d6"
               id="path1544" />
            <path
               d="m 1068.33,507.26 -41.2,51.47 c -11.37,14.43 -13.95,27.51 -4.7,37.72 9.25,10.21 35,-6 35,-6 l 62.22,-52.5 z"
               fill="#413946"
               id="path1546" />
            <path
               d="m 1074.21,503.57 -4.07,5 c 0,0 34.63,27.87 34.84,27.25 0.21,-0.62 9.88,-11.32 9.88,-11.32 z"
               fill="#fdfbee"
               id="path1548" />
          </g>
        </g>
        <g
           id="hp-plane-b">
          <g
             id="hp-banner-b">
            <path
               d="M 712.53,701.78 A 180.21,180.21 0 0 1 499.91,561 l 44.1,-9 a 135.21,135.21 0 0 0 159.55,105.68 z"
               fill="#e23c52"
               id="path1552" />
            <path
               fill="#5f5863"
               d="m 744.91,683.04 -42.49,-28.78 -0.37,1.32 40.57,27.25 -40.1,20.71 0.41,0.96 z"
               id="path1554" />
            <path
               fill="#ffff85"
               d="m 694.24,653.24 2.63,53.18 7.2,0.36 -0.72,-54.03 z"
               id="path1556" />
          </g>
          <path
             id="hp-prop-b"
             d="m 915.91,656.81 c 0,1.45 -3.18,13.14 -3.85,33.22 -0.67,20.08 1.67,32 1.62,33.4 -0.06,1.85 -2,3.29 -4.25,3.21 -2.25,-0.08 -4.09,-1.64 -4,-3.49 0,-1.45 3.06,-9.73 3.85,-33.22 0.79,-23.49 -1.67,-32 -1.62,-33.4 0.06,-1.85 2,-3.29 4.25,-3.21 2.25,0.08 4.09,1.68 4,3.49 z"
             fill="#352c3a" />
          <path
             d="m 905.29,684 c -3.37,-0.11 -4.55,2.59 -4.66,6 -0.11,3.41 0.88,6.14 4.25,6.26 3.37,0.12 9.84,-3.61 9.91,-5.78 0.07,-2.17 -6.13,-6.35 -9.5,-6.48 z"
             fill="#ffff85"
             id="path1560" />
          <path
             fill="#5d899f"
             d="m 826.54,605.24 3.47,157.32 14.12,0.9 -2.43,-159.86 z"
             id="path1562" />
          <path
             d="m 900.8,662 c -14.39,0.7 -172.72,7.52 -173.2,21.92 -0.44,13.25 166.69,31.67 167.84,31.7 12.56,-7.44 13.64,-43.38 5.36,-53.62 z"
             fill="#e9e8e8"
             id="path1564" />
          <path
             d="m 906.08,686.64 a 69.73,69.73 0 0 1 -0.95,9.77 l -148.19,-1.22 c -17.54,-3.84 -29.47,-7.76 -29.35,-11.31 a 2.22,2.22 0 0 1 0.27,-0.91 z"
             fill="#352c3a"
             opacity="0.1"
             id="path1566" />
          <path
             d="m 907.13,689.86 c -0.81,11.36 -4.27,22.36 -10.63,26.11 -1.17,0 -170.54,-18.7 -170.1,-32.13 v -0.11 z"
             fill="#ededed"
             id="path1568" />
          <path
             d="m 875.35,684.08 h 1.44 v 1.14 h -1.52 l -0.15,3.1 -0.07,1.42 h 1.73 v 1.38 h -1.75 L 873.94,713 c -11.19,-1.34 -26.23,-3.11 -42.5,-5.34 L 831,690.5 h -0.68 v -1.14 h 0.69 l -0.09,-3.55 v -1.24 h -0.55 l 0.06,-1.38 h 0.46 l -0.46,-17.46 c 17.31,-1.25 33.63,-2.37 46.08,-3 z"
             fill="#352c3a"
             opacity="0.1"
             id="path1570" />
          <path
             fill="#e23c52"
             d="m 831.4,592.38 4.92,185.46 37.87,-6.05 8.4,-171.78 z m -96.47,63.04 3.04,54.88 16.59,-1.6 2.86,-50.78 z"
             id="path1572" />
          <path
             fill="#ffff85"
             d="m 734.93,655.42 0.09,55.17 7.43,0.25 0.79,-55.14 z m 97.15,-60.13 0.02,-6.44 54.1,2.52 -0.34,10.13 z m 4.24,175.21 -0.41,6.42 41.18,1.93 0.33,-10.14 z"
             id="path1574" />
          <g
             fill="#ffff85"
             id="g1578">
            <path
               d="m 837.27,738.03 -0.15,-5.53 40.87,1.36 -0.24,4.89 z m 43.03,-51.52 -0.24,4.95 -44.06,-0.99 -0.14,-5.44 z m 2.57,-52.47 -0.34,6.92 -47.87,-1.17 -0.17,-6.31 z"
               id="path1576" />
          </g>
          <path
             fill="#495176"
             d="m 878.56,739.64 0.04,-1.38 -42.19,-0.26 0.04,1.14 z m 0.28,32.23 0.12,-1.37 -42.11,-2.61 -0.03,1.14 z m -42.28,-41.03 -0.1,1.37 42.15,1.91 0.01,-1.14 z m 45.24,-39.25 0.05,-1.38 -46.56,-0.4 0.04,1.14 z m -46.43,-7.96 -0.06,1.38 46.56,0.69 -0.03,-1.14 z m 49.09,-43.92 v -1.38 l -51.96,1.09 0.09,1.14 z m -51.66,-8.47 -0.08,1.38 51.94,1.79 -0.02,-1.14 z m 0.84,-34.72 -0.08,1.38 51.94,1.78 -0.02,-1.14 z"
             id="path1580" />
          <path
             d="m 868,734.64 a 1.29,1.29 0 1 0 1.24,1.33 1.29,1.29 0 0 0 -1.24,-1.33 z m 0,0.36 a 0.83,0.83 0 1 1 -0.86,0.8 0.83,0.83 0 0 1 0.86,-0.8 z m -10.17,-0.34 a 1.29,1.29 0 1 0 0,1.82 1.29,1.29 0 0 0 0,-1.82 z m -0.21,0.3 a 0.83,0.83 0 1 1 -1.17,0 0.83,0.83 0 0 1 1.17,0.04 z m -11.08,-0.7 a 1.29,1.29 0 1 0 0,1.82 1.29,1.29 0 0 0 0,-1.82 z m -0.21,0.3 a 0.83,0.83 0 1 1 -1.17,0 0.83,0.83 0 0 1 1.17,0.01 z m 23.22,-47.86 a 1.29,1.29 0 1 0 1.24,1.33 1.29,1.29 0 0 0 -1.24,-1.33 z m 0.06,0.36 a 0.83,0.83 0 1 1 -0.86,0.8 0.83,0.83 0 0 1 0.86,-0.8 z m -13.77,-0.21 a 1.29,1.29 0 1 0 1.17,1.39 1.29,1.29 0 0 0 -1.17,-1.39 z m 0,0.36 a 0.83,0.83 0 1 1 -0.9,0.76 0.83,0.83 0 0 1 0.94,-0.76 z m 16.1,-51.8 a 1.29,1.29 0 1 0 0.36,1.78 1.29,1.29 0 0 0 -0.36,-1.78 z m -0.14,0.34 a 0.83,0.83 0 1 1 -1.15,0.23 0.83,0.83 0 0 1 1.15,-0.23 z m -15.99,-0.93 a 1.29,1.29 0 1 0 1.17,1.39 1.29,1.29 0 0 0 -1.17,-1.39 z m 0,0.36 a 0.83,0.83 0 1 1 -0.9,0.76 0.83,0.83 0 0 1 0.94,-0.76 z M 844.8,636 a 1.29,1.29 0 1 0 -0.73,1.66 1.29,1.29 0 0 0 0.73,-1.66 z m -0.31,0.2 a 0.83,0.83 0 1 1 -1.07,-0.47 0.83,0.83 0 0 1 1.07,0.43 z m -1.8,50.58 a 1.29,1.29 0 1 0 0,1.82 1.29,1.29 0 0 0 0,-1.82 z m -0.21,0.3 a 0.83,0.83 0 1 1 -1.17,0 0.83,0.83 0 0 1 1.17,0 z"
             fill="#353e67"
             id="path1582" />
          <path
             fill="#495176"
             d="m 744.06,654.72 -1.38,-0.14 -2.25,55.55 1.14,0.04 z"
             id="path1584" />
          <path
             d="m 748.26,676.32 a 1.29,1.29 0 1 0 1.17,1.39 1.29,1.29 0 0 0 -1.17,-1.39 z m 0,0.36 a 0.83,0.83 0 1 1 -0.9,0.76 0.83,0.83 0 0 1 0.94,-0.76 z m -0.26,5.9 a 1.29,1.29 0 1 0 1.17,1.39 1.29,1.29 0 0 0 -1.17,-1.39 z m 0,0.36 a 0.83,0.83 0 1 1 -0.9,0.76 0.83,0.83 0 0 1 0.9,-0.76 z m -0.31,5.89 a 1.29,1.29 0 1 0 1.17,1.39 1.29,1.29 0 0 0 -1.17,-1.39 z m 0,0.36 a 0.83,0.83 0 1 1 -0.9,0.76 0.83,0.83 0 0 1 0.94,-0.75 z"
             fill="#ffff85"
             id="path1586" />
          <path
             d="M 696.41,657"
             fill="#ffffff"
             id="path1588" />
          <g
             fill="#ffffff"
             id="g1592" />
        </g>
      </g>
    </g>
    <g
       id="g1172">
      <g
         id="g4292"
         style="image-rendering:auto">
        <path
           style="color:#000000;font-style:normal;font-variant:normal;font-weight:normal;font-stretch:normal;font-size:medium;line-height:normal;font-family:sans-serif;font-variant-ligatures:normal;font-variant-position:normal;font-variant-caps:normal;font-variant-numeric:normal;font-variant-alternates:normal;font-variant-east-asian:normal;font-feature-settings:normal;font-variation-settings:normal;text-indent:0;text-align:start;text-decoration:none;text-decoration-line:none;text-decoration-style:solid;text-decoration-color:#000000;letter-spacing:normal;word-spacing:normal;text-transform:none;writing-mode:lr-tb;direction:ltr;text-orientation:mixed;dominant-baseline:auto;baseline-shift:baseline;text-anchor:start;white-space:normal;shape-padding:0;shape-margin:0;inline-size:0;clip-rule:nonzero;display:inline;overflow:visible;visibility:visible;isolation:isolate;mix-blend-mode:normal;color-interpolation:sRGB;color-interpolation-filters:linearRGB;solid-color:#000000;solid-opacity:1;vector-effect:none;fill:#413946;fill-opacity:1;fill-rule:nonzero;stroke:none;stroke-width:0.264583;stroke-linecap:butt;stroke-linejoin:miter;stroke-miterlimit:4;stroke-dasharray:none;stroke-dashoffset:0;stroke-opacity:1;color-rendering:auto;image-rendering:auto;shape-rendering:auto;text-rendering:auto;enable-background:accumulate;stop-color:#000000"
           d="m 36.283626,95.058563 c -0.45251,-1.00664 -1.422218,-1.388025 -2.506202,-1.407994 -2.218148,-0.04086 -4.914805,1.43163 -4.637548,2.156765 1.391709,-0.359834 7.183438,2.01877 7.14375,-0.748771 z m -4.484684,4.902729 1.121834,3.333748 -1.121834,-3.333748 v 0 l 0.127,-0.161396 z"
           id="path1269-8"
           sodipodi:nodetypes="csccccccccc" />
      </g>
    </g>
  </g>
  <g
     inkscape:groupmode="layer"
     id="layer2"
     inkscape:label="Layer 2" />
</svg>
