<svg width="33" height="50" viewBox="0 0 33 50" fill="none" xmlns="http://www.w3.org/2000/svg">
<path fill-rule="evenodd" clip-rule="evenodd" d="M32.73 20.9009C32.7858 21.4028 32.7858 23.1318 32.7858 23.6338V33.6731C32.7858 38.135 30.9452 42.2065 27.9892 45.1625C25.0332 48.1185 20.9617 49.959 16.4998 49.959C12.0379 49.959 7.96643 48.1185 5.01042 45.1625C2.0544 42.2065 0.213867 38.135 0.213867 33.6731V23.6338C0.213867 23.1318 0.213867 21.4028 0.269641 20.9009H2.16595C2.11018 21.4028 2.11018 23.1318 2.11018 23.6338V33.6731C2.11018 37.633 3.72762 41.2583 6.34899 43.8239C8.97036 46.4453 12.5399 48.0627 16.4998 48.0627C20.4598 48.0627 24.0851 46.4453 26.6507 43.8239C29.272 41.2025 30.8895 37.633 30.8895 33.6731V23.6338C30.8895 23.1318 30.8895 21.4028 30.8337 20.9009H32.73Z" fill="#ACB5BC"/>
<path fill-rule="evenodd" clip-rule="evenodd" d="M11.8147 31.219C11.8147 31.219 11.7031 33.8404 11.9262 34.677C12.2051 35.4578 13.5994 37.6887 13.5994 37.6887C13.5994 37.6887 13.8225 40.4774 14.1572 41.5929C14.4918 42.7084 15.1611 43.0988 15.1611 43.0988C15.1611 43.0988 14.7149 45.3298 15.7188 45.6644C16.667 46.0548 17.6151 46.1664 17.7825 42.7642C17.894 39.3062 19.6788 35.7924 20.2923 34.175C20.9058 32.5576 20.6269 27.8726 20.6269 27.8726L17.7267 26.7571L16.9459 28.0957C16.9459 28.0957 17.5594 31.1632 17.5594 31.6094C17.5594 32.0556 16.5554 33.5057 16.5554 34.8443C16.5554 36.1829 16.4439 38.7485 16.4439 38.7485C16.4439 38.7485 16.0535 37.0752 15.5515 36.629C15.0496 36.1829 14.9938 36.1829 14.9938 36.1829C14.9938 36.1829 14.8822 33.7288 14.8822 32.8922C14.8822 32.0556 15.2726 30.6612 14.9938 30.6055C14.7149 30.5497 11.7031 31.219 11.7031 31.219H11.8147Z" fill="#FED15A"/>
<path fill-rule="evenodd" clip-rule="evenodd" d="M13.7666 8.46292C13.7666 8.46292 14.659 8.35138 14.9379 7.96096C15.2167 7.57054 15.384 7.2359 15.384 7.2359L17.615 6.95703L18.0612 7.57054L18.6747 8.12828C18.6747 8.12828 19.344 9.41108 19.1767 10.1919C19.0093 10.9727 19.0093 12.2555 18.2843 12.5344C17.5034 12.8133 16.9457 13.371 16.0533 12.8133C15.1609 12.2555 14.5474 12.1998 14.3801 11.4189C14.2128 10.6381 13.7666 8.5187 13.7666 8.5187V8.46292Z" fill="#FAB74B"/>
<path fill-rule="evenodd" clip-rule="evenodd" d="M24.6987 15.3788C25.5911 16.7174 28.9375 20.9004 28.9933 21.012L29.9414 22.2948L28.7702 23.466C27.097 21.9601 24.866 20.9004 23.7505 19.0041C22.412 18.1675 20.1252 16.4943 19.0098 14.2633L19.6233 8.35132C19.6233 8.35132 20.181 8.79751 20.3483 9.13215C20.3483 9.13215 22.3004 10.4149 21.9658 12.4786C21.9658 12.4786 23.8621 13.4825 24.6429 15.3788H24.6987Z" fill="#FED15A"/>
<path fill-rule="evenodd" clip-rule="evenodd" d="M28.2116 22.2951C28.2116 22.2951 27.877 23.4664 29.104 24.3588L31.3349 21.6816L29.3271 21.0681L28.2116 22.2951Z" fill="#FAB74B"/>
<path fill-rule="evenodd" clip-rule="evenodd" d="M30.053 22.072L30.6665 21.7931C30.6665 21.7931 30.555 22.9644 30.9454 23.0759C31.1685 23.1875 31.2243 23.1317 31.5589 22.3509C31.8936 21.7373 31.5589 21.0681 30.8339 21.0123C30.2761 20.9565 29.6626 20.9007 29.328 21.1238C29.328 21.1238 28.7702 21.6816 29.328 21.9604C29.6068 22.1835 29.8299 22.1835 30.053 22.1278V22.072Z" fill="#F7B04A"/>
<path fill-rule="evenodd" clip-rule="evenodd" d="M8.46832 15.3788C7.57594 16.7174 4.22951 20.9004 4.17374 21.012L3.22559 22.2948L4.39684 23.466C6.07005 21.9601 8.301 20.9004 9.41648 19.0041C10.7551 18.1675 13.0418 16.4943 14.1573 14.2633L13.5437 8.35132C13.5437 8.35132 12.986 8.79751 12.8187 9.13215C12.8187 9.13215 10.8666 10.4149 11.2012 12.4786C11.2012 12.4786 9.30493 13.4825 8.5241 15.3788H8.46832Z" fill="#FED15A"/>
<path fill-rule="evenodd" clip-rule="evenodd" d="M4.95439 22.2951C4.95439 22.2951 5.28903 23.4664 4.06201 24.3588L1.83105 21.6816L3.83891 21.0681L4.95439 22.2951Z" fill="#FAB74B"/>
<path fill-rule="evenodd" clip-rule="evenodd" d="M3.11366 22.072L2.50015 21.7931C2.50015 21.7931 2.6117 22.9644 2.22128 23.0759C1.99819 23.1875 1.94241 23.1317 1.60777 22.3509C1.27313 21.7373 1.60777 21.0681 2.33283 21.0123C2.89057 20.9565 3.50408 20.9007 3.83872 21.1238C3.83872 21.1238 4.39646 21.6816 3.89449 21.9604C3.61563 22.1835 3.39253 22.1835 3.16944 22.1278L3.11366 22.072Z" fill="#F7B04A"/>
<path fill-rule="evenodd" clip-rule="evenodd" d="M21.4082 13.4268L20.5158 20.1755H12.3728L11.4805 13.4268C13.0421 9.29956 13.2095 8.46295 13.2095 8.46295C13.2095 8.46295 13.4883 8.29563 14.2692 8.18408C14.2692 8.18408 14.4365 9.35533 14.7711 10.6381C15.2731 12.1998 17.504 12.1998 18.006 10.6381C18.4522 9.35533 18.508 8.18408 18.508 8.18408C19.3446 8.3514 19.5677 8.46295 19.5677 8.46295C19.5677 8.46295 19.7908 9.29956 21.4082 13.4268Z" fill="#87A0D1"/>
<path fill-rule="evenodd" clip-rule="evenodd" d="M12.5393 19.6739C12.5393 19.6739 11.6469 23.3549 11.368 26.3109C11.0891 29.2112 11.4795 31.9999 11.4795 31.9999L15.2722 31.4979L16.053 26.9802L16.8338 29.6574L17.2243 29.5458L17.0569 28.8208C17.3358 28.0957 17.8378 27.2033 18.8417 27.3707C19.6783 27.4822 20.236 27.9284 20.6265 28.3746V29.267L21.0726 29.0439C21.0726 29.0439 21.0169 24.0242 20.7938 22.7972C20.5149 21.5702 20.4034 19.6739 20.4034 19.6739C20.4034 19.6739 18.6744 19.2834 17.9493 19.2834C17.2243 19.2834 12.5393 19.6181 12.5393 19.6181V19.6739Z" fill="#3F596C"/>
<path fill-rule="evenodd" clip-rule="evenodd" d="M13.6553 37.7443C13.711 38.1904 13.8784 40.5887 14.213 41.5927C14.5477 42.7081 15.2169 43.0985 15.2169 43.0985C15.2169 43.0985 14.7707 45.3295 15.7747 45.6641C16.7228 46.0546 17.671 46.1661 17.8383 42.7639C17.8383 42.0388 17.9499 41.3696 18.1172 40.6445C17.8383 40.8676 17.4479 41.0349 17.169 41.0349C16.5555 40.9791 16.444 40.4772 16.444 40.4772L16.6113 38.7482L16.5555 38.6366V38.804C16.5555 38.804 16.1651 37.1307 15.6631 36.6846C15.1612 36.2384 15.1054 36.2384 15.1054 36.2384V36.071C15.1054 36.071 14.715 37.5769 14.1572 37.7443C14.0457 37.8 13.8784 37.8 13.711 37.7443H13.6553Z" fill="#3F596C"/>
<path fill-rule="evenodd" clip-rule="evenodd" d="M13.9894 4.0012C13.7663 4.05697 13.6547 4.44739 13.7105 4.89358C13.822 5.33977 14.1009 5.67441 14.324 5.61864C14.5471 5.56287 14.6587 5.17245 14.6029 4.72626C14.4913 4.28007 14.2125 3.94542 13.9894 4.0012Z" fill="#FAB74B"/>
<path fill-rule="evenodd" clip-rule="evenodd" d="M18.9535 5.6743C19.1765 5.73008 19.4554 5.39543 19.567 4.94924C19.6785 4.50305 19.567 4.11264 19.2881 4.05686C19.065 4.00109 18.7861 4.33573 18.6746 4.78192C18.563 5.22811 18.6746 5.61853 18.9535 5.6743Z" fill="#FAB74B"/>
<path fill-rule="evenodd" clip-rule="evenodd" d="M19.3445 4.11318C19.3445 5.5633 18.1175 8.29622 16.6674 8.29622C15.2173 8.29622 13.9902 5.5633 13.9902 4.11318C13.9902 2.66306 15.2173 1.43604 16.6674 1.43604C18.1175 1.43604 19.3445 2.66306 19.3445 4.11318Z" fill="#FED15A"/>
<path fill-rule="evenodd" clip-rule="evenodd" d="M14.2133 5.45132L14.6037 4.33584C14.6037 4.33584 14.1017 2.43953 14.8826 2.82995C14.8826 2.82995 16.6116 3.44346 18.5079 2.77418C18.5079 2.77418 19.0098 2.66263 18.731 4.44739L19.1772 5.50709C19.1772 5.50709 19.2329 4.55894 19.5118 4.16852C19.5118 4.16852 20.5715 1.6587 18.3963 0.0412598C18.3963 0.0412598 18.3406 0.654772 17.5597 0.598998C17.5597 0.598998 15.7192 0.543224 15.2172 0.877867C15.2172 0.877867 13.8229 1.15674 13.6556 2.88572C13.6556 2.88572 13.5998 3.94543 14.046 4.72626C14.046 4.61471 14.2133 5.284 14.2133 5.50709V5.45132Z" fill="#3F596C"/>
<path fill-rule="evenodd" clip-rule="evenodd" d="M0.49257 21.9049C0.102153 21.5702 0.102153 20.9567 0.436796 20.5663C0.771439 20.1759 1.38495 20.1759 1.77537 20.5105L4.28519 22.9088C4.67561 23.2434 4.67561 23.857 4.34096 24.2474C4.00632 24.6378 3.39281 24.6378 3.00239 24.3031L0.49257 21.9049Z" fill="#ACB5BC"/>
<path fill-rule="evenodd" clip-rule="evenodd" d="M0.715286 23.2988C0.882607 23.4661 1.16148 23.5219 1.3288 23.3546C1.16148 23.5219 1.1057 23.8008 1.27302 23.9681C1.44035 24.1354 1.71921 24.1912 1.88654 24.0239C1.71921 24.1912 1.66344 24.4701 1.83076 24.6374C1.99808 24.8047 2.27695 24.8605 2.44427 24.6932C2.27695 24.8605 2.22118 25.1394 2.3885 25.3067C2.55582 25.474 2.83469 25.5298 3.00201 25.3624L4.06172 24.4701C4.22904 24.3027 4.28481 24.0239 4.11749 23.8566C3.95017 23.6892 3.6713 23.6335 3.50398 23.8008C3.6713 23.6335 3.72707 23.3546 3.55975 23.1873C3.39243 23.0199 3.11356 22.9642 2.94624 23.1315C3.11356 22.9642 3.16933 22.6853 3.00201 22.518C2.83469 22.3507 2.55582 22.2949 2.3885 22.4622C2.55582 22.2949 2.6116 22.016 2.44427 21.8487C2.27695 21.6814 1.99808 21.6256 1.83076 21.7929L0.77106 22.6853C0.603738 22.9084 0.547964 23.1315 0.715286 23.2988Z" fill="#FED15A"/>
<path fill-rule="evenodd" clip-rule="evenodd" d="M31.2241 20.5105C31.6145 20.1759 32.1722 20.1759 32.5626 20.5663C32.8973 20.9567 32.8973 21.5145 32.5069 21.9049L29.997 24.3031C29.6066 24.6378 29.0489 24.6378 28.6585 24.2474C28.3238 23.857 28.3238 23.2992 28.7142 22.9088L31.2241 20.5105Z" fill="#ACB5BC"/>
<path fill-rule="evenodd" clip-rule="evenodd" d="M32.3948 23.2988C32.2275 23.4661 31.9486 23.5219 31.7813 23.3546C31.9486 23.5219 32.0044 23.8008 31.8371 23.9681C31.6698 24.1354 31.3909 24.1912 31.2236 24.0239C31.3909 24.1912 31.4467 24.4701 31.2794 24.6374C31.112 24.8047 30.8332 24.8605 30.6658 24.6932C30.8332 24.8605 30.8889 25.1394 30.7216 25.3067C30.5543 25.474 30.2754 25.5298 30.1081 25.3624L29.0484 24.4701C28.8811 24.3027 28.8253 24.0239 28.9926 23.8566C29.16 23.6892 29.4388 23.6335 29.6061 23.8008C29.4388 23.6335 29.383 23.3546 29.5504 23.1873C29.7177 23.0199 29.9966 22.9642 30.1639 23.1315C29.9966 22.9642 29.9408 22.6853 30.1081 22.518C30.2754 22.3507 30.5543 22.2949 30.7216 22.4622C30.5543 22.2949 30.4985 22.016 30.6658 21.8487C30.8332 21.6814 31.112 21.6256 31.2794 21.7929L32.3391 22.6853C32.5064 22.9084 32.5622 23.1315 32.3948 23.2988Z" fill="#FED15A"/>
</svg>
