<?xml version="1.0" encoding="utf-8"?>
<!-- Generator: Adobe Illustrator 22.0.0, SVG Export Plug-In . SVG Version: 6.00 Build 0)  -->
<svg version="1.1" id="Слой_1" xmlns="http://www.w3.org/2000/svg" xmlns:xlink="http://www.w3.org/1999/xlink" x="0px" y="0px"
	 viewBox="0 0 175.6 172.3" style="enable-background:new 0 0 175.6 172.3;" xml:space="preserve">
<style type="text/css">
	.st0{fill:#D6AC12;stroke:#13262F;stroke-width:4;stroke-miterlimit:10;}
	.st1{fill:#13262F;}
	.st2{opacity:0.1;enable-background:new    ;}
	.st3{fill:#D6AC12;}
	.st4{fill:#FFFFFF;}
	.st5{fill:#D6AC12;stroke:#13262F;stroke-width:2;stroke-miterlimit:10;}
</style>
<path class="st0" d="M99.5,82.8h-6.6c5.3-5.6,8.4-13.2,8-21.6C100.3,46.2,88.3,34,73.4,33.1C56.2,32,42,45.6,42,62.5
	c0,7.8,3.1,15,8.1,20.3h-6.6c-4.9-0.9-13.8,32.6-15.9,40.7c-0.3,1.1-0.5,2.3-0.6,3.5l-1,9.7c0,6.6,10.9,6.1,17.5,6.1h56
	c6.6,0,15.2,1.6,15.2-5l-0.6-12C114.2,119.2,106.1,82.8,99.5,82.8z"/>
<path class="st1" d="M119.6,61.7v58.7c0,4.9-1.8,8.8-4.2,8.8h-0.8c-2.3,0-4.2-3.9-4.2-8.8V61.7"/>
<rect x="110.5" y="90.4" class="st2" width="9.2" height="5"/>
<path class="st3" d="M85.2,90.4h59.1c2.3,0,4.2-2.2,4.2-5V74.3c0-2.8-1.8-5-4.2-5H85.2c-2.3,0-4.5,1.1-6,3.1l-5.9,7.5l5.8,7.5
	C80.7,89.3,83,90.4,85.2,90.4z"/>
<path class="st4" d="M79.1,79.8l5.8-7.5c1.6-2,3.8-3.1,6-3.1h-5.8c-2.3,0-4.5,1.1-6,3.1l-5.8,7.5l5.8,7.5c1.6,2,3.8,3.1,6,3.1H91
	c-2.3,0-4.5-1.1-6-3.1L79.1,79.8z"/>
<path class="st1" d="M118.3,67.8L118.3,67.8L118.3,67.8c-1.5,0-3.1,0-4.7,0 M109.1,67.8h-24c-2.6,0-5.2,1.3-6.9,3.6l-5.8,7.5
	c-0.5,0.6-0.5,1.5,0,2.1l5.8,7.4c1.8,2.3,4.3,3.6,6.9,3.6h24v32.2c0,3.6,2.4,6.6,5.4,6.6h0.8c3,0,5.4-2.9,5.4-6.6V92h23.4
	c3,0,5.4-2.9,5.4-6.6V74.4c0-3.6-2.4-6.6-5.4-6.6h-23.4 M118.4,124.2c0,1.9-1.3,3.5-2.9,3.5h-0.8c-1.6,0-2.9-1.6-2.9-3.5V91.9h6.7
	V124.2z M147.2,85.4c0,1.9-1.3,3.5-2.9,3.5H85.2c-1.9,0-3.8-1-5.2-2.6l-5-6.4l5-6.4c1.3-1.6,3.3-2.6,5.2-2.6h59.1
	c1.6,0,2.9,1.6,2.9,3.5V85.4z"/>
<ellipse class="st5" cx="107.7" cy="106.7" rx="3.4" ry="4.9"/>
<ellipse class="st5" cx="120.4" cy="108.1" rx="6.9" ry="8.7"/>
<g>
	<path class="st4" d="M33.3,135.1l1-9.4c0.1-1.1,0.3-2.3,0.6-3.4c2.1-7.8,8.2-36.2,13.1-35.3l10-3.4c-5-5.1-8.6-12.5-8.6-20.1
		c0-14.7,11.5-26.7,26.3-28.3c-0.4,0-0.9,0-1.3-0.1C56.9,31.7,42.9,46.4,43,63.6c0,7.6,3.4,14.3,8.4,19.3l-6.9,0.2
		c-4.9-0.9-13.8,31.5-15.9,39.3c-0.3,1.1-0.5,2.2-0.6,3.3l-1,9.4c0,6.4,10.9,5.8,17.5,5.8h1.8C40.2,140.8,33.3,140.1,33.3,135.1z"/>
</g>
</svg>
