<?xml version="1.0" ?><!DOCTYPE svg  PUBLIC '-//W3C//DTD SVG 1.1//EN'  'http://www.w3.org/Graphics/SVG/1.1/DTD/svg11.dtd'><svg enable-background="new 0 0 128 128" id="Слой_1" version="1.1" viewBox="0 0 128 128" xml:space="preserve" xmlns="http://www.w3.org/2000/svg" xmlns:xlink="http://www.w3.org/1999/xlink"><line fill="#FFFFFF" x1="58.5" x2="58.5" y1="64.5" y2="49.6"/><path d="M69.5,85.5V119c0,2.8-2.2,5-5,5h-1c-2.8,0-5-2.2-5-5V85.5" fill="#13262F"/><line fill="#FFFFFF" x1="69.5" x2="69.5" y1="51.4" y2="64"/><path d="M58.5,68V12.2c0-2,1.1-3.7,2.9-4.6L69.5,4v65.7" fill="#13262F"/><polygon opacity="0.1" points="58.5,22.9 58.5,28 69.5,29.7 69.5,24.7 "/><path d="M85,53.9l-46.9-7.5c-2.8-0.4-4.6-3.1-4.1-5.9l2.1-11.2c0.5-2.7,3-4.4,5.7-4l46.8,7.5  c2.8,0.5,5.3,2.1,6.8,4.5L101,46l-8.7,6.1C90.2,53.7,87.6,54.3,85,53.9z" fill="#D6AC12"/><path d="M40,40.4l2.1-11.2c0.3-1.6,1.3-2.8,2.7-3.5l-3-0.5c-2.7-0.4-5.2,1.3-5.7,4L34,40.4c-0.5,2.8,1.3,5.4,4.1,5.9  L85,53.9c1.5,0.2,2.9,0.1,4.3-0.3l-45.2-7.3C41.3,45.9,39.4,43.2,40,40.4z" fill="#FFFFFF"/><rect height="5" opacity="0.1" width="11" x="58.5" y="85.5"/><rect height="4.5" opacity="0.1" width="11" x="58.5" y="59.5"/><path d="M28.3,85.5H99c2.8,0,5-2.2,5-5v-11c0-2.8-2.2-5-5-5H28.3c-2.7,0-5.4,1.1-7.2,3.1L14,75l7,7.4  C22.9,84.4,25.6,85.5,28.3,85.5z" fill="#D6AC12"/><path d="M21,75l7-7.4c1.9-2,4.5-3.1,7.2-3.1h-7c-2.7,0-5.4,1.1-7.2,3.1L14,75l7,7.4c1.9,2,4.5,3.1,7.2,3.1h7  c-2.7,0-5.4-1.1-7.2-3.1L21,75z" fill="#FFFFFF"/><polygon opacity="0.1" points="58.5,54.7 69.5,56.4 69.5,51.4 58.5,49.6 "/><path d="M20,83.4c2.2,2.3,5.2,3.6,8.3,3.6H57v32c0,3.6,2.9,6.5,6.5,6.5h1c3.6,0,6.5-2.9,6.5-6.5V87h28  c3.6,0,6.5-2.9,6.5-6.5v-11c0-3.6-2.9-6.5-6.5-6.5H71v-9.9l13.7,2.2c0.6,0.1,1.2,0.1,1.8,0.1c2.4,0,4.7-0.7,6.6-2.1l8.7-6.1  c0.7-0.5,0.8-1.4,0.4-2l-5.6-8.7c-1.8-2.8-4.6-4.6-7.9-5.2L71,28.4V4c0-0.5-0.3-1-0.7-1.3c-0.4-0.3-1-0.3-1.4-0.1l-8.1,3.7  C58.5,7.4,57,9.7,57,12.2v14l-15-2.4c-0.3-0.1-0.7-0.1-1-0.1c-3.1,0-5.8,2.2-6.4,5.3l-2.1,11.2c-0.3,1.7,0,3.5,1.1,4.9  c1,1.5,2.5,2.4,4.3,2.7L57,50.9V63H28.3c-3.1,0-6.2,1.3-8.3,3.6l-7,7.4c-0.6,0.6-0.6,1.5,0,2.1L20,83.4z M68,119  c0,1.9-1.6,3.5-3.5,3.5h-1c-1.9,0-3.5-1.6-3.5-3.5V87h8V119z M60,12.2c0-1.4,0.8-2.6,2.1-3.2L68,6.3V28l-8-1.3V12.2z M36,43.4  c-0.5-0.8-0.8-1.7-0.6-2.7l2.1-11.2c0.3-1.6,1.8-2.8,3.4-2.8c0.2,0,0.4,0,0.6,0l46.8,7.5c2.4,0.4,4.5,1.8,5.8,3.8l4.8,7.5l-7.5,5.3  c-1.8,1.3-4.1,1.8-6.3,1.5l-46.9-7.5C37.4,44.7,36.6,44.2,36,43.4z M60,51.4l8,1.3V63h-8V51.4z M22.1,68.6C23.7,67,26,66,28.3,66H99  c1.9,0,3.5,1.6,3.5,3.5v11c0,1.9-1.6,3.5-3.5,3.5H28.3c-2.3,0-4.6-1-6.2-2.6L16.1,75L22.1,68.6z" fill="#13262F"/></svg>