<svg xmlns="http://www.w3.org/2000/svg" viewBox="0 0 1800 1300"><g style="isolation:isolate"><g id="Layer_1" data-name="Layer 1"><path id="hp-background" fill="#76c9e8" d="M0 0h1800v1377.37H0z"/><path d="M1315.38 884.2a132.65 132.65 0 0 0-61.86 15.23c-5.71-43.1-42.13-76.33-86.22-76.33a86.3 86.3 0 0 0-65.44 30.08c.26-3.7.4-7.42.4-11.19 0-86.19-68.93-156.06-154-156.06s-154 69.87-154 156.06a159.33 159.33 0 0 0 1.83 24.11 58.55 58.55 0 0 0-98.4 17.19c-9.44-46.36-49.94-81.22-98.47-81.22-55.53 0-100.55 45.63-100.55 101.92a104.1 104.1 0 0 0 1.11 15.19 111.53 111.53 0 0 0-68.56 103.31c0 61.58 49.25 111.5 110 111.5s699.69 23.26 774.08 23.26 134.69-61.12 134.69-136.53-60.22-136.52-134.61-136.52z" fill="#fff" opacity=".4"/><path id="hp-cloud" data-name="hp-cloud" d="M1453.25 561.23a28.72 28.72 0 0 0-13.39 3.3 18.93 18.93 0 0 0-18.67-16.53 18.68 18.68 0 0 0-14.17 6.51c.06-.8.09-1.61.09-2.42a33.34 33.34 0 1 0-66.66 0 34.49 34.49 0 0 0 .4 5.22 12.68 12.68 0 0 0-21.3 3.72 21.75 21.75 0 0 0-43.09 4.48 22.54 22.54 0 0 0 .24 3.29 24.19 24.19 0 0 0 9 46.51c13.15 0 151.48 5 167.59 5a29.56 29.56 0 0 0-.04-59.08z" fill="#fff" opacity=".4"/><path id="hp-cloud-2" data-name="hp-cloud" d="M634.5 314.91a17.57 17.57 0 0 0-8.19 2 11.58 11.58 0 0 0-11.42-10.11 11.43 11.43 0 0 0-8.67 4c0-.49.05-1 .05-1.48a20.39 20.39 0 1 0-40.78 0 21.1 21.1 0 0 0 .24 3.19 7.75 7.75 0 0 0-13 2.28 13.3 13.3 0 0 0-26.36 2.74 13.79 13.79 0 0 0 .15 2A14.8 14.8 0 0 0 532 348c8 0 92.67 3.08 102.52 3.08a18.08 18.08 0 0 0-.02-36.17z" fill="#fff" opacity=".4"/><path id="hp-cloud-3" data-name="hp-cloud" d="M1149.69 205.91a13.29 13.29 0 0 1 6.2 1.53 8.76 8.76 0 0 1 8.63-7.65 8.64 8.64 0 0 1 6.55 3v-1.12a15.42 15.42 0 1 1 30.84 0 16 16 0 0 1-.18 2.41 5.86 5.86 0 0 1 9.86 1.72 10.06 10.06 0 0 1 19.93 2.07 10.43 10.43 0 0 1-.11 1.52 11.19 11.19 0 0 1-4.15 21.51c-6.08 0-70.08 2.33-77.53 2.33a13.68 13.68 0 0 1-.04-27.32z" fill="#fff" opacity=".4"/><path id="hp-cloud-4" data-name="hp-cloud" d="M2980 654.3a28.72 28.72 0 0 0-13.39 3.3 18.93 18.93 0 0 0-18.67-16.53 18.68 18.68 0 0 0-14.17 6.51c.06-.8.09-1.61.09-2.42a33.34 33.34 0 1 0-66.66 0 34.49 34.49 0 0 0 .4 5.22 12.68 12.68 0 0 0-21.3 3.72 21.75 21.75 0 0 0-43.09 4.48 22.54 22.54 0 0 0 .24 3.29 24.19 24.19 0 0 0 9 46.51c13.15 0 151.48 5 167.59 5a29.56 29.56 0 0 0-.04-59.08z" fill="#fff" opacity=".4"/><path id="hp-cloud-5" data-name="hp-cloud" d="M1678.86 314.91a17.57 17.57 0 0 0-8.19 2 11.58 11.58 0 0 0-11.42-10.11 11.43 11.43 0 0 0-8.67 4c0-.49.05-1 .05-1.48a20.39 20.39 0 1 0-40.78 0 21.1 21.1 0 0 0 .24 3.19 7.75 7.75 0 0 0-13 2.28 13.3 13.3 0 0 0-26.36 2.74 13.79 13.79 0 0 0 .15 2 14.8 14.8 0 0 0 5.49 28.45c8 0 92.67 3.08 102.52 3.08a18.08 18.08 0 0 0-.03-36.15z" fill="#fff" opacity=".4"/><path id="hp-cloud-6" data-name="hp-cloud" d="M2676.44 299a13.29 13.29 0 0 1 6.2 1.53 8.76 8.76 0 0 1 8.63-7.65 8.64 8.64 0 0 1 6.55 3v-1.12a15.42 15.42 0 1 1 30.84 0 16 16 0 0 1-.18 2.41 5.86 5.86 0 0 1 9.86 1.72 10.06 10.06 0 0 1 19.93 2.07 10.43 10.43 0 0 1-.11 1.52A11.19 11.19 0 0 1 2754 324c-6.08 0-70.08 2.33-77.53 2.33a13.68 13.68 0 0 1-.03-27.33z" fill="#fff" opacity=".4"/><path id="hp-cloud-7" data-name="hp-cloud" d="M629.25 505.08a4.76 4.76 0 0 1 2.22.55 3.14 3.14 0 0 1 3.09-2.74 3.1 3.1 0 0 1 2.35 1.08v-.4a5.52 5.52 0 1 1 11 0 5.72 5.72 0 0 1-.07.86 2.1 2.1 0 0 1 3.53.62 3.6 3.6 0 0 1 7.14.74 3.73 3.73 0 0 1 0 .54A4 4 0 0 1 657 514c-2.18 0-25.1.83-27.77.83a4.9 4.9 0 0 1 .02-9.75z" fill="#fff" opacity=".4"/><path fill="#5cc29f" d="M0 1300.65h1800v142.92H0z"/><g><g id="hp-plane-a"><g id="hp-banner-a"><path d="M1392.85 467.53l-39-.42a104.71 104.71 0 0 0-103.47-105.7l.42-39c79.2.85 142.9 65.95 142.05 145.12z" fill="#e23c52"/><path fill="#5f5863" d="M1219.93 341.86l34.67-21.67.26 1.05-33.09 20.52 31.31 17.66-.35.75-32.8-18.31z"/><path fill="#ffff85" d="M1261.14 319.61l-3.64 42.27-5.74.07 2.14-43 7.24.66z"/></g><path id="hp-prop-a" d="M1078.95 316.58a162.82 162.82 0 0 1-.17 53.11c0 1.47 1.47 2.67 3.29 2.68s3.3-1.18 3.31-2.66c0-1.16-2.15-7.83-2.09-26.56s2.26-25.39 2.27-26.55c0-1.47-1.47-2.67-3.29-2.68s-3.27 1.19-3.32 2.66z" fill="#352c3a"/><path d="M1086.61 338.56c2.69 0 3.55 2.19 3.54 4.88s-.88 4.87-3.57 4.86-7.73-3.16-7.72-4.89 5.06-4.86 7.75-4.85z" fill="#ffff85"/><path fill="#5d899f" d="M1151.6 278.13l-7.34 125.15-11.27.3 6.6-127.19 12.01 1.74z"/><path d="M1090.83 321.12c11.44 1 137.3 11 137.26 22.5 0 10.56-133.63 20.35-134.55 20.35-9.77-6.26-9.6-34.9-2.71-42.85z" fill="#e9e8e8"/><path d="M1085.91 340.62a55.56 55.56 0 0 0 .47 7.81l118 3.35c14.08-2.55 23.69-5.32 23.7-8.15a1.77 1.77 0 0 0-.19-.73z" fill="#352c3a" opacity=".1"/><path d="M1085 343.16c.32 9.07 2.75 17.93 7.7 21.1.93 0 136.33-9.92 136.36-20.62v-.09z" fill="#ededed"/><path d="M1110.45 339.47h-1.14l-.06.91h1.21V344h-1.38v1.1h1.39l.21 17.47c8.95-.74 21-1.71 34-3l.87-13.66h.55l.07-.91h-.55l.18-2.82.06-1h.44v-1.1h-.3l.88-13.88c-13.75-1.5-26.7-2.87-36.6-3.76z" fill="#352c3a" opacity=".1"/><path fill="#e23c52" d="M1144.67 266l-9.32 147.51-29.98-5.92-1.68-137.01 40.98-4.58zM1223.08 320.76l-4.02 43.6-13.16-1.76-.8-40.51 17.98-1.33z"/><path fill="#ffff85" d="M1223.08 320.76l-1.68 43.91-5.92-.02.97-43.92 6.63.03zM1147.48 270.05l.17-5.13-43.14.43-.03 8.08 43-3.38zM1139 409.42l.14 5.13-32.84.33.03-8.08 32.67 2.62z"/><g fill="#ffff85"><path d="M1139.19 383.54l.28-4.4-32.58-.1.05 3.89 32.25.61zM1106.43 341.27l.05 3.95 35.11.49.27-4.33-35.43-.11zM1105.92 299.42l.07 5.52 38.14.46.32-5.01-38.53-.97z"/></g><path fill="#495176" d="M1106.27 383.62l.01-1.1 33.59 1.03-.06.9-33.54-.83zM1105.11 409.27l-.06-1.1 33.61-.84-.01.91-33.54 1.03zM1139.96 377.83l.04 1.1-33.61.29.03-.91 33.54-.48zM1105.09 345.27v-1.1l37.08 1.04-.06.9-37.02-.84zM1142.29 340.29l.01 1.1-37.09-.81.06-.91 37.02.62zM1104.48 303.88l.04-1.09 41.34 2.38-.1.9-41.28-2.19zM1145.86 298.65l.03 1.1-41.41-.09.05-.91 41.33-.1zM1146.2 270.98l.03 1.1-41.41-.09.05-.91 41.33-.1z"/><path d="M1113.83 381a1 1 0 1 0 1-1 1 1 0 0 0-1 1zm1.63-.07a.66.66 0 1 1-.66-.66.66.66 0 0 1 .66.63zM1122.88 381.71a1 1 0 1 0 0-1.45 1 1 0 0 0 0 1.45zm1.13-1.17a.66.66 0 1 1-.93 0 .66.66 0 0 1 .92-.01zM1131.88 381.72a1 1 0 1 0 0-1.45 1 1 0 0 0 0 1.45zm1.13-1.17a.66.66 0 1 1-.93 0 .66.66 0 0 1 .92 0zM1114 342.76a1 1 0 1 0 1-1 1 1 0 0 0-1 1zm1.63-.07a.66.66 0 1 1-.66-.66.66.66 0 0 1 .62.65zM1124.93 343.32a1 1 0 1 0 1-1.07 1 1 0 0 0-1 1.07zm1.62-.16a.66.66 0 1 1-.69-.63.66.66 0 0 1 .69.64zM1114.24 302.24a1 1 0 1 0 .34-1.41 1 1 0 0 0-.34 1.41zm1.35-.92a.66.66 0 1 1-.91-.22.66.66 0 0 1 .91.22zM1126.47 301.9a1 1 0 1 0 1-1.07 1 1 0 0 0-1 1.07zm1.62-.16a.66.66 0 1 1-.69-.63.66.66 0 0 1 .69.63zM1136.71 303.41a1 1 0 1 0-.53-1.35 1 1 0 0 0 .53 1.35zm.58-1.52a.66.66 0 1 1-.87.34.66.66 0 0 1 .86-.35zM1136.33 344a1 1 0 1 0 0-1.45 1 1 0 0 0 0 1.45zm1.13-1.17a.66.66 0 1 1-.93 0 .66.66 0 0 1 .93.03z" fill="#353e67"/><path fill="#495176" d="M1215.83 319.93l1.1-.07.17 44.29h-.9l-.37-44.22z"/><path d="M1210.89 338.08a1 1 0 1 0 1-1.07 1 1 0 0 0-1 1.07zm1.62-.16a.66.66 0 1 1-.69-.63.66.66 0 0 1 .69.63zM1210.93 343.07a1 1 0 1 0 1-1.07 1 1 0 0 0-1 1.07zm1.62-.16a.66.66 0 1 1-.69-.63.66.66 0 0 1 .69.63zM1211 348.06a1 1 0 1 0 1-1.07 1 1 0 0 0-1 1.07zm1.62-.16a.66.66 0 1 1-.69-.63.66.66 0 0 1 .67.63z" fill="#ffff85"/><g fill="#fff"><path d="M1284.81 347.18a4.59 4.59 0 0 1-6 3l-3.26-1 2.68-8.89 3.26 1a4.61 4.61 0 0 1 3.32 5.89zm-6.64.91l1.11.33a2.79 2.79 0 0 0 1.61-5.33l-1.11-.33zM1291.05 344.56l-2.22 5.68a1.47 1.47 0 1 0 2.73 1.07l2.22-5.68 2 .78-2.23 5.7a3.62 3.62 0 0 1-6.73-2.64l2.23-5.7zM1301.9 359.55l2.55-5.16-4.35 4.28-1.43-.71.7-6.08-2.55 5.16-1.88-.93 4.12-8.33 2.22 1.1-.64 6.89 5.06-4.71 2.19 1.08-4.11 8.33zM1314.45 356a3.36 3.36 0 1 1-3.48 5.74l-1.49-.9-1.33 2.2-1.84-1.11 4.81-7.94zm-.7 3.5a1.52 1.52 0 0 0-.44-2.14l-1.26-.76-1.66 2.74 1.26.76a1.52 1.52 0 0 0 2.1-.56zM1322 363.26l1.12-1.48 5.07 3.83-1.12 1.48-1.68-1.27-4.47 5.93-1.72-1.29 4.47-5.93zM1328.46 373.06l-2.42 2.78-1.62-1.41 6.09-7 1.62 1.41-2.46 2.83 2.42 2.11 2.46-2.83 1.61 1.4-6.09 7-1.61-1.4 2.42-2.78zM1337.57 379l2.48 2.49-1.19 1.19-2.48-2.49-1.45 1.44 2.48 2.49-1.22 1.22-4-4 6.58-6.56 4 4-1.22 1.22-2.48-2.49zM1346.43 385.63l1.44-1.18 4 4.91-1.44 1.18-1.34-1.63-5.74 4.71L1342 392l5.74-4.71zM1355.92 394.83a3.28 3.28 0 0 1-.77 4.7 3.22 3.22 0 0 1-3.51.24l-1.31 3.21-1.45-2 1.14-2.83-.58-.82-2.1 1.49-1.25-1.75 7.56-5.39zm-2 2.93a1.52 1.52 0 0 0 .44-2.14l-.85-1.2-2.61 1.86.85 1.2a1.52 1.52 0 0 0 2.13.28zM1360.68 402l-5.22 3.16a1.47 1.47 0 1 0 1.52 2.51l5.22-3.16 1.11 1.84-5.23 3.16a3.62 3.62 0 0 1-3.74-6.19l5.23-3.16zM1360.18 420.51l5.16-2.54-6 .75-.7-1.43 4.25-4.4-5.16 2.55-.93-1.88 8.33-4.1 1.1 2.22-4.7 5.08 6.88-.66 1.08 2.19-8.33 4.11zM1372.28 425.34a3.35 3.35 0 1 1-6.25 2.44l-.63-1.62-2.4.94-.78-2 8.65-3.38zm-2.68 2.36a1.52 1.52 0 0 0 1-2l-.54-1.37-3 1.17.54 1.37a1.52 1.52 0 0 0 2 .83zM1368.38 434.61a1.36 1.36 0 1 1-1.71-.88 1.35 1.35 0 0 1 1.71.88zm6.79-1l-5.78 1.87-.67-2.07 5.78-1.87zM1370.06 440.2a1.36 1.36 0 1 1-1.67-1 1.35 1.35 0 0 1 1.67 1zm6.83-.74l-5.86 1.62-.58-2.1 5.86-1.62z"/></g></g><path d="M865.82 823.51s2.42-32.73 25.39-32.73 20.37 35.34 20.37 35.34-9.31 7.81-24.56 5.21-21.2-7.82-21.2-7.82z" fill="#e1e2e8"/><path d="M911.42 820.39c0-1.09-.11-2.3-.23-3.58-4.25-2.07-19.62-10.47-19.62-10.47s-20.31 9.42-25.24 12.24c-.24 1.26-.4 2.33-.51 3.16.45.4 44-1.28 45.6-1.35z" fill="#d7d8e1"/><path d="M867.65 815.68s.59-24.9 23.56-24.9 20 26 20 26l-19.61-13.22z" fill="#e1e2e8"/><g id="hp-whitehouse"><g><path d="M580.85 949.49l8 42.24s61.74 3 67.62 1.08-.79-47.11-.79-47.11zM1241.55 961.51l-8 42.24s-61.74 3-67.62 1.08.79-47.11.79-47.11z" fill="#ebecf0"/><path d="M900.32 985.42c-10-.93-544.17 5.3-544.17 5.3l7.63 314.72h1096.77l1.91-307.09s-552.09-12.01-562.14-12.93zm-500 41.17L398 996h7.92l1.47 30.63h-7.06zm14.28 0L412.48 996h7.92l1.27 30.63h-7.06zm14.22 0l-.71-30.91 7.89.32-.16 30.87zm16.15 0l-.71-30.91 7.94.32-.2 30.89zm16.3 0l-.71-30.91 7.94.32-.16 30.87zm51.71-2.87l-2.24-30.63h7.92l1.37 30.63H513zm14.48 0l-2.24-30.63h7.92l1.37 30.63h-7.06zm14.22 0l-.81-30.91 7.91.37-.03 30.82zm16.15 0l-.83-30.96 7.91.37-.01 30.87zm16.3 0l-.81-30.91 7.91.37-.03 30.82zm671.32 8.35l-7.05.33 1-30.87 7.91-.37zm16.3 0l-7.05.33 1-30.87 7.91-.37zm16.15 0l-7.05.33 1-30.87 7.91-.37zm14.22 0h-7.06l2.45-30.63h7.92zm14.48 0h-7.06l2.45-30.63h7.92zm53.08 2.74l-7.05.33-.46-30.74 7.91-.37zm16.3 0l-7.05.33-.46-30.74 7.91-.37zm16.15 0l-7.05.33-.46-30.74 7.91-.37zm14.22 0h-7.06l1-30.49h7.92zm14.48 0h-7.06l1-30.49h7.92z" fill="#f5f5f7"/><path d="M674.75 1003.07c-.3-4.54-4.55-7.62-10.26-7.62-.58 0-5.7.59-6.25.67h-15.77l-13.63-.66c-.56-.07-2.65.54-3.23.54-5.71 0-9.7 5.7-9.4 10.24s4.68 8.83 10.39 8.83a12.65 12.65 0 0 0 5.7-1.33l.7 276.13h-3.23l2 31.28 18.75 1.09h40.66l-2-31.28h-10.1l-18.77-277.49c1.79 1 4.31 2.19 6.62 1.9 7.07-.91 8.07-7.76 7.82-12.3zM1152.09 1007.27c.3-4.54 4.55-7.62 10.26-7.62.58 0 5.7.59 6.25.67h15.77l13.63-.66c.56-.07 2.65.54 3.23.54 5.71 0 9.7 5.7 9.4 10.24s-4.68 8.83-10.39 8.83a12.65 12.65 0 0 1-5.7-1.33l3.56 277.22h3.23l-2 31.28h-76.88l2-31.28h10.06l32-277.49c-1.79 1-4.31 2.19-6.62 1.9-7.09-.92-8.1-7.77-7.8-12.3z" fill="#ebecf0"/><path fill="#f5f5f7" d="M388.88 994.47l88.2-.11.02-19.66-88.22 2.61v17.16zM497.51 992.56h93.33l2.46-15.27-96.55-1.5.76 16.77z"/><path d="M646.84 1017.6l21 301.27s66.41 8 67 4.54-10-313.33-10-313.33l-78.3-17.32z" fill="#ebecf0"/><path d="M724.86 1010.08s16.53 297.06 10 307.62l350.08 2.22 2-301.92z" fill="#fff"/><path fill="#ebecf0" d="M1174.62 1017.6l-17.09 300.1-75.3 2.22 4.66-301.91 87.73-18.34v17.93z"/><path fill="#e1e2e8" d="M637.66 995.37l87.2 14.71 362.03 7.93 109.24-18.8-257.14-18.99-299.06 10.7-2.27 4.45z"/><path d="M609.66 871.73s276-30.07 279.37-28.85 331.34 36.77 331.34 36.77l-21 120.19-566.45-7.74z" fill="#fff"/><path d="M678.84 999.7c-.3-4.54-4.25-7.18-10-7.18-.58 0-6.07-.28-6.62-.2h-15.73l-13.61-.19c-.56-.07-2.65.54-3.23.54-5.71 0-9.7 5.7-9.4 10.24s4.68 8.83 10.39 8.83a12.65 12.65 0 0 0 5.7-1.33l1 277.22h-3.24l2 31.28h60.5l-15.73-31.28h-10.01l-6.47-277.49c1.79 1 4.31 2.19 6.62 1.9 7.12-.95 8.12-7.8 7.83-12.34z" fill="#f3f3f6"/><g><path fill="#ebecf0" d="M571.43 1123.09l-49.96 1.96-.95-79.71 48.94 1.12 1.97 76.63z"/><path fill="#dfe0e7" d="M575.1 1121.61l-57.42-.3-.54 13.18 58.27.6-.31-13.48z"/><path fill="#fff" d="M545.01 1066.41l-14.06.34.21-13.24 13.14.61.71 12.29zM561.72 1098.91l-14.06.34.21-13.24 13.14.61.71 12.29zM561.97 1067.33l-13.69-.56-.68-12.92h14.06l.31 13.48zM546.58 1115.61l-13.69-.56-.67-12.91h14.06l.3 13.47zM545.85 1083.13l-13.69-.56-.68-12.92h14.07l.3 13.48zM562.56 1083.13h-13.51l-.68-12.98 13.38-.23.81 13.21zM546.29 1099.23h-13.5l-.68-12.97 13.38-.23.8 13.2zM563.37 1115.48l-14.37.47.39-13.68h13.18l.8 13.21z"/></g><g><path fill="#ebecf0" d="M459.28 1123.09l-49.96 1.96-.95-79.71 48.94 1.12 1.97 76.63z"/><path fill="#dfe0e7" d="M462.95 1121.61l-57.42-.3-.54 13.18 58.27.6-.31-13.48z"/><path fill="#fff" d="M432.86 1066.41l-14.06.34.21-13.24 13.14.61.71 12.29zM449.57 1098.91l-14.06.34.21-13.24 13.14.61.71 12.29zM449.82 1067.33l-13.69-.56-.68-12.92h14.06l.31 13.48zM434.44 1115.61l-13.69-.56-.68-12.91h14.06l.31 13.47zM433.7 1083.13l-13.69-.56-.68-12.92h14.07l.3 13.48zM450.41 1083.13H436.9l-.68-12.98 13.38-.23.81 13.21zM434.14 1099.23h-13.5l-.68-12.97 13.38-.23.8 13.2zM451.22 1115.48l-14.37.47.4-13.68h13.17l.8 13.21z"/></g><g><path fill="#ebecf0" d="M571.43 1253.27l-49.96 1.96-.95-79.71 48.94 1.11 1.97 76.64z"/><path fill="#ebecf0" d="M575.1 1251.79l-57.42-.31-.54 13.19 58.27.59-.31-13.47z"/><path fill="#fff" d="M545.01 1196.59l-14.06.34.21-13.25 13.14.62.71 12.29zM561.72 1229.09l-14.06.34.21-13.24 13.14.61.71 12.29zM561.97 1197.5l-13.69-.56-.68-12.91h14.06l.31 13.47zM546.58 1245.79l-13.69-.56-.67-12.92h14.06l.3 13.48zM545.85 1213.31l-13.69-.56-.68-12.92h14.07l.3 13.48zM562.56 1213.31h-13.51l-.68-12.98 13.38-.23.81 13.21zM546.29 1229.41h-13.5l-.68-12.98 13.38-.22.8 13.2zM563.37 1245.65l-14.37.48.39-13.68h13.18l.8 13.2z"/></g><g><path fill="#ebecf0" d="M459.28 1253.27l-49.96 1.96-.95-79.71 48.94 1.11 1.97 76.64z"/><path fill="#ebecf0" d="M462.95 1251.79l-57.42-.31-.54 13.19 58.27.59-.31-13.47z"/><path fill="#fff" d="M432.86 1196.59l-14.06.34.21-13.25 13.14.62.71 12.29zM449.57 1229.09l-14.06.34.21-13.24 13.14.61.71 12.29zM449.82 1197.5l-13.69-.56-.68-12.91h14.06l.31 13.47zM434.44 1245.79l-13.69-.56-.68-12.92h14.06l.31 13.48zM433.7 1213.31l-13.69-.56-.68-12.92h14.07l.3 13.48zM450.41 1213.31H436.9l-.68-12.98 13.38-.23.81 13.21zM434.14 1229.41h-13.5l-.68-12.98 13.38-.22.8 13.2zM451.22 1245.65l-14.37.48.4-13.68h13.17l.8 13.2z"/></g><g><path fill="#ebecf0" d="M1245.36 1126.52l49.97 1.94.7-78.84-48.94 1.1-1.73 75.8z"/><path fill="#dfe0e7" d="M1241.69 1125.06l57.42-.3.58 13.04-58.27.59.27-13.33z"/><path fill="#fff" d="M1271.61 1070.46l14.06.34-.25-13.1-13.14.6-.67 12.16zM1255 1102.61l14.06.34-.25-13.1-13.15.6-.66 12.16zM1254.65 1071.36l13.69-.55.64-12.77h-14.07l-.26 13.32zM1270.18 1119.12l13.69-.55.64-12.77h-14.06l-.27 13.32zM1270.82 1086.99l13.69-.55.63-12.77h-14.06l-.26 13.32zM1254.11 1086.99h13.51l.64-12.83-13.39-.23-.76 13.06zM1270.43 1102.93h13.5l.64-12.84-13.38-.23-.76 13.07zM1253.4 1118.99l14.37.47-.44-13.53h-13.17l-.76 13.06z"/></g><g><path fill="#ebecf0" d="M1353.8 1126.52l49.96 1.94.7-78.84-48.94 1.1-1.72 75.8z"/><path fill="#dfe0e7" d="M1350.12 1125.06l57.42-.3.58 13.04-58.26.59.26-13.33z"/><path fill="#fff" d="M1380.04 1070.46l14.06.34-.25-13.1-13.14.6-.67 12.16zM1363.43 1102.61l14.06.34-.25-13.1-13.14.6-.67 12.16zM1363.09 1071.36l13.68-.55.64-12.77h-14.06l-.26 13.32zM1378.62 1119.12l13.69-.55.63-12.77h-14.06l-.26 13.32zM1379.25 1086.99l13.69-.55.64-12.77h-14.07l-.26 13.32zM1362.55 1086.99h13.5l.64-12.83-13.38-.23-.76 13.06zM1378.86 1102.93h13.5l.65-12.84-13.39-.23-.76 13.07zM1361.83 1118.99l14.37.47-.43-13.53h-13.18l-.76 13.06z"/></g><g><path fill="#ebecf0" d="M1245.36 1243.57l49.97 1.94.7-78.84-48.94 1.1-1.73 75.8z"/><path fill="#ebecf0" d="M1241.69 1242.1l57.42-.3.58 13.04-58.27.59.27-13.33z"/><path fill="#fff" d="M1271.61 1187.5l14.06.34-.25-13.1-13.14.61-.67 12.15zM1255 1219.65l14.06.34-.25-13.1-13.15.6-.66 12.16zM1254.65 1188.41l13.69-.55.64-12.78h-14.07l-.26 13.33zM1270.18 1236.17l13.69-.55.64-12.78h-14.06l-.27 13.33zM1270.82 1204.04l13.69-.55.63-12.78h-14.06l-.26 13.33zM1254.11 1204.04h13.51l.64-12.84-13.39-.22-.76 13.06zM1270.43 1219.97h13.5l.64-12.84-13.38-.22-.76 13.06zM1253.4 1236.04l14.37.47-.44-13.54h-13.17l-.76 13.07z"/></g><g><path fill="#ebecf0" d="M1353.8 1243.57l49.96 1.94.7-78.84-48.94 1.1-1.72 75.8z"/><path fill="#ebecf0" d="M1350.12 1242.1l57.42-.3.58 13.04-58.26.59.26-13.33z"/><path fill="#fff" d="M1380.04 1187.5l14.06.34-.25-13.1-13.14.61-.67 12.15zM1363.43 1219.65l14.06.34-.25-13.1-13.14.6-.67 12.16zM1363.09 1188.41l13.68-.55.64-12.78h-14.06l-.26 13.33zM1378.62 1236.17l13.69-.55.63-12.78h-14.06l-.26 13.33zM1379.25 1204.04l13.69-.55.64-12.78h-14.07l-.26 13.33zM1362.55 1204.04h13.5l.64-12.84-13.38-.22-.76 13.06zM1378.86 1219.97h13.5l.65-12.84-13.39-.22-.76 13.06zM1361.83 1236.04l14.37.47-.43-13.54h-13.18l-.76 13.07z"/></g><path fill="#e1e2e8" d="M625 952.45l2.25 9.76 286.88-6.38 289.99 16.75 1.39-7.56-290.26-21.39L625 952.45z"/><path fill="#ebecf0" d="M612.17 884.72l2.7 12.95 299.26-25.36 301.68 33.44 1.51-8.65-325.13-68.67-280.02 56.29z"/><path fill="#f5f5f7" d="M571.64 902.93l319-89.39 356.14 101-42.89 55.03L906.49 953l-279.81 4.38-55.04-54.45z"/><path fill="#fff" d="M626.12 917.24l262.71-74.76 304.62 88.63-338.16-16.31-229.17 2.44z"/><path fill="#ebecf0" d="M888.83 850.09l273.23 79.51 31.39 1.51-304.62-88.63-262.71 74.76 27.81-.3 234.9-66.85z"/><path d="M631.44 1007.72a6.82 6.82 0 0 1-3.88-1.23 4.86 4.86 0 0 1-2.09-3.25 5.47 5.47 0 0 1 1.23-4.1 4.55 4.55 0 0 1 3.19-1.77 5.09 5.09 0 0 1 3.59 1.28 3.49 3.49 0 0 1 1.22 2.46 3.61 3.61 0 0 1-3 3.67 3.52 3.52 0 0 1-3.7-2.69.61.61 0 0 1 .43-.74.6.6 0 0 1 .74.43 2.3 2.3 0 0 0 2.39 1.78 2.39 2.39 0 0 0 1.9-2.42 2.29 2.29 0 0 0-.82-1.59 3.81 3.81 0 0 0-2.69-1 3.35 3.35 0 0 0-2.33 1.32 4.3 4.3 0 0 0-1 3.16 3.65 3.65 0 0 0 1.59 2.43 5.16 5.16 0 0 0 8.17-4.94.61.61 0 0 1 1.22-.09 6.71 6.71 0 0 1-5.06 7.14 5.9 5.9 0 0 1-1.1.15zM668.82 996.55a6.82 6.82 0 0 1 3.92 1.1 4.86 4.86 0 0 1 2.2 3.18 5.47 5.47 0 0 1-1.09 4.14 4.55 4.55 0 0 1-3.13 1.88 5.09 5.09 0 0 1-3.63-1.16 3.49 3.49 0 0 1-1.3-2.42 3.61 3.61 0 0 1 2.86-3.77 3.52 3.52 0 0 1 3.79 2.56.61.61 0 0 1-.41.76.6.6 0 0 1-.76-.41 2.3 2.3 0 0 0-2.45-1.7 2.39 2.39 0 0 0-1.81 2.48 2.29 2.29 0 0 0 .87 1.56 3.81 3.81 0 0 0 2.72.88 3.35 3.35 0 0 0 2.29-1.4 4.3 4.3 0 0 0 .86-3.19 3.65 3.65 0 0 0-1.67-2.38 5.16 5.16 0 0 0-8 5.21.61.61 0 1 1-1.21.13 6.71 6.71 0 0 1 4.82-7.31 5.9 5.9 0 0 1 1.13-.14z" fill="#d7d8e1"/><path fill="#f5f5f7" d="M1436.19 1007.71l-94.02-.82 1.43-16.95 91.46 1.15 1.13 16.62zM1319.37 1004.55h-89.14l.91-16.85 88.23 2.22v14.63z"/><g><path fill="#ebecf0" d="M880.4 1122.22l40.86 1.91-.7-77.45-39.97 1.08-.19 74.46z"/><path d="M868.34 1037.32v103.23h60.92l.87-104.9zm3.45 99.32l1.21-95.54 53.91-1.79-.34 97.17z" fill="#ebecf0"/><path fill="#fff" d="M902.38 1064.52l15.36.38-.55-14.72-14.34.68-.47 13.66zM883.53 1100.65l15.36.38-.55-14.72-14.34.68-.47 13.66zM883.88 1065.54l14.94-.62.42-14.36h-15.36v14.98zM901.87 1119.21l14.94-.62.42-14.36h-15.36v14.98zM901.87 1083.1l14.94-.62.42-14.35h-15.36v14.97zM883.63 1083.1h14.75l.42-14.42-14.62-.26-.55 14.68zM901.79 1101.01h14.74l.43-14.43-14.62-.25-.55 14.68zM883.53 1119.06l15.71.53-.77-15.21h-14.38l-.56 14.68z"/></g><g><path fill="#ebecf0" d="M880.4 1302.66l40.86 1.91-.7-77.45-39.97 1.08-.19 74.46z"/><path d="M861.19 1217.76V1321h75l1.07-104.9zm4.24 99.32l1.46-95.54 66.39-1.79-.42 97.17z" fill="#ebecf0"/><path fill="#fff" d="M902.38 1244.96l15.36.38-.55-14.72-14.34.68-.47 13.66zM883.53 1281.08l15.36.39-.55-14.73-14.34.68-.47 13.66zM883.88 1245.98l14.94-.62.42-14.36h-15.36v14.98zM901.87 1299.65l14.94-.62.42-14.36h-15.36v14.98zM901.87 1263.54l14.94-.62.42-14.36h-15.36v14.98zM883.63 1263.54h14.75l.42-14.42-14.62-.26-.55 14.68zM901.79 1281.44h14.74l.43-14.42-14.62-.25-.55 14.67zM883.53 1299.5l15.71.53-.77-15.21h-14.38l-.56 14.68z"/><path d="M865.05 1211.83a34.19 34.19 0 0 1 68.37 0M870.35 1211.83a28.89 28.89 0 0 1 57.78 0" fill="none" stroke="#ebecf0" stroke-miterlimit="10" stroke-width="3"/><path fill="none" stroke="#ebecf0" stroke-miterlimit="10" stroke-width="3" d="M937.29 1218.22l-77.29 1.53v-9.05h77.29v7.52z"/></g><g><path fill="#ebecf0" d="M1031.16 1125.1l-40.85 1.91.7-77.45 39.96 1.08.19 74.46z"/><path d="M981.43 1038.52l.87 104.9h60.92V1040.2zm3.57 100.83l-.34-97.17 53.91 1.79 1.19 95.54z" fill="#ebecf0"/><path fill="#fff" d="M1009.19 1067.4l-15.36.38.55-14.72 14.34.67.47 13.67zM1028.03 1103.52l-15.36.38.56-14.72 14.34.68.46 13.66zM1027.68 1068.41l-14.93-.61-.42-14.36h15.35v14.97zM1009.7 1122.08l-14.94-.62-.42-14.35h15.36v14.97zM1009.7 1085.98l-14.94-.62-.42-14.36h15.36v14.98zM1027.94 1085.98h-14.75l-.42-14.43 14.62-.25.55 14.68zM1009.78 1103.88h-14.75l-.42-14.42 14.62-.26.55 14.68zM1028.03 1121.93l-15.7.53.76-15.2h14.39l.55 14.67z"/></g><g><path fill="#ebecf0" d="M821.43 1056.85l-40.85-1.91.7 77.45 39.96-1.08.19-74.46z"/><path d="M833.49 1141.75v-103.23h-60.92l-.87 104.9zm-3.49-99.32l-1.14 95.57-53.91 1.79.34-97.17z" fill="#ebecf0"/><path fill="#fff" d="M799.46 1114.55l-15.36-.38.55 14.72 14.34-.68.47-13.66zM818.3 1078.43l-15.35-.38.55 14.72 14.34-.68.46-13.66zM817.96 1113.53l-14.94.62-.42 14.36h15.36v-14.98zM799.97 1059.87l-14.94.61-.42 14.36h15.36v-14.97zM799.97 1095.97l-14.94.62-.42 14.36h15.36v-14.98zM818.21 1095.97h-14.75l-.42 14.42 14.62.26.55-14.68zM800.05 1078.07H785.3l-.42 14.42 14.62.25.55-14.67zM818.3 1060.01l-15.7-.53.77 15.21h14.38l.55-14.68z"/></g><g><path fill="#ebecf0" d="M1031.16 1254.11l-40.85 1.91.7-77.45 39.96 1.08.19 74.46z"/><path d="M981.43 1167.54l.87 104.9h60.92v-103.23zm3.57 100.83l-.34-97.17 53.91 1.79 1.19 95.54z" fill="#ebecf0"/><path fill="#fff" d="M1009.19 1196.41l-15.36.38.55-14.72 14.34.68.47 13.66zM1028.03 1232.54l-15.36.38.56-14.72 14.34.68.46 13.66zM1027.68 1197.43l-14.93-.62-.42-14.36h15.35v14.98zM1009.7 1251.1l-14.94-.62-.42-14.36h15.36v14.98zM1009.7 1214.99l-14.94-.61-.42-14.36h15.36v14.97zM1027.94 1214.99h-14.75l-.42-14.42 14.62-.25.55 14.67zM1009.78 1232.9h-14.75l-.42-14.43 14.62-.25.55 14.68zM1028.03 1250.95l-15.7.53.76-15.21h14.39l.55 14.68z"/></g><g><path fill="#ebecf0" d="M821.43 1185.87l-40.85-1.91.7 77.45 39.96-1.08.19-74.46z"/><path d="M833.49 1270.77v-103.23h-60.92l-.87 104.9zm-3.49-99.33l-1.14 95.56-53.91 1.79.34-97.17z" fill="#ebecf0"/><path fill="#fff" d="M799.46 1243.57l-15.36-.38.55 14.72 14.34-.68.47-13.66zM818.3 1207.44l-15.35-.38.55 14.72 14.34-.68.46-13.66zM817.96 1242.55l-14.94.62-.42 14.36h15.36v-14.98zM799.97 1188.88l-14.94.62-.42 14.36h15.36v-14.98zM799.97 1224.99l-14.94.62-.42 14.35h15.36v-14.97zM818.21 1224.99h-14.75l-.42 14.42 14.62.25.55-14.67zM800.05 1207.08H785.3l-.42 14.43 14.62.25.55-14.68zM818.3 1189.03l-15.7-.53.77 15.21h14.38l.55-14.68z"/></g><path d="M836 1002c-.3-4.54-4.55-7.62-10.26-7.62h-35.61c-10.17-.45-12.93 6.24-12.63 10.78s4.68 8.83 10.39 8.83a12.65 12.65 0 0 0 5.7-1.33l4.3 273.71h-3.23l2 31.28h44.13l-3.76-31.28H827l-5.42-274c1.79 1 4.31 2.19 6.62 1.9 7.13-.84 8.14-7.69 7.8-12.27z" fill="#f3f3f6"/><path d="M788.48 1010a6.82 6.82 0 0 1-3.88-1.23 4.86 4.86 0 0 1-2.09-3.25 5.47 5.47 0 0 1 1.23-4.1 4.55 4.55 0 0 1 3.19-1.77 5.09 5.09 0 0 1 3.59 1.28 3.49 3.49 0 0 1 1.22 2.46 3.61 3.61 0 0 1-3 3.67 3.52 3.52 0 0 1-3.7-2.69.61.61 0 0 1 .43-.74.6.6 0 0 1 .74.43 2.3 2.3 0 0 0 2.39 1.78 2.39 2.39 0 0 0 1.9-2.42 2.29 2.29 0 0 0-.82-1.59 3.81 3.81 0 0 0-2.69-1 3.35 3.35 0 0 0-2.33 1.32 4.3 4.3 0 0 0-1 3.16 3.65 3.65 0 0 0 1.59 2.43 5.16 5.16 0 0 0 8.17-4.94.61.61 0 1 1 1.22-.09 6.71 6.71 0 0 1-5.06 7.14 5.9 5.9 0 0 1-1.1.15zM825.87 998.79a6.82 6.82 0 0 1 3.92 1.1 4.86 4.86 0 0 1 2.2 3.18 5.47 5.47 0 0 1-1.09 4.14 4.55 4.55 0 0 1-3.13 1.88 5.09 5.09 0 0 1-3.63-1.16 3.49 3.49 0 0 1-1.3-2.42 3.61 3.61 0 0 1 2.86-3.77 3.52 3.52 0 0 1 3.79 2.56.61.61 0 0 1-.41.76.6.6 0 0 1-.76-.41 2.3 2.3 0 0 0-2.45-1.7 2.39 2.39 0 0 0-1.81 2.48 2.29 2.29 0 0 0 .87 1.56 3.81 3.81 0 0 0 2.72.88 3.35 3.35 0 0 0 2.29-1.4 4.3 4.3 0 0 0 .86-3.19 3.65 3.65 0 0 0-1.67-2.38 5.16 5.16 0 0 0-8 5.21.61.61 0 1 1-1.21.13 6.71 6.71 0 0 1 4.82-7.31 5.9 5.9 0 0 1 1.13-.14z" fill="#d7d8e1"/><path d="M976.86 1003.8c.53-4.51 4.95-7.37 10.65-7.07.58 0 39.28.67 39.86.7 5.7.3 9.39 6.2 8.85 10.72s-5.14 8.57-10.83 8.27a12.65 12.65 0 0 1-5.62-1.62l-8.7 273.83 3.22.17-3.68 31.13-19.81-1-24.26-1.28 5.4-31 10 .53 9.82-274c-1.85.94-3.9 2-6.19 1.55-7.01-1.41-9.25-6.42-8.71-10.93z" fill="#f3f3f6"/><path d="M1026.41 1012.94a6.82 6.82 0 0 0 3.94-1 4.86 4.86 0 0 0 2.26-3.14 5.47 5.47 0 0 0-1-4.16 4.55 4.55 0 0 0-3.1-1.94 5.09 5.09 0 0 0-3.66 1.09 3.49 3.49 0 0 0-1.35 2.39 3.61 3.61 0 0 0 2.78 3.82 3.52 3.52 0 0 0 3.84-2.49.61.61 0 0 0-.39-.77.6.6 0 0 0-.77.39 2.3 2.3 0 0 1-2.48 1.66 2.39 2.39 0 0 1-1.77-2.52 2.29 2.29 0 0 1 .9-1.54 3.88 3.88 0 0 1 2.78-.78 3.21 3.21 0 0 1 2.22 1.4 4.3 4.3 0 0 1 .8 3.21 3.65 3.65 0 0 1-1.71 2.34 5.16 5.16 0 0 1-7.9-5.37.61.61 0 1 0-1.21-.15 6.71 6.71 0 0 0 4.68 7.4 5.9 5.9 0 0 0 1.14.16zM989.67 999.81a6.82 6.82 0 0 0-4 .89 4.86 4.86 0 0 0-2.36 3.06 5.47 5.47 0 0 0 .87 4.19 4.55 4.55 0 0 0 3 2 5.09 5.09 0 0 0 3.69-1 3.49 3.49 0 0 0 1.43-2.34 3.61 3.61 0 0 0-2.66-3.91 3.52 3.52 0 0 0-3.92 2.36.61.61 0 0 0 .37.78.6.6 0 0 0 .78-.37 2.3 2.3 0 0 1 2.53-1.57 2.39 2.39 0 0 1 1.68 2.58 2.29 2.29 0 0 1-1 1.51 3.81 3.81 0 0 1-2.76.74 3.35 3.35 0 0 1-2.21-1.52 4.3 4.3 0 0 1-.69-3.23 3.65 3.65 0 0 1 1.79-2.29 5.16 5.16 0 0 1 7.72 5.62.61.61 0 1 0 1.2.19 6.71 6.71 0 0 0-4.43-7.55 5.9 5.9 0 0 0-1.03-.14z" fill="#d7d8e1"/><path d="M1147.5 1006.38c.42-4.53 4.77-7.48 10.47-7.32l39.55.78c5.7.16 9.53 6 9.11 10.5s-4.93 8.69-10.63 8.53a12.65 12.65 0 0 1-5.66-1.49l4.81 276.75 3.23.09 3.28 31.21-26-.56-33-1.15 2.93-31.21 10.05.28 6.69-276.47c-1.82 1-4.37 2.07-6.67 1.71-7.07-1.11-8.58-7.12-8.16-11.65z" fill="#f3f3f6"/><path d="M1195.9 1014.87a6.82 6.82 0 0 0 3.92-1.12 4.86 4.86 0 0 0 2.18-3.19 5.47 5.47 0 0 0-1.11-4.13 4.55 4.55 0 0 0-3.14-1.86 5.09 5.09 0 0 0-3.63 1.18 3.49 3.49 0 0 0-1.29 2.42 3.61 3.61 0 0 0 2.88 3.76 3.52 3.52 0 0 0 3.78-2.58.61.61 0 0 0-.41-.76.6.6 0 0 0-.76.41 2.3 2.3 0 0 1-2.44 1.71 2.39 2.39 0 0 1-1.83-2.48 2.29 2.29 0 0 1 .87-1.57 3.81 3.81 0 0 1 2.72-.89 3.35 3.35 0 0 1 2.29 1.39 4.43 4.43 0 0 1 .92 3.23 3.6 3.6 0 0 1-1.7 2.34 5.16 5.16 0 0 1-8-5.17.61.61 0 1 0-1.21-.12 6.71 6.71 0 0 0 4.86 7.28 5.9 5.9 0 0 0 1.1.15zM1157.65 1002.92a6.82 6.82 0 0 0-4 1 4.86 4.86 0 0 0-2.29 3.12 5.47 5.47 0 0 0 1 4.17 4.55 4.55 0 0 0 3.08 2 5.09 5.09 0 0 0 3.67-1.06 3.49 3.49 0 0 0 1.37-2.38 3.61 3.61 0 0 0-2.75-3.85 3.52 3.52 0 0 0-3.86 2.45.61.61 0 0 0 .39.77.6.6 0 0 0 .77-.39 2.3 2.3 0 0 1 2.5-1.63 2.39 2.39 0 0 1 1.74 2.53 2.29 2.29 0 0 1-.92 1.54 3.81 3.81 0 0 1-2.74.8 3.35 3.35 0 0 1-2.25-1.46 4.3 4.3 0 0 1-.77-3.22 3.65 3.65 0 0 1 1.73-2.33 5.49 5.49 0 0 1 4.14-.67 5.55 5.55 0 0 1 3.76 6.14.54.54 0 0 0 .48.64.62.62 0 0 0 .69-.52 6.71 6.71 0 0 0-4.62-7.44 5.9 5.9 0 0 0-1.12-.21z" fill="#d7d8e1"/><ellipse cx="900.83" cy="1003.62" rx="9.23" ry="2.93" fill="#cccfd9"/><path d="M899.24 1004.23L897 1203.84h2.3l3-199.81a2.29 2.29 0 0 0-1.55-.71 2 2 0 0 0-1.51.91z" fill="#cccfd9"/></g><path fill="#f3f3f6" d="M887.15 1176.07h22.6v30.28h-22.6z"/><path d="M727.69 1010.61s77.61 165.31 172.48 165.31 183.69-165.31 183.69-165.31" fill="none" stroke="#cccfd9" stroke-miterlimit="10"/><path d="M727.69 1004s77.61 153 172.47 153 183.69-153 183.69-153" fill="none" stroke="#cccfd9" stroke-miterlimit="10"/><path fill="#2f251b" d="M885.28 1205H911v2.7h-25.72zM885.28 1201.24H911v.88h-25.72zM885.28 1174.1H911v1.97h-25.72z"/><path fill="#2f251b" d="M904.36 1175.09h1.35v31.26h-1.35zM891.6 1175.09h1.35v31.26h-1.35z"/><path d="M910.58 1176.07c0 5-5.55 4-5.55 4-5.44 0-6.9-4-6.9-4 0 4.15-5.18 4-5.18 4-1.87 0-5.81-.93-5.81-4" fill="none" stroke="#2f251b" stroke-linecap="round" stroke-linejoin="round"/><path fill="#2f251b" d="M904.76 1174.44l-1.71-2.73 2.38-4.35 1.59 4.2-1.25 2.88M892.01 1174.44l-1.71-2.73 2.38-4.35 1.58 4.2-1.24 2.88M895.68 1153.78h6.09v6.09h-6.09z"/><path d="M900.08 1159.27s1.56 0 1.56 2.33v8.94s-.62 4.54 2.72 4.54M897.23 1159.27s-1.56 0-1.56 2.33v8.94s.62 4.54-2.72 4.54M898.72 1159.27v15.82" fill="none" stroke="#2f251b" stroke-miterlimit="10"/></g><g id="hp-flag-pole"><path d="M892.76 547.5l.52-.36" fill="#fff"/><g id="hp-flag"><path d="M856.06 500l-36.24-52.92c11.77-8.06 14.55-13.58 14.65-14.62a38.81 38.81 0 0 0-.47-5c-1-7.77-2.51-19.52 2.72-34.1 5-13.83 14.25-25.57 27.63-34.89L901 411.16c-2.84 2-3.66 3.35-3.87 3.78 0 .88-.18-.64 0 .88.61 4.78-14.18 11.48-14.94 19.39-11.31 20.45-.31 47.11-26.13 64.79z" fill="#e94b59"/><path d="M856.06 500l-36.24-52.92c11.77-8.06 14.55-13.58 14.65-14.62a38.81 38.81 0 0 0-.47-5c-1-7.77-2.51-19.52 2.72-34.1 5-13.83 14.25-25.57 27.63-34.89L901 411.16c-2.84 2-3.66 3.35-3.87 3.78 0 .88-.18-.64 0 .88.61 4.78-14.18 11.48-14.94 19.39-11.31 20.45-.31 47.11-26.13 64.79z" fill="#e23c52"/><path d="M831.28 460c11.77-8.06 14.55-13.58 14.65-14.62a38.84 38.84 0 0 0-.47-5c-1-7.77-2.51-19.52 2.72-34.1 4.9-13.67 14-25.29 27.17-34.56l-5.08-7.29c-13.38 9.32-22.67 21.06-27.63 34.89-5.23 14.58-3.72 26.32-2.72 34.1a38.84 38.84 0 0 1 .47 5c-.1 1-2.88 6.56-14.65 14.62" fill="#fff"/><path d="M856.89 434.28c-7.11-10.3-18.43-26.63-22.6-32.23-2.19 10.61-1.09 19.3-.3 25.47a38.84 38.84 0 0 1 .47 5c-.1 1-2.88 6.56-14.65 14.62l21.49 31.38C851.66 470.8 858 462.89 858 461c0-.76-.53-2.67-.77-4.54a76.34 76.34 0 0 1-.34-22.18z" fill="#353e67"/><path d="M843 476c11.77-8.06 14.55-13.58 14.65-14.62a38.84 38.84 0 0 0-.47-5c-1-7.77-2.51-19.52 2.72-34.1 4.9-13.67 14-25.29 27.17-34.56L882 380.5c-13.38 9.32-22.67 21.06-27.63 34.89-5.23 14.58-3.72 26.32-2.72 34.1a38.84 38.84 0 0 1 .47 5c-.1 1-2.88 6.56-14.65 14.62" fill="#fff"/><path d="M852.4 488.26c11.77-8.06 14.55-13.58 14.65-14.62a38.84 38.84 0 0 0-.47-5c-1-7.77-2.51-19.52 2.72-34.1 4.9-13.67 14-25.29 27.17-34.56l-5.08-7.29c-13.38 9.32-22.67 21.06-27.63 34.89-5.23 14.58-3.72 26.32-2.72 34.1a38.84 38.84 0 0 1 .47 5c-.1 1-2.88 6.56-14.65 14.62" fill="#fff"/><path d="M862.06 501.55c11.77-8.06 14.55-13.58 14.65-14.62a38.84 38.84 0 0 0-.47-5c-1-7.77-2.51-19.52 2.72-34.1 4.9-13.67 14-25.29 27.17-34.56L901 406c-13.38 9.32-22.67 21.06-27.63 34.89-5.23 14.58-3.72 26.32-2.72 34.1a38.84 38.84 0 0 1 .47 5c-.1 1-2.88 6.56-14.65 14.62" fill="#fff"/><g opacity=".9" fill="#fff"><path d="M826.42 446.76l1.08.43.96-.65-.07 1.16.91.71-1.12.29-.4 1.09-.62-.98-1.16-.04.74-.89-.32-1.12zM829.4 450.01l1.08.43.96-.65-.07 1.16.91.71-1.12.29-.4 1.09-.62-.98-1.16-.04.74-.89-.32-1.12zM831.05 454.45l1.08.42.96-.64-.07 1.15.91.72-1.12.29-.4 1.09-.62-.98-1.16-.04.74-.9-.32-1.11zM833.7 458.39l1.08.43.96-.65-.07 1.16.91.71-1.12.29-.4 1.09-.62-.98-1.16-.04.74-.89-.32-1.12zM836.4 463.5l1.08.42.96-.65-.07 1.16.91.72-1.12.29-.4 1.08-.62-.97-1.16-.04.74-.9-.32-1.11zM835.35 444.67l1.08.43.96-.65-.07 1.16.91.71-1.12.29-.4 1.09-.62-.98-1.16-.04.74-.89-.32-1.12zM838.01 449.32l1.08.42.96-.65-.07 1.16.91.71-1.12.29-.4 1.09-.62-.97-1.16-.05.74-.89-.32-1.11zM839.96 453.73l1.08.42.96-.64-.07 1.16.91.71-1.12.29-.4 1.09-.62-.98-1.16-.04.74-.89-.32-1.12zM842.6 457.7l1.08.42.96-.64-.07 1.15.91.72-1.12.29-.4 1.09-.62-.98-1.16-.04.74-.9-.32-1.11zM839.96 437.38l1.08.43.96-.65-.07 1.16.91.71-1.12.29-.4 1.09-.62-.98-1.16-.04.74-.89-.32-1.12zM841.11 429.22l1.1-.36.32-1.12.69.93 1.15-.03-.67.94.4 1.09-1.11-.35-.91.71-.01-1.16-.96-.65zM842.2 422.25l1.1-.36.32-1.12.69.94 1.16-.04-.68.94.4 1.09-1.11-.35-.91.71-.01-1.16-.96-.65zM832.05 441.42l1.08.43.96-.65-.07 1.16.91.71-1.12.29-.4 1.09-.62-.98-1.16-.04.74-.89-.32-1.12zM836.16 435.36l1.12.27.87-.78.09 1.16 1 .58-1.07.44-.24 1.13-.76-.88-1.15.12.61-.99-.47-1.05zM837.44 427.65l1.15-.14.54-1.02.49 1.05 1.14.2-.86.78.17 1.15-1.01-.57-1.04.51.23-1.13-.81-.83zM836.38 421.26l1.09-.38.31-1.11.7.92 1.16-.05-.67.95.41 1.09-1.11-.34-.91.72-.02-1.16-.96-.64zM831.05 445.58l1.08.42.96-.64-.07 1.15.91.72-1.12.29-.4 1.09-.62-.98-1.16-.04.74-.9-.32-1.11zM836.68 440.24l1.08.42.96-.65-.07 1.16.91.72-1.12.29-.4 1.08-.62-.97-1.16-.04.74-.9-.32-1.11zM839.28 432.04l1.13.27.86-.77.09 1.15 1.01.58-1.08.45-.24 1.13-.75-.88-1.15.12.6-.99-.47-1.06zM839.53 424.46l1.15-.13.54-1.03.49 1.06 1.14.19-.85.79.16 1.15-1.01-.57-1.04.51.23-1.14-.81-.83zM838.91 417.77l1.1-.38.31-1.12.7.93 1.15-.05-.66.95.41 1.08-1.11-.33-.91.72-.02-1.16-.97-.64zM833.95 449.32l1.07.42.97-.65-.08 1.16.92.71-1.12.29-.4 1.09-.63-.97-1.15-.05.73-.89-.31-1.11zM835.6 453.86l1.07.42.96-.65-.07 1.16.92.71-1.12.29-.4 1.09-.62-.97-1.16-.05.73-.89-.31-1.11zM838.05 458.68l1.08.42.96-.65-.07 1.16.91.71-1.12.3-.4 1.08-.62-.97-1.16-.04.74-.9-.32-1.11zM839.58 443.97l1.07.43.97-.65-.08 1.16.92.71-1.12.29-.4 1.09-.62-.98-1.16-.04.73-.89-.31-1.12zM841.8 448.85l1.08.43.96-.65-.07 1.16.91.71-1.12.29-.4 1.09-.62-.98-1.16-.04.74-.89-.32-1.12zM844.25 452.82l1.08.43.96-.65-.07 1.16.91.71-1.12.29-.4 1.09-.62-.98-1.16-.04.74-.89-.32-1.12zM847.55 451.2l1.08.42.96-.64-.07 1.15.91.72-1.12.29-.4 1.09-.62-.98-1.16-.04.74-.9-.32-1.11zM842.6 440.91l1.08.42.96-.64-.07 1.16.91.71-1.12.29-.4 1.09-.62-.98-1.16-.04.74-.9-.32-1.11zM844.25 445.14l1.08.42.96-.64-.07 1.15.91.72-1.12.29-.4 1.09-.62-.98-1.16-.04.74-.9-.32-1.11zM846.62 447.69l1.08.43.96-.65-.07 1.16.91.71-1.12.29-.4 1.09-.62-.98-1.16-.04.74-.89-.32-1.12zM847.12 442.97l1.08.43.96-.65-.07 1.16.91.71-1.12.29-.39 1.09-.63-.98-1.16-.04.74-.89-.32-1.12zM846.62 438.28l1.08.43.96-.65-.07 1.16.91.71-1.12.29-.4 1.09-.62-.98-1.16-.04.74-.89-.32-1.12zM843.16 434.8l1.13.27.86-.78.09 1.16 1.01.58-1.07.44-.25 1.13-.75-.88-1.15.12.6-.99-.47-1.05zM844.77 431.6l1.13.27.86-.78.09 1.16 1.01.58-1.08.44-.24 1.13-.75-.88-1.15.12.6-.98-.47-1.06zM847.04 434.68l1.13.27.86-.77.09 1.15 1.01.58-1.07.45-.25 1.13-.75-.88-1.15.12.6-.99-.47-1.06zM847.85 429.74l1.13.27.86-.77.09 1.15 1 .59-1.07.44-.24 1.13-.75-.88-1.15.12.6-.99-.47-1.06zM844.4 427.21l1.15-.13.54-1.02.48 1.05 1.15.2-.86.78.17 1.15-1.01-.57-1.04.51.22-1.13-.8-.84zM835.73 412.74l1.15.14.76-.88.23 1.14 1.07.45-1.01.57-.1 1.16-.86-.79-1.13.26.48-1.05-.59-1z"/></g></g><path d="M851.67 533.37c.35-.31 7.43-1.93 6.15 3.38-1.24 5.11-6.92 3.65-8.13 3.77s1.98-7.15 1.98-7.15z" fill="#f3c7ad"/><path d="M894.28 701.33l-1.12.54s-11.08-24.71-16.65-36.39-.82-17.41.49-18.3c7.46-1.12 19.78 18 19.78 18z" fill="#41393c"/><path d="M866 540.13c-1.21-.56-6.79-2.78-6.79-2.78l-4.38 24.27 3.45 2.28z" fill="#fdfbee"/><path fill="#413946" d="M850.95 581.94l42.76 7.9 61.98 4.28-9.09-32.6-29.76-4.88-51.3-20.85-14.59 46.15z"/><path d="M892.71 793.68h-4.09c7.33-118.5-20.35-201.16-38.72-257.58-19.85-61-55.82-92.17-56-92.5l23.35-6c.91 1.38 28.22 33.69 48.37 95.6 18.52 56.96 34.49 140.91 27.09 260.48z" fill="#fdfdfd"/><path d="M896.78 665.17l49.8-9.76 42 8.23s-18.51 54-22.09 52.59S892 705.06 892 705.06z" fill="#39303e"/><path fill="#3d3442" d="M1066.22 676.72L936.77 776.95l-22.66-38.69 55.1-74.74 1.78-4.77 78.39-13.39 16.84 31.36z"/><path fill="#3b323e" d="M1018.98 661.82l-99.32 83.14-5.55-6.7 55.1-74.74 1.78-4.77 78.39-13.39-30.4 16.46z"/><g><path d="M965.81 495.32s30.7-10.18 33.09 2.47c0 0 9.72 51.65 10.66 56.41.6 3-13.69 14.72-13.69 14.72s-40.7-8.44-41.3-11.45c-.63-3.18-10.3-50.76-10.3-50.76-.91-4.62 21.54-11.39 21.54-11.39z" fill="#f8bb97"/><path d="M996.72 513.27a4.06 4.06 0 1 1-4.78-3.19 3.9 3.9 0 0 1 4.78 3.19z" fill="#fff"/><path d="M993.52 518a3.85 3.85 0 0 0 3.27-3.62l-7.93.89a3.87 3.87 0 0 0 4.66 2.73z" fill="#e4a27e"/><circle cx="994.92" cy="514.32" r=".68" transform="rotate(-11.24 994.507 514.138)" fill="#66596d"/><path d="M977.28 516.11a4.06 4.06 0 1 1-5.42-1.91 3.9 3.9 0 0 1 5.42 1.91z" fill="#fff"/><path d="M975.36 521.52a3.85 3.85 0 0 0 2.28-4.32l-7.46 2.8a3.87 3.87 0 0 0 5.18 1.52z" fill="#e4a27e"/><circle cx="975.67" cy="517.45" r=".68" transform="rotate(-11.24 975.268 517.272)" fill="#66596d"/><path fill="#f6e284" d="M977.64 511.93l1.58 3.18-8.41.72-4.62 2.07-1.1-.88 4.32-5.04 8.23-.05z"/><path d="M985.66 511.93s5.26 17.38 5.16 19c-.17 2.6-2.62 2.72-3.75 2.46-2.07-.48-2.57-4.6-.59-4.67-.7-5.48-3-16.5-3-16.5z" fill="#e4a27e"/><path d="M949.63 526.76s-4.06.62-3.66 3 4.56 10.93 4.37 12.21c-.4 2.59.93 3.53 2.45 2.9-.52-3.76-3.16-18.11-3.16-18.11z" fill="#efb592"/><g id="hp-toupe"><path d="M949.07 504.66l-4.59-13.29s20.8-18.14 39.38-17.29 26 26.66 26 26.66-25.94 11.21-38.52 6.38-22.27-2.46-22.27-2.46z" fill="#f6e284"/><g fill="#ffe885"><path d="M1004.13 488.26l-.4-.4-1.24 1.2.41.41 1.23-1.21z"/><path transform="rotate(-49.81 1002.028 489.777)" d="M1001.08 489.49h1.72v.57h-1.72z"/><path transform="rotate(-44.29 1002.101 487.437)" d="M1001.25 487.15h1.72v.57h-1.72z"/><path d="M990.14 482.47l.5.25.79-1.53-.52-.26zM999.92 494.4l-.5-.22-.72 1.57.55.24zM1001.37 494.88a3.89 3.89 0 0 1-.46-.11l-.5 1.65a5.71 5.71 0 0 0 .66.16zM1000.56 490.77l-.5-.27-.83 1.5.52.28zM996.57 482.88c.14.13.25.25.34.35l1.3-1.13c-.12-.14-.27-.3-.46-.47zM993.22 478.7l-.74 1.56.5.24.77-1.54zM993.1 484.09l.49.29.88-1.48-.49-.29-.88 1.48zM994.57 485l.42.28 1-1.41-.54-.35z"/><path transform="rotate(-43.92 999.592 484.964)" d="M998.86 484.68h1.72v.57h-1.72z"/><path d="M991 479.6l.51.21.67-1.59-.58-.22zM995.33 481.89l.43.32 1-1.37-.49-.36zM997.71 484.11l.39.42 1.25-1.19-.39-.41-1.25 1.18zM997.63 495.23l.77-1.54-.51-.26-.78 1.53.52.27z"/><path transform="rotate(-44.12 1000.807 486.2)" d="M1000.05 485.92h1.72v.57h-1.72z"/><path d="M997.69 489l-.42-.32-1.09 1.33.5.38zM992.25 490.49l-.53-.25-.72 1.56.5.2zM992.46 481.74l-.83 1.51.49.27.88-1.52zM993 485.56l-.83 1.51.49.27.86-1.49zM989.13 485.6l.52.23.7-1.57-.54-.24zM992 485l-.53-.26-.75 1.55.5.25zM990 491.34l.68-1.59-.55-.23-.63 1.6zM993.82 491.28l-.52-.27-.79 1.54.51.26.8-1.53zM997.22 486.96l.44.36 1.09-1.33-.45-.37-1.08 1.34zM997.69 491.12l.51.31.88-1.48-.48-.29zM995.89 485.91l.44.35 1.07-1.35-.46-.36zM996.49 488l-.47-.42-1.1 1.32.39.35zM995 486.81l-.5-.34-.94 1.45.45.31zM1001.4 488.19l-.44-.37-1.11 1.32.44.37 1.11-1.32zM1000.78 492.84l.52.26.78-1.54-.51-.26-.79 1.54z"/><path transform="rotate(-50.34 999.41 487.573)" d="M998.45 487.28h1.72v.57h-1.72z"/><path d="M985.36 503.62l-.56-.13-.37 1.69.57.12.36-1.68zM984.71 494.55l-.57-.11-.32 1.7.57.1.32-1.69z"/><path transform="rotate(-77.96 987.29 500.436)" d="M986.48 500.13h1.72v.58h-1.72z"/><path d="M980.73 480.06h.53v-1.72h-.61zM985.37 482.42l-.58-.15-.41 1.67.53.14zM979.57 477.29h.52l.12-1.72h-.63v1.72zM989.4 479l.53.18.57-1.63-.56-.19zM988.17 483.36l-.61 1.64.53.2.63-1.6zM981 482.23l.24 1.71.54-.07-.19-1.71zM991.49 495.8l-.58-.09-.27 1.7.57.09.28-1.7zM992.84 500.62l-.55-.08-.28 1.7.59.09zM988.11 495.2l-.57-.1-.28 1.7.52.1.33-1.7zM992 504.16h-.55l.08 1.72h.59zM989.79 495.52l-.56-.1-.31 1.69.57.11.3-1.7zM991.18 500.33l-.57-.11-.33 1.7.57.11.33-1.7z"/><path transform="rotate(-78.58 983.973 499.71)" d="M983.1 499.43h1.72v.58h-1.72z"/><path d="M985.52 480.64l.48.16.51-1.65-.51-.15zM986.18 478.16l.55.12.4-1.68-.57-.13zM988.42 490.77l.51-1.65-.6-.17-.42 1.67zM986.5 484.59l.56-1.63-.56-.19-.5 1.64zM982.94 490.32l.57.01.05-1.72-.58-.02-.04 1.73zM987.09 481.15l.52.19.62-1.61-.55-.21zM987.8 478.56l.54.15.48-1.65-.56-.16zM988.63 481.77l.51.23.72-1.57-.54-.24zM986.42 489.57l.01.86.49.03.07-.86.01-.86-.54-.03-.04.86zM982.85 482.07v1.72h.52l.09-1.72h-.63zM981.21 477.4l.56.05.18-1.71-.58-.06zM982.32 480.07h.54l.14-1.67-.6-.05zM982.88 477.58l.55.08.25-1.71-.58-.08zM984.66 490.36l.57.02.07-1.72-.58-.02-.06 1.72zM984.46 480.38l.37-1.68-.59-.12-.31 1.7zM976.58 488.67l-.58.02.09 1.73.57-.03-.08-1.72zM973.35 501.49h-.59l-.1 1.72h.56zM973.09 488.91l-.58.06.18 1.71.57-.06zM972.55 493.12H972v1.72h.56v-1.72zM970.83 484.73l.49 1.65.53-.15-.45-1.66zM971 477.6l.63 1.61.53-.2-.61-1.61zM970.46 481.12l.61 1.61.53-.2-.6-1.61-.54.2zM969.15 485.28l.57 1.63.54-.18-.55-1.63zM972.23 497.42h-.6l.09 1.72h.55zM967.76 478.96l.72 1.57.52-.23-.71-1.58-.53.24zM972.55 484.29L973 486l.57-.14-.43-1.67zM972.09 480.52l.58 1.62.53-.19-.56-1.63-.55.2zM974.84 488.76l-.59.05.14 1.72.57-.04-.12-1.73zM974 497.44h-.59v1.72h.56zM974.32 493.16h-.59l-.06 1.72h.56zM969.35 478.26l.68 1.59.52-.22-.66-1.63zM975.12 501.65l-.59-.06-.17 1.72.56.06zM968.85 481.75l.64 1.6.53-.21-.64-1.6-.53.21z"/><path transform="rotate(-78.13 988.96 500.797)" d="M988.17 500.49h1.72v.58h-1.72z"/><path d="M971.35 489.1l-.58.08.24 1.71.56-.07zM986.73 505.63l.28-1.7-.55-.1-.31 1.7z"/><path transform="rotate(-78.24 985.694 500.053)" d="M984.79 499.77h1.72v.58h-1.72z"/><path d="M1006.21 493.54l-.72 1.56.44.2h-.05l-.13 1.72.57.04.13-1.72-.41-.03.7-1.53-.53-.24zM1007.91 495.44l-.31-.71-.51 1.13.48.22-.07 1.1h.58l.07-1.22zM1007.88 499.78h.6v-1.72h-.55zM990.3 505.94v-1.72h-.55l-.05 1.72h.6zM969.6 489.36l-.58.1.31 1.7.55-.1zM966.2 479.7l.75 1.55.51-.24-.74-1.56-.52.25zM971.59 501.4H971v1.72h.56zM970.77 493.16h-.59l.13 1.72h.56zM968.44 483.78l-.66-1.59-.53.22.67 1.59.52-.22zM970.1 499.34l.53-.08-.21-1.71-.61.09zM968.65 487.29l-.6-1.61-.55.21.62 1.61.53-.21zM974.28 476.45l.48 1.65.54-.15-.46-1.66zM978 484.62l.55-.14-.4-1.68-.57.14zM982 502.85l-.56-.12-.37 1.68.56.12.37-1.68zM981.28 493.94l-.57-.09-.27 1.71.57.08.27-1.7zM977.08 479l.42 1.67.54-.13-.39-1.68zM980.99 498.27l-.57-.09-.29 1.7.57.09.29-1.7zM981.81 488.58l-.58-.01v1.73h.57l.01-1.72zM980.08 490.3l-.01-1.73-.58.01.02 1.73.57-.01zM979.85 482.43h-.12l-.47.1.36 1.69.44-.09h.1z"/><path transform="rotate(-76.96 983.284 504)" d="M982.35 503.73h1.72v.58h-1.72z"/><path d="M979.55 493.68l-.57-.08-.23 1.71.56.08.24-1.71zM1003.62 492.32l-.52-.25-.76 1.55.53.25.75-1.55zM983 494.23l-.57-.1-.3 1.7.57.1.3-1.7zM975.78 497.56h-.58l-.13 1.72h.56zM982.71 498.59l-.58-.11-.31 1.7.56.1.33-1.69zM978 477.4l.53-.06-.16-1.72-.6.07zM979.13 480.29l.54-.09-.28-1.7-.59.1zM974.2 483.86l.45 1.66.56-.15-.46-1.66-.55.15zM973.73 479.95l.54 1.64.54-.17-.53-1.64-.55.17zM980.3 502.49l-.57-.12-.33 1.7.55.11.35-1.69zM976.07 493.28h-.58l-.13 1.72h.56zM976.85 501.88l-.58-.08-.23 1.71.56.08.25-1.71zM977.53 497.75l-.58-.07-.2 1.71.56.07zM993.64 504l-.56.07.19 1.71.59-.07zM972.61 477l.56 1.63.53-.18-.54-1.64zM978.58 502.16l-.58-.1-.28 1.7.56.1.3-1.7zM979.27 497.99l-.58-.08-.25 1.7.57.08.26-1.7zM975.4 479.44l.49 1.65.54-.16-.43-1.66zM1002.28 496.71l.58.06.16-1.72-.57-.05-.17 1.71zM977.82 493.46l-.58-.07-.19 1.72.57.06.2-1.71zM978.33 488.6l-.58.02.05 1.72.57-.01-.04-1.73zM975.86 483.4l.46 1.66.55-.15-.45-1.66-.56.15zM986.41 494.88l-.57-.12-.32 1.7.56.11.33-1.69zM962.82 496.91l-.66-1.59-.54.23.68 1.58zM962.85 501.77l-.57.06.17 1.71.57-.05-.17-1.72z"/><path transform="rotate(-14.07 961.914 500.388)" d="M961.51 499.46h.58v1.72h-.58z"/><path d="M963.45 500.8l.51-.12-.4-1.68-.56.14.2.83.25.83zM960.57 494.63l-.85-1.5-.5.28.84 1.51.51-.29zM961.25 497.59l-.71-1.57-.53.24.72 1.56.52-.23zM961.12 501.95l-.58.07.21 1.72.57-.07-.2-1.72zM964.59 501.62l-.58.04.15 1.72.57-.05-.14-1.71z"/><path transform="rotate(-13.1 965.272 499.535)" d="M964.87 498.64h.58v1.72h-.58z"/><path d="M966.33 501.5l-.58.03.11 1.72.57-.03-.1-1.72zM964.42 490.66l-.56.22.66 1.59.51-.2z"/><path transform="rotate(-14.48 960.325 500.815)" d="M959.84 499.89h.58v1.72h-.58z"/><path d="M963.31 486.12l.49-.25-.8-1.54-.53.27zM961.59 482.09l.82 1.51.5-.27-.82-1.52-.5.28zM963.4 489.51l.52-.24-.72-1.57-.53.24.73 1.57zM964.39 496.29l-.6-1.62-.55.21.62 1.61z"/><path transform="rotate(-28.35 956.835 495.686)" d="M956.57 494.82h.58v1.72h-.58z"/><path d="M959 492l.48-.35-1-1.38-.45.33z"/><path transform="rotate(-31.82 957.209 488.78)" d="M957 487.94h.57v1.72H957z"/><path transform="rotate(-31.34 956.307 486.14)" d="M956.03 485.28h.57V487h-.57z"/><path transform="rotate(-31.66 958.682 487.891)" d="M958.46 487.03h.57v1.72h-.57z"/><path d="M960.39 491l.49-.27-.88-1.47-.52.29zM957.58 492.95l.48-.33-.98-1.42-.47.33.97 1.42zM959.7 498.31l-.74-1.56-.53.25.75 1.56.52-.25zM957.1 484.66l.88 1.48.49-.29-.88-1.48-.49.29zM959.39 502.17l-.57.08.23 1.71.57-.08-.23-1.71zM959.05 495.48l-.83-1.51-.51.28.83 1.51.51-.28z"/><path transform="rotate(-14.82 958.382 501.172)" d="M958.16 500.33h.58v1.72h-.58z"/><path transform="rotate(-31.94 954.92 487.046)" d="M954.57 486.17h.57v1.72h-.57z"/><path d="M958.16 499.06l-.77-1.54-.52.26.78 1.54.51-.26z"/><path transform="rotate(-31.66 955.77 489.695)" d="M955.54 488.84h.57v1.72h-.57z"/><path d="M966 495.74l-.52-1.64-.56.18.55 1.63zM945.48 494.28l.09-.06-.21-.3.12.36zM998.75 503.24l-.57.08.22 1.52.56-.17zM997 503.49l-.57.08.25 1.71.41-.06h.16zM963.11 481.27l.8 1.52.51-.26-.8-1.53-.51.27zM988.11 504.08l-.19 1.71.59.06.15-1.72zM957.92 504.12l-.25-1.7-.57.09.25 1.62h.42zM954.43 504.09l-.2-1.11-.35.06-.39-1.39-.56.16.48 1.66.3-.09.13.72zM956.17 504.08l-.23-1.4-.35.06-.43-1.55-.56.16.46 1.66.33-.09.2 1.16h.58zM1009.75 500.25l-.43.06.07.63.5-.21-.14-.48z"/><path transform="rotate(-80.58 992.7 496.905)" d="M991.91 496.6h1.72v.58h-1.72z"/><path d="M952.51 503.31l-.33.07-.29-1 .18-.1-.83-1.51-.51.28.67 1.22h-.14l.49 1.65.28-.08.07.34h.58zM1000.47 503l-.57.08.18 1.24.56-.18zM1006.5 500.55h-.57l.09 1.68.57-.22zM1005.61 502.28l-.57.08v.25l.55-.2zM1002.18 502.76l-.57.08.13.94.56-.19zM1003.89 502.52l-.57.08.08.61.55-.2zM969 493.31l-.6.08.26 1.7.55-.07zM968.99 499.55l-.33-1.69-.57.11.34 1.69.56-.11zM967.59 495.3l-.38-1.68-.59.14.43 1.67zM968.08 501.42l-.58.02.07 1.72.57-.02-.06-1.72zM966.14 490.11l-.57.17.5 1.65.53-.16zM950.79 503.68l-.3.08-.16-.53.22-.12-.82-1.51-.51.28.49.9h-.12l.51 1.65.24-.07.58-.08zM964.96 488.8l.52-.23-.68-1.58-.53.23.69 1.58zM967.32 499.9l-.37-1.69-.57.13.37 1.68.57-.12zM964.81 485.38l.52-.24-.72-1.56-.53.24.73 1.56zM958.58 483.78l.87 1.49.49-.28-.86-1.49-.5.28zM949.22 504h-.36l.21.6h.21zM966.19 482.87l-.53.23.7 1.58.52-.23-.69-1.58zM967.06 487.92l-.64-1.6-.54.22.65 1.59.53-.21zM965.16 480.21l-.52.26.78 1.54.51-.26-.77-1.54zM967.86 489.69l-.58.13.39 1.68.55-.12zM969.84 501.38l-.59.01.03 1.72h.57l-.01-1.73zM1008.2 500.42h-.56l.09 1.14.56-.22zM1004.65 492.81l-.73 1.56.52.25.73-1.57-.52-.24zM1006.11 499.67h.59l.12-1.72h-.56zM1007.43 494.37l-.27-.57-.76.91.44.37zM1006.41 492.44l-.2-.17-1.12 1.31.44.37.82-1 .16.16.24-.23-.27-.54zM1003.42 497.65l-.57-.07-.22 1.71.57.08.22-1.72zM1005.1 491.33l-.2-.17-1.12 1.31.44.37.92-1.08.16.17.63-.61-.28-.53zM1004.78 500.64l-.57.02.07 1.72.58-.02-.08-1.72zM1005.12 497.85l-.57-.06-.19 1.71.58.06.18-1.71zM1004.16 495.16l-.15 1.71.58.05.15-1.72-.58-.04z"/><path d="M948.44 502.85l.4 1.17.17-.09zM947.88 501.22l.36-.17-.67-1.4.41-.27-1-1.44-.23.15.39 1.13.21.32h-.09zM946.28 496.59v-.01.01zM976.37 477.69l.54-.11-.37-1.68-.54.1zM1003.78 490.21l-.19-.17-1.11 1.32.43.37 1-1.2.17.17.61-.6.34-.37-.28-.48zM994 481l.47.28.9-1.47-.51-.3zM985.09 477.93l.32-1.69-.57-.1-.3 1.7zM999.62 500.77l-.57.01.01 1.72h.58l-.02-1.73zM996.18 500.78l-.57-.01-.02 1.72.58.01.01-1.72zM994.9 496.37l-.55-.1-.1.57-.18 1.14.55.09.28-1.7zM997.33 500.78h.58v1.72h-.58zM994.84 491.82l-.8 1.52.5.27.81-1.52-.51-.27z"/><path d="M994.19 497.12l.06-.28.08-.57-.14.85zM1003.07 500.7l-.58.02.05 1.72.58-.02-.05-1.72zM960.71 492.56l.87 1.5.5-.29-.87-1.49-.5.28zM994.47 500.75h-.57v1.72h.55zM1000.01 497.18l-.57-.08-.26 1.7.58.09.25-1.71z"/><path transform="rotate(-1.1 1002.087 501.873)" d="M1000.79 500.75h.58v1.72h-.58z"/><path d="M1001.72 497.43l-.57-.08-.25 1.71.58.08.24-1.71z"/><path transform="rotate(-35 941.757 494.327)" d="M945.96 491.83h.57v1.72h-.57z"/><path transform="rotate(-62.03 996.299 493.522)" d="M995.36 493.24h1.72v.58h-1.72z"/><path transform="rotate(-81.03 997.83 497.739)" d="M997.03 497.44h1.72v.58h-1.72z"/><path transform="rotate(-80.69 996.252 497.434)" d="M995.32 497.16h1.72v.58h-1.72z"/><path d="M995.58 505.45l-.25-1.7-.52.07.07.87.19.84.51-.08z"/><path transform="rotate(-31.6 947.068 495.099)" d="M946.76 494.24h.57v1.72h-.57z"/><path transform="rotate(-31.64 954.36 490.593)" d="M954.08 489.74h.57v1.72h-.57z"/><path transform="rotate(-27.45 953.887 497.327)" d="M953.51 496.44h.58v1.72h-.58z"/><path transform="rotate(-27.84 955.412 496.514)" d="M955.04 495.64h.58v1.72h-.58z"/><path transform="rotate(-33.94 954.602 494.036)" d="M954.18 493.16h.58v1.72h-.58z"/><path d="M955.1 500.63l-.8-1.52-.52.27.82 1.52.5-.27z"/><path transform="rotate(-31.65 953.036 491.522)" d="M952.61 490.64h.57v1.72h-.57z"/><path d="M956.63 499.84l-.79-1.53-.52.26.8 1.53.51-.26zM961.87 490.25l.51-.25-.76-1.55-.53.26z"/><path transform="rotate(-31.62 960.102 486.975)" d="M959.92 486.13h.57v1.72h-.57z"/><path transform="rotate(-15.16 956.451 501.52)" d="M956.49 500.78h.58v1.72h-.58z"/><path d="M960.08 482.93l.84 1.5.5-.28-.84-1.5-.5.28z"/><path transform="rotate(-34.15 955.748 493.014)" d="M955.61 492.19h.58v1.72h-.58z"/><path transform="rotate(-31.8 957.588 481.921)" d="M961.38 485.22h.57v1.72h-.57z"/><path d="M962.2 491.69l.87 1.49.46-.25-.79-1.53z"/><path transform="rotate(-32.9 942.422 488.514)" d="M953.11 487.09h.57v1.72h-.57z"/><path d="M951.37 499.51l-.78-1.54-.51.26.77 1.54.52-.26z"/><path transform="rotate(-31.61 948.655 494.237)" d="M948.23 493.34h.57v1.72h-.57z"/><path transform="rotate(-33.79 948.927 490.733)" d="M948.8 489.9h.57v1.72h-.57z"/><path transform="rotate(-33.66 950.163 496.9)" d="M949.86 496.04h.58v1.72h-.58z"/><path d="M952.66 489.44l-.93-1.45-.49.32.94 1.44.48-.31zM948.38 492.27l-.97-1.42-.47.32.97 1.42.47-.32zM949.81 500.29l-.76-1.55-.52.26.76 1.54.52-.25z"/><path transform="rotate(-33.58 948.851 497.883)" d="M948.42 497h.58v1.72h-.58z"/><path transform="rotate(-31.61 951.353 492.387)" d="M951.15 491.54h.57v1.72h-.57z"/><path transform="rotate(-31.63 949.892 493.285)" d="M949.69 492.44h.57v1.72h-.57z"/><path transform="rotate(-33.83 952.922 494.954)" d="M952.74 494.12h.58v1.72h-.58z"/><path transform="rotate(-28.35 952.885 500.817)" d="M952.63 499.97h.58v1.72h-.58z"/><path transform="rotate(-27.07 952.202 498.073)" d="M951.97 497.23h.58v1.72h-.58z"/><path transform="rotate(-33.7 951.647 495.96)" d="M951.3 495.08h.58v1.72h-.58z"/><path d="M951.23 490.38l-.95-1.45-.48.32.95 1.44.48-.31z"/></g></g><path d="M965.23 539.33a1 1 0 0 1-1.89.37.89.89 0 0 1 .76-1.1 1 1 0 0 1 1.13.73zM965.84 542.41a.78.78 0 0 1-.67.81.68.68 0 1 1-.26-1.31.79.79 0 0 1 .93.5zM962 541.16a.78.78 0 0 1 1 .25.68.68 0 1 1-1.06.81.79.79 0 0 1 .06-1.06zM967 541a.39.39 0 1 1-.76.15.34.34 0 0 1 .3-.45.38.38 0 0 1 .46.3zM1001.09 528a1 1 0 0 1-1.89.37.89.89 0 0 1 .76-1.1 1 1 0 0 1 1.13.73zM1001.65 531.21a.78.78 0 0 1-.67.81.68.68 0 1 1-.26-1.31.79.79 0 0 1 .93.5zM997.81 529.88a.78.78 0 0 1 1 .25.68.68 0 1 1-1.06.81.79.79 0 0 1 .06-1.06zM1002.76 529.76a.39.39 0 0 1-.76.15.34.34 0 0 1 .3-.45.38.38 0 0 1 .46.3z" fill="#efb592"/><path d="M947.17 500.55c-11.59 5.21-1.25 28.56 2.83 27-1.36-5.26 7.63-27.15-2.83-27zM970.69 513.63l7.61-.37-.66-1.33-8.23.05-4.32 5.04.61.48 4.99-3.87z" fill="#ffe885"/><path fill="#f6e284" d="M987.4 509.99l-.25 3.54 8.05-2.55 5.06.15.68-1.23-5.92-3.01-7.62 3.1z"/><path fill="#ffe885" d="M994.47 508.9l-7.17 2.57.1-1.48 7.62-3.1 5.92 3.01-.37.68-6.1-1.68z"/><path d="M982 541.38s9-3.24 12-2.74c1.89 4.7 3.32 10.65-3.71 10.8-7.35.15-8.29-8.06-8.29-8.06z" fill="#a84751"/><path d="M996.93 540.58a18.25 18.25 0 0 0-.87-2.92c-3-.5-14.1 3.72-14.1 3.72a10.09 10.09 0 0 0 .55 2.38c1.49-.52 10.49-2.94 14.42-3.18z" fill="#fff"/><path fill="#f8bb97" d="M965.81 495.32"/></g><path fill="#fdfbee" d="M956.09 659.4l89.67 9.9-30.13-110.05-5.58.13-28.04 6.75-28.35-8.59 2.43 101.86z"/><path d="M953.33 559.21L954 558s14 11.94 35.69 7.52c18.51-3.76 18.24-10.44 18.24-10.44l.85 1.71s-1.75 27-18.07 10.55c-8.18 24.39-37.38-8.13-37.38-8.13z" fill="#e9e8e8" opacity=".39" style="mix-blend-mode:multiply"/><path d="M953.66 557.54l.67-1.18s14.89 10.88 36.62 6.46c18.51-3.76 18.24-10.44 18.24-10.44l.85 1.71s-1.75 27-18.07 10.55c-8.17 24.36-38.31-7.1-38.31-7.1z" fill="#fff"/><path d="M813.73 430.15l-22.4 11.34c.1.19 2.69 5.71 9.6 12.37 4.79 1 10.66-.31 15.4-3.3a21.37 21.37 0 0 0 5.19-4.62c-4.52-9.63-7.35-14.94-7.79-15.79z" fill="#e1dfe1"/><path d="M856.06 558.87c.27-1.23 1.76-3.51 2.92-6.08q-1.58-5.89-3.17-11.5a38.14 38.14 0 0 0-10.67-3.11s-.28.4-.72 1.09q2.91 10 5.81 21c.39 1.49.78 3 1.18 4.53 4.42-.74 4.24-4.12 4.65-5.93z" fill="#c2c0c4"/><path fill="#413946" d="M940.54 560.54L913.4 661.91l46.79 13.04 13.03-57.09-19.56-60.32-13.12 3zM1054.64 587.96l-25.52-29.22-16.43-3.11-19.75 66.58 43.89 62.84 59.98-41.92-42.17-55.17z"/><path fill="#3d3442" d="M945.51 557.48l-6.23 13.15 9.29 3.63 12.06-3.63-6.97-13.09-8.15-.06z"/><path fill="#39303e" d="M960.76 569.66l-17.64 6.65 29.13 41.87 1.49-1.3-12.98-47.22zM1006.56 567.36l22.09 13.93-35.71 44.26-1.49-1.3 15.11-56.89z"/><path fill="#3d3442" d="M1010.01 553.92l18.27 3.72v15.77l-9.07 3.97-12.76-8.65 3.56-14.81z"/><path d="M874.56 738.4" fill="#e7e6e9"/><path d="M892 738.4c-3.69-.43-3.87-1.42-6.06.56-1 1.25-2.85 2.5 3.22 13 .43.74 2.77 1.28 3.58 1.95-.43-6.48-.27-9.21-.74-15.51z" fill="#e1dfe1"/><path d="M843.11 535.07s-12.89 18.2-2.08 25.87c13 3.11 12.43-2.62 13-5.19s6.49-9.79 3.5-14.5-14.42-6.18-14.42-6.18z" fill="#f8bb97"/><path fill="#e9e8e8" opacity=".39" style="mix-blend-mode:multiply" d="M995.94 575.99l-25.17 85.2 7.75 1.58 18.47-87.56-1.05.78z"/><path fill="#fff" d="M993.02 576.81l-25.16 85.2 7.75 1.58 20.83-89.33-3.42 2.55z"/><path d="M838.72 556.44a1.1 1.1 0 0 1 2 1 1 1 0 0 1-1.46.48 1.11 1.11 0 0 1-.54-1.48zM839.61 546.18a1.1 1.1 0 0 1 2 1 1 1 0 0 1-1.46.48 1.11 1.11 0 0 1-.54-1.48zM843.86 550c.37-.76.82-1.3 2.08-.69s1.12 1.3.75 2.06a1.46 1.46 0 0 1-2.08.69 1.58 1.58 0 0 1-.75-2.06zM838.19 550.17a.89.89 0 0 1 1.18-.28.78.78 0 1 1-.67 1.38.9.9 0 0 1-.51-1.1zM843.13 557.57a.89.89 0 0 1-.77-.94.78.78 0 1 1 1.53 0 .9.9 0 0 1-.76.94zM839.12 553.18a.44.44 0 0 1 .8.39.39.39 0 0 1-.59.21.44.44 0 0 1-.21-.6z" fill="#efb592"/><ellipse cx="803.27" cy="436.13" rx="19.04" ry="12.77" transform="rotate(-32.3 803.21 436.111)" fill="#ebecf0"/><path fill="#352c3a" opacity=".3" d="M1071.33 607.56l-26.43 24.94 6.83 7.25 24.58-26.9-4.98-5.29z"/><path d="M1011.82 631.33c1-.82 1.89-1.39 1.44-1.93s-1.17.23-2.17 1-1.77 1.46-1.44 1.93 1.17-.18 2.17-1zM1027.61 652.27c1.06-.73 2-1.22 1.6-1.8s-1.19.12-2.25.86-1.89 1.3-1.6 1.8 1.18-.13 2.25-.86z" fill="#352c3a"/><g><circle cx="965.03" cy="626.61" r="2.31" transform="rotate(-68.89 964.957 626.61)" fill="#352c3a" opacity=".3"/><circle cx="965.74" cy="626.55" r="2.31" transform="rotate(-68.89 965.672 626.553)" fill="#352c3a"/><path d="M965.53 626.55c-.17.73-.37 1.31 0 1.39s.41-.53.57-1.27.3-1.31 0-1.39-.4.54-.57 1.27z" fill="#49414e"/><path d="M965.66 626.94c.73.17 1.31.37 1.39 0s-.53-.41-1.27-.57-1.31-.3-1.39 0 .54.4 1.27.57z" fill="#49414e"/></g><g><circle cx="959.95" cy="645.25" r="2.31" transform="rotate(-46.08 959.938 645.242)" fill="#352c3a" opacity=".3"/><circle cx="960.63" cy="645.47" r="2.31" transform="rotate(-46.08 960.622 645.464)" fill="#352c3a"/><path d="M960.44 645.39c-.44.61-.85 1.07-.57 1.27s.58-.33 1-.95.78-1.09.57-1.27-.56.34-1 .95z" fill="#49414e"/><path d="M960.41 645.8c.61.44 1.07.85 1.27.57s-.33-.58-.95-1-1.09-.78-1.27-.57.34.56.95 1z" fill="#49414e"/></g><path fill="#352c3a" opacity=".3" d="M934.95 636.27l-18.98-7.33-1.71 2.79 18.52 8.93 2.17-4.39z"/><path d="M935 769.55l-.91.85s-35.85-15-44.72-24.39-9.41-14-8.43-15.24c8.43-7.63 33.2 7.48 33.2 7.48z" fill="#41393c"/><path fill="#39303e" d="M1071.38 603l-26.43 24.94 6.83 7.24 24.57-26.9-4.97-5.28zM938.82 634.09l-21.46-13.18-3.96 6.73L935.93 639l2.89-4.91z"/><path d="M984.27 558.3c.18-.37 6.23-4.35 13.33-4.38h4.4a71 71 0 0 0-10.54 2.19c-3.58 1.25-7.19 2.19-7.19 2.19zM989.86 560.14a12.69 12.69 0 0 1 7.2-2.84 9.92 9.92 0 0 1 2.38 0 32.85 32.85 0 0 0-5.7 1.41c-1.93.82-3.88 1.43-3.88 1.43z" fill="#efb592"/><path d="M991.92 564.64a11.13 11.13 0 0 1-6.12 7.9c-.46.56 1.2 2.81 1.94 3.31l5.27 1c7.66-1.76 7.92-6.84 7.92-6.84-5.07-1.09-9.01-5.37-9.01-5.37z" fill="#e94b59"/><ellipse cx="972.49" cy="659.31" rx=".9" ry="1.17" transform="rotate(-67.4 972.505 659.315)" fill="#e9e8e8"/><ellipse cx="977" cy="644.71" rx=".9" ry="1.17" transform="rotate(-86 973.87 643.119)" fill="#e9e8e8"/><ellipse cx="980.78" cy="628.11" rx=".7" ry=".91" transform="rotate(-85.81 980.746 628.118)" fill="#e9e8e8"/><ellipse cx="984.79" cy="613.42" rx=".7" ry=".91" transform="rotate(-85.81 984.751 613.43)" fill="#e9e8e8"/><ellipse cx="988.17" cy="599.16" rx=".56" ry=".72" transform="rotate(-73.6 988.185 599.157)" fill="#e9e8e8"/><ellipse cx="991.2" cy="590.14" rx=".56" ry=".72" transform="rotate(-73.6 991.21 590.14)" fill="#e9e8e8"/><g><g id="hp-dollar" data-name="hp-dollar"><path fill="#d9dec8" d="M1068.06 619.17l-1.86 11.63 28.04 5.82 2.86-12.2-29.04-5.25z"/><ellipse cx="1081.1" cy="627.88" rx="5.23" ry="4.7" transform="matrix(.18 -.98 .98 .18 270.88 1580.01)" fill="#899a7a" opacity=".47"/><g opacity=".38" fill="#899a7a"><path d="M1075.89 630.3l-7.73-1.09 1.05-7.56 8 1.34a3.39 3.39 0 0 1 .8-.78l-9.32-1.59-1.31 9.29 8.87 1.48a1.82 1.82 0 0 1-.36-1.09zM1085.74 623.4a3.37 3.37 0 0 1 .49 1l8.38 1.71-1.94 8.11-7.1-2.26a4.34 4.34 0 0 1-1.12 1.43l9 2 2.41-10.33z"/></g><path d="M1091.33 629.67a1.28 1.28 0 1 1-2.52-.46 1.28 1.28 0 1 1 2.52.46zM1071.86 625.14a1.28 1.28 0 0 1 1.24 2.24 1.28 1.28 0 0 1-1.24-2.24z" fill="#899a7a"/></g><g id="hp-dollar-2" data-name="hp-dollar"><path fill="#d9dec8" d="M1068.21 619.95l-11.17 7.29 16.43 27.94 12.4-6.88-17.66-28.35z"/><ellipse cx="1070.81" cy="637.52" rx="5.92" ry="5.32" transform="rotate(-31.91 1070.867 637.53)" fill="#899a7a" opacity=".47"/><g opacity=".38" fill="#899a7a"><path d="M1064.82 635l-5-7.31 7.14-4.86 5 7.73a3.83 3.83 0 0 1 1.26.07l-5.75-9-8.79 6 5.5 8.57a2.07 2.07 0 0 1 .64-1.2zM1078.09 638a3.82 3.82 0 0 1-.47 1.17l4.93 8.34-8.28 4.54-3.49-7.68a4.91 4.91 0 0 1-2.05.14l5.15 9.14 10.5-5.82z"/></g><path d="M1077.08 647.46a1.45 1.45 0 0 1-1.53-2.46 1.45 1.45 0 0 1 1.53 2.46zM1066.09 627.68a1.45 1.45 0 0 1-.94 2.75 1.45 1.45 0 0 1 .94-2.75z" fill="#899a7a"/></g><g id="hp-dollar-3" data-name="hp-dollar"><path fill="#d9dec8" d="M1078.36 614.6l-11.54 2.69 5.23 28.31 12.44-1.97-6.13-29.03z"/><ellipse cx="1075.19" cy="630.05" rx="5.26" ry="4.72" transform="rotate(-11.92 1075.55 630.234)" fill="#899a7a" opacity=".47"/><g opacity=".38" fill="#899a7a"><path d="M1071 626.12l-1.92-7.61 7.44-1.89 1.79 8a3.4 3.4 0 0 1 1 .45l-2.06-9.29-9.15 2.22 2 8.82a1.83 1.83 0 0 1 .9-.7zM1081.12 632.67a3.39 3.39 0 0 1-.75.84L1082 642l-8.29 1.27-.58-7.47a4.36 4.36 0 0 1-1.76-.5l1.53 9.2 10.53-1.67z"/></g><path d="M1077.41 640.25a1.29 1.29 0 0 1-.53-2.52 1.29 1.29 0 0 1 .53 2.52zM1074.24 620.41a1.29 1.29 0 0 1-1.61 2 1.29 1.29 0 1 1 1.61-2z" fill="#899a7a"/></g><g id="hp-dollar-4" data-name="hp-dollar"><path fill="#d9dec8" d="M1090.1 625.02l-8.72-6.81-17.5 20.39 8.72 7.88 17.5-21.46z"/><ellipse cx="1077.02" cy="631.77" rx="4.41" ry="4.91" transform="rotate(-50.81 1077.095 631.781)" fill="#899a7a" opacity=".47"/><g opacity=".38" fill="#899a7a"><path d="M1077.4 626.4l4.4-5.85 5.73 4.29-4.73 6a3.18 3.18 0 0 1 .28 1l5.54-6.93-7-5.29-5.24 6.62a1.71 1.71 0 0 1 1.02.16zM1078.59 637.61a3.16 3.16 0 0 1-1-.05l-5.21 6.11-5.78-5.27 5.08-4.8a4.07 4.07 0 0 1-.68-1.6l-5.79 6.5 7.39 6.67z"/></g><path d="M1070.91 639.36a1.2 1.2 0 1 1 1.52-1.86 1.2 1.2 0 1 1-1.52 1.86zM1083.47 625.43a1.2 1.2 0 0 1-2.41 0 1.2 1.2 0 0 1 2.41 0z" fill="#899a7a"/></g><g id="hp-dollar-5" data-name="hp-dollar"><path fill="#d9dec8" d="M1086.86 619.22l-13.31-.96-3.82 32.19 14.04 2.02 3.09-33.25z"/><ellipse cx="1078.3" cy="634.78" rx="5.32" ry="5.92" transform="rotate(-84.69 1078.367 634.764)" fill="#899a7a" opacity=".47"/><g opacity=".38" fill="#899a7a"><path d="M1075.07 629.14l.47-8.82 8.63.45-.73 9.15a3.83 3.83 0 0 1 1 .82l.89-10.67-10.61-.57-.8 10.15a2.07 2.07 0 0 1 1.15-.51zM1083.81 639.57a3.82 3.82 0 0 1-1.08.65l-1.12 9.62-9.34-1.39 1.86-8.23a4.91 4.91 0 0 1-1.72-1.13l-1.43 10.4 11.88 1.71z"/></g><path d="M1077.28 646.48a1.45 1.45 0 1 1 .27-2.89 1.45 1.45 0 1 1-.27 2.89zM1080.49 624.09a1.45 1.45 0 1 1-2.41 1.62 1.45 1.45 0 1 1 2.41-1.62z" fill="#899a7a"/></g><g id="hp-dollar-6" data-name="hp-dollar"><path fill="#d9dec8" d="M1099.26 623.56l-14.13-8.79-22.92 33.31 14.32 10.38 22.73-34.9z"/><ellipse cx="1080.77" cy="635.76" rx="6.63" ry="7.39" transform="rotate(-56.93 1080.816 635.765)" fill="#899a7a" opacity=".47"/><g opacity=".38" fill="#899a7a"><path d="M1080.48 627.65l5.65-9.46 9.26 5.5-6.12 9.67a4.78 4.78 0 0 1 .58 1.47l7.18-11.26-11.37-6.79-6.78 10.74c1.12.01.49-.22 1.6.13zM1084.07 644.24a4.76 4.76 0 0 1-1.57.09l-6.82 10-9.49-7 6.83-8a6.12 6.12 0 0 1-1.24-2.25l-7.62 10.65 12.12 8.79z"/></g><path d="M1072.85 648.08a1.81 1.81 0 0 1 2-3 1.81 1.81 0 0 1-2 3zM1089.4 625.23a1.81 1.81 0 0 1-3.6.39 1.81 1.81 0 0 1 3.6-.39z" fill="#899a7a"/></g><g id="hp-dollar-7" data-name="hp-dollar"><path d="M1072.88 645.24c.4.31 13.51 10 13.51 10s6.4-11.65-2.32-24.92-17.9-13.77-17.9-13.77l-.11 18.18s4.23-3.63 7.7 2.3a6.37 6.37 0 0 1-.88 8.21z" fill="#d9dec8"/><path d="M1079.55 630.77c2.55-.25 4 .27 4.54 3.38.35 2-1.54 4.58-4.09 4.83s-4.78-1.17-5-3.19 2-4.79 4.55-5.02z" fill="#899a7a" opacity=".47"/><path d="M1080.23 644.6a1.14 1.14 0 1 1 1.54-1.56 1.14 1.14 0 1 1-1.54 1.56zM1074.46 629a1.05 1.05 0 1 1-2-.31 1.05 1.05 0 1 1 2 .31z" fill="#899a7a"/><g opacity=".47" fill="#899a7a"><path d="M1083.91 638.12a24.57 24.57 0 0 1 .09 11.33l-6.47-4.7a7.07 7.07 0 0 0 .64-4.27 6.05 6.05 0 0 1-1.84-.52c.84 3.56-1.2 5.16-1.2 5.16l9.87 7.18s3.18-8.68-.2-16.93a4.35 4.35 0 0 1-.89 2.75zM1067.51 632.93s2.86-1.58 5.86 1.6l.09.11a4.88 4.88 0 0 1 .67-1.71 7.07 7.07 0 0 0-4.66-2.1l.93-8.41c1.3.41 3.55 1.55 6.58 4.76a26.43 26.43 0 0 1 2.07 2.4 6.32 6.32 0 0 1 2.38.31 34.6 34.6 0 0 0-3.21-3.89c-5.84-6.18-9.34-5.49-9.34-5.49z"/></g></g><g id="hp-dollar-8" data-name="hp-dollar"><path d="M931.41 636.63c.2-.35 6.35-12 6.35-12s-10.1-3.69-19.65 4.91-8.82 16-8.82 16l14.55-2.14s-3.42-2.94.9-6.44a5.16 5.16 0 0 1 6.67-.33z" fill="#d9dec8"/><path d="M919 633.08c-.51-2-.27-3.23 2.15-4a3.74 3.74 0 0 1 4.37 2.68c.51 2-.35 4-1.94 4.37a4.31 4.31 0 0 1-4.58-3.05z" fill="#899a7a" opacity=".47"/><path d="M930 630.84a.92.92 0 1 1-1.44-1 .92.92 0 1 1 1.44 1zM918.2 637.37a.85.85 0 1 1 0 1.64.85.85 0 1 1 0-1.64z" fill="#899a7a"/><g opacity=".47" fill="#899a7a"><path d="M924.36 628.69a19.88 19.88 0 0 1 9.05-1.46l-3 5.75a5.72 5.72 0 0 0-3.5 0 4.9 4.9 0 0 1-.19 1.53c2.75-1.11 4.28.33 4.28.33l4.53-8.78s-7.34-1.48-13.52 2.24a3.52 3.52 0 0 1 2.35.39zM922.22 642.44s-1.61-2.09.56-4.88l.07-.08a4 4 0 0 1-1.45-.33 5.72 5.72 0 0 0-1.11 4l-6.84.29c.17-1.09.81-3 3-5.85a21.38 21.38 0 0 1 1.67-2 5.12 5.12 0 0 1 0-1.94 28 28 0 0 0-2.72 3c-4.23 5.43-3.25 8.14-3.25 8.14z"/></g></g><g id="hp-dollar-9" data-name="hp-dollar"><path d="M913.77 636.49c-.1.4-2.88 13.29-2.88 13.29s10.72.84 17.6-10 4.2-17.78 4.2-17.78l-13.44 6s4.08 1.91.87 6.45a5.16 5.16 0 0 1-6.35 2.04z" fill="#d9dec8"/><path d="M926.66 636.58c1 1.8 1.13 3-1 4.48a3.74 3.74 0 0 1-4.93-1.41c-1-1.8-.73-3.91.69-4.73a4.31 4.31 0 0 1 5.24 1.66z" fill="#899a7a" opacity=".47"/><path d="M916.69 641.69a.92.92 0 1 1 1.67.62.92.92 0 1 1-1.67-.62zM926.3 632.23a.85.85 0 1 1-.44-1.58.85.85 0 1 1 .44 1.58z" fill="#899a7a"/><g opacity=".47" fill="#899a7a"><path d="M922.7 642.24a19.88 19.88 0 0 1-8.33 3.84l1.31-6.34a5.72 5.72 0 0 0 3.36-1 4.9 4.9 0 0 1-.23-1.53c-2.35 1.8-4.21.83-4.21.83l-2 9.67s7.46-.55 12.42-5.79a3.52 3.52 0 0 1-2.32.32zM921.07 628.43s2.11 1.58.77 4.86v.1a4 4 0 0 1 1.49-.08 5.72 5.72 0 0 0 0-4.14l6.51-2.11c.13 1.09 0 3.14-1.32 6.44a21.38 21.38 0 0 1-1.08 2.33 5.12 5.12 0 0 1 .56 1.86 28 28 0 0 0 1.8-3.66c2.61-6.36.94-8.72.94-8.72z"/></g></g><g id="hp-dollar-10" data-name="hp-dollar"><path d="M932.81 624.88c-.23-.53-8.37-17.31-8.37-17.31S911.76 616 913.55 634s10.82 23.45 10.82 23.45l9.77-18.36s-6.21 1.43-6.58-6.42c-.3-6.49 5.25-7.79 5.25-7.79z" fill="#d9dec8"/><path d="M918.37 636c-2.72-1.1-3.9-2.39-2.81-5.84.7-2.21 4-3.82 6.71-2.72s4.22 3.73 3.35 5.87-4.53 3.79-7.25 2.69z" fill="#899a7a" opacity=".47"/><path d="M925 621.63a1.3 1.3 0 1 1-2.39.76 1.3 1.3 0 1 1 2.39-.76zM922.57 640.52a1.2 1.2 0 1 1 1.87 1.38 1.2 1.2 0 1 1-1.87-1.38z" fill="#899a7a"/><g opacity=".47" fill="#899a7a"><path d="M917.85 626.24a28.11 28.11 0 0 1 5.93-11.53l4.06 8.2a8.09 8.09 0 0 0-2.92 4 6.92 6.92 0 0 1 1.59 1.5c1-4.05 4-4.59 4-4.59l-6.19-12.52s-7.83 7.11-8.79 17.26a5 5 0 0 1 2.32-2.32zM931.71 640.21s-3.73.08-5.09-4.74v-.16a5.58 5.58 0 0 1-1.59 1.38 8.09 8.09 0 0 0 3.61 4.61l-5.41 8c-1.1-1.1-2.78-3.46-4.14-8.32a30.23 30.23 0 0 1-.82-3.53 7.23 7.23 0 0 1-2.25-1.58 39.58 39.58 0 0 0 1.18 5.64c2.63 9.36 6.54 10.53 6.54 10.53z"/></g></g><g id="hp-dollar-11" data-name="hp-dollar"><path fill="#d9dec8" d="M903.23 630.32l1.46 13.21 32.22-2.08-.56-14.11-33.12 2.98z"/><ellipse cx="920.01" cy="635.89" rx="5.3" ry="5.9" transform="rotate(-5.15 920.333 636.064)" fill="#899a7a" opacity=".47"/><g opacity=".38" fill="#899a7a"><path d="M915.07 640.08l-8.72 1.13-1.12-8.53 9.09-.94a3.82 3.82 0 0 1 .63-1.09l-10.61 1.06 1.36 10.49 10.09-1.05a2.06 2.06 0 0 1-.72-1.07zM923.71 629.64a3.8 3.8 0 0 1 .83.94l9.62-.65.32 9.39-8.39-.34a4.89 4.89 0 0 1-.79 1.89l10.44-.48-.47-11.94z"/></g><path d="M931.66 634.77a1.44 1.44 0 0 1-2.88.26 1.44 1.44 0 1 1 2.88-.26zM909.15 635.68a1.44 1.44 0 0 1 2 2.06 1.44 1.44 0 1 1-2-2.06z" fill="#899a7a"/></g><g id="hp-dollar-12" data-name="hp-dollar"><path fill="#d9dec8" d="M917.53 653.16l13.02-2.64-4.96-31.9-14.01 1.82 5.95 32.72z"/><ellipse cx="921.57" cy="635.95" rx="5.9" ry="5.3" transform="rotate(-10.29 921.787 636.094)" fill="#899a7a" opacity=".47"/><g opacity=".38" fill="#899a7a"><path d="M926.18 640.49l1.91 8.59-8.4 1.92-1.75-9a3.82 3.82 0 0 1-1.14-.53l2 10.47 10.33-2.29-2-10a2.06 2.06 0 0 1-.95.84zM915 632.83a3.8 3.8 0 0 1 .87-.91l-1.51-9.53 9.33-1.16.42 8.39a4.89 4.89 0 0 1 2 .62l-1.42-10.36-11.85 1.54z"/></g><path d="M919.41 624.45a1.44 1.44 0 1 1 .52 2.84 1.44 1.44 0 0 1-.52-2.84zM922.33 646.79a1.44 1.44 0 0 1 1.87-2.2 1.44 1.44 0 0 1-1.87 2.2z" fill="#899a7a"/></g><g id="hp-dollar-13" data-name="hp-dollar"><path fill="#d9dec8" d="M1072.99 610.85l-13.56 9.64 21.87 34 15.11-9.2-23.42-34.44z"/><ellipse cx="1077.11" cy="632.61" rx="7.39" ry="6.63" transform="rotate(-34.22 1076.94 632.58)" fill="#899a7a" opacity=".47"/><g opacity=".38" fill="#899a7a"><path d="M1069.52 629.75l-6.54-8.86 8.65-6.42 6.56 9.38a4.78 4.78 0 0 1 1.58 0l-7.62-11-10.66 7.87 7.29 10.4c.44-.95-.01-.48.74-1.37zM1086.21 632.85a4.76 4.76 0 0 1-.53 1.48l6.56 10.14-10.09 6.07-4.74-9.39a6.12 6.12 0 0 1-2.55.28l6.88 11.14 12.79-7.78z"/></g><path d="M1085.42 644.68a1.81 1.81 0 0 1-2-3 1.81 1.81 0 0 1 2 3zM1070.73 620.59a1.81 1.81 0 0 1-1 3.47 1.81 1.81 0 0 1 1-3.47z" fill="#899a7a"/></g><g id="hp-dollar-14" data-name="hp-dollar"><path fill="#d9dec8" d="M1092.34 616.77l-15.72-5.45-14.98 37.56 16.26 6.96 14.44-39.07z"/><ellipse cx="1077.01" cy="632.76" rx="6.63" ry="7.39" transform="rotate(-69.72 1076.935 632.766)" fill="#899a7a" opacity=".47"/><g opacity=".38" fill="#899a7a"><path d="M1074.93 624.92l3.41-10.47 10.25 3.32-3.83 10.79a4.78 4.78 0 0 1 .89 1.3l4.51-12.57-12.59-4.11-4.24 12c1.09-.27.45-.36 1.6-.26zM1082.1 640.3a4.76 4.76 0 0 1-1.51.43l-4.45 11.27-10.8-4.69 4.89-9.31a6.12 6.12 0 0 1-1.71-1.91l-5.07 12.07 13.76 5.89z"/></g><path d="M1072 646.53a1.81 1.81 0 0 1 1.25-3.39 1.81 1.81 0 0 1-1.25 3.39zM1083.1 620.58a1.81 1.81 0 1 1-3.42 1.18 1.81 1.81 0 1 1 3.42-1.18z" fill="#899a7a"/></g><g id="hp-dollar-15" data-name="hp-dollar"><path d="M1090.07 639.41c.29-.5 9-17.08 9-17.08s-14.35-5.24-27.9 7-12.5 22.67-12.5 22.67l20.67-3s-4.85-4.17 1.27-9.15c5.1-4.15 9.46-.44 9.46-.44z" fill="#d9dec8"/><path d="M1072.47 634.36c-.73-2.85-.39-4.58 3.05-5.75 2.2-.75 5.47 1 6.2 3.81s-.5 5.63-2.75 6.21-5.77-1.42-6.5-4.27z" fill="#899a7a" opacity=".47"/><path d="M1088.06 631.18a1.31 1.31 0 1 1-2-1.48 1.31 1.31 0 1 1 2 1.48zM1071.32 640.45a1.21 1.21 0 1 1 0 2.33 1.21 1.21 0 1 1 0-2.33z" fill="#899a7a"/><g opacity=".47" fill="#899a7a"><path d="M1080.06 628.13a28.23 28.23 0 0 1 12.85-2.08l-4.22 8.17a8.13 8.13 0 0 0-5 0 7 7 0 0 1-.27 2.18c3.9-1.57 6.07.47 6.07.47l6.43-12.46s-10.42-2.1-19.19 3.18a5 5 0 0 1 3.33.54zM1077 647.65s-2.29-3 .8-6.94l.11-.12a5.6 5.6 0 0 1-2.06-.46 8.13 8.13 0 0 0-1.58 5.66l-9.71.41c.24-1.54 1.15-4.31 4.26-8.3a30.36 30.36 0 0 1 2.37-2.77 7.27 7.27 0 0 1-.06-2.76 39.76 39.76 0 0 0-3.86 4.32c-6 7.71-4.61 11.56-4.61 11.56z"/></g></g><g id="hp-dollar-16" data-name="hp-dollar"><path fill="#d9dec8" d="M909.8 652.14l16.12 5.14 14.3-38.55-16.71-6.68-13.71 40.09z"/><ellipse cx="924.98" cy="635.5" rx="6.75" ry="7.52" transform="rotate(-71.11 924.93 635.499)" fill="#899a7a" opacity=".47"/><g opacity=".38" fill="#899a7a"><path d="M927.29 643.42l-3.21 10.73-10.5-3.15 3.62-11a4.86 4.86 0 0 1-.94-1.3L912 651.56l12.91 3.86 4-12.28c-1.1.27-.44.35-1.62.28zM919.62 628a4.84 4.84 0 0 1 1.53-.48l4.24-11.53 11.1 4.5-4.75 9.51a6.23 6.23 0 0 1 1.79 1.9l4.86-12.4-14.14-5.65z"/></g><path d="M929.73 621.37a1.84 1.84 0 1 1-1.19 3.48 1.84 1.84 0 0 1 1.19-3.48zM919.1 648a1.84 1.84 0 0 1 3.45-1.28 1.84 1.84 0 0 1-3.45 1.28z" fill="#899a7a"/></g></g><path id="hp-tie" d="M988.06 575.21c0 1.7-24.39 19.31-47.47 6.81a40.72 40.72 0 0 0-17.07 5s2.57 19 8 22c12.17 1.67 57.18.57 61.86-32.83z" fill="#e94b59"/><g id="hp-trump-arm"><path d="M1108.88 521.32s7.61-8.31 9.48-13c2.57-6.46-18.26-16.3-21.22-16.71-2.18-.3-3.66 5.15-3.66 5.15s-4.26-3.58-4.69-3.07-4.49 16.39-4.49 16.39z" fill="#f8bb97"/><path d="M1108.5 509.75a1.1 1.1 0 0 1 2 1 1 1 0 0 1-1.46.48 1.11 1.11 0 0 1-.54-1.48zM1111.39 499.49a1.1 1.1 0 0 1 2 1 1 1 0 0 1-1.46.48 1.11 1.11 0 0 1-.54-1.48zM1113.63 503.28c.37-.76.82-1.3 2.08-.69s1.12 1.3.75 2.06a1.46 1.46 0 0 1-2.08.69 1.58 1.58 0 0 1-.75-2.06zM1108 503.48a.89.89 0 0 1 1.18-.28.78.78 0 1 1-.67 1.38.9.9 0 0 1-.51-1.1zM1112.91 510.88a.89.89 0 0 1-.77-.94.78.78 0 1 1 1.53 0 .9.9 0 0 1-.76.94zM1108.9 506.48a.44.44 0 0 1 .8.39.39.39 0 0 1-.59.21.44.44 0 0 1-.21-.6zM1084.33 509.68l24.54 11.64s5-5.66 5.9-7.25l-28.15-12.57c-.62 2.39-2.29 8.18-2.29 8.18z" fill="#efb592"/><path d="M1112.39 525.08c.28.21 8 9.33 8 9.33s-6.08 4.83-6.36 4.55-7-4.25-7-4.81 5.36-9.07 5.36-9.07z" fill="#e1e0d6"/><path d="M1068.33 507.26l-41.2 51.47c-11.37 14.43-13.95 27.51-4.7 37.72s35-6 35-6l62.22-52.5z" fill="#413946"/><path d="M1074.21 503.57l-4.07 5s34.63 27.87 34.84 27.25 9.88-11.32 9.88-11.32z" fill="#fdfbee"/></g></g><g id="hp-plane-b"><g id="hp-banner-b"><path d="M712.53 701.78A180.21 180.21 0 0 1 499.91 561l44.1-9a135.21 135.21 0 0 0 159.55 105.68z" fill="#e23c52"/><path fill="#5f5863" d="M744.91 683.04l-42.49-28.78-.37 1.32 40.57 27.25-40.1 20.71.41.96 41.98-21.46z"/><path fill="#ffff85" d="M694.24 653.24l2.63 53.18 7.2.36-.72-54.03-9.11.49z"/></g><path id="hp-prop-b" d="M915.91 656.81c0 1.45-3.18 13.14-3.85 33.22s1.67 32 1.62 33.4c-.06 1.85-2 3.29-4.25 3.21s-4.09-1.64-4-3.49c0-1.45 3.06-9.73 3.85-33.22s-1.67-32-1.62-33.4c.06-1.85 2-3.29 4.25-3.21s4.09 1.68 4 3.49z" fill="#352c3a"/><path d="M905.29 684c-3.37-.11-4.55 2.59-4.66 6s.88 6.14 4.25 6.26 9.84-3.61 9.91-5.78-6.13-6.35-9.5-6.48z" fill="#ffff85"/><path fill="#5d899f" d="M826.54 605.24l3.47 157.32 14.12.9-2.43-159.86-15.16 1.64z"/><path d="M900.8 662c-14.39.7-172.72 7.52-173.2 21.92-.44 13.25 166.69 31.67 167.84 31.7 12.56-7.44 13.64-43.38 5.36-53.62z" fill="#e9e8e8"/><path d="M906.08 686.64a69.73 69.73 0 0 1-.95 9.77l-148.19-1.22c-17.54-3.84-29.47-7.76-29.35-11.31a2.22 2.22 0 0 1 .27-.91z" fill="#352c3a" opacity=".1"/><path d="M907.13 689.86c-.81 11.36-4.27 22.36-10.63 26.11-1.17 0-170.54-18.7-170.1-32.13v-.11z" fill="#ededed"/><path d="M875.35 684.08h1.44v1.14h-1.52l-.15 3.1-.07 1.42h1.73v1.38h-1.75L873.94 713c-11.19-1.34-26.23-3.11-42.5-5.34L831 690.5h-.68v-1.14h.69l-.09-3.55v-1.24h-.55l.06-1.38h.46l-.46-17.46c17.31-1.25 33.63-2.37 46.08-3z" fill="#352c3a" opacity=".1"/><path fill="#e23c52" d="M831.4 592.38l4.92 185.46 37.87-6.05 8.4-171.78-51.19-7.63zM734.93 655.42l3.04 54.88 16.59-1.6 2.86-50.78-22.49-2.5z"/><path fill="#ffff85" d="M734.93 655.42l.09 55.17 7.43.25.79-55.14-8.31-.28zM832.08 595.29l.02-6.44 54.1 2.52-.34 10.13-53.78-6.21zM836.32 770.5l-.41 6.42 41.18 1.93.33-10.14-41.1 1.79z"/><g fill="#ffff85"><path d="M837.27 738.03l-.15-5.53 40.87 1.36-.24 4.89-40.48-.72zM880.3 686.51l-.24 4.95-44.06-.99-.14-5.44 44.44 1.48zM882.87 634.04l-.34 6.92-47.87-1.17-.17-6.31 48.38.56z"/></g><path fill="#495176" d="M878.56 739.64l.04-1.38-42.19-.26.04 1.14 42.11.5zM878.84 771.87l.12-1.37-42.11-2.61-.03 1.14 42.02 2.84zM836.56 730.84l-.1 1.37 42.15 1.91.01-1.14-42.06-2.14zM881.8 691.59l.05-1.38-46.56-.4.04 1.14 46.47.64zM835.37 683.63l-.06 1.38 46.56.69-.03-1.14-46.47-.93zM884.46 639.71v-1.38l-51.96 1.09.09 1.14 51.87-.85zM832.8 631.24l-.08 1.38 51.94 1.79-.02-1.14-51.84-2.03zM833.64 596.52l-.08 1.38 51.94 1.78-.02-1.14-51.84-2.02z"/><path d="M868 734.64a1.29 1.29 0 1 0 1.24 1.33 1.29 1.29 0 0 0-1.24-1.33zm0 .36a.83.83 0 1 1-.86.8.83.83 0 0 1 .86-.8zM857.83 734.66a1.29 1.29 0 1 0 0 1.82 1.29 1.29 0 0 0 0-1.82zm-.21.3a.83.83 0 1 1-1.17 0 .83.83 0 0 1 1.17.04zM846.54 734.26a1.29 1.29 0 1 0 0 1.82 1.29 1.29 0 0 0 0-1.82zm-.21.3a.83.83 0 1 1-1.17 0 .83.83 0 0 1 1.17.01zM869.55 686.7a1.29 1.29 0 1 0 1.24 1.33 1.29 1.29 0 0 0-1.24-1.33zm.06.36a.83.83 0 1 1-.86.8.83.83 0 0 1 .86-.8zM855.84 686.85a1.29 1.29 0 1 0 1.17 1.39 1.29 1.29 0 0 0-1.17-1.39zm0 .36a.83.83 0 1 1-.9.76.83.83 0 0 1 .94-.76zM871.94 635.41a1.29 1.29 0 1 0 .36 1.78 1.29 1.29 0 0 0-.36-1.78zm-.14.34a.83.83 0 1 1-1.15.23.83.83 0 0 1 1.15-.23zM855.81 634.82a1.29 1.29 0 1 0 1.17 1.39 1.29 1.29 0 0 0-1.17-1.39zm0 .36a.83.83 0 1 1-.9.76.83.83 0 0 1 .94-.76zM844.8 636a1.29 1.29 0 1 0-.73 1.66 1.29 1.29 0 0 0 .73-1.66zm-.31.2a.83.83 0 1 1-1.07-.47.83.83 0 0 1 1.07.43zM842.69 686.78a1.29 1.29 0 1 0 0 1.82 1.29 1.29 0 0 0 0-1.82zm-.21.3a.83.83 0 1 1-1.17 0 .83.83 0 0 1 1.17 0z" fill="#353e67"/><path fill="#495176" d="M744.06 654.72l-1.38-.14-2.25 55.55 1.14.04 2.49-55.45z"/><path d="M748.26 676.32a1.29 1.29 0 1 0 1.17 1.39 1.29 1.29 0 0 0-1.17-1.39zm0 .36a.83.83 0 1 1-.9.76.83.83 0 0 1 .94-.76zM748 682.58a1.29 1.29 0 1 0 1.17 1.39 1.29 1.29 0 0 0-1.17-1.39zm0 .36a.83.83 0 1 1-.9.76.83.83 0 0 1 .9-.76zM747.69 688.83a1.29 1.29 0 1 0 1.17 1.39 1.29 1.29 0 0 0-1.17-1.39zm0 .36a.83.83 0 1 1-.9.76.83.83 0 0 1 .94-.75z" fill="#ffff85"/><path d="M696.41 657" fill="#fff"/><g fill="#fff"><path d="M651.8 681.76a5.45 5.45 0 0 1 6.52-4.56l4 .63-1.71 10.89-4-.63a5.47 5.47 0 0 1-4.81-6.33zm7.65-2.15l-1.35-.21a3.31 3.31 0 0 0-1 6.53l1.35.21zM644.89 685.87l1.69-7a1.74 1.74 0 1 0-3.38-.81l-1.69 7-2.48-.59 1.69-7.06a4.3 4.3 0 0 1 8.34 2l-1.69 7.06zM629.69 670l-2.16 6.48 4.41-5.73 1.79.6.17 7.26 2.16-6.48 2.36.79-3.42 10.45-2.79-.93-.37-8.21-5.18 6.36-2.75-.91 3.48-10.46zM615.52 676.19a4 4 0 1 1 3.16-7.31l1.89.82 1.21-2.8 2.34 1-4.37 10.1zm.25-4.23a1.8 1.8 0 0 0 .86 2.45l1.6.69 1.51-3.5-1.6-.69a1.8 1.8 0 0 0-2.37 1.09zM605.41 668.93l-1.07 1.93-6.59-3.67 1.07-1.93 2.19 1.22 4.29-7.7 2.23 1.24-4.29 7.7zM596.28 658.47l2.39-3.66 2.13 1.39-6 9.23-2.15-1.43 2.43-3.73-3.19-2.08-2.43 3.73-2.12-1.38 6-9.23 2.12 1.38-2.39 3.66zM584.59 652.91l-3.32-2.52 1.21-1.59 3.32 2.52 1.46-1.93-3.32-2.52 1.24-1.63 5.35 4.06-6.66 8.78-5.35-4.08 1.24-1.63 3.32 2.52zM573.11 646.62l-1.5 1.62-5.53-5.12 1.5-1.62 1.84 1.7 6-6.47 1.87 1.73-6 6.47zM560.45 637.35a3.9 3.9 0 0 1 .14-5.65 3.82 3.82 0 0 1 4.09-.85l1-4 2 2.15-.88 3.52.82.87 2.22-2.1 1.75 1.85-8 7.57zm1.91-3.78a1.8 1.8 0 0 0-.17 2.59l1.2 1.27 2.77-2.62-1.2-1.27a1.8 1.8 0 0 0-2.6.03zM553.68 629.7l5.62-4.56a1.74 1.74 0 1 0-2.19-2.7l-5.62 4.56-1.61-2 5.64-4.57a4.3 4.3 0 0 1 5.41 6.66l-5.64 4.57zM551.26 607.86l-5.65 3.83 7-1.87 1.06 1.56-4.28 5.87 5.65-3.83 1.4 2.06-9.12 6.18-1.65-2.44 4.69-6.74-8 1.89-1.62-2.4 9.12-6.18zM536.24 604.15a4 4 0 1 1 6.95-3.89l1 1.8 2.66-1.49 1.25 2.23-9.62 5.38zm2.77-3.21a1.8 1.8 0 0 0-.8 2.47l.85 1.52 3.32-1.86-.85-1.52a1.8 1.8 0 0 0-2.53-.61zM539.32 592.62a1.61 1.61 0 1 1 2.15.76 1.61 1.61 0 0 1-2.15-.76zm-7.81 2.33l6.49-3.14 1.12 2.32-6.49 3.14zM536.43 586.32a1.61 1.61 0 1 1 2.12.85 1.61 1.61 0 0 1-2.12-.85zm-7.9 2l6.62-2.85 1 2.37-6.62 2.85z"/></g></g></g></g></g></svg>