<?xml version="1.0" encoding="utf-8"?>
<!-- Generator: Adobe Illustrator 22.0.0, SVG Export Plug-In . SVG Version: 6.00 Build 0)  -->
<svg version="1.1" id="Layer_1" xmlns="http://www.w3.org/2000/svg" xmlns:xlink="http://www.w3.org/1999/xlink" x="0px" y="0px"
	 viewBox="0 0 3008.5 1430.4" style="enable-background:new 0 0 3008.5 1430.4;" xml:space="preserve">
<style type="text/css">
	.st0{fill:#E23C52;}
	.st1{fill:#76C9E8;}
	.st2{opacity:0.4;fill:#FFFFFF;enable-background:new    ;}
	.st3{fill:#5CC29F;}
	.st4{fill:#5F5863;}
	.st5{fill:#FFFF85;}
	.st6{fill:#352C3A;}
	.st7{fill:#5D899F;}
	.st8{fill:#E9E8E8;}
	.st9{opacity:0.1;fill:#352C3A;enable-background:new    ;}
	.st10{fill:#EDEDED;}
	.st11{fill:#495176;}
	.st12{fill:#353E67;}
	.st13{fill:#FFFFFF;}
	.st14{fill:#E1E2E8;}
	.st15{fill:#D7D8E1;}
	.st16{fill:#EBECF0;}
	.st17{fill:#F5F5F7;}
	.st18{fill:#F3F3F6;}
	.st19{fill:#DFE0E7;}
	.st20{fill:none;stroke:#EBECF0;stroke-width:3;stroke-miterlimit:10;}
	.st21{fill:#CCCFD9;}
	.st22{fill:none;stroke:#CCCFD9;stroke-miterlimit:10;}
	.st23{fill:#2F251B;}
	.st24{fill:none;stroke:#2F251B;stroke-linecap:round;stroke-linejoin:round;}
	.st25{fill:none;stroke:#2F251B;stroke-miterlimit:10;}
	.st26{fill:#F3C7AD;}
	.st27{fill:#41393C;}
	.st28{fill:#FDFBEE;}
	.st29{fill:#413946;}
	.st30{fill:#FDFDFD;}
	.st31{fill:#39303E;}
	.st32{fill:#3D3442;}
	.st33{fill:#3B323E;}
	.st34{fill:#F8BB97;}
	.st35{fill:#E4A27E;}
	.st36{fill:#66596D;}
	.st37{fill:#2D2D2D;}
	.st38{fill:#EFB592;}
	.st39{fill:#A84751;}
	.st40{opacity:0.39;fill:#E9E8E8;enable-background:new    ;}
	.st41{fill:#E1DFE1;}
	.st42{fill:#C2C0C4;}
	.st43{fill:#E7E6E9;}
	.st44{opacity:0.3;fill:#352C3A;enable-background:new    ;}
	.st45{fill:#49414E;}
	.st46{fill:#E94B59;}
	.st47{fill:#D9DEC8;}
	.st48{opacity:0.47;fill:#899A7A;enable-background:new    ;}
	.st49{opacity:0.38;}
	.st50{fill:#899A7A;}
	.st51{opacity:0.47;}
	.st52{fill:#E1E0D6;}
	.st53{fill:none;}
</style>
<path class="st0" d="M691.4,652l-190.2,21.7c-2.7,0.3-5.2-1.6-5.5-4.4l-4.8-42.1c-0.3-2.7,1.6-5.2,4.4-5.5L685.5,600
	c2.7-0.3,5.2,1.6,5.5,4.4l4.8,42.1C696.1,649.2,694.1,651.6,691.4,652z"/>
<g>
	<g id="Layer_1_1_">
		<path id="hp-background" class="st1" d="M35.3,0h1800v1377.4H35.3V0z"/>
		<path class="st2" d="M1315.4,871.1c-21.6,0-42.8,5.2-61.9,15.2c-5.7-43.1-42.1-76.3-86.2-76.3c-25.2,0-49.1,11-65.4,30.1
			c0.3-3.7,0.4-7.4,0.4-11.2c0-86.2-68.9-156.1-154-156.1s-154,69.9-154,156.1c0,8.1,0.6,16.1,1.8,24.1
			c-21.4-24.3-58.4-26.6-82.6-5.2c-7,6.1-12.4,13.8-15.8,22.4c-9.4-46.4-49.9-81.2-98.5-81.2c-55.5,0-100.5,45.6-100.5,101.9
			c0,5.1,0.4,10.2,1.1,15.2c-41.7,17.4-68.7,58.2-68.6,103.3c0,61.6,49.3,111.5,110,111.5s699.7,23.3,774.1,23.3
			S1450,1083,1450,1007.6S1389.8,871.1,1315.4,871.1L1315.4,871.1z"/>
		<path id="hp-cloud" class="st2" d="M1453.3,548.1c-4.7,0-9.3,1.1-13.4,3.3c-1.2-9.4-9.2-16.5-18.7-16.5c-5.4,0-10.6,2.4-14.2,6.5
			c0.1-0.8,0.1-1.6,0.1-2.4c0.5-18.4-14.1-33.7-32.5-34.1s-33.7,14.1-34.1,32.5c0,0.5,0,1.1,0,1.6c0,1.7,0.1,3.5,0.4,5.2
			c-4.6-5.3-12.6-5.8-17.9-1.1c-1.5,1.3-2.7,3-3.4,4.8c-2.3-11.8-13.7-19.5-25.5-17.1c-10.3,2-17.7,11.1-17.6,21.6
			c0,1.1,0.1,2.2,0.2,3.3c-12.3,5.1-18.1,19.3-13,31.6c3.7,8.9,12.4,14.7,22,14.9c13.2,0,151.5,5,167.6,5
			c16.3-0.6,29-14.3,28.4-30.6C1481.1,561.1,1468.7,548.6,1453.3,548.1L1453.3,548.1z"/>
		<path id="hp-cloud-2" class="st2" d="M634.5,301.8c-2.9,0-5.7,0.7-8.2,2c-0.7-5.8-5.6-10.1-11.4-10.1c-3.3,0-6.5,1.5-8.7,4
			c0-0.5,0-1,0-1.5c0-11.3-9.1-20.4-20.4-20.4s-20.4,9.1-20.4,20.4c0,1.1,0.1,2.1,0.2,3.2c-2.8-3.2-7.7-3.5-10.9-0.7
			c-0.9,0.8-1.6,1.8-2.1,2.9c-1.4-7.2-8.4-11.9-15.6-10.6c-6.4,1.2-10.9,6.8-10.8,13.3c0,0.7,0.1,1.3,0.2,2
			c-7.6,3.1-11.1,11.8-8,19.3c2.3,5.5,7.6,9.1,13.5,9.1c8,0,92.7,3.1,102.5,3.1c10,0,18.1-8.1,18.1-18.1
			C652.6,309.9,644.5,301.8,634.5,301.8L634.5,301.8z"/>
		<path id="hp-cloud-3" class="st2" d="M1149.7,192.8c2.2,0,4.3,0.5,6.2,1.5c0.6-4.4,4.2-7.6,8.6-7.6c2.5,0,4.9,1.1,6.6,3v-1.1
			c0-8.5,6.9-15.4,15.4-15.4s15.4,6.9,15.4,15.4c0,0,0,0,0,0c0,0.8-0.1,1.6-0.2,2.4c2.1-2.4,5.8-2.7,8.3-0.5
			c0.7,0.6,1.2,1.4,1.6,2.3c1.1-5.5,6.4-9,11.8-7.9c4.8,0.9,8.2,5.1,8.1,10c0,0.5,0,1-0.1,1.5c5.7,2.4,8.4,8.9,6,14.6
			c-1.7,4.1-5.7,6.8-10.1,6.9c-6.1,0-70.1,2.3-77.5,2.3c-7.5-0.4-13.3-6.8-12.9-14.4C1137.2,198.7,1142.7,193.2,1149.7,192.8
			L1149.7,192.8z"/>
		<path id="hp-cloud-4" class="st2" d="M2980,641.2c-4.7,0-9.3,1.1-13.4,3.3c-1.2-9.4-9.2-16.5-18.7-16.5c-5.4,0-10.6,2.4-14.2,6.5
			c0.1-0.8,0.1-1.6,0.1-2.4c0.5-18.4-14.1-33.7-32.5-34.1c-18.4-0.5-33.7,14.1-34.1,32.5c0,0.5,0,1.1,0,1.6c0,1.7,0.1,3.5,0.4,5.2
			c-4.6-5.3-12.6-5.8-17.9-1.1c-1.5,1.3-2.7,3-3.4,4.8c-2.3-11.8-13.7-19.5-25.5-17.1c-10.3,2-17.7,11.1-17.6,21.6
			c0,1.1,0.1,2.2,0.2,3.3c-12.3,5.1-18.1,19.3-13,31.6c3.7,8.9,12.4,14.7,22,14.9c13.1,0,151.5,5,167.6,5
			c16.3-0.6,29-14.3,28.4-30.6C3007.9,654.1,2995.5,641.7,2980,641.2L2980,641.2z"/>
		<path id="hp-cloud-5" class="st2" d="M1678.9,301.8c-2.9,0-5.7,0.7-8.2,2c-0.7-5.8-5.6-10.1-11.4-10.1c-3.3,0-6.5,1.5-8.7,4
			c0-0.5,0.1-1,0.1-1.5c0-11.3-9.1-20.4-20.4-20.4s-20.4,9.1-20.4,20.4c0,1.1,0.1,2.1,0.2,3.2c-2.8-3.2-7.7-3.5-10.9-0.7
			c-0.9,0.8-1.6,1.8-2.1,2.9c-1.4-7.2-8.4-11.9-15.6-10.6c-6.4,1.2-10.9,6.8-10.8,13.3c0,0.7,0.1,1.3,0.2,2
			c-7.5,3.2-11.1,11.8-7.9,19.4c2.3,5.4,7.5,9,13.4,9.1c8,0,92.7,3.1,102.5,3.1c10-0.2,17.9-8.5,17.6-18.5
			C1696.3,309.8,1688.5,302,1678.9,301.8z"/>
		<path id="hp-cloud-6" class="st2" d="M2676.4,285.9c2.2,0,4.3,0.5,6.2,1.5c0.6-4.4,4.2-7.6,8.6-7.6c2.5,0,4.9,1.1,6.6,3v-1.1
			c0-8.5,6.9-15.4,15.4-15.4c8.5,0,15.4,6.9,15.4,15.4c0,0.8-0.1,1.6-0.2,2.4c2.1-2.4,5.8-2.7,8.3-0.5c0.7,0.6,1.2,1.4,1.6,2.3
			c1.1-5.5,6.4-9,11.8-7.9c4.8,0.9,8.2,5.1,8.1,10c0,0.5,0,1-0.1,1.5c5.7,2.4,8.4,8.9,6,14.6c-1.7,4.1-5.7,6.8-10.2,6.9
			c-6.1,0-70.1,2.3-77.5,2.3c-7.5-0.3-13.4-6.7-13-14.3C2663.8,291.8,2669.4,286.2,2676.4,285.9z"/>
		<path id="hp-cloud-7" class="st2" d="M629.3,491.9c0.8,0,1.5,0.2,2.2,0.5c0.2-1.6,1.5-2.7,3.1-2.7c0.9,0,1.8,0.4,2.3,1.1v-0.4
			c-0.3-3,2-5.7,5-6c3-0.3,5.7,2,6,5c0,0.3,0,0.6,0,0.9c0,0.3,0,0.6-0.1,0.9c0.8-0.9,2.1-1,3-0.2c0.3,0.2,0.4,0.5,0.6,0.8
			c0.4-2,2.2-3.3,4.2-2.9c1.7,0.3,3,1.9,3,3.6c0,0.2,0,0.4,0,0.5c2,0.9,3,3.2,2.1,5.3c-0.6,1.4-2,2.4-3.6,2.4
			c-2.2,0-25.1,0.8-27.8,0.8c-2.7-0.3-4.6-2.7-4.4-5.4C625.1,494,626.9,492.2,629.3,491.9L629.3,491.9z"/>
		<path class="st3" d="M0,1287.5h1800v142.9H0V1287.5z"/>
		<g>
			<g id="hp-plane-a">
				<g id="hp-banner-a">
					<path class="st0" d="M1384.6,451.6l-39-0.4c0.5-57.7-45.7-105-103.5-105.7l0.4-39C1321.7,307.3,1385.4,372.4,1384.6,451.6
						L1384.6,451.6z"/>
					<path class="st4" d="M1211.7,325.9l34.7-21.7l0.3,1l-33.1,20.5l31.3,17.7l-0.3,0.8L1211.7,325.9L1211.7,325.9z"/>
					<path class="st5" d="M1252.9,303.7l-3.6,42.3l-5.7,0.1l2.1-43L1252.9,303.7z"/>
				</g>
				<path id="hp-prop-a" class="st6" d="M1070.7,300.7c2.9,17.6,2.8,35.5-0.2,53.1c0,1.5,1.5,2.7,3.3,2.7s3.3-1.2,3.3-2.7
					c0-1.2-2.2-7.8-2.1-26.6s2.3-25.4,2.3-26.5c0-1.5-1.5-2.7-3.3-2.7S1070.7,299.2,1070.7,300.7L1070.7,300.7z"/>
				<path class="st5" d="M1078.4,322.6c2.7,0,3.6,2.2,3.5,4.9s-0.9,4.9-3.6,4.9s-7.7-3.2-7.7-4.9S1075.7,322.6,1078.4,322.6
					L1078.4,322.6z"/>
				<path class="st7" d="M1143.3,262.2l-7.3,125.1l-11.3,0.3l6.6-127.2L1143.3,262.2L1143.3,262.2z"/>
				<path class="st8" d="M1082.6,305.2c11.4,1,137.3,11,137.3,22.5c0,10.6-133.6,20.4-134.6,20.4
					C1075.5,341.8,1075.7,313.1,1082.6,305.2z"/>
				<path class="st9" d="M1077.7,324.7c0,2.6,0.1,5.2,0.5,7.8l118,3.4c14.1-2.5,23.7-5.3,23.7-8.1c0-0.3-0.1-0.5-0.2-0.7
					L1077.7,324.7z"/>
				<path class="st10" d="M1076.7,327.2c0.3,9.1,2.8,17.9,7.7,21.1c0.9,0,136.3-9.9,136.4-20.6v-0.1L1076.7,327.2z"/>
				<path class="st9" d="M1102.2,323.5h-1.1l-0.1,0.9h1.2v3.6h-1.4v1.1h1.4l0.2,17.5c8.9-0.7,21-1.7,34-3l0.9-13.7h0.6l0.1-0.9h-0.6
					l0.2-2.8l0.1-1h0.4v-1.1h-0.3l0.9-13.9c-13.8-1.5-26.7-2.9-36.6-3.8L1102.2,323.5z"/>
				<path class="st0" d="M1136.4,250.1l-9.3,147.5l-30-5.9l-1.7-137L1136.4,250.1L1136.4,250.1z M1214.8,304.8l-4,43.6l-13.2-1.8
					l-0.8-40.5L1214.8,304.8L1214.8,304.8z"/>
				<path class="st5" d="M1214.8,304.8l-1.7,43.9l-5.9,0l1-43.9L1214.8,304.8L1214.8,304.8z M1139.2,254.1l0.2-5.1l-43.1,0.4l0,8.1
					L1139.2,254.1L1139.2,254.1z M1130.7,393.5l0.1,5.1L1098,399l0-8.1L1130.7,393.5L1130.7,393.5z"/>
				<g>
					<path class="st5" d="M1130.9,367.6l0.3-4.4l-32.6-0.1l0.1,3.9L1130.9,367.6L1130.9,367.6z M1098.2,325.3l0.1,4l35.1,0.5
						l0.3-4.3L1098.2,325.3L1098.2,325.3z M1097.7,283.5l0.1,5.5l38.1,0.5l0.3-5L1097.7,283.5L1097.7,283.5z"/>
				</g>
				<path class="st11" d="M1098,367.7l0-1.1l33.6,1l-0.1,0.9L1098,367.7L1098,367.7z M1096.9,393.3l-0.1-1.1l33.6-0.8l0,0.9
					L1096.9,393.3L1096.9,393.3z M1131.7,361.9l0,1.1l-33.6,0.3l0-0.9L1131.7,361.9L1131.7,361.9z M1096.8,329.3v-1.1l37.1,1
					l-0.1,0.9L1096.8,329.3L1096.8,329.3z M1134,324.4l0,1.1l-37.1-0.8l0.1-0.9L1134,324.4L1134,324.4z M1096.2,288l0-1.1l41.3,2.4
					l-0.1,0.9L1096.2,288z M1137.6,282.7l0,1.1l-41.4-0.1l0.1-0.9L1137.6,282.7z M1137.9,255.1l0,1.1l-41.4-0.1l0.1-0.9
					L1137.9,255.1z"/>
				<path class="st12" d="M1105.6,365.1c0,0.6,0.4,1,1,1s1-0.4,1-1s-0.4-1-1-1S1105.6,364.5,1105.6,365.1z M1107.2,365
					c0,0.4-0.3,0.7-0.7,0.7s-0.7-0.3-0.7-0.7s0.3-0.7,0.7-0.7C1106.9,364.3,1107.2,364.6,1107.2,365L1107.2,365z M1114.6,365.8
					c0.4,0.4,1,0.4,1.4,0c0.4-0.4,0.4-1,0-1.4c-0.4-0.4-1-0.4-1.4,0C1114.2,364.7,1114.2,365.3,1114.6,365.8
					C1114.6,365.8,1114.6,365.8,1114.6,365.8z M1115.8,364.6c0.3,0.3,0.3,0.7,0,0.9s-0.7,0.3-0.9,0c-0.3-0.3-0.3-0.7,0-0.9
					c0,0,0,0,0,0C1115.1,364.4,1115.5,364.4,1115.8,364.6L1115.8,364.6z M1123.6,365.8c0.4,0.4,1,0.4,1.4,0c0.4-0.4,0.4-1,0-1.4
					c-0.4-0.4-1-0.4-1.4,0C1123.2,364.7,1123.2,365.4,1123.6,365.8C1123.6,365.8,1123.6,365.8,1123.6,365.8z M1124.8,364.6
					c0.3,0.3,0.3,0.7,0,0.9s-0.7,0.3-0.9,0c-0.3-0.3-0.3-0.7,0-0.9c0,0,0,0,0,0C1124.1,364.4,1124.5,364.4,1124.8,364.6
					L1124.8,364.6z M1105.7,326.8c0,0.6,0.4,1,1,1s1-0.4,1-1s-0.4-1-1-1S1105.7,326.3,1105.7,326.8z M1107.4,326.8
					c0,0.4-0.3,0.7-0.7,0.7s-0.7-0.3-0.7-0.7s0.3-0.7,0.7-0.7C1107.1,326.1,1107.3,326.4,1107.4,326.8L1107.4,326.8z M1116.7,327.4
					c0,0.6,0.5,1,1.1,0.9c0.6,0,1-0.5,0.9-1.1c0-0.5-0.5-0.9-1-0.9C1117.1,326.3,1116.7,326.8,1116.7,327.4
					C1116.7,327.3,1116.7,327.4,1116.7,327.4z M1118.3,327.2c0,0.4-0.3,0.7-0.6,0.7c-0.4,0-0.7-0.3-0.7-0.6c0-0.4,0.3-0.7,0.6-0.7
					C1118,326.6,1118.3,326.9,1118.3,327.2C1118.3,327.2,1118.3,327.2,1118.3,327.2L1118.3,327.2z M1106,286.3
					c0.3,0.5,0.9,0.6,1.4,0.3c0.5-0.3,0.6-0.9,0.3-1.4c-0.3-0.4-0.9-0.6-1.3-0.3C1105.8,285.2,1105.7,285.8,1106,286.3
					C1106,286.3,1106,286.3,1106,286.3z M1107.3,285.4c0.2,0.3,0.1,0.7-0.2,0.9c-0.3,0.2-0.7,0.1-0.9-0.2c-0.2-0.3-0.1-0.7,0.2-0.9
					C1106.7,285,1107.1,285.1,1107.3,285.4C1107.3,285.4,1107.3,285.4,1107.3,285.4z M1118.2,286c0,0.6,0.5,1,1.1,0.9
					c0.6,0,1-0.5,0.9-1.1c0-0.5-0.5-0.9-1-0.9C1118.7,284.9,1118.2,285.3,1118.2,286C1118.2,285.9,1118.2,285.9,1118.2,286z
					 M1119.8,285.8c0,0.4-0.3,0.7-0.6,0.7c-0.4,0-0.7-0.3-0.7-0.6c0-0.4,0.3-0.7,0.6-0.7C1119.5,285.2,1119.8,285.4,1119.8,285.8
					C1119.8,285.8,1119.8,285.8,1119.8,285.8z M1128.5,287.5c0.5,0.2,1.1,0,1.3-0.6s0-1.1-0.6-1.3c-0.5-0.2-1.1,0-1.3,0.5
					C1127.7,286.6,1127.9,287.2,1128.5,287.5C1128.4,287.5,1128.4,287.5,1128.5,287.5z M1129,286c0.3,0.1,0.5,0.5,0.3,0.9
					s-0.5,0.5-0.9,0.3c-0.3-0.1-0.5-0.5-0.3-0.9C1128.3,286,1128.7,285.8,1129,286L1129,286z M1128.1,328.1c0.4,0.4,1,0.4,1.4,0
					c0.4-0.4,0.4-1,0-1.4c-0.4-0.4-1-0.4-1.4,0C1127.7,327,1127.7,327.6,1128.1,328.1C1128,328,1128.1,328.1,1128.1,328.1z
					 M1129.2,326.9c0.3,0.3,0.3,0.7,0,0.9s-0.7,0.3-0.9,0c-0.3-0.3-0.3-0.7,0-0.9c0,0,0,0,0,0C1128.5,326.7,1129,326.7,1129.2,326.9
					L1129.2,326.9z"/>
				<path class="st11" d="M1207.6,304l1.1-0.1l0.2,44.3h-0.9L1207.6,304z"/>
				<path class="st5" d="M1202.6,322.2c0,0.6,0.5,1,1.1,0.9c0.6,0,1-0.5,0.9-1.1c0-0.5-0.5-0.9-1-0.9
					C1203.1,321.1,1202.6,321.5,1202.6,322.2C1202.6,322.1,1202.6,322.1,1202.6,322.2z M1204.3,322c0,0.4-0.3,0.7-0.6,0.7
					c-0.4,0-0.7-0.3-0.7-0.6c0-0.4,0.3-0.7,0.6-0.7C1203.9,321.3,1204.2,321.6,1204.3,322C1204.3,322,1204.3,322,1204.3,322z
					 M1202.7,327.1c0,0.6,0.5,1,1.1,0.9c0.6,0,1-0.5,0.9-1.1c0-0.5-0.5-0.9-1-0.9C1203.1,326.1,1202.7,326.5,1202.7,327.1
					C1202.7,327.1,1202.7,327.1,1202.7,327.1z M1204.3,327c0,0.4-0.3,0.7-0.6,0.7c-0.4,0-0.7-0.3-0.7-0.6c0-0.4,0.3-0.7,0.6-0.7
					C1204,326.3,1204.3,326.6,1204.3,327C1204.3,327,1204.3,327,1204.3,327z M1202.7,332.1c0,0.6,0.5,1,1.1,0.9c0.6,0,1-0.5,0.9-1.1
					c0-0.5-0.5-0.9-1-0.9C1203.2,331.1,1202.7,331.5,1202.7,332.1C1202.7,332.1,1202.7,332.1,1202.7,332.1z M1204.4,332
					c0,0.4-0.3,0.7-0.6,0.7c-0.4,0-0.7-0.3-0.7-0.6c0-0.4,0.3-0.7,0.6-0.7C1204,331.3,1204.3,331.6,1204.4,332L1204.4,332z"/>
				<g>
					<path class="st13" d="M1276.6,331.3c-0.7,2.4-3.3,3.8-5.7,3.1c-0.1,0-0.2-0.1-0.3-0.1l-3.3-1l2.7-8.9l3.3,1
						c2.5,0.6,4,3.1,3.4,5.6C1276.6,331,1276.6,331.1,1276.6,331.3z M1269.9,332.2l1.1,0.3c1.5,0.3,3-0.6,3.3-2.1
						c0.3-1.4-0.4-2.7-1.7-3.2l-1.1-0.3L1269.9,332.2z M1282.8,328.6l-2.2,5.7c-0.4,0.7,0,1.6,0.7,2s1.6,0,2-0.7
						c0-0.1,0.1-0.1,0.1-0.2l2.2-5.7l2,0.8l-2.2,5.7c-0.8,1.8-3,2.6-4.8,1.8c-1.7-0.8-2.5-2.7-1.9-4.4l2.2-5.7L1282.8,328.6z
						 M1293.6,343.6l2.6-5.2l-4.3,4.3l-1.4-0.7l0.7-6.1l-2.6,5.2l-1.9-0.9l4.1-8.3l2.2,1.1l-0.6,6.9l5.1-4.7l2.2,1.1l-4.1,8.3
						L1293.6,343.6z M1306.2,340.1c1.6,0.9,2.2,2.9,1.3,4.6c-0.9,1.6-2.9,2.2-4.6,1.3c-0.1-0.1-0.2-0.1-0.3-0.2l-1.5-0.9l-1.3,2.2
						l-1.8-1.1l4.8-7.9L1306.2,340.1z M1305.5,343.6c0.5-0.7,0.3-1.6-0.4-2.1c0,0,0,0,0,0l-1.3-0.8l-1.7,2.7l1.3,0.8
						C1304.1,344.6,1305,344.4,1305.5,343.6C1305.5,343.6,1305.5,343.6,1305.5,343.6L1305.5,343.6z M1313.7,347.3l1.1-1.5l5.1,3.8
						l-1.1,1.5l-1.7-1.3l-4.5,5.9l-1.7-1.3l4.5-5.9L1313.7,347.3z M1320.2,357.1l-2.4,2.8l-1.6-1.4l6.1-7l1.6,1.4l-2.5,2.8l2.4,2.1
						l2.5-2.8l1.6,1.4l-6.1,7l-1.6-1.4l2.4-2.8L1320.2,357.1z M1329.3,363.1l2.5,2.5l-1.2,1.2l-2.5-2.5l-1.4,1.4l2.5,2.5l-1.2,1.2
						l-4-4l6.6-6.6l4,4l-1.2,1.2l-2.5-2.5L1329.3,363.1z M1338.2,369.7l1.4-1.2l4,4.9l-1.4,1.2l-1.3-1.6l-5.7,4.7l-1.4-1.6l5.7-4.7
						L1338.2,369.7z M1347.7,378.9c1.1,1.4,0.8,3.5-0.6,4.6c0,0-0.1,0.1-0.1,0.1c-1,0.8-2.4,0.9-3.5,0.2l-1.3,3.2l-1.4-2l1.1-2.8
						l-0.6-0.8l-2.1,1.5l-1.3-1.8l7.6-5.4L1347.7,378.9z M1345.7,381.8c0.7-0.5,0.9-1.4,0.5-2.1c0,0,0,0,0,0l-0.8-1.2l-2.6,1.9
						l0.8,1.2C1344,382.2,1345,382.3,1345.7,381.8L1345.7,381.8z M1352.4,386.1l-5.2,3.2c-0.7,0.4-1,1.3-0.6,2s1.3,1,2,0.6
						c0.1,0,0.1-0.1,0.2-0.1l5.2-3.2l1.1,1.8l-5.2,3.2c-1.8,1-4,0.3-4.9-1.5c-0.9-1.6-0.4-3.7,1.2-4.7l5.2-3.2L1352.4,386.1z
						 M1351.9,404.6l5.2-2.5l-6,0.8l-0.7-1.4l4.3-4.4l-5.2,2.5l-0.9-1.9l8.3-4.1l1.1,2.2l-4.7,5.1l6.9-0.7l1.1,2.2l-8.3,4.1
						L1351.9,404.6z M1364,409.4c0.7,1.7-0.2,3.7-1.9,4.3c-1.7,0.7-3.7-0.2-4.3-1.9l0,0l-0.6-1.6l-2.4,0.9l-0.8-2l8.7-3.4
						L1364,409.4z M1361.3,411.8c0.8-0.2,1.3-1.1,1-1.9c0,0,0-0.1,0-0.1l-0.5-1.4l-3,1.2l0.5,1.4
						C1359.7,411.7,1360.5,412.1,1361.3,411.8C1361.3,411.8,1361.3,411.8,1361.3,411.8z M1360.1,418.7c0.2,0.7-0.2,1.5-0.9,1.7
						c-0.7,0.2-1.5-0.2-1.7-0.9c-0.2-0.7,0.2-1.5,0.9-1.7c0,0,0,0,0,0C1359.1,417.6,1359.9,418,1360.1,418.7
						C1360.1,418.7,1360.1,418.7,1360.1,418.7z M1366.9,417.7l-5.8,1.9l-0.7-2.1l5.8-1.9L1366.9,417.7z M1361.8,424.3
						c0.2,0.7-0.3,1.5-1,1.6s-1.5-0.3-1.6-1c-0.2-0.7,0.3-1.4,1-1.6C1360.9,423.1,1361.6,423.5,1361.8,424.3
						C1361.8,424.2,1361.8,424.3,1361.8,424.3z M1368.6,423.5l-5.9,1.6l-0.6-2.1l5.9-1.6L1368.6,423.5z"/>
				</g>
			</g>
			<path class="st14" d="M857.6,807.6c0,0,2.4-32.7,25.4-32.7s20.4,35.3,20.4,35.3s-9.3,7.8-24.6,5.2S857.6,807.6,857.6,807.6
				L857.6,807.6z"/>
			<path class="st15" d="M903.2,804.5c0-1.1-0.1-2.3-0.2-3.6c-4.3-2.1-19.6-10.5-19.6-10.5s-20.3,9.4-25.2,12.2
				c-0.2,1.3-0.4,2.3-0.5,3.2C858,806.2,901.6,804.5,903.2,804.5z"/>
			<path class="st14" d="M859.4,799.8c0,0,0.6-24.9,23.6-24.9s20,26,20,26l-19.6-13.2L859.4,799.8z"/>
			<g id="hp-whitehouse">
				<g>
					<path class="st16" d="M572.6,933.6l8,42.2c0,0,61.7,3,67.6,1.1s-0.8-47.1-0.8-47.1L572.6,933.6z M1233.3,945.6l-8,42.2
						c0,0-61.7,3-67.6,1.1s0.8-47.1,0.8-47.1L1233.3,945.6z"/>
					<path class="st17" d="M892.1,969.5c-10-0.9-544.2,5.3-544.2,5.3l7.6,314.7h1096.8l1.9-307.1
						C1454.2,982.4,902.1,970.4,892.1,969.5L892.1,969.5z M392.1,1010.7l-2.3-30.6h7.9l1.5,30.6L392.1,1010.7L392.1,1010.7z
						 M406.3,1010.7l-2.1-30.6h7.9l1.3,30.6L406.3,1010.7L406.3,1010.7z M420.6,1010.7l-0.7-30.9l7.9,0.3l-0.2,30.9L420.6,1010.7z
						 M436.7,1010.7l-0.7-30.9l7.9,0.3l-0.2,30.9L436.7,1010.7z M453,1010.7l-0.7-30.9l7.9,0.3l-0.2,30.9L453,1010.7z M504.7,1007.8
						l-2.2-30.6h7.9l1.4,30.6H504.7L504.7,1007.8z M519.2,1007.8l-2.2-30.6h7.9l1.4,30.6H519.2L519.2,1007.8z M533.4,1007.8
						l-0.8-30.9l7.9,0.4l0,30.8L533.4,1007.8z M549.6,1007.8l-0.8-31l7.9,0.4l0,30.9L549.6,1007.8z M565.9,1007.8l-0.8-30.9l7.9,0.4
						l0,30.8L565.9,1007.8z M1237.2,1016.1l-7.1,0.3l1-30.9l7.9-0.4L1237.2,1016.1z M1253.5,1016.1l-7.1,0.3l1-30.9l7.9-0.4
						L1253.5,1016.1z M1269.6,1016.1l-7.1,0.3l1-30.9l7.9-0.4L1269.6,1016.1z M1283.9,1016.1h-7.1l2.4-30.6h7.9L1283.9,1016.1z
						 M1298.3,1016.1h-7.1l2.4-30.6h7.9L1298.3,1016.1z M1351.4,1018.9l-7.1,0.3l-0.5-30.7l7.9-0.4L1351.4,1018.9z M1367.7,1018.9
						l-7.1,0.3l-0.5-30.7l7.9-0.4L1367.7,1018.9z M1383.9,1018.9l-7.1,0.3l-0.5-30.7l7.9-0.4L1383.9,1018.9z M1398.1,1018.9h-7.1
						l1-30.5h7.9L1398.1,1018.9z M1412.6,1018.9h-7.1l1-30.5h7.9L1412.6,1018.9z"/>
					<path class="st16" d="M666.5,987.1c-0.3-4.5-4.5-7.6-10.3-7.6c-0.6,0-5.7,0.6-6.3,0.7h-15.8l-13.6-0.7
						c-0.6-0.1-2.7,0.5-3.2,0.5c-5.7,0-9.7,5.7-9.4,10.2s4.7,8.8,10.4,8.8c2,0,3.9-0.4,5.7-1.3l0.7,276.1h-3.2l2,31.3l18.8,1.1h40.7
						l-2-31.3h-10.1l-18.8-277.5c1.8,1,4.3,2.2,6.6,1.9C665.7,998.5,666.7,991.7,666.5,987.1z M1143.8,991.3
						c0.3-4.5,4.6-7.6,10.3-7.6c0.6,0,5.7,0.6,6.3,0.7h15.8l13.6-0.7c0.6-0.1,2.7,0.5,3.2,0.5c5.7,0,9.7,5.7,9.4,10.2
						s-4.7,8.8-10.4,8.8c-2,0-3.9-0.4-5.7-1.3l3.6,277.2h3.2l-2,31.3h-76.9l2-31.3h10.1l32-277.5c-1.8,1-4.3,2.2-6.6,1.9
						C1144.5,1002.7,1143.5,995.9,1143.8,991.3L1143.8,991.3z"/>
					<path class="st17" d="M380.6,978.5l88.2-0.1l0-19.7l-88.2,2.6V978.5z M489.3,976.6h93.3l2.5-15.3l-96.5-1.5L489.3,976.6
						L489.3,976.6z"/>
					<path class="st16" d="M638.6,1001.7l21,301.3c0,0,66.4,8,67,4.5s-10-313.3-10-313.3l-78.3-17.3L638.6,1001.7z"/>
					<path class="st13" d="M716.6,994.2c0,0,16.5,297.1,10,307.6l350.1,2.2l2-301.9L716.6,994.2z"/>
					<path class="st16" d="M1166.4,1001.7l-17.1,300.1l-75.3,2.2l4.7-301.9l87.7-18.3V1001.7L1166.4,1001.7z"/>
					<path class="st14" d="M629.4,979.4l87.2,14.7l362,7.9l109.2-18.8l-257.1-19L631.7,975L629.4,979.4L629.4,979.4z"/>
					<path class="st13" d="M601.4,855.8c0,0,276-30.1,279.4-28.8s331.3,36.8,331.3,36.8l-21,120.2l-566.5-7.7L601.4,855.8z"/>
					<path class="st18" d="M670.6,983.8c-0.3-4.5-4.3-7.2-10-7.2c-0.6,0-6.1-0.3-6.6-0.2h-15.7l-13.6-0.2c-0.6-0.1-2.7,0.5-3.2,0.5
						c-5.7,0-9.7,5.7-9.4,10.2s4.7,8.8,10.4,8.8c2,0,3.9-0.4,5.7-1.3l1,277.2h-3.2l2,31.3h60.5l-15.7-31.3h-10l-6.5-277.5
						c1.8,1,4.3,2.2,6.6,1.9C669.9,995.2,670.9,988.3,670.6,983.8L670.6,983.8z"/>
					<g>
						<path class="st16" d="M563.2,1107.2l-50,2l-1-79.7l48.9,1.1L563.2,1107.2L563.2,1107.2z"/>
						<path class="st19" d="M566.8,1105.7l-57.4-0.3l-0.5,13.2l58.3,0.6L566.8,1105.7L566.8,1105.7z"/>
						<path class="st13" d="M536.8,1050.5l-14.1,0.3l0.2-13.2l13.1,0.6L536.8,1050.5L536.8,1050.5z M553.5,1083l-14.1,0.3l0.2-13.2
							l13.1,0.6L553.5,1083L553.5,1083z M553.7,1051.4l-13.7-0.6l-0.7-12.9h14.1L553.7,1051.4L553.7,1051.4z M538.3,1099.7
							l-13.7-0.6l-0.7-12.9H538L538.3,1099.7L538.3,1099.7z M537.6,1067.2l-13.7-0.6l-0.7-12.9h14.1L537.6,1067.2L537.6,1067.2z
							 M554.3,1067.2h-13.5l-0.7-13l13.4-0.2L554.3,1067.2z M538,1083.3h-13.5l-0.7-13l13.4-0.2L538,1083.3z M555.1,1099.6
							l-14.4,0.5l0.4-13.7h13.2L555.1,1099.6L555.1,1099.6z"/>
					</g>
					<g>
						<path class="st16" d="M451,1107.2l-50,2l-1-79.7l48.9,1.1L451,1107.2z"/>
						<path class="st19" d="M454.7,1105.7l-57.4-0.3l-0.5,13.2l58.3,0.6L454.7,1105.7z"/>
						<path class="st13" d="M424.6,1050.5l-14.1,0.3l0.2-13.2l13.1,0.6L424.6,1050.5z M441.3,1083l-14.1,0.3l0.2-13.2l13.1,0.6
							L441.3,1083z M441.6,1051.4l-13.7-0.6l-0.7-12.9h14.1L441.6,1051.4L441.6,1051.4z M426.2,1099.7l-13.7-0.6l-0.7-12.9h14.1
							L426.2,1099.7L426.2,1099.7z M425.4,1067.2l-13.7-0.6l-0.7-12.9h14.1L425.4,1067.2L425.4,1067.2z M442.2,1067.2h-13.5l-0.7-13
							l13.4-0.2L442.2,1067.2z M425.9,1083.3h-13.5l-0.7-13l13.4-0.2L425.9,1083.3z M443,1099.6l-14.4,0.5l0.4-13.7h13.2L443,1099.6
							L443,1099.6z"/>
					</g>
					<g>
						<path class="st16" d="M563.2,1237.3l-50,2l-1-79.7l48.9,1.1L563.2,1237.3L563.2,1237.3z"/>
						<path class="st16" d="M566.8,1235.9l-57.4-0.3l-0.5,13.2l58.3,0.6L566.8,1235.9L566.8,1235.9z"/>
						<path class="st13" d="M536.8,1180.7l-14.1,0.3l0.2-13.3l13.1,0.6L536.8,1180.7L536.8,1180.7z M553.5,1213.2l-14.1,0.3
							l0.2-13.2l13.1,0.6L553.5,1213.2L553.5,1213.2z M553.7,1181.6L540,1181l-0.7-12.9h14.1L553.7,1181.6L553.7,1181.6z
							 M538.3,1229.9l-13.7-0.6l-0.7-12.9H538L538.3,1229.9L538.3,1229.9z M537.6,1197.4l-13.7-0.6l-0.7-12.9h14.1L537.6,1197.4
							L537.6,1197.4z M554.3,1197.4h-13.5l-0.7-13l13.4-0.2L554.3,1197.4z M538,1213.5h-13.5l-0.7-13l13.4-0.2L538,1213.5z
							 M555.1,1229.7l-14.4,0.5l0.4-13.7h13.2L555.1,1229.7L555.1,1229.7z"/>
					</g>
					<g>
						<path class="st16" d="M451,1237.3l-50,2l-1-79.7l48.9,1.1L451,1237.3z"/>
						<path class="st16" d="M454.7,1235.9l-57.4-0.3l-0.5,13.2l58.3,0.6L454.7,1235.9L454.7,1235.9z"/>
						<path class="st13" d="M424.6,1180.7l-14.1,0.3l0.2-13.3l13.1,0.6L424.6,1180.7z M441.3,1213.2l-14.1,0.3l0.2-13.2l13.1,0.6
							L441.3,1213.2z M441.6,1181.6l-13.7-0.6l-0.7-12.9h14.1L441.6,1181.6L441.6,1181.6z M426.2,1229.9l-13.7-0.6l-0.7-12.9h14.1
							L426.2,1229.9L426.2,1229.9z M425.4,1197.4l-13.7-0.6l-0.7-12.9h14.1L425.4,1197.4L425.4,1197.4z M442.2,1197.4h-13.5l-0.7-13
							l13.4-0.2L442.2,1197.4z M425.9,1213.5h-13.5l-0.7-13l13.4-0.2L425.9,1213.5z M443,1229.7l-14.4,0.5l0.4-13.7h13.2L443,1229.7
							L443,1229.7z"/>
					</g>
					<g>
						<path class="st16" d="M1237.1,1110.6l50,1.9l0.7-78.8l-48.9,1.1L1237.1,1110.6z"/>
						<path class="st19" d="M1233.4,1109.1l57.4-0.3l0.6,13l-58.3,0.6L1233.4,1109.1z"/>
						<path class="st13" d="M1263.4,1054.5l14.1,0.3l-0.3-13.1l-13.1,0.6L1263.4,1054.5z M1246.7,1086.7l14.1,0.3l-0.3-13.1
							l-13.2,0.6L1246.7,1086.7z M1246.4,1055.4l13.7-0.6l0.6-12.8h-14.1L1246.4,1055.4L1246.4,1055.4z M1261.9,1103.2l13.7-0.6
							l0.6-12.8h-14.1L1261.9,1103.2L1261.9,1103.2z M1262.6,1071.1l13.7-0.6l0.6-12.8h-14.1L1262.6,1071.1L1262.6,1071.1z
							 M1245.9,1071.1h13.5l0.6-12.8l-13.4-0.2L1245.9,1071.1L1245.9,1071.1z M1262.2,1087h13.5l0.6-12.8l-13.4-0.2L1262.2,1087z
							 M1245.1,1103.1l14.4,0.5l-0.4-13.5h-13.2L1245.1,1103.1z"/>
					</g>
					<g>
						<path class="st16" d="M1345.5,1110.6l50,1.9l0.7-78.8l-48.9,1.1L1345.5,1110.6z"/>
						<path class="st19" d="M1341.9,1109.1l57.4-0.3l0.6,13l-58.3,0.6L1341.9,1109.1z"/>
						<path class="st13" d="M1371.8,1054.5l14.1,0.3l-0.3-13.1l-13.1,0.6L1371.8,1054.5z M1355.2,1086.7l14.1,0.3l-0.3-13.1
							l-13.1,0.6L1355.2,1086.7z M1354.8,1055.4l13.7-0.6l0.6-12.8h-14.1L1354.8,1055.4L1354.8,1055.4z M1370.4,1103.2l13.7-0.6
							l0.6-12.8h-14.1L1370.4,1103.2L1370.4,1103.2z M1371,1071.1l13.7-0.6l0.6-12.8h-14.1L1371,1071.1L1371,1071.1z M1354.3,1071.1
							h13.5l0.6-12.8l-13.4-0.2L1354.3,1071.1L1354.3,1071.1z M1370.6,1087h13.5l0.7-12.8l-13.4-0.2L1370.6,1087z M1353.6,1103.1
							l14.4,0.5l-0.4-13.5h-13.2L1353.6,1103.1L1353.6,1103.1z"/>
					</g>
					<g>
						<path class="st16" d="M1237.1,1227.6l50,1.9l0.7-78.8l-48.9,1.1L1237.1,1227.6z"/>
						<path class="st16" d="M1233.4,1226.2l57.4-0.3l0.6,13l-58.3,0.6L1233.4,1226.2z"/>
						<path class="st13" d="M1263.4,1171.6l14.1,0.3l-0.3-13.1l-13.1,0.6L1263.4,1171.6z M1246.7,1203.7l14.1,0.3l-0.3-13.1
							l-13.2,0.6L1246.7,1203.7z M1246.4,1172.5l13.7-0.6l0.6-12.8h-14.1L1246.4,1172.5L1246.4,1172.5z M1261.9,1220.2l13.7-0.6
							l0.6-12.8h-14.1L1261.9,1220.2L1261.9,1220.2z M1262.6,1188.1l13.7-0.6l0.6-12.8h-14.1L1262.6,1188.1L1262.6,1188.1z
							 M1245.9,1188.1h13.5l0.6-12.8l-13.4-0.2L1245.9,1188.1L1245.9,1188.1z M1262.2,1204h13.5l0.6-12.8l-13.4-0.2L1262.2,1204
							L1262.2,1204z M1245.1,1220.1l14.4,0.5l-0.4-13.5h-13.2L1245.1,1220.1L1245.1,1220.1z"/>
					</g>
					<g>
						<path class="st16" d="M1345.5,1227.6l50,1.9l0.7-78.8l-48.9,1.1L1345.5,1227.6z"/>
						<path class="st16" d="M1341.9,1226.2l57.4-0.3l0.6,13l-58.3,0.6L1341.9,1226.2z"/>
						<path class="st13" d="M1371.8,1171.6l14.1,0.3l-0.3-13.1l-13.1,0.6L1371.8,1171.6z M1355.2,1203.7l14.1,0.3l-0.3-13.1
							l-13.1,0.6L1355.2,1203.7z M1354.8,1172.5l13.7-0.6l0.6-12.8h-14.1L1354.8,1172.5L1354.8,1172.5z M1370.4,1220.2l13.7-0.6
							l0.6-12.8h-14.1L1370.4,1220.2L1370.4,1220.2z M1371,1188.1l13.7-0.6l0.6-12.8h-14.1L1371,1188.1L1371,1188.1z M1354.3,1188.1
							h13.5l0.6-12.8l-13.4-0.2L1354.3,1188.1L1354.3,1188.1z M1370.6,1204h13.5l0.7-12.8l-13.4-0.2L1370.6,1204L1370.6,1204z
							 M1353.6,1220.1l14.4,0.5l-0.4-13.5h-13.2L1353.6,1220.1L1353.6,1220.1z"/>
					</g>
					<path class="st14" d="M616.7,936.5l2.3,9.8l286.9-6.4l290,16.8l1.4-7.6L907,927.7L616.7,936.5z"/>
					<path class="st16" d="M603.9,868.8l2.7,13l299.3-25.4l301.7,33.4l1.5-8.7l-325.1-68.7L603.9,868.8L603.9,868.8z"/>
					<path class="st17" d="M563.4,887l319-89.4l356.1,101l-42.9,55l-297.4-16.6l-279.8,4.4L563.4,887z"/>
					<path class="st13" d="M617.9,901.3l262.7-74.8l304.6,88.6L847,898.9L617.9,901.3L617.9,901.3z"/>
					<path class="st16" d="M880.6,834.2l273.2,79.5l31.4,1.5l-304.6-88.6l-262.7,74.8l27.8-0.3L880.6,834.2L880.6,834.2z"/>
					<path class="st15" d="M623.2,991.8c-1.4,0-2.7-0.4-3.9-1.2c-1.1-0.7-1.9-1.9-2.1-3.3c-0.2-1.5,0.3-3,1.2-4.1
						c0.8-1,1.9-1.7,3.2-1.8c1.3-0.1,2.6,0.4,3.6,1.3c0.7,0.6,1.2,1.5,1.2,2.5c0.1,1.8-1.2,3.4-3,3.7c-1.7,0.1-3.3-1-3.7-2.7
						c-0.1-0.3,0.1-0.7,0.4-0.7c0.3-0.1,0.6,0.1,0.7,0.4c0,0,0,0,0,0c0.3,1.1,1.3,1.9,2.4,1.8c1.1-0.2,1.9-1.3,1.9-2.4
						c0-0.6-0.3-1.2-0.8-1.6c-0.7-0.7-1.7-1-2.7-1c-0.9,0.1-1.8,0.6-2.3,1.3c-0.7,0.9-1.1,2-1,3.2c0.2,1,0.7,1.9,1.6,2.4
						c2.3,1.7,5.5,1.2,7.2-1.1c0.8-1.1,1.2-2.5,1-3.9c0-0.3,0.2-0.6,0.6-0.7c0.3,0,0.6,0.2,0.7,0.6c0.3,3.3-1.8,6.3-5.1,7.1
						C623.9,991.7,623.6,991.8,623.2,991.8L623.2,991.8z M660.6,980.6c1.4,0,2.8,0.3,3.9,1.1c1.1,0.7,1.9,1.9,2.2,3.2
						c0.2,1.5-0.2,3-1.1,4.1c-0.7,1-1.9,1.7-3.1,1.9c-1.3,0.1-2.6-0.3-3.6-1.2c-0.7-0.6-1.2-1.5-1.3-2.4c-0.1-1.8,1.1-3.4,2.9-3.8
						c1.7-0.2,3.3,0.9,3.8,2.6c0.1,0.3-0.1,0.7-0.4,0.8c0,0,0,0,0,0c-0.3,0.1-0.7-0.1-0.8-0.4c0,0,0,0,0,0c-0.3-1.1-1.3-1.8-2.5-1.7
						c-1.1,0.3-1.9,1.3-1.8,2.5c0.1,0.6,0.4,1.2,0.9,1.6c0.8,0.6,1.7,1,2.7,0.9c0.9-0.1,1.8-0.6,2.3-1.4c0.7-0.9,1-2.1,0.9-3.2
						c-0.2-1-0.8-1.9-1.7-2.4c-2.3-1.6-5.6-1-7.2,1.3c-0.8,1.1-1.1,2.5-0.8,3.9c0.1,0.3-0.2,0.6-0.5,0.7c-0.3,0.1-0.6-0.2-0.7-0.5
						c0,0,0-0.1,0-0.1c-0.4-3.3,1.6-6.4,4.8-7.3C659.8,980.7,660.2,980.6,660.6,980.6L660.6,980.6z"/>
					<path class="st17" d="M1427.9,991.8l-94-0.8l1.4-17l91.5,1.2L1427.9,991.8z M1311.1,988.6H1222l0.9-16.8l88.2,2.2V988.6z"/>
					<g>
						<path class="st16" d="M872.1,1106.3l40.9,1.9l-0.7-77.4l-40,1.1L872.1,1106.3L872.1,1106.3z"/>
						<path class="st16" d="M860.1,1021.4v103.2H921l0.9-104.9L860.1,1021.4z M863.5,1120.7l1.2-95.5l53.9-1.8l-0.3,97.2
							L863.5,1120.7z"/>
						<path class="st13" d="M894.1,1048.6l15.4,0.4l-0.5-14.7l-14.3,0.7L894.1,1048.6L894.1,1048.6z M875.3,1084.7l15.4,0.4
							l-0.5-14.7l-14.3,0.7L875.3,1084.7L875.3,1084.7z M875.6,1049.6l14.9-0.6l0.4-14.4h-15.4V1049.6z M893.6,1103.3l14.9-0.6
							l0.4-14.4h-15.4V1103.3z M893.6,1067.2l14.9-0.6l0.4-14.3h-15.4V1067.2z M875.4,1067.2h14.8l0.4-14.4l-14.6-0.3L875.4,1067.2z
							 M893.5,1085.1h14.7l0.4-14.4l-14.6-0.3L893.5,1085.1z M875.3,1103.1l15.7,0.5l-0.8-15.2h-14.4L875.3,1103.1L875.3,1103.1z"/>
					</g>
					<g>
						<path class="st16" d="M872.1,1286.7l40.9,1.9l-0.7-77.4l-40,1.1L872.1,1286.7L872.1,1286.7z"/>
						<path class="st16" d="M852.9,1201.8v103.2h75l1.1-104.9L852.9,1201.8z M857.2,1301.2l1.5-95.5l66.4-1.8l-0.4,97.2
							L857.2,1301.2z"/>
						<path class="st13" d="M894.1,1229l15.4,0.4l-0.5-14.7l-14.3,0.7L894.1,1229L894.1,1229z M875.3,1265.2l15.4,0.4l-0.5-14.7
							l-14.3,0.7L875.3,1265.2L875.3,1265.2z M875.6,1230.1l14.9-0.6l0.4-14.4h-15.4V1230.1z M893.6,1283.7l14.9-0.6l0.4-14.4h-15.4
							V1283.7z M893.6,1247.6l14.9-0.6l0.4-14.4h-15.4V1247.6z M875.4,1247.6h14.8l0.4-14.4l-14.6-0.3L875.4,1247.6z M893.5,1265.5
							h14.7l0.4-14.4l-14.6-0.3L893.5,1265.5z M875.3,1283.6l15.7,0.5l-0.8-15.2h-14.4L875.3,1283.6L875.3,1283.6z"/>
						<path class="st20" d="M856.8,1195.9c0.3-18.9,15.9-33.9,34.8-33.6c18.4,0.3,33.3,15.2,33.6,33.6 M862.1,1195.9
							c0-16,12.9-28.9,28.9-28.9s28.9,12.9,28.9,28.9"/>
						<path class="st20" d="M929,1202.3l-77.3,1.5v-9.1H929V1202.3z"/>
					</g>
					<g>
						<path class="st16" d="M1022.9,1109.2l-40.8,1.9l0.7-77.4l40,1.1L1022.9,1109.2z"/>
						<path class="st16" d="M973.2,1022.6l0.9,104.9h60.9v-103.2L973.2,1022.6z M976.7,1123.4l-0.3-97.2l53.9,1.8l1.2,95.5
							L976.7,1123.4z"/>
						<path class="st13" d="M1000.9,1051.5l-15.4,0.4l0.5-14.7l14.3,0.7L1000.9,1051.5L1000.9,1051.5z M1019.8,1087.6l-15.4,0.4
							l0.6-14.7l14.3,0.7L1019.8,1087.6L1019.8,1087.6z M1019.4,1052.5l-14.9-0.6l-0.4-14.4h15.3V1052.5z M1001.4,1106.2l-14.9-0.6
							l-0.4-14.3h15.4V1106.2z M1001.4,1070.1l-14.9-0.6l-0.4-14.4h15.4V1070.1z M1019.7,1070.1h-14.8l-0.4-14.4l14.6-0.3
							L1019.7,1070.1L1019.7,1070.1z M1001.5,1088h-14.8l-0.4-14.4l14.6-0.3L1001.5,1088z M1019.8,1106l-15.7,0.5l0.8-15.2h14.4
							L1019.8,1106L1019.8,1106z"/>
					</g>
					<g>
						<path class="st16" d="M813.2,1040.9l-40.8-1.9l0.7,77.4l40-1.1L813.2,1040.9L813.2,1040.9z"/>
						<path class="st16" d="M825.2,1125.8v-103.2h-60.9l-0.9,104.9L825.2,1125.8z M821.7,1026.5l-1.1,95.6l-53.9,1.8l0.3-97.2
							L821.7,1026.5z"/>
						<path class="st13" d="M791.2,1098.6l-15.4-0.4l0.5,14.7l14.3-0.7L791.2,1098.6L791.2,1098.6z M810,1062.5l-15.3-0.4l0.5,14.7
							l14.3-0.7L810,1062.5L810,1062.5z M809.7,1097.6l-14.9,0.6l-0.4,14.4h15.4V1097.6z M791.7,1043.9l-14.9,0.6l-0.4,14.4h15.4
							V1043.9z M791.7,1080l-14.9,0.6l-0.4,14.4h15.4V1080z M810,1080h-14.8l-0.4,14.4l14.6,0.3L810,1080z M791.8,1062.1H777
							l-0.4,14.4l14.6,0.3L791.8,1062.1z M810,1044.1l-15.7-0.5l0.8,15.2h14.4L810,1044.1L810,1044.1z"/>
					</g>
					<g>
						<path class="st16" d="M1022.9,1238.2l-40.8,1.9l0.7-77.4l40,1.1L1022.9,1238.2z"/>
						<path class="st16" d="M973.2,1151.6l0.9,104.9h60.9v-103.2L973.2,1151.6z M976.7,1252.4l-0.3-97.2l53.9,1.8l1.2,95.5
							L976.7,1252.4z"/>
						<path class="st13" d="M1000.9,1180.5l-15.4,0.4l0.5-14.7l14.3,0.7L1000.9,1180.5L1000.9,1180.5z M1019.8,1216.6l-15.4,0.4
							l0.6-14.7l14.3,0.7L1019.8,1216.6L1019.8,1216.6z M1019.4,1181.5l-14.9-0.6l-0.4-14.4h15.3V1181.5z M1001.4,1235.2l-14.9-0.6
							l-0.4-14.4h15.4V1235.2z M1001.4,1199.1l-14.9-0.6l-0.4-14.4h15.4V1199.1z M1019.7,1199.1h-14.8l-0.4-14.4l14.6-0.3
							L1019.7,1199.1L1019.7,1199.1z M1001.5,1217h-14.8l-0.4-14.4l14.6-0.3L1001.5,1217z M1019.8,1235l-15.7,0.5l0.8-15.2h14.4
							L1019.8,1235L1019.8,1235z"/>
					</g>
					<g>
						<path class="st16" d="M813.2,1169.9l-40.8-1.9l0.7,77.4l40-1.1L813.2,1169.9L813.2,1169.9z"/>
						<path class="st16" d="M825.2,1254.8v-103.2h-60.9l-0.9,104.9L825.2,1254.8z M821.7,1155.5l-1.1,95.6l-53.9,1.8l0.3-97.2
							L821.7,1155.5z"/>
						<path class="st13" d="M791.2,1227.6l-15.4-0.4l0.5,14.7l14.3-0.7L791.2,1227.6L791.2,1227.6z M810,1191.5l-15.3-0.4l0.5,14.7
							l14.3-0.7L810,1191.5L810,1191.5z M809.7,1226.6l-14.9,0.6l-0.4,14.4h15.4V1226.6z M791.7,1173l-14.9,0.6l-0.4,14.4h15.4V1173
							z M791.7,1209.1l-14.9,0.6l-0.4,14.3h15.4V1209.1z M810,1209.1h-14.8l-0.4,14.4l14.6,0.3L810,1209.1z M791.8,1191.2H777
							l-0.4,14.4l14.6,0.3L791.8,1191.2z M810,1173.1l-15.7-0.5l0.8,15.2h14.4L810,1173.1L810,1173.1z"/>
					</g>
					<path class="st18" d="M827.7,986.1c-0.3-4.5-4.5-7.6-10.3-7.6h-35.6c-10.2-0.5-12.9,6.2-12.6,10.8s4.7,8.8,10.4,8.8
						c2,0,3.9-0.4,5.7-1.3l4.3,273.7h-3.2l2,31.3h44.1l-3.8-31.3h-10l-5.4-274c1.8,1,4.3,2.2,6.6,1.9
						C827.1,997.5,828.1,990.7,827.7,986.1z"/>
					<path class="st15" d="M780.2,994.1c-1.4,0-2.7-0.4-3.9-1.2c-1.1-0.7-1.9-1.9-2.1-3.3c-0.2-1.5,0.3-3,1.2-4.1
						c0.8-1,1.9-1.7,3.2-1.8c1.3-0.1,2.6,0.4,3.6,1.3c0.7,0.6,1.2,1.5,1.2,2.5c0.1,1.8-1.2,3.4-3,3.7c-1.7,0.1-3.3-1-3.7-2.7
						c-0.1-0.3,0.1-0.7,0.4-0.7c0.3-0.1,0.6,0.1,0.7,0.4c0,0,0,0,0,0c0.3,1.1,1.3,1.9,2.4,1.8c1.1-0.2,1.9-1.3,1.9-2.4
						c0-0.6-0.3-1.2-0.8-1.6c-0.7-0.7-1.7-1-2.7-1c-0.9,0.1-1.8,0.6-2.3,1.3c-0.7,0.9-1.1,2-1,3.2c0.2,1,0.7,1.9,1.6,2.4
						c2.3,1.7,5.5,1.2,7.2-1.1c0.8-1.1,1.2-2.5,1-3.9c0-0.3,0.2-0.6,0.6-0.7c0.3,0,0.6,0.2,0.7,0.6c0.3,3.3-1.8,6.3-5.1,7.1
						C781,994,780.6,994.1,780.2,994.1L780.2,994.1z M817.6,982.9c1.4,0,2.8,0.3,3.9,1.1c1.1,0.7,1.9,1.9,2.2,3.2
						c0.2,1.5-0.2,3-1.1,4.1c-0.7,1-1.9,1.7-3.1,1.9c-1.3,0.1-2.6-0.3-3.6-1.2c-0.7-0.6-1.2-1.5-1.3-2.4c-0.1-1.8,1.1-3.4,2.9-3.8
						c1.7-0.2,3.3,0.9,3.8,2.6c0.1,0.3-0.1,0.7-0.4,0.8c0,0,0,0,0,0c-0.3,0.1-0.7-0.1-0.8-0.4c0,0,0,0,0,0c-0.3-1.1-1.3-1.8-2.5-1.7
						c-1.1,0.3-1.9,1.3-1.8,2.5c0.1,0.6,0.4,1.2,0.9,1.6c0.8,0.6,1.7,1,2.7,0.9c0.9-0.1,1.8-0.6,2.3-1.4c0.7-0.9,1-2.1,0.9-3.2
						c-0.2-1-0.8-1.9-1.7-2.4c-2.3-1.6-5.6-1-7.2,1.3c-0.8,1.1-1.1,2.5-0.8,3.9c0.1,0.3-0.2,0.6-0.5,0.7c-0.3,0.1-0.6-0.2-0.7-0.5
						c0,0,0-0.1,0-0.1c-0.4-3.3,1.6-6.4,4.8-7.3C816.9,982.9,817.2,982.9,817.6,982.9L817.6,982.9z"/>
					<path class="st18" d="M968.6,987.9c0.5-4.5,5-7.4,10.7-7.1c0.6,0,39.3,0.7,39.9,0.7c5.7,0.3,9.4,6.2,8.9,10.7
						s-5.1,8.6-10.8,8.3c-2-0.1-3.9-0.6-5.6-1.6l-8.7,273.8l3.2,0.2l-3.7,31.1l-19.8-1l-24.3-1.3l5.4-31l10,0.5l9.8-274
						c-1.8,0.9-3.9,2-6.2,1.5C970.3,997.4,968.1,992.4,968.6,987.9L968.6,987.9z"/>
					<path class="st15" d="M1018.2,997c1.4,0.1,2.8-0.3,3.9-1c1.2-0.7,2-1.8,2.3-3.1c0.2-1.5-0.1-3-1-4.2c-0.7-1.1-1.8-1.8-3.1-1.9
						c-1.3-0.1-2.6,0.3-3.7,1.1c-0.8,0.6-1.2,1.4-1.3,2.4c-0.2,1.8,1,3.4,2.8,3.8c1.7,0.2,3.3-0.8,3.8-2.5c0.1-0.3-0.1-0.7-0.4-0.8
						c0,0,0,0,0,0c-0.3-0.1-0.7,0.1-0.8,0.4c0,0,0,0,0,0c-0.3,1.1-1.4,1.8-2.5,1.7c-1.1-0.3-1.9-1.4-1.8-2.5
						c0.1-0.6,0.4-1.2,0.9-1.5c0.8-0.6,1.8-0.9,2.8-0.8c0.9,0.1,1.7,0.6,2.2,1.4c0.7,0.9,1,2.1,0.8,3.2c-0.2,1-0.8,1.8-1.7,2.3
						c-2.4,1.6-5.6,0.9-7.2-1.4c-0.8-1.2-1-2.6-0.7-3.9c0.1-0.3-0.2-0.6-0.5-0.7c-0.3-0.1-0.6,0.2-0.7,0.5c0,0,0,0,0,0
						c-0.5,3.3,1.5,6.4,4.7,7.4C1017.4,996.9,1017.8,997,1018.2,997L1018.2,997z M981.4,983.9c-1.4-0.1-2.8,0.2-4,0.9
						c-1.2,0.6-2,1.8-2.4,3.1c-0.3,1.5,0,3,0.9,4.2c0.7,1.1,1.8,1.8,3,2c1.3,0.2,2.6-0.2,3.7-1c0.8-0.6,1.3-1.4,1.4-2.3
						c0.2-1.8-0.9-3.4-2.7-3.9c-1.7-0.3-3.4,0.7-3.9,2.4c-0.1,0.3,0.1,0.7,0.4,0.8c0,0,0,0,0,0c0.3,0.1,0.7,0,0.8-0.4c0,0,0,0,0,0
						c0.3-1.1,1.4-1.7,2.5-1.6c1.1,0.3,1.8,1.4,1.7,2.6c-0.1,0.6-0.5,1.2-1,1.5c-0.8,0.6-1.8,0.9-2.8,0.7c-0.9-0.2-1.7-0.7-2.2-1.5
						c-0.7-0.9-0.9-2.1-0.7-3.2c0.3-1,0.9-1.8,1.8-2.3c2.4-1.5,5.6-0.7,7.1,1.7c0.7,1.2,0.9,2.6,0.6,3.9c-0.1,0.3,0.1,0.7,0.4,0.7
						c0.3,0.1,0.7-0.1,0.7-0.4c0,0,0-0.1,0-0.1c0.6-3.3-1.3-6.5-4.4-7.5C982.1,983.9,981.8,983.9,981.4,983.9L981.4,983.9z"/>
					<path class="st18" d="M1139.2,990.5c0.4-4.5,4.8-7.5,10.5-7.3l39.6,0.8c5.7,0.2,9.5,6,9.1,10.5s-4.9,8.7-10.6,8.5
						c-2,0-3.9-0.6-5.7-1.5l4.8,276.8l3.2,0.1l3.3,31.2l-26-0.6l-33-1.2l2.9-31.2l10.1,0.3l6.7-276.5c-1.8,1-4.4,2.1-6.7,1.7
						C1140.3,1001,1138.8,995,1139.2,990.5L1139.2,990.5z"/>
					<path class="st15" d="M1187.6,998.9c1.4,0,2.8-0.4,3.9-1.1c1.1-0.7,1.9-1.9,2.2-3.2c0.2-1.5-0.2-3-1.1-4.1
						c-0.7-1-1.9-1.7-3.1-1.9c-1.3-0.1-2.6,0.3-3.6,1.2c-0.7,0.6-1.2,1.5-1.3,2.4c-0.1,1.8,1.1,3.4,2.9,3.8c1.7,0.2,3.3-0.9,3.8-2.6
						c0.1-0.3-0.1-0.7-0.4-0.8c0,0,0,0,0,0c-0.3-0.1-0.7,0.1-0.8,0.4c0,0,0,0,0,0c-0.3,1.1-1.3,1.8-2.4,1.7
						c-1.1-0.3-1.9-1.3-1.8-2.5c0.1-0.6,0.4-1.2,0.9-1.6c0.8-0.6,1.7-1,2.7-0.9c0.9,0.1,1.8,0.6,2.3,1.4c0.7,0.9,1,2.1,0.9,3.2
						c-0.2,1-0.8,1.8-1.7,2.3c-2.3,1.6-5.6,1-7.2-1.3c-0.8-1.1-1.1-2.5-0.8-3.8c0.1-0.3-0.2-0.6-0.5-0.7c-0.3-0.1-0.6,0.2-0.7,0.5
						c0,0,0,0.1,0,0.1c-0.4,3.3,1.7,6.4,4.9,7.3C1186.9,998.9,1187.3,998.9,1187.6,998.9L1187.6,998.9z M1149.4,987
						c-1.4-0.1-2.8,0.3-4,1c-1.2,0.7-2,1.8-2.3,3.1c-0.2,1.5,0.1,3,1,4.2c0.7,1.1,1.8,1.8,3.1,2c1.3,0.1,2.6-0.2,3.7-1.1
						c0.8-0.6,1.3-1.4,1.4-2.4c0.2-1.8-1-3.4-2.8-3.8c-1.7-0.2-3.4,0.8-3.9,2.5c-0.1,0.3,0.1,0.7,0.4,0.8c0,0,0,0,0,0
						c0.3,0.1,0.7-0.1,0.8-0.4c0,0,0,0,0,0c0.3-1.1,1.4-1.8,2.5-1.6c1.1,0.3,1.9,1.4,1.7,2.5c-0.1,0.6-0.4,1.2-0.9,1.5
						c-0.8,0.6-1.8,0.9-2.7,0.8c-0.9-0.2-1.7-0.7-2.3-1.5c-0.7-0.9-1-2.1-0.8-3.2c0.2-1,0.9-1.8,1.7-2.3c1.2-0.8,2.7-1,4.1-0.7
						c2.6,0.8,4.2,3.4,3.8,6.1c-0.1,0.3,0.1,0.6,0.4,0.6c0,0,0,0,0.1,0c0.3,0,0.6-0.2,0.7-0.5c0.5-3.3-1.5-6.4-4.6-7.4
						C1150.1,987.1,1149.8,987,1149.4,987L1149.4,987z"/>
					<ellipse class="st21" cx="892.6" cy="987.7" rx="9.2" ry="2.9"/>
					<path class="st21" d="M891,988.3l-2.2,199.6h2.3l3-199.8c-0.4-0.4-1-0.7-1.5-0.7C891.9,987.4,891.3,987.8,891,988.3L891,988.3z
						"/>
				</g>
				<path class="st18" d="M878.9,1160.1h22.6v30.3h-22.6V1160.1z"/>
				<path class="st22" d="M719.4,994.7c0,0,77.6,165.3,172.5,165.3s183.7-165.3,183.7-165.3"/>
				<path class="st22" d="M719.4,988.1c0,0,77.6,153,172.5,153s183.7-153,183.7-153"/>
				<path class="st23" d="M877,1189.1h25.7v2.7H877V1189.1z M877,1185.3h25.7v0.9H877V1185.3z M877,1158.2h25.7v2H877V1158.2z"/>
				<path class="st23" d="M896.1,1159.2h1.3v31.3h-1.3V1159.2z M883.3,1159.2h1.3v31.3h-1.3V1159.2z"/>
				<path class="st24" d="M902.3,1160.1c0,5-5.5,4-5.5,4c-5.4,0-6.9-4-6.9-4c0,4.2-5.2,4-5.2,4c-1.9,0-5.8-0.9-5.8-4"/>
				<path class="st23" d="M896.5,1158.5l-1.7-2.7l2.4-4.3l1.6,4.2l-1.3,2.9 M883.8,1158.5l-1.7-2.7l2.4-4.3l1.6,4.2l-1.2,2.9
					 M887.4,1137.9h6.1v6.1h-6.1V1137.9z"/>
				<path class="st25" d="M891.8,1143.3c0,0,1.6,0,1.6,2.3v8.9c0,0-0.6,4.5,2.7,4.5 M889,1143.3c0,0-1.6,0-1.6,2.3v8.9
					c0,0,0.6,4.5-2.7,4.5 M890.5,1143.3v15.8"/>
			</g>
			<g id="hp-flag-pole">
				<path class="st13" d="M884.5,531.6l0.5-0.4"/>
				<path class="st26" d="M843.4,517.4c0.3-0.3,7.4-1.9,6.2,3.4c-1.2,5.1-6.9,3.7-8.1,3.8S843.4,517.4,843.4,517.4z"/>
				<path class="st27" d="M886,685.4l-1.1,0.5c0,0-11.1-24.7-16.7-36.4s-0.8-17.4,0.5-18.3c7.5-1.1,19.8,18,19.8,18L886,685.4z"/>
				<path class="st28" d="M857.7,524.2c-1.2-0.6-6.8-2.8-6.8-2.8l-4.4,24.3l3.5,2.3L857.7,524.2z"/>
				<path class="st29" d="M842.7,566l42.8,7.9l62,4.3l-9.1-32.6l-29.8-4.9l-51.3-20.8L842.7,566L842.7,566z"/>
				<path class="st30" d="M884.5,777.8h-4.1c7.3-118.5-20.3-201.2-38.7-257.6c-19.8-61-55.8-92.2-56-92.5l23.3-6
					c0.9,1.4,28.2,33.7,48.4,95.6C875.9,574.2,891.9,658.2,884.5,777.8L884.5,777.8z"/>
				<path class="st31" d="M888.5,649.2l49.8-9.8l42,8.2c0,0-18.5,54-22.1,52.6s-74.5-11.2-74.5-11.2L888.5,649.2z"/>
				<path class="st32" d="M1058,660.8L928.5,761l-22.7-38.7l55.1-74.7l1.8-4.8l78.4-13.4L1058,660.8z"/>
				<path class="st33" d="M1010.7,645.9L911.4,729l-5.5-6.7l55.1-74.7l1.8-4.8l78.4-13.4L1010.7,645.9z"/>
				<g>
					<path class="st34" d="M957.5,479.4c0,0,30.7-10.2,33.1,2.5c0,0,9.7,51.7,10.7,56.4c0.6,3-13.7,14.7-13.7,14.7
						s-40.7-8.4-41.3-11.5c-0.6-3.2-10.3-50.8-10.3-50.8C935,486.2,957.5,479.4,957.5,479.4L957.5,479.4z"/>
					<path class="st13" d="M988.5,497.3c0.4,2.2-1,4.3-3.2,4.8c-2.2,0.4-4.3-1-4.8-3.2c-0.4-2.2,1-4.3,3.2-4.8
						c2.1-0.5,4.2,0.8,4.7,2.9C988.4,497.1,988.4,497.2,988.5,497.3z"/>
					<path class="st35" d="M985.3,502.1c1.8-0.3,3.2-1.8,3.3-3.6l-7.9,0.9C981.2,501.4,983.2,502.6,985.3,502.1z"/>
					<circle class="st36" cx="986.7" cy="498.3" r="0.7"/>
					<path class="st13" d="M969,500.2c1,2,0.1,4.4-1.9,5.4s-4.4,0.1-5.4-1.9c-1-2-0.1-4.4,1.9-5.4c1.9-1,4.3-0.3,5.3,1.6
						C968.9,500,969,500.1,969,500.2z"/>
					<path class="st35" d="M967.1,505.6c1.7-0.7,2.6-2.5,2.3-4.3l-7.5,2.8C963,505.9,965.3,506.6,967.1,505.6z"/>
					<circle class="st36" cx="967.4" cy="501.4" r="0.7"/>
					<path class="st37" d="M969.4,496l1.6,3.2l-8.4,0.7l-4.6,2.1l-1.1-0.9l4.3-5L969.4,496L969.4,496z"/>
					<path class="st35" d="M977.4,496c0,0,5.3,17.4,5.2,19c-0.2,2.6-2.6,2.7-3.8,2.5c-2.1-0.5-2.6-4.6-0.6-4.7
						c-0.7-5.5-3-16.5-3-16.5L977.4,496z"/>
					<path class="st38" d="M941.4,510.8c0,0-4.1,0.6-3.7,3s4.6,10.9,4.4,12.2c-0.4,2.6,0.9,3.5,2.5,2.9
						C944,525.2,941.4,510.8,941.4,510.8L941.4,510.8z"/>
					<path class="st38" d="M957,523.4c0,0.6-0.5,1-1.1,0.9c-0.3,0-0.7-0.2-0.8-0.5c-0.1-0.5,0.2-1,0.6-1.1c0,0,0.1,0,0.1,0
						C956.4,522.6,956.8,522.9,957,523.4z M957.6,526.5c0,0.4-0.3,0.8-0.7,0.8c-0.3,0.1-0.7,0-0.9-0.4c-0.1-0.3,0-0.7,0.4-0.9
						c0.1,0,0.2,0,0.3,0C957,525.9,957.4,526.1,957.6,526.5z M953.7,525.2c0.3-0.2,0.8-0.1,1,0.3c0.3,0.2,0.3,0.7,0.1,1
						c-0.2,0.3-0.7,0.3-1,0.1c-0.1-0.1-0.1-0.1-0.2-0.2C953.4,526,953.5,525.5,953.7,525.2z M958.7,525.1c0.1,0.2,0,0.4-0.3,0.5
						c-0.2,0.1-0.4,0-0.5-0.3c0,0,0-0.1,0-0.1c-0.1-0.2,0-0.4,0.2-0.4c0,0,0.1,0,0.1,0C958.5,524.7,958.7,524.9,958.7,525.1
						C958.7,525.1,958.7,525.1,958.7,525.1z M992.8,512.1c0,0.6-0.5,1-1.1,0.9c-0.3,0-0.7-0.2-0.8-0.5c-0.1-0.5,0.2-1,0.6-1.1
						c0,0,0.1,0,0.1,0C992.2,511.3,992.7,511.6,992.8,512.1z M993.4,515.3c0,0.4-0.3,0.8-0.7,0.8c-0.3,0.1-0.7,0-0.9-0.4
						c-0.1-0.3,0-0.7,0.4-0.9c0.1,0,0.2,0,0.3,0C992.9,514.7,993.3,514.9,993.4,515.3z M989.6,514c0.3-0.2,0.8-0.1,1,0.3
						c0.3,0.2,0.3,0.7,0.1,1c-0.2,0.3-0.7,0.3-1,0.1c-0.1-0.1-0.1-0.1-0.2-0.2C989.2,514.7,989.3,514.2,989.6,514z M994.5,513.8
						c0,0.2-0.1,0.4-0.4,0.4c-0.2,0-0.3-0.1-0.4-0.3c-0.1-0.2,0-0.4,0.2-0.4c0,0,0.1,0,0.1,0C994.2,513.5,994.5,513.6,994.5,513.8
						C994.5,513.8,994.5,513.8,994.5,513.8z"/>
					<path class="st37" d="M938.6,484.1c-11.6,5.2-1.3,28.6,2.8,27C940.1,505.8,949.1,483.9,938.6,484.1z M962.1,497.2l7.6-0.4
						l-0.7-1.3l-8.2,0l-4.3,5l0.6,0.5L962.1,497.2z"/>
					<path class="st37" d="M979.1,494.1l-0.3,3.5l8-2.5l5.1,0.1l0.7-1.2l-5.9-3L979.1,494.1L979.1,494.1z"/>
					<path class="st37" d="M986.2,493l-7.2,2.6l0.1-1.5l7.6-3.1l5.9,3l-0.4,0.7L986.2,493z"/>
					<path class="st39" d="M973.7,525.5c0,0,9-3.2,12-2.7c1.9,4.7,3.3,10.7-3.7,10.8C974.7,533.7,973.7,525.5,973.7,525.5z"/>
					<path class="st13" d="M988.7,524.7c-0.2-1-0.5-2-0.9-2.9c-3-0.5-14.1,3.7-14.1,3.7c0.1,0.8,0.3,1.6,0.5,2.4
						C975.7,527.3,984.7,524.9,988.7,524.7z"/>
				</g>
				<path class="st28" d="M947.8,643.5l89.7,9.9l-30.1-110l-5.6,0.1l-28,6.8l-28.3-8.6L947.8,643.5z"/>
				<path class="st40" d="M945.1,543.3l0.7-1.2c0,0,14,11.9,35.7,7.5c18.5-3.8,18.2-10.4,18.2-10.4l0.8,1.7c0,0-1.8,27-18.1,10.5
					C974.3,575.8,945.1,543.3,945.1,543.3L945.1,543.3z"/>
				<path class="st13" d="M945.4,541.6l0.7-1.2c0,0,14.9,10.9,36.6,6.5c18.5-3.8,18.2-10.4,18.2-10.4l0.8,1.7c0,0-1.8,27-18.1,10.5
					C975.5,573.1,945.4,541.6,945.4,541.6L945.4,541.6z"/>
				<path class="st41" d="M805.5,414.2l-22.4,11.3c0.1,0.2,2.7,5.7,9.6,12.4c4.8,1,10.7-0.3,15.4-3.3c2-1.2,3.7-2.8,5.2-4.6
					C808.7,420.4,805.9,415.1,805.5,414.2z"/>
				<path class="st42" d="M847.8,542.9c0.3-1.2,1.8-3.5,2.9-6.1c-1.1-3.9-2.1-7.8-3.2-11.5c-3.4-1.6-7-2.6-10.7-3.1
					c0,0-0.3,0.4-0.7,1.1c1.9,6.7,3.9,13.7,5.8,21c0.4,1.5,0.8,3,1.2,4.5C847.6,548.1,847.4,544.8,847.8,542.9L847.8,542.9z"/>
				<path class="st29" d="M932.3,544.6L905.1,646l46.8,13l13-57.1l-19.6-60.3L932.3,544.6L932.3,544.6z M1046.4,572l-25.5-29.2
					l-16.4-3.1l-19.8,66.6l43.9,62.8l60-41.9L1046.4,572L1046.4,572z"/>
				<path class="st32" d="M937.3,541.6l-6.2,13.2l9.3,3.6l12.1-3.6l-7-13.1L937.3,541.6z"/>
				<path class="st31" d="M952.5,553.7l-17.6,6.7l29.1,41.9l1.5-1.3L952.5,553.7L952.5,553.7z M998.3,551.4l22.1,13.9l-35.7,44.3
					l-1.5-1.3L998.3,551.4z"/>
				<path class="st32" d="M1001.8,538l18.3,3.7v15.8l-9.1,4l-12.8-8.7L1001.8,538L1001.8,538z"/>
				<path class="st43" d="M866.3,722.5"/>
				<path class="st41" d="M883.7,722.5c-3.7-0.4-3.9-1.4-6.1,0.6c-1,1.3-2.8,2.5,3.2,13c0.4,0.7,2.8,1.3,3.6,2
					C884.1,731.5,884.2,728.8,883.7,722.5z"/>
				<path class="st34" d="M834.9,519.1c0,0-12.9,18.2-2.1,25.9c13,3.1,12.4-2.6,13-5.2s6.5-9.8,3.5-14.5S834.9,519.1,834.9,519.1z"
					/>
				<path class="st40" d="M987.7,560.1l-25.2,85.2l7.8,1.6l18.5-87.6L987.7,560.1L987.7,560.1z"/>
				<path class="st13" d="M984.8,560.9l-25.2,85.2l7.8,1.6l20.8-89.3L984.8,560.9L984.8,560.9z"/>
				<path class="st38" d="M830.5,540.5c0.3-0.6,0.9-0.8,1.5-0.5s0.8,0.9,0.5,1.5c-0.2,0.5-0.8,0.8-1.3,0.6c-0.1,0-0.1,0-0.2-0.1
					C830.4,541.7,830.2,541.1,830.5,540.5C830.5,540.5,830.5,540.5,830.5,540.5z M831.4,530.3c0.3-0.6,0.9-0.8,1.5-0.5
					s0.8,0.9,0.5,1.5c-0.2,0.5-0.8,0.8-1.3,0.6c-0.1,0-0.1,0-0.2-0.1C831.3,531.5,831.1,530.8,831.4,530.3
					C831.4,530.3,831.4,530.3,831.4,530.3z M835.6,534.1c0.4-0.8,0.8-1.3,2.1-0.7s1.1,1.3,0.8,2.1c-0.3,0.7-1.2,1.1-1.9,0.8
					c-0.1,0-0.1-0.1-0.2-0.1C835.6,535.8,835.3,534.8,835.6,534.1z M829.9,534.2c0.3-0.4,0.8-0.5,1.2-0.3c0.4,0.1,0.7,0.5,0.5,1
					s-0.5,0.7-1,0.5c-0.1,0-0.2-0.1-0.3-0.1C830,535.2,829.8,534.7,829.9,534.2z M834.9,541.6c-0.5-0.1-0.8-0.5-0.8-0.9
					c-0.1-0.4,0.2-0.8,0.6-0.9s0.8,0.2,0.9,0.6c0,0.1,0,0.2,0,0.3C835.7,541.2,835.3,541.6,834.9,541.6z M830.9,537.3
					c0.1-0.2,0.4-0.3,0.6-0.2c0.2,0.1,0.3,0.4,0.2,0.6c-0.1,0.2-0.3,0.3-0.5,0.3c0,0-0.1,0-0.1,0
					C830.9,537.8,830.8,537.5,830.9,537.3C830.9,537.3,830.9,537.3,830.9,537.3L830.9,537.3z"/>
				
					<ellipse transform="matrix(0.8453 -0.5344 0.5344 0.8453 -101.4985 489.8337)" class="st16" cx="795" cy="420.2" rx="19" ry="12.8"/>
				<path class="st44" d="M1063.1,591.6l-26.4,24.9l6.8,7.3l24.6-26.9L1063.1,591.6L1063.1,591.6z"/>
				<path class="st6" d="M1003.6,615.4c1-0.8,1.9-1.4,1.4-1.9s-1.2,0.2-2.2,1s-1.8,1.5-1.4,1.9S1002.6,616.2,1003.6,615.4z
					 M1019.4,636.3c1.1-0.7,2-1.2,1.6-1.8s-1.2,0.1-2.3,0.9s-1.9,1.3-1.6,1.8S1018.3,637.1,1019.4,636.3z"/>
				<g>
					<circle class="st44" cx="956.7" cy="610.6" r="2.3"/>
					<circle class="st6" cx="957.4" cy="610.6" r="2.3"/>
					<path class="st45" d="M957.3,610.6c-0.2,0.7-0.4,1.3,0,1.4s0.4-0.5,0.6-1.3s0.3-1.3,0-1.4S957.4,609.9,957.3,610.6z"/>
					<path class="st45" d="M957.4,611c0.7,0.2,1.3,0.4,1.4,0s-0.5-0.4-1.3-0.6s-1.3-0.3-1.4,0S956.7,610.8,957.4,611z"/>
				</g>
				<g>
					<circle class="st44" cx="951.7" cy="629.3" r="2.3"/>
					<circle class="st6" cx="952.4" cy="629.5" r="2.3"/>
					<path class="st45" d="M952.2,629.5c-0.4,0.6-0.8,1.1-0.6,1.3s0.6-0.3,1-1s0.8-1.1,0.6-1.3S952.6,628.9,952.2,629.5z"/>
					<path class="st45" d="M952.2,629.9c0.6,0.4,1.1,0.8,1.3,0.6s-0.3-0.6-1-1s-1.1-0.8-1.3-0.6S951.5,629.4,952.2,629.9z"/>
				</g>
				<path class="st44" d="M926.7,620.3l-19-7.3l-1.7,2.8l18.5,8.9L926.7,620.3L926.7,620.3z"/>
				<path class="st27" d="M926.7,753.6l-0.9,0.8c0,0-35.8-15-44.7-24.4s-9.4-14-8.4-15.2c8.4-7.6,33.2,7.5,33.2,7.5L926.7,753.6z"/>
				<path class="st31" d="M1063.1,587.1l-26.4,24.9l6.8,7.2l24.6-26.9L1063.1,587.1L1063.1,587.1z M930.6,618.2L909.1,605l-4,6.7
					l22.5,11.4L930.6,618.2z"/>
				<path class="st38" d="M976,542.4c0.2-0.4,6.2-4.3,13.3-4.4h4.4c-3.6,0.5-7.1,1.2-10.5,2.2C979.6,541.4,976,542.4,976,542.4
					L976,542.4z M981.6,544.2c2-1.7,4.6-2.7,7.2-2.8c0.8-0.1,1.6-0.1,2.4,0c-1.9,0.3-3.8,0.8-5.7,1.4
					C983.6,543.6,981.6,544.2,981.6,544.2L981.6,544.2z"/>
				<path class="st46" d="M983.7,548.7c-0.7,3.5-2.9,6.4-6.1,7.9c-0.5,0.6,1.2,2.8,1.9,3.3l5.3,1c7.7-1.8,7.9-6.8,7.9-6.8
					C987.6,553,983.7,548.7,983.7,548.7z"/>
				
					<ellipse transform="matrix(0.3843 -0.9232 0.9232 0.3843 -0.3071 1286.3385)" class="st8" cx="964.2" cy="643.4" rx="0.9" ry="1.2"/>
				
					<ellipse transform="matrix(6.975647e-02 -0.9976 0.9976 6.975647e-02 277.2753 1545.7019)" class="st8" cx="967.4" cy="624.2" rx="0.9" ry="1.2"/>
				
					<ellipse transform="matrix(7.306417e-02 -0.9973 0.9973 7.306417e-02 290.9103 1537.314)" class="st8" cx="972.5" cy="612.2" rx="0.7" ry="0.9"/>
				
					<ellipse transform="matrix(7.306417e-02 -0.9973 0.9973 7.306417e-02 309.2749 1527.6871)" class="st8" cx="976.5" cy="597.5" rx="0.7" ry="0.9"/>
				
					<ellipse transform="matrix(0.2823 -0.9593 0.9593 0.2823 143.7382 1358.6282)" class="st8" cx="979.9" cy="583.2" rx="0.6" ry="0.7"/>
				
					<ellipse transform="matrix(0.2823 -0.9593 0.9593 0.2823 154.5635 1355.0537)" class="st8" cx="983" cy="574.2" rx="0.6" ry="0.7"/>
				<g>
					<g id="hp-dollar">
						<path class="st47" d="M1059.8,603.2l-1.9,11.6l28,5.8l2.9-12.2L1059.8,603.2z"/>
						
							<ellipse transform="matrix(0.1807 -0.9835 0.9835 0.1807 271.3258 1560.9459)" class="st48" cx="1072.5" cy="617.6" rx="5.2" ry="4.7"/>
						<g class="st49">
							<path class="st50" d="M1067.6,614.4l-7.7-1.1l1.1-7.6l8,1.3c0.2-0.3,0.5-0.6,0.8-0.8l-9.3-1.6l-1.3,9.3l8.9,1.5
								C1067.8,615.1,1067.6,614.8,1067.6,614.4L1067.6,614.4z M1077.5,607.5c0.2,0.3,0.4,0.6,0.5,1l8.4,1.7l-1.9,8.1l-7.1-2.3
								c-0.3,0.6-0.7,1-1.1,1.4l9,2l2.4-10.3L1077.5,607.5z"/>
						</g>
						<path class="st50" d="M1083.1,613.7c-0.1,0.7-0.8,1.2-1.5,1c-0.7-0.1-1.2-0.8-1-1.5l0,0c0.1-0.7,0.8-1.2,1.5-1
							C1082.7,612.4,1083.2,613,1083.1,613.7L1083.1,613.7z M1063.6,609.2c0.6-0.3,1.4-0.1,1.7,0.5s0.1,1.4-0.5,1.7
							s-1.4,0.1-1.7-0.5S1063,609.6,1063.6,609.2L1063.6,609.2z"/>
					</g>
					<g id="hp-dollar-2">
						<path class="st47" d="M1060,604l-11.2,7.3l16.4,27.9l12.4-6.9L1060,604z"/>
						
							<ellipse transform="matrix(0.8489 -0.5286 0.5286 0.8489 -168.008 655.5933)" class="st48" cx="1062.6" cy="621.6" rx="5.9" ry="5.3"/>
						<g class="st49">
							<path class="st50" d="M1056.6,619.1l-5-7.3l7.1-4.9l5,7.7c0.4,0,0.8,0,1.3,0.1l-5.8-9l-8.8,6l5.5,8.6
								C1056,619.8,1056.2,619.4,1056.6,619.1z M1069.8,622.1c-0.1,0.4-0.2,0.8-0.5,1.2l4.9,8.3l-8.3,4.5l-3.5-7.7
								c-0.7,0.2-1.4,0.2-2.1,0.1l5.2,9.1l10.5-5.8L1069.8,622.1z"/>
						</g>
						<path class="st50" d="M1068.8,631.5c-0.7,0.4-1.6,0.1-2-0.6c-0.4-0.7-0.2-1.5,0.4-1.9c0.7-0.4,1.6-0.1,2,0.6
							C1069.6,630.3,1069.4,631.1,1068.8,631.5z M1057.8,611.8c0.8,0.3,1.2,1.1,0.9,1.8s-1.1,1.2-1.8,0.9s-1.2-1.1-0.9-1.8
							S1057.1,611.5,1057.8,611.8z"/>
					</g>
					<g id="hp-dollar-3">
						<path class="st47" d="M1070.1,598.7l-11.5,2.7l5.2,28.3l12.4-2L1070.1,598.7L1070.1,598.7z"/>
						
							<ellipse transform="matrix(0.9784 -0.2065 0.2065 0.9784 -103.8549 233.6083)" class="st48" cx="1066.9" cy="614.2" rx="5.3" ry="4.7"/>
						<g class="st49">
							<path class="st50" d="M1062.7,610.2l-1.9-7.6l7.4-1.9l1.8,8c0.4,0.1,0.7,0.2,1,0.5l-2.1-9.3l-9.2,2.2l2,8.8
								C1062.1,610.6,1062.4,610.3,1062.7,610.2L1062.7,610.2z M1072.9,616.7c-0.2,0.3-0.5,0.6-0.8,0.8l1.6,8.5l-8.3,1.3l-0.6-7.5
								c-0.6,0-1.2-0.2-1.8-0.5l1.5,9.2l10.5-1.7L1072.9,616.7z"/>
						</g>
						<path class="st50" d="M1069.2,624.3c-0.7,0.1-1.4-0.4-1.5-1.1c-0.1-0.6,0.3-1.3,0.9-1.4c0.7-0.1,1.4,0.4,1.5,1.1
							C1070.2,623.5,1069.8,624.1,1069.2,624.3z M1066,604.5c0.5,0.5,0.5,1.3,0,1.8c-0.4,0.4-1.1,0.5-1.6,0.2
							c-0.6-0.4-0.8-1.2-0.4-1.8c0.4-0.6,1.2-0.8,1.8-0.4C1065.9,604.4,1065.9,604.4,1066,604.5z"/>
					</g>
					<g id="hp-dollar-4">
						<path class="st47" d="M1081.8,609.1l-8.7-6.8l-17.5,20.4l8.7,7.9L1081.8,609.1z"/>
						
							<ellipse transform="matrix(0.6319 -0.7751 0.7751 0.6319 -83.9347 1055.0833)" class="st48" cx="1068.8" cy="615.9" rx="4.4" ry="4.9"/>
						<g class="st49">
							<path class="st50" d="M1069.1,610.5l4.4-5.8l5.7,4.3l-4.7,6c0.1,0.3,0.2,0.7,0.3,1l5.5-6.9l-7-5.3l-5.2,6.6
								C1068.5,610.3,1068.8,610.3,1069.1,610.5L1069.1,610.5z M1070.3,621.7c-0.3,0-0.7,0-1,0l-5.2,6.1l-5.8-5.3l5.1-4.8
								c-0.3-0.5-0.6-1-0.7-1.6l-5.8,6.5l7.4,6.7L1070.3,621.7z"/>
						</g>
						<path class="st50" d="M1062.7,623.4c-0.5-0.4-0.6-1.2-0.2-1.7c0.4-0.5,1.2-0.6,1.7-0.2s0.6,1.2,0.2,1.7
							C1063.9,623.8,1063.2,623.9,1062.7,623.4L1062.7,623.4z M1075.2,609.5c0,0.7-0.5,1.2-1.2,1.2c-0.7,0-1.2-0.5-1.2-1.2
							s0.5-1.2,1.2-1.2C1074.7,608.3,1075.2,608.8,1075.2,609.5z"/>
					</g>
					<g id="hp-dollar-5">
						<path class="st47" d="M1078.6,603.3l-13.3-1l-3.8,32.2l14,2L1078.6,603.3z"/>
						
							<ellipse transform="matrix(9.254433e-02 -0.9957 0.9957 9.254433e-02 354.8379 1627.1563)" class="st48" cx="1070.1" cy="618.9" rx="5.3" ry="5.9"/>
						<g class="st49">
							<path class="st50" d="M1066.8,613.2l0.5-8.8l8.6,0.5l-0.7,9.2c0.4,0.2,0.7,0.5,1,0.8l0.9-10.7l-10.6-0.6l-0.8,10.2
								C1066,613.4,1066.4,613.3,1066.8,613.2L1066.8,613.2z M1075.6,623.6c-0.3,0.3-0.7,0.5-1.1,0.7l-1.1,9.6l-9.3-1.4l1.9-8.2
								c-0.6-0.3-1.2-0.6-1.7-1.1l-1.4,10.4l11.9,1.7L1075.6,623.6z"/>
						</g>
						<path class="st50" d="M1069,630.6c-0.8-0.1-1.4-0.8-1.3-1.6c0.1-0.8,0.8-1.4,1.6-1.3s1.4,0.8,1.3,1.6
							C1070.5,630,1069.8,630.6,1069,630.6L1069,630.6z M1072.2,608.2c0.4,0.7,0.3,1.6-0.4,2s-1.6,0.3-2-0.4s-0.3-1.6,0.4-2
							S1071.8,607.5,1072.2,608.2L1072.2,608.2z"/>
					</g>
					<g id="hp-dollar-6">
						<path class="st47" d="M1091,607.6l-14.1-8.8l-22.9,33.3l14.3,10.4L1091,607.6L1091,607.6z"/>
						
							<ellipse transform="matrix(0.5457 -0.838 0.838 0.5457 -32.167 1180.4163)" class="st48" cx="1072.5" cy="619.9" rx="6.6" ry="7.4"/>
						<g class="st49">
							<path class="st50" d="M1072.2,611.7l5.7-9.5l9.3,5.5l-6.1,9.7c0.3,0.5,0.5,1,0.6,1.5l7.2-11.3l-11.4-6.8l-6.8,10.7
								C1071.7,611.6,1071.1,611.4,1072.2,611.7L1072.2,611.7z M1075.8,628.3c-0.5,0.1-1,0.1-1.6,0.1l-6.8,10l-9.5-7l6.8-8
								c-0.6-0.7-1-1.4-1.2-2.3l-7.6,10.7l12.1,8.8L1075.8,628.3z"/>
						</g>
						<path class="st50" d="M1064.6,632.2c-0.8-0.6-0.9-1.8-0.3-2.5c0.5-0.7,1.5-0.9,2.3-0.5c0.8,0.6,0.9,1.8,0.3,2.5
							C1066.3,632.4,1065.4,632.6,1064.6,632.2z M1081.1,609.3c0.1,1-0.6,1.9-1.6,2s-1.9-0.6-2-1.6s0.6-1.9,1.6-2
							S1081,608.3,1081.1,609.3z"/>
					</g>
					<g id="hp-dollar-7">
						<path class="st47" d="M1064.6,629.3c0.4,0.3,13.5,10,13.5,10s6.4-11.7-2.3-24.9s-17.9-13.8-17.9-13.8l-0.1,18.2
							c0,0,4.2-3.6,7.7,2.3C1067.3,623.7,1066.9,627.2,1064.6,629.3z"/>
						<path class="st48" d="M1071.3,614.8c2.6-0.3,4,0.3,4.5,3.4c0.3,2-1.5,4.6-4.1,4.8s-4.8-1.2-5-3.2S1068.7,615.1,1071.3,614.8
							L1071.3,614.8z"/>
						<path class="st50" d="M1072,628.7c-0.6-0.3-0.8-1-0.5-1.5c0.3-0.6,1-0.8,1.5-0.5c0.2,0.1,0.3,0.3,0.4,0.4
							c0.6,0.3,0.8,1,0.5,1.5c-0.3,0.6-1,0.8-1.5,0.5C1072.2,629,1072.1,628.9,1072,628.7z M1066.2,613.1c0.1,0.6-0.3,1.1-0.9,1.2
							c-0.6,0.1-1.1-0.3-1.2-0.9c0-0.2,0-0.4,0.1-0.6c-0.1-0.6,0.3-1.1,0.9-1.2c0.6-0.1,1.1,0.3,1.2,0.9
							C1066.3,612.7,1066.3,612.9,1066.2,613.1z"/>
						<g class="st51">
							<path class="st50" d="M1075.7,622.2c0.9,3.7,0.9,7.6,0.1,11.3l-6.5-4.7c0.7-1.3,0.9-2.8,0.6-4.3c-0.6-0.1-1.3-0.3-1.8-0.5
								c0.8,3.6-1.2,5.2-1.2,5.2l9.9,7.2c0,0,3.2-8.7-0.2-16.9C1076.6,620.4,1076.3,621.4,1075.7,622.2L1075.7,622.2z M1059.3,617
								c0,0,2.9-1.6,5.9,1.6l0.1,0.1c0.1-0.6,0.3-1.2,0.7-1.7c-1.2-1.3-2.9-2-4.7-2.1l0.9-8.4c1.3,0.4,3.6,1.5,6.6,4.8
								c0.7,0.8,1.4,1.6,2.1,2.4c0.8,0,1.6,0.1,2.4,0.3c-1-1.4-2-2.7-3.2-3.9c-5.8-6.2-9.3-5.5-9.3-5.5L1059.3,617z"/>
						</g>
					</g>
					<g id="hp-dollar-8">
						<path class="st47" d="M923.2,620.7c0.2-0.3,6.3-12,6.3-12s-10.1-3.7-19.7,4.9s-8.8,16-8.8,16l14.5-2.1c0,0-3.4-2.9,0.9-6.4
							C918.3,619.3,921.1,619.2,923.2,620.7L923.2,620.7z"/>
						<path class="st48" d="M910.7,617.2c-0.5-2-0.3-3.2,2.2-4c1.9-0.4,3.9,0.8,4.4,2.7c0.5,2-0.3,4-1.9,4.4
							C913.3,620.4,911.3,619.1,910.7,617.2z"/>
						<path class="st50" d="M921.7,614.9c-0.1,0.5-0.7,0.8-1.1,0.6c-0.5-0.1-0.8-0.7-0.6-1.1c0.1-0.2,0.2-0.3,0.3-0.5
							c0.1-0.5,0.7-0.8,1.1-0.6c0.5,0.1,0.8,0.7,0.6,1.1C922,614.6,921.9,614.8,921.7,614.9z M909.9,621.4c0.5-0.1,0.9,0.1,1,0.6
							s-0.1,0.9-0.6,1c-0.1,0-0.3,0-0.4,0c-0.5,0.1-0.9-0.1-1-0.6s0.1-0.9,0.6-1C909.6,621.4,909.8,621.4,909.9,621.4z"/>
						<g class="st51">
							<path class="st50" d="M916.1,612.8c2.9-1.2,6-1.7,9-1.5l-3,5.8c-1.1-0.4-2.4-0.4-3.5,0c0,0.5,0,1-0.2,1.5
								c2.8-1.1,4.3,0.3,4.3,0.3l4.5-8.8c0,0-7.3-1.5-13.5,2.2C914.6,612.2,915.4,612.4,916.1,612.8z M914,626.5
								c0,0-1.6-2.1,0.6-4.9l0.1-0.1c-0.5,0-1-0.1-1.5-0.3c-0.9,1.1-1.3,2.6-1.1,4l-6.8,0.3c0.2-1.1,0.8-3,3-5.8
								c0.5-0.7,1.1-1.4,1.7-2c-0.1-0.6-0.1-1.3,0-1.9c-1,0.9-1.9,1.9-2.7,3c-4.2,5.4-3.3,8.1-3.3,8.1L914,626.5z"/>
						</g>
					</g>
					<g id="hp-dollar-9">
						<path class="st47" d="M905.5,620.6c-0.1,0.4-2.9,13.3-2.9,13.3s10.7,0.8,17.6-10s4.2-17.8,4.2-17.8l-13.4,6
							c0,0,4.1,1.9,0.9,6.5C910.5,620.7,907.8,621.5,905.5,620.6L905.5,620.6z"/>
						<path class="st48" d="M918.4,620.7c1,1.8,1.1,3-1,4.5c-1.8,0.9-3.9,0.3-4.9-1.4c-1-1.8-0.7-3.9,0.7-4.7
							C915.1,618.2,917.3,618.9,918.4,620.7z"/>
						<path class="st50" d="M908.4,625.8c0.1-0.5,0.5-0.9,1-0.8c0.5,0.1,0.9,0.5,0.8,1c0,0.2-0.1,0.3-0.2,0.4
							c-0.1,0.5-0.5,0.9-1,0.8c-0.5-0.1-0.9-0.5-0.8-1C908.3,626,908.3,625.9,908.4,625.8z M918,616.3c-0.4,0.2-0.9,0.1-1.2-0.3
							c-0.2-0.4-0.1-0.9,0.3-1.2c0.1-0.1,0.3-0.1,0.4-0.1c0.4-0.2,0.9-0.1,1.2,0.3c0.2,0.4,0.1,0.9-0.3,1.2
							C918.3,616.3,918.2,616.3,918,616.3z"/>
						<g class="st51">
							<path class="st50" d="M914.4,626.3c-2.4,1.9-5.3,3.2-8.3,3.8l1.3-6.3c1.2,0,2.4-0.3,3.4-1c-0.2-0.5-0.2-1-0.2-1.5
								c-2.3,1.8-4.2,0.8-4.2,0.8l-2,9.7c0,0,7.5-0.5,12.4-5.8C916,626.4,915.2,626.5,914.4,626.3L914.4,626.3z M912.8,612.5
								c0,0,2.1,1.6,0.8,4.9v0.1c0.5-0.1,1-0.1,1.5-0.1c0.5-1.3,0.5-2.8,0-4.1l6.5-2.1c0.1,1.1,0,3.1-1.3,6.4
								c-0.3,0.8-0.7,1.6-1.1,2.3c0.3,0.6,0.5,1.2,0.6,1.9c0.7-1.2,1.3-2.4,1.8-3.7c2.6-6.4,0.9-8.7,0.9-8.7L912.8,612.5z"/>
						</g>
					</g>
					<g id="hp-dollar-10">
						<path class="st47" d="M924.6,609c-0.2-0.5-8.4-17.3-8.4-17.3s-12.7,8.4-10.9,26.4s10.8,23.5,10.8,23.5l9.8-18.4
							c0,0-6.2,1.4-6.6-6.4C919,610.3,924.6,609,924.6,609L924.6,609z"/>
						<path class="st48" d="M910.1,620.1c-2.7-1.1-3.9-2.4-2.8-5.8c0.7-2.2,4-3.8,6.7-2.7s4.2,3.7,3.3,5.9S912.8,621.2,910.1,620.1z
							"/>
						<path class="st50" d="M916.7,605.7c0.4,0.6,0.2,1.4-0.4,1.8s-1.4,0.2-1.8-0.4c-0.1-0.2-0.2-0.4-0.2-0.7
							c-0.4-0.6-0.2-1.4,0.4-1.8s1.4-0.2,1.8,0.4C916.7,605.2,916.7,605.5,916.7,605.7z M914.3,624.6c0.2-0.6,0.9-0.9,1.6-0.7
							c0.6,0.2,0.9,0.9,0.7,1.6c-0.1,0.2-0.2,0.4-0.4,0.5c-0.2,0.6-0.9,0.9-1.6,0.7c-0.6-0.2-0.9-0.9-0.7-1.6
							C914,624.9,914.2,624.7,914.3,624.6z"/>
						<g class="st51">
							<path class="st50" d="M909.6,610.3c1.1-4.3,3.1-8.2,5.9-11.5l4.1,8.2c-1.4,1-2.4,2.4-2.9,4c0.6,0.4,1.1,0.9,1.6,1.5
								c1-4,4-4.6,4-4.6l-6.2-12.5c0,0-7.8,7.1-8.8,17.3C907.8,611.6,908.6,610.8,909.6,610.3L909.6,610.3z M923.5,624.3
								c0,0-3.7,0.1-5.1-4.7v-0.2c-0.4,0.6-1,1-1.6,1.4c0.6,1.9,1.9,3.6,3.6,4.6l-5.4,8c-1.1-1.1-2.8-3.5-4.1-8.3
								c-0.3-1.2-0.6-2.3-0.8-3.5c-0.8-0.4-1.6-0.9-2.3-1.6c0.3,1.9,0.7,3.8,1.2,5.6c2.6,9.4,6.5,10.5,6.5,10.5L923.5,624.3z"/>
						</g>
					</g>
					<g id="hp-dollar-11">
						<path class="st47" d="M895,614.4l1.5,13.2l32.2-2.1l-0.6-14.1L895,614.4L895,614.4z"/>
						
							<ellipse transform="matrix(0.996 -8.976348e-02 8.976348e-02 0.996 -51.9721 84.3437)" class="st48" cx="911.7" cy="620" rx="5.3" ry="5.9"/>
						<g class="st49">
							<path class="st50" d="M906.8,624.2l-8.7,1.1l-1.1-8.5l9.1-0.9c0.1-0.4,0.4-0.8,0.6-1.1l-10.6,1.1l1.4,10.5l10.1-1
								C907.2,625,906.9,624.6,906.8,624.2L906.8,624.2z M915.5,613.7c0.3,0.3,0.6,0.6,0.8,0.9l9.6-0.7l0.3,9.4l-8.4-0.3
								c-0.1,0.7-0.4,1.3-0.8,1.9l10.4-0.5l-0.5-11.9L915.5,613.7z"/>
						</g>
						<path class="st50" d="M923.4,618.8c0.1,0.8-0.5,1.5-1.3,1.6s-1.5-0.5-1.6-1.3s0.5-1.5,1.3-1.6S923.3,618,923.4,618.8
							L923.4,618.8z M900.9,619.8c0.6-0.5,1.5-0.4,2,0.2c0.5,0.5,0.4,1.3,0,1.9c-0.5,0.6-1.4,0.7-2,0.1c-0.6-0.5-0.7-1.4-0.1-2
							C900.8,619.9,900.8,619.8,900.9,619.8z"/>
					</g>
					<g id="hp-dollar-12">
						<path class="st47" d="M909.3,637.2l13-2.6l-5-31.9l-14,1.8L909.3,637.2L909.3,637.2z"/>
						
							<ellipse transform="matrix(0.9839 -0.1786 0.1786 0.9839 -96.0731 173.1146)" class="st48" cx="913.3" cy="620.1" rx="5.9" ry="5.3"/>
						<g class="st49">
							<path class="st50" d="M917.9,624.6l1.9,8.6l-8.4,1.9l-1.8-9c-0.4-0.1-0.8-0.3-1.1-0.5l2,10.5l10.3-2.3l-2-10
								C918.7,624.1,918.3,624.4,917.9,624.6L917.9,624.6z M906.7,616.9c0.2-0.3,0.5-0.7,0.9-0.9l-1.5-9.5l9.3-1.2l0.4,8.4
								c0.7,0.1,1.4,0.3,2,0.6l-1.4-10.4l-11.8,1.5L906.7,616.9z"/>
						</g>
						<path class="st50" d="M911.2,608.5c0.8-0.1,1.5,0.4,1.7,1.2c0.1,0.8-0.4,1.5-1.2,1.7s-1.5-0.4-1.7-1.2
							C909.8,609.4,910.4,608.7,911.2,608.5L911.2,608.5z M914.1,630.9c-0.6-0.5-0.7-1.4-0.2-2c0.5-0.6,1.4-0.7,2-0.2l0,0
							c0.6,0.5,0.7,1.4,0.2,2C915.6,631.3,914.7,631.4,914.1,630.9z"/>
					</g>
					<g id="hp-dollar-13">
						<path class="st47" d="M1064.7,594.9l-13.6,9.6l21.9,34l15.1-9.2L1064.7,594.9L1064.7,594.9z"/>
						
							<ellipse transform="matrix(0.8269 -0.5624 0.5624 0.8269 -161.7153 707.8262)" class="st48" cx="1068.8" cy="616.6" rx="7.4" ry="6.6"/>
						<g class="st49">
							<path class="st50" d="M1061.3,613.8l-6.5-8.9l8.7-6.4l6.6,9.4c0.5-0.1,1.1-0.1,1.6,0l-7.6-11l-10.7,7.9l7.3,10.4
								C1061,614.2,1060.5,614.7,1061.3,613.8L1061.3,613.8z M1078,616.9c-0.1,0.5-0.3,1-0.5,1.5l6.6,10.1l-10.1,6.1l-4.7-9.4
								c-0.8,0.3-1.7,0.4-2.6,0.3l6.9,11.1l12.8-7.8L1078,616.9z"/>
						</g>
						<path class="st50" d="M1077.2,628.8c-0.9,0.5-2,0.2-2.5-0.7c-0.4-0.8-0.2-1.7,0.5-2.3c0.9-0.5,2-0.2,2.5,0.7
							C1078,627.2,1077.8,628.2,1077.2,628.8z M1062.5,604.7c0.9,0.3,1.4,1.4,1.1,2.3c-0.3,0.8-1.2,1.3-2.1,1.1
							c-0.9-0.3-1.4-1.4-1.1-2.3C1060.7,605,1061.6,604.5,1062.5,604.7z"/>
					</g>
					<g id="hp-dollar-14">
						<path class="st47" d="M1084.1,600.8l-15.7-5.5l-15,37.6l16.3,7L1084.1,600.8z"/>
						
							<ellipse transform="matrix(0.3466 -0.938 0.938 0.3466 119.7462 1405.4401)" class="st48" cx="1068.7" cy="616.8" rx="6.6" ry="7.4"/>
						<g class="st49">
							<path class="st50" d="M1066.7,609l3.4-10.5l10.3,3.3l-3.8,10.8c0.4,0.4,0.7,0.8,0.9,1.3l4.5-12.6l-12.6-4.1l-4.2,12
								C1066.2,609,1065.5,608.9,1066.7,609L1066.7,609z M1073.8,624.4c-0.5,0.2-1,0.4-1.5,0.4l-4.4,11.3l-10.8-4.7l4.9-9.3
								c-0.7-0.5-1.3-1.2-1.7-1.9l-5.1,12.1l13.8,5.9L1073.8,624.4z"/>
						</g>
						<path class="st50" d="M1063.7,630.6c-0.9-0.4-1.3-1.5-0.9-2.4c0.4-0.8,1.3-1.3,2.2-1c0.9,0.4,1.3,1.5,0.9,2.4
							C1065.6,630.4,1064.6,630.9,1063.7,630.6z M1074.8,604.7c0.4,0.9-0.1,2-1,2.3c-0.9,0.4-2-0.1-2.3-1c0,0,0-0.1,0-0.1
							c-0.4-0.9,0.1-2,1-2.3c0.9-0.4,2,0.1,2.3,1C1074.8,604.6,1074.8,604.6,1074.8,604.7z"/>
					</g>
					<g id="hp-dollar-15">
						<path class="st47" d="M1081.8,623.5c0.3-0.5,9-17.1,9-17.1s-14.3-5.2-27.9,7s-12.5,22.7-12.5,22.7l20.7-3c0,0-4.8-4.2,1.3-9.2
							C1077.5,619.8,1081.8,623.5,1081.8,623.5L1081.8,623.5z"/>
						<path class="st48" d="M1064.2,618.4c-0.7-2.8-0.4-4.6,3.1-5.8c2.2-0.8,5.5,1,6.2,3.8s-0.5,5.6-2.8,6.2
							S1064.9,621.3,1064.2,618.4z"/>
						<path class="st50" d="M1079.8,615.3c-0.2,0.7-1,1.1-1.7,0.8s-1.1-1-0.8-1.7c0.1-0.3,0.3-0.5,0.5-0.7c0.2-0.7,1-1.1,1.7-0.8
							s1.1,1,0.8,1.7C1080.2,614.9,1080,615.1,1079.8,615.3z M1063.1,624.5c0.6-0.2,1.3,0.2,1.5,0.8s-0.2,1.3-0.8,1.5
							c-0.2,0.1-0.4,0.1-0.7,0c-0.6,0.2-1.3-0.2-1.5-0.8s0.2-1.3,0.8-1.5C1062.6,624.5,1062.8,624.5,1063.1,624.5z"/>
						<g class="st51">
							<path class="st50" d="M1071.8,612.2c4.1-1.7,8.5-2.4,12.8-2.1l-4.2,8.2c-1.6-0.5-3.4-0.5-5,0c0,0.7-0.1,1.5-0.3,2.2
								c3.9-1.6,6.1,0.5,6.1,0.5l6.4-12.5c0,0-10.4-2.1-19.2,3.2C1069.6,611.5,1070.8,611.6,1071.8,612.2L1071.8,612.2z
								 M1068.7,631.7c0,0-2.3-3,0.8-6.9l0.1-0.1c-0.7,0-1.4-0.2-2.1-0.5c-1.2,1.6-1.8,3.6-1.6,5.7l-9.7,0.4
								c0.2-1.5,1.2-4.3,4.3-8.3c0.7-1,1.5-1.9,2.4-2.8c-0.2-0.9-0.2-1.8-0.1-2.8c-1.4,1.3-2.7,2.8-3.9,4.3
								c-6,7.7-4.6,11.6-4.6,11.6L1068.7,631.7z"/>
						</g>
					</g>
					<g id="hp-dollar-16">
						<path class="st47" d="M901.5,636.2l16.1,5.1l14.3-38.5l-16.7-6.7L901.5,636.2L901.5,636.2z"/>
						
							<ellipse transform="matrix(0.3238 -0.9461 0.9461 0.3238 33.7517 1286.2714)" class="st48" cx="916.7" cy="619.5" rx="6.8" ry="7.5"/>
						<g class="st49">
							<path class="st50" d="M919,627.5l-3.2,10.7l-10.5-3.2l3.6-11c-0.4-0.4-0.7-0.8-0.9-1.3l-4.3,12.9l12.9,3.9l4-12.3
								C919.6,627.5,920.2,627.6,919,627.5z M911.4,612.1c0.5-0.2,1-0.4,1.5-0.5l4.2-11.5l11.1,4.5l-4.8,9.5
								c0.7,0.5,1.3,1.1,1.8,1.9l4.9-12.4l-14.1-5.7L911.4,612.1z"/>
						</g>
						<path class="st50" d="M921.5,605.4c1,0.3,1.5,1.3,1.2,2.3c-0.3,1-1.3,1.5-2.3,1.2c0,0-0.1,0-0.1,0c-0.9-0.4-1.4-1.4-1.1-2.4
							C919.6,605.6,920.5,605.2,921.5,605.4z M910.8,632.1c-0.3-1,0.2-2,1.1-2.4c0.9-0.3,2,0.1,2.3,1.1c0.3,1-0.2,2-1.1,2.4
							C912.2,633.5,911.2,633,910.8,632.1z"/>
					</g>
				</g>
				<path id="hp-tie" class="st46" d="M979.8,559.3c0,1.7-24.4,19.3-47.5,6.8c-6,0.4-11.8,2.1-17.1,5c0,0,2.6,19,8,22
					c12.2,1.7,57.2,0.6,61.9-32.8L979.8,559.3z"/>
				<g id="hp-trump-arm">
					<path class="st34" d="M1100.6,505.4c0,0,7.6-8.3,9.5-13c2.6-6.5-18.3-16.3-21.2-16.7c-2.2-0.3-3.7,5.1-3.7,5.1
						s-4.3-3.6-4.7-3.1s-4.5,16.4-4.5,16.4L1100.6,505.4z"/>
					<path class="st38" d="M1100.2,493.8c0.3-0.6,0.9-0.8,1.5-0.5s0.8,0.9,0.5,1.5c-0.2,0.5-0.8,0.8-1.3,0.6c-0.1,0-0.1,0-0.2-0.1
						C1100.2,495,1100,494.4,1100.2,493.8C1100.2,493.8,1100.2,493.8,1100.2,493.8z M1103.1,483.6c0.3-0.6,0.9-0.8,1.5-0.5
						s0.8,0.9,0.5,1.5l0,0c-0.2,0.5-0.8,0.8-1.3,0.6c-0.1,0-0.1,0-0.2-0.1C1103.1,484.8,1102.9,484.1,1103.1,483.6
						C1103.1,483.6,1103.1,483.6,1103.1,483.6z M1105.4,487.4c0.4-0.8,0.8-1.3,2.1-0.7s1.1,1.3,0.8,2.1c-0.3,0.7-1.2,1.1-1.9,0.8
						c-0.1,0-0.1-0.1-0.2-0.1C1105.4,489,1105,488.1,1105.4,487.4z M1099.7,487.6c0.3-0.4,0.8-0.5,1.2-0.3c0.4,0.1,0.7,0.5,0.5,1
						c-0.1,0.4-0.5,0.7-1,0.5c-0.1,0-0.2-0.1-0.3-0.1C1099.8,488.5,1099.6,488,1099.7,487.6z M1104.7,495c-0.5-0.1-0.8-0.5-0.8-0.9
						c-0.1-0.4,0.2-0.8,0.6-0.9c0.4-0.1,0.8,0.2,0.9,0.6c0,0.1,0,0.2,0,0.3C1105.4,494.5,1105.1,494.9,1104.7,495z M1100.6,490.6
						c0.1-0.2,0.4-0.3,0.6-0.2c0.2,0.1,0.3,0.4,0.2,0.6l0,0c-0.1,0.2-0.3,0.3-0.5,0.3c0,0-0.1,0-0.1,0
						C1100.6,491.1,1100.5,490.8,1100.6,490.6C1100.6,490.6,1100.6,490.6,1100.6,490.6L1100.6,490.6z M1076.1,493.8l24.5,11.6
						c0,0,5-5.7,5.9-7.3l-28.2-12.6C1077.7,488,1076.1,493.8,1076.1,493.8z"/>
					<path class="st52" d="M1104.1,509.2c0.3,0.2,8,9.3,8,9.3s-6.1,4.8-6.4,4.5s-7-4.3-7-4.8S1104.1,509.2,1104.1,509.2z"/>
					<path class="st29" d="M1060.1,491.3l-41.2,51.5c-11.4,14.4-14,27.5-4.7,37.7c9.2,10.2,35-6,35-6l62.2-52.5L1060.1,491.3z"/>
					<path class="st28" d="M1066,487.6l-4.1,5c0,0,34.6,27.9,34.8,27.3s9.9-11.3,9.9-11.3L1066,487.6z"/>
				</g>
			</g>
			<g id="hp-plane-b">
				<g id="hp-banner-b">
					<path class="st4" d="M739.6,667.5l-42.5-28.8l-0.4,1.3l40.6,27.3L697.2,688l0.4,1L739.6,667.5z"/>
					<path class="st53" d="M686,637.3l2.6,53.2l7.2,0.4l-0.7-54L686,637.3L686,637.3z"/>
				</g>
				<path id="hp-prop-b" class="st6" d="M907.7,640.9c0,1.5-3.2,13.1-3.8,33.2s1.7,32,1.6,33.4c-0.1,1.8-2,3.3-4.3,3.2
					s-4.1-1.6-4-3.5c0-1.5,3.1-9.7,3.8-33.2s-1.7-32-1.6-33.4c0.1-1.8,2-3.3,4.3-3.2S907.7,639.1,907.7,640.9z"/>
				<path class="st5" d="M897,668.1c-3.4-0.1-4.5,2.6-4.7,6s0.9,6.1,4.3,6.3s9.8-3.6,9.9-5.8S900.4,668.2,897,668.1z"/>
				<path class="st7" d="M818.3,589.3l3.5,157.3l14.1,0.9l-2.4-159.9L818.3,589.3L818.3,589.3z"/>
				<path class="st8" d="M892.5,646.1c-14.4,0.7-172.7,7.5-173.2,21.9c-0.4,13.3,166.7,31.7,167.8,31.7
					C899.7,692.3,900.8,656.3,892.5,646.1L892.5,646.1z"/>
				<path class="st9" d="M897.8,670.7c-0.1,3.3-0.4,6.5-1,9.8l-148.2-1.2c-17.5-3.8-29.5-7.8-29.3-11.3c0-0.3,0.1-0.6,0.3-0.9
					L897.8,670.7z"/>
				<path class="st10" d="M898.9,673.9c-0.8,11.4-4.3,22.4-10.6,26.1c-1.2,0-170.5-18.7-170.1-32.1v-0.1L898.9,673.9z"/>
				<path class="st9" d="M867.1,668.2h1.4v1.1H867l-0.2,3.1l-0.1,1.4h1.7v1.4h-1.8l-1.1,21.9c-11.2-1.3-26.2-3.1-42.5-5.3l-0.4-17.2
					h-0.7v-1.1h0.7l-0.1-3.5v-1.2h-0.5l0.1-1.4h0.5l-0.5-17.5c17.3-1.3,33.6-2.4,46.1-3L867.1,668.2z"/>
				<path class="st0" d="M823.1,576.5l4.9,185.5l37.9-6l8.4-171.8L823.1,576.5z M726.7,639.5l3,54.9l16.6-1.6l2.9-50.8L726.7,639.5
					L726.7,639.5z"/>
				<path class="st5" d="M726.7,639.5l0.1,55.2l7.4,0.3l0.8-55.1L726.7,639.5L726.7,639.5z M823.8,579.4l0-6.4l54.1,2.5l-0.3,10.1
					L823.8,579.4L823.8,579.4z M828.1,754.6l-0.4,6.4l41.2,1.9l0.3-10.1L828.1,754.6L828.1,754.6z"/>
				<g>
					<path class="st5" d="M829,722.1l-0.2-5.5l40.9,1.4l-0.2,4.9L829,722.1z M872,670.6l-0.2,5l-44.1-1l-0.1-5.4L872,670.6z
						 M874.6,618.1l-0.3,6.9l-47.9-1.2l-0.2-6.3L874.6,618.1z"/>
				</g>
				<path class="st11" d="M870.3,723.7l0-1.4l-42.2-0.3l0,1.1L870.3,723.7L870.3,723.7z M870.6,755.9l0.1-1.4l-42.1-2.6l0,1.1
					L870.6,755.9L870.6,755.9z M828.3,714.9l-0.1,1.4l42.2,1.9l0-1.1L828.3,714.9L828.3,714.9z M873.5,675.7l0-1.4l-46.6-0.4l0,1.1
					L873.5,675.7L873.5,675.7z M827.1,667.7l-0.1,1.4l46.6,0.7l0-1.1L827.1,667.7z M876.2,623.8v-1.4l-52,1.1l0.1,1.1L876.2,623.8
					L876.2,623.8z M824.5,615.3l-0.1,1.4l51.9,1.8l0-1.1L824.5,615.3L824.5,615.3z M825.4,580.6l-0.1,1.4l51.9,1.8l0-1.1
					L825.4,580.6L825.4,580.6z"/>
				<path class="st12" d="M859.7,718.7c-0.7,0-1.3,0.5-1.3,1.2c0,0.7,0.5,1.3,1.2,1.3c0.7,0,1.3-0.5,1.3-1.2c0,0,0,0,0,0
					C861,719.3,860.5,718.7,859.7,718.7z M859.7,719.1c0.5,0,0.8,0.4,0.8,0.9c0,0.5-0.4,0.8-0.9,0.8c-0.5,0-0.8-0.4-0.8-0.9
					C858.9,719.4,859.3,719.1,859.7,719.1C859.7,719.1,859.7,719.1,859.7,719.1z M849.6,718.7c-0.5-0.5-1.3-0.5-1.8,0
					c-0.5,0.5-0.5,1.3,0,1.8c0.5,0.5,1.3,0.5,1.8,0c0,0,0,0,0,0C850.1,720,850.1,719.2,849.6,718.7z M849.4,719
					c0.3,0.3,0.3,0.8,0,1.2c-0.3,0.3-0.8,0.3-1.2,0c-0.3-0.3-0.3-0.8,0-1.2c0,0,0,0,0,0C848.5,718.7,849.1,718.7,849.4,719
					L849.4,719z M838.3,718.3c-0.5-0.5-1.3-0.5-1.8,0c-0.5,0.5-0.5,1.3,0,1.8c0.5,0.5,1.3,0.5,1.8,0c0,0,0,0,0,0
					C838.8,719.6,838.8,718.8,838.3,718.3z M838.1,718.6c0.3,0.3,0.3,0.8,0,1.2c-0.3,0.3-0.8,0.3-1.2,0c-0.3-0.3-0.3-0.8,0-1.2
					c0,0,0,0,0,0C837.2,718.3,837.8,718.3,838.1,718.6L838.1,718.6z M861.3,670.8c-0.7,0-1.3,0.5-1.3,1.2c0,0.7,0.5,1.3,1.2,1.3
					c0.7,0,1.3-0.5,1.3-1.2c0,0,0,0,0,0C862.6,671.4,862,670.8,861.3,670.8z M861.4,671.1c0.5,0,0.8,0.4,0.8,0.9
					c0,0.5-0.4,0.8-0.9,0.8c-0.5,0-0.8-0.4-0.8-0.9C860.5,671.5,860.9,671.1,861.4,671.1C861.4,671.1,861.4,671.1,861.4,671.1z
					 M847.6,670.9c-0.7-0.1-1.3,0.5-1.4,1.2c-0.1,0.7,0.5,1.3,1.2,1.4s1.3-0.5,1.4-1.2c0,0,0,0,0,0
					C848.8,671.6,848.3,671,847.6,670.9z M847.6,671.3c0.5,0,0.8,0.4,0.8,0.9c0,0.5-0.4,0.8-0.9,0.8c-0.5,0-0.8-0.4-0.8-0.9
					C846.7,671.6,847.1,671.2,847.6,671.3C847.6,671.3,847.6,671.3,847.6,671.3L847.6,671.3z M863.7,619.5c-0.6-0.4-1.4-0.2-1.8,0.4
					s-0.2,1.4,0.4,1.8s1.4,0.2,1.8-0.4c0,0,0,0,0,0C864.4,620.7,864.3,619.9,863.7,619.5z M863.5,619.8c0.4,0.3,0.5,0.8,0.2,1.2
					c-0.3,0.4-0.8,0.5-1.2,0.2c-0.4-0.3-0.5-0.8-0.2-1.2c0,0,0,0,0,0C862.6,619.7,863.2,619.6,863.5,619.8z M847.6,618.9
					c-0.7-0.1-1.3,0.5-1.4,1.2c-0.1,0.7,0.5,1.3,1.2,1.4s1.3-0.5,1.4-1.2c0,0,0,0,0,0C848.8,619.6,848.3,619,847.6,618.9z
					 M847.6,619.3c0.5,0,0.8,0.4,0.8,0.9c0,0.5-0.4,0.8-0.9,0.8c-0.5,0-0.8-0.4-0.8-0.9C846.7,619.6,847.1,619.2,847.6,619.3
					C847.6,619.2,847.6,619.3,847.6,619.3L847.6,619.3z M836.5,620.1c-0.3-0.7-1-1-1.7-0.7c-0.7,0.3-1,1-0.7,1.7
					c0.3,0.7,1,1,1.7,0.7c0,0,0,0,0,0C836.5,621.5,836.8,620.7,836.5,620.1z M836.2,620.3c0.2,0.4,0,0.9-0.5,1.1
					c-0.4,0.2-0.9,0-1.1-0.5c-0.2-0.4,0-0.9,0.5-1.1c0,0,0,0,0,0C835.6,619.6,836.1,619.8,836.2,620.3L836.2,620.3z M834.4,670.9
					c-0.5-0.5-1.3-0.5-1.8,0c-0.5,0.5-0.5,1.3,0,1.8c0.5,0.5,1.3,0.5,1.8,0c0,0,0,0,0,0C834.9,672.2,834.9,671.4,834.4,670.9z
					 M834.2,671.2c0.3,0.3,0.3,0.8,0,1.2c-0.3,0.3-0.8,0.3-1.2,0c-0.3-0.3-0.3-0.8,0-1.2c0,0,0,0,0,0
					C833.4,670.8,833.9,670.8,834.2,671.2z"/>
				<path class="st11" d="M735.8,638.8l-1.4-0.1l-2.3,55.5l1.1,0L735.8,638.8L735.8,638.8z"/>
				<path class="st5" d="M740,660.4c-0.7-0.1-1.3,0.5-1.4,1.2c-0.1,0.7,0.5,1.3,1.2,1.4s1.3-0.5,1.4-1.2c0,0,0,0,0,0
					C741.2,661.1,740.7,660.5,740,660.4z M740,660.8c0.5,0,0.8,0.4,0.8,0.9c0,0.5-0.4,0.8-0.9,0.8c-0.5,0-0.8-0.4-0.8-0.9
					C739.1,661.1,739.5,660.7,740,660.8C740,660.7,740,660.8,740,660.8L740,660.8z M739.7,666.7c-0.7-0.1-1.3,0.5-1.4,1.2
					c-0.1,0.7,0.5,1.3,1.2,1.4s1.3-0.5,1.4-1.2c0,0,0,0,0,0C741,667.3,740.4,666.7,739.7,666.7z M739.7,667c0.5,0,0.8,0.4,0.8,0.9
					c0,0.5-0.4,0.8-0.9,0.8c-0.5,0-0.8-0.4-0.8-0.9C738.9,667.3,739.3,667,739.7,667C739.7,667,739.7,667,739.7,667z M739.4,672.9
					c-0.7-0.1-1.3,0.5-1.4,1.2c-0.1,0.7,0.5,1.3,1.2,1.4s1.3-0.5,1.4-1.2c0,0,0,0,0,0C740.7,673.6,740.1,673,739.4,672.9z
					 M739.4,673.3c0.5,0,0.8,0.4,0.8,0.9c0,0.5-0.4,0.8-0.9,0.8c-0.5,0-0.8-0.4-0.8-0.9C738.6,673.6,739,673.2,739.4,673.3
					C739.4,673.3,739.5,673.3,739.4,673.3L739.4,673.3z"/>
				<path class="st13" d="M688.2,641.1"/>
			</g>
		</g>
	</g>
	<path class="st37" d="M988.8,479.3c-4.6-11.9-28.4-2.8-27.1,1.4C967,479.6,988.4,489.8,988.8,479.3z"/>
	<g>
		
			<image style="overflow:visible;" width="1037" height="618" xlink:href="F16D0725.png"  transform="matrix(0.24 0 0 0.24 466.0188 552.9922)">
		</image>
	</g>
</g>
</svg>
