<?xml version="1.0" ?><!DOCTYPE svg  PUBLIC '-//W3C//DTD SVG 1.1//EN'  'http://www.w3.org/Graphics/SVG/1.1/DTD/svg11.dtd'><svg id="Layer_1" style="enable-background:new 0 0 512 512;" version="1.1" viewBox="0 0 512 512" xml:space="preserve" xmlns="http://www.w3.org/2000/svg" xmlns:xlink="http://www.w3.org/1999/xlink"><style type="text/css">
	.st0{fill:#d6ac12;}
	.st1{fill:#13262F;}
	.st2{fill:#FFFFFF;}
</style><g><g id="XMLID_167_"><path class="st0" d="M136,174v167c0,0,105,112.1,232,0V158" id="XMLID_642_"/><path class="st1" d="M269.7,411c-73.2,0-124.6-52-125.4-52.8l-3.4-2.9V165h18v181.9c19,16.1,109,90.7,217-0.4     V165h19v190.7l-2.7,3C347.9,397.9,306.4,411,269.7,411z" id="XMLID_659_"/><path class="st2" d="M35.6,237.2l231,89c0.8,0.3,1.7,0.3,2.6-0.1l216.1-102.7c3.8-1.8,3.8-9.3-0.1-11     l-216.3-94.7c-0.9-0.4-1.8-0.4-2.7,0L35.4,226.1C31.5,228,31.6,235.6,35.6,237.2z" id="XMLID_614_"/><path class="st0" d="M25.1,213.4l206.9-97l229.6,101.1L236,324.4L27.4,244C15.5,239.4,13.4,218.8,25.1,213.4z" id="XMLID_152_"/><path class="st1" d="M267.8,336.6c-1.6,0-3.3-0.3-4.8-0.9l-231-89c-5.7-2.2-9.4-7.7-9.6-14.4     c-0.2-6.7,3.2-12.7,8.7-15.3l230.9-108.4c3.5-1.6,7.5-1.7,11.1-0.1L489.3,203c5.5,2.4,8.9,8,9.1,14.5c0.1,6.6-3.2,12.4-8.7,15     L273.6,335.3C271.8,336.1,269.8,336.6,267.8,336.6z M48.5,231.2l219.1,84.4L472.8,218l-205.1-89.8L48.5,231.2z" id="XMLID_619_"/><g id="XMLID_345_"><rect class="st1" height="64" id="XMLID_618_" width="17" x="71" y="251"/></g><g id="XMLID_17_"><circle class="st1" cx="78.7" cy="319.2" id="XMLID_1651_" r="21"/></g></g></g></svg>