<svg xmlns="http://www.w3.org/2000/svg" viewBox="0 0 449 653"><defs><style>.cls-1{fill:#1d2529;}.cls-2{fill:#e0ae19;}.cls-3,.cls-4{fill:#fff;}.cls-4{font-size:400px;stroke:#e0ae19;stroke-miterlimit:10;stroke-width:10px;font-family:Minecraft, Minecraft;}</style></defs><title>Asset 9</title><g id="Layer_2" data-name="Layer 2"><g id="Layer_1-2" data-name="Layer 1"><text></text><rect class="cls-1" x="10" y="10" width="429" height="633" rx="2" ry="2"/><path class="cls-2" d="M429,20V633H20V20H429m8-20H12A12,12,0,0,0,0,12V641a12,12,0,0,0,12,12H437a12,12,0,0,0,12-12V12A12,12,0,0,0,437,0Z"/><rect class="cls-1" x="21" y="19" width="407" height="615" rx="8" ry="8"/><path class="cls-3" d="M420,23a4.05,4.05,0,0,1,4,4V626a4.05,4.05,0,0,1-4,4H29a4.05,4.05,0,0,1-4-4V27a4.05,4.05,0,0,1,4-4H420m0-8H29A12,12,0,0,0,17,27V626a12,12,0,0,0,12,12H420a12,12,0,0,0,12-12V27a12,12,0,0,0-12-12Z"/><text class="cls-4" transform="translate(120 452.42)">2</text></g></g></svg>