<?xml version="1.0" encoding="UTF-8"?>
<svg width="723.88" height="519.01" version="1.1" viewBox="0 0 723.88 519.01" xmlns="http://www.w3.org/2000/svg" xmlns:cc="http://creativecommons.org/ns#" xmlns:dc="http://purl.org/dc/elements/1.1/" xmlns:rdf="http://www.w3.org/1999/02/22-rdf-syntax-ns#" xmlns:xlink="http://www.w3.org/1999/xlink">
 <metadata>
  <rdf:RDF>
   <cc:Work rdf:about="">
    <dc:format>image/svg+xml</dc:format>
    <dc:type rdf:resource="http://purl.org/dc/dcmitype/StillImage"/>
    <dc:title/>
   </cc:Work>
  </rdf:RDF>
 </metadata>
 <g transform="translate(-34.833,-47.428)" fill-rule="evenodd" data-name="Grupo 423">
  <path d="m274.74 67.014s-2.2-9.116 5.2-13.932 47.208-6.881 41.609 34.743-18.4 77.228 5.2 87.2c0 0 2 0.9 1.149 2.666s-4.7 0.645-4.7 0.645 5.25 7.655-3.851 12.9-49.76 10.594-47.707-30.616 3.1-93.606 3.1-93.606z" fill="#802534" data-name="Caminho 165"/>
  <path d="m284.02 88.776a14.549 14.549 0 1 0-14.549-14.549 14.579 14.579 0 0 0 14.549 14.549z" fill="#2c2930" data-name="Caminho 166"/>
  <path d="m267.73 123.26c-12.157 0-22.1 17.01-22.1 37.8v20.207c0 1.16-1.526 1.8-1.526 1.8l-6.025 2.464 0.309 9.273 9.941 16.79 0.441-0.473c3.872 11.026 10.934 18.444 18.963 18.444 8.059 0 15.145-7.473 19.008-18.567l0.555 0.6 9.94-16.79 0.311-9.273-6.026-2.464s-1.526-0.635-1.526-1.8l-0.158 0.069v-20.281c-3e-3 -20.789-9.95-37.799-22.107-37.799z" fill="#e6ad83" data-name="Caminho 167"/>
  <path d="m245.87 155.4q-0.246 2.771-0.249 5.658v20.207c0 1.16-1.526 1.8-1.526 1.8l-6.025 2.464 0.309 9.273 9.941 16.79 0.441-0.473c3.46 9.851 9.466 16.822 16.431 18.2 1.982 0.025 3.864-0.026 5.622-0.122a17 17 0 0 0 7.774-4.544c-2.84-1.751-1.726-1.055-14.616-9.033-10.226-6.339-15.973-23.92-11.143-32.195a8.552 8.552 0 0 1 6.043-4.211c-0.78-4.381-8.165-16.989-13.002-23.814z" fill="#d7766d" data-name="Caminho 168"/>
  <path d="m245.62 162.32v18.9c22.385 10.615 37.8-0.044 44.209-6.178v-8.46c-6.6-3.67-21.933-3.542-36.54-4.158-2.567-0.107-5.165-0.149-7.669-0.104z" fill="#d7766d" data-name="Caminho 169"/>
  <path d="m345.04 204.67 8.5 4.744a19.441 19.441 0 0 1 5.635 8.064c2.1 5.412 31.811 100.19 31.811 100.19s4.86 19.218-5.081 35.568-45.23 60.931-45.23 60.931l-21.269-39.944 32.478-39.987s-3.317-3.645-0.223-6.295l-15.9-50.184-2.623-45.517z" fill="#5e90cc" data-name="Caminho 170"/>
  <path d="m358.88 390.73c-7.938 10.388-14.984 19.354-17.353 22.361l-2.871-2.724-12.464-23.41-1.59-12.184 10.35-18.33zm-6.991-56.494s-1.929-2.12-1.472-4.3l10.748 1.759-9.276 2.545zm-4.223-18.921-11.9-37.558-1.492-25.87 7.049-7.612z" fill="#3861a6" data-name="Caminho 171"/>
  <path d="m190.41 204.67-8.5 4.744a19.434 19.434 0 0 0-5.634 8.064c-2.1 5.412-31.811 100.19-31.811 100.19s-4.862 19.218 5.08 35.568 45.231 60.931 45.231 60.931l21.268-39.944-32.477-39.987s3.314-3.645 0.221-6.295l15.9-50.184 2.622-45.517z" fill="#5e90cc" data-name="Caminho 172"/>
  <path d="m176.58 390.73c7.937 10.388 14.983 19.354 17.35 22.361l2.872-2.724 12.466-23.41 1.589-12.184-10.352-18.33zm6.991-56.494s1.929-2.12 1.47-4.3l-10.747 1.759 9.277 2.545zm4.222-18.921 11.9-37.558 1.49-25.87-7.047-7.612z" fill="#3861a6" data-name="Caminho 173"/>
  <path d="m329.67 393.85 4.067 9.28s3.9 6.628 4.391 8.948c0.327 1.56 3.029 18.606 4.762 29.6 0.843 5.353-3.9836 129.53-3.9836 129.53l-153.04-2.2981s5.3753-120.96 6.0563-125.29c1.7-10.8 4.721-29.887 5.068-31.542 0.487-2.32 4.39-8.948 4.39-8.948l4.066-9.28 62.115 2.153z" fill="#3861a6" data-name="Caminho 174"/>
  <path d="m329.67 393.85 4.067 9.28s3.9 6.628 4.391 8.948c0.265 1.26 2.08 12.641 3.684 22.764l-151.76 20.528c0.961-6.048 1.682-10.6 1.863-11.75 1.7-10.8 4.721-29.887 5.07-31.542 0.485-2.32 4.388-8.948 4.388-8.948l4.066-9.28 62.115 2.153z" fill="#325497" data-name="Caminho 175"/>
  <path d="m211.46 387.92v5.931s30.563 5.523 56.265 5.523 56.263-5.523 56.263-5.523v-5.931l-56.263 0.628z" fill="#bf5c35" data-name="Caminho 176"/>
  <path d="m297.6 185.61 42.485 17.2-1.694 41.76c-3.423 43.7-10.208 107.97-10.208 110.66s2.518 11.045 5.51 21.1a7.287 7.287 0 0 1-2.191 6.51 40.173 40.173 0 0 1-7.512 5.079c-48.372 5.7-64.157 5.7-112.53 0a40.18 40.18 0 0 1-7.511-5.079 7.28 7.28 0 0 1-2.192-6.51c2.992-10.051 5.511-18.4 5.511-21.1s-5.9-65.2-9.325-108.9l-2.578-43.527 42.7-17.29-0.059 0.088s5.037 28.24 29.794 28.24 29.798-28.219 29.798-28.236z" fill="#fff" data-name="Caminho 177"/>
  <path d="m329.42 341.71c-0.761 7.8-1.234 12.815-1.234 13.525 0 2.691 2.518 11.047 5.51 21.1a7.273 7.273 0 0 1-2.191 6.508 40.121 40.121 0 0 1-7.512 5.081c-48.372 5.7-64.157 5.7-112.53 0a40.128 40.128 0 0 1-7.511-5.081 7.269 7.269 0 0 1-2.192-6.508c2.992-10.051 5.511-18.4 5.511-21.1s-5.9-65.2-9.325-108.9l-2.229-37.62c9.758-6.645 18.707-12.232 25.966-16.561l16.389-6.636-0.059 0.088a45.011 45.011 0 0 0 4.43 12.067c7.2 48.21 8.227 86.356 26.655 105.2 20.4 20.862 46.824 14.835 46.824 14.835s5.474 9.378 13.496 24.002z" fill="#cfd0d2" data-name="Caminho 178"/>
  <path d="m239.77 184.83s-2.8-1.426-3.8-1.094-43.687 19.773-45.565 20.933c0 0 7.25 69.614 5.945 84.127l6.868 52.291a4.281 4.281 0 0 0-0.331 5.855l-18.779 74.561a3.44 3.44 0 0 0 2.431 3.977c3.092 1.1 58.1 10.383 58.1 10.383s5.745 0 6.628-3.756 7.436-96.512 7.436-96.512l-23.968-148.73z" fill="#5e90cc" data-name="Caminho 179"/>
  <path d="m295.68 184.83s2.8-1.426 3.8-1.094 43.689 19.773 45.567 20.933c0 0-7.253 69.614-5.948 84.127l-6.866 52.291a4.281 4.281 0 0 1 0.331 5.855l18.778 74.561a3.439 3.439 0 0 1-2.431 3.977c-3.093 1.1-58.1 10.383-58.1 10.383s-5.743 0-6.627-3.756-7.438-96.512-7.438-96.512l23.971-148.73z" fill="#5e90cc" data-name="Caminho 180"/>
  <path d="m295.68 184.83s2.8-1.426 3.8-1.094c0.324 0.107 5.037 2.227 11.322 5.083l7.368 55.988-41.17 89.17 23.71-147.11z" fill="#83aede" data-name="Caminho 181"/>
  <path d="m239.77 184.83s-2.8-1.426-3.8-1.094c-0.322 0.107-5.038 2.227-11.323 5.083l-7.367 55.988 41.165 89.17-23.704-147.11z" fill="#83aede" data-name="Caminho 182"/>
  <path d="m307.52 120.01c0.288 0.04 0.57 0.09 0.85 0.151h7e-3a11.595 11.595 0 1 1-9.691 2.264c-0.319 3.42 0.2 7.659 4.56 8.113l-0.08-6.684c-0.032-2.705 2.499-3.931 4.354-3.844z" fill="#d7766d" data-name="Caminho 183"/>
  <path d="m228.25 119.46c-0.288 0.038-0.57 0.083-0.852 0.139h-8e-3a11.593 11.593 0 1 0 9.659 2.4c0.271 3.424-0.3 7.655-4.674 8.049l0.174-6.683c0.072-2.704-2.444-3.964-4.299-3.905z" fill="#d7766d" data-name="Caminho 184"/>
  <path d="m267.81 178.06c-21.637 0-39.688-26.7-39.688-47.778v-28a39.8 39.8 0 0 1 39.682-39.683h6e-3a39.8 39.8 0 0 1 39.681 39.683v27.411c0 23.098-15.745 48.367-39.681 48.367z" fill="#e6ad83" data-name="Caminho 185"/>
  <g fill="#d7766d">
   <path d="m230.46 88.909 0.012-0.036c0.105-0.038 48.6-17.231 49.629-16.055s7.362 11.636 7.362 11.636-10.9-3.388-21.65 7.805-22.386 19.741-32.254 19.59c-9.656-0.149-3.374-22.001-3.099-22.94z" data-name="Caminho 186"/>
   <path d="m296.5 137.79a6.548 6.548 0 1 0 6.667 6.426 6.544 6.544 0 0 0-6.667-6.426z" data-name="Caminho 187"/>
   <path d="m238.87 138.84a6.547 6.547 0 1 0 6.667 6.425 6.549 6.549 0 0 0-6.667-6.425z" data-name="Caminho 188"/>
  </g>
  <path d="m256.01 113.8a1.6624 1.6624 0 0 1-1.373 3.028 10.891 10.891 0 0 0-9.814 0.631 1.669 1.669 0 1 1-1.776-2.826c6.321-3.972 12.949-0.839 12.963-0.833z" fill="#2c2930" data-name="Caminho 189"/>
  <path d="m295.26 114.54a1.663 1.663 0 1 1-1.615 2.907 10.889 10.889 0 0 0-9.832-0.169 1.669 1.669 0 1 1-1.54-2.961c6.622-3.447 12.969 0.215 12.987 0.223z" fill="#2c2930" data-name="Caminho 190"/>
  <g fill="#fff">
   <path d="m257.98 149.54a11.747 11.747 0 1 0 23.494 0.214h-0.02a2.034 2.034 0 0 0-2.009-2.046l-19.4-0.177a2.036 2.036 0 0 0-2.046 2.009z" data-name="Caminho 191"/>
   <path d="m262.27 158.73a11.744 11.744 0 0 0 13.571 0.951 7.3 7.3 0 0 0-6.677-4.394 7.407 7.407 0 0 0-6.894 3.443z" data-name="Caminho 192"/>
   <path d="m278.79 147.7-18.232-0.166c-0.307 2.012 0.607 4.059 1.958 4.515 1.647 0.554 14.842 0.33 15.786-0.7 0.456-0.497 0.53-2.113 0.488-3.649z" data-name="Caminho 193"/>
  </g>
  <path d="m270.51 131.13c0.852 2.42 2.338 6.792 2.212 7.479-0.181 0.956-5.233 1.207-6.558-0.254-0.884-0.974 0.211-4.6 1.169-7.014 1.305-3.292 2.033-3.467 3.177-0.211z" fill="#f1d3c8" data-name="Caminho 194"/>
  <path d="m247.02 123.18a5.106 5.106 0 0 0-3.117 1.058 1.507 1.507 0 0 1-0.957-0.756 0.59148 0.59148 0 0 0-1.052 0.541 2.536 2.536 0 0 0 1.11 1.106l-0.044 0.055a2.743 2.743 0 0 1-1.437-0.928 0.592 0.592 0 0 0-0.921 0.743 3.852 3.852 0 0 0 1.74 1.218l-7e-3 0.01a3.671 3.671 0 0 1-1.776-0.579 0.59283 0.59283 0 0 0-0.637 1 4.749 4.749 0 0 0 1.834 0.705l0.23 0.033a5.052 5.052 0 0 0-0.082 0.917 5.119 5.119 0 1 0 5.119-5.12zm41.584 0a5.12 5.12 0 1 0 5.121 5.12 5.178 5.178 0 0 0-0.084-0.929l0.151-0.021a4.745 4.745 0 0 0 1.833-0.705 0.59283 0.59283 0 1 0-0.637-1 3.681 3.681 0 0 1-1.7 0.573l-0.013-0.029a3.821 3.821 0 0 0 1.669-1.189 0.592 0.592 0 1 0-0.921-0.743 2.755 2.755 0 0 1-1.371 0.91l-0.051-0.067a2.559 2.559 0 0 0 1.05-1.076 0.592 0.592 0 0 0-1.053-0.541 1.493 1.493 0 0 1-0.9 0.739 5.1 5.1 0 0 0-3.094-1.042z" fill="#2c2930" data-name="Caminho 195"/>
  <g fill="#accbdb">
   <path d="m297.73 137.1a0.64639 0.64639 0 0 1-1.239-0.369c0.012-0.038 9.393-15.814 14.362-15.029l-1.4 1.091c-4.952 4.45-11.714 14.268-11.723 14.307z" data-name="Caminho 196"/>
   <path d="m238.13 136.87a0.646 0.646 0 1 0 1.238-0.367c-0.011-0.038-9.495-14.331-14.464-13.546l0.765 0.326 0.607 0.411c4.948 4.454 11.844 13.142 11.854 13.176z" data-name="Caminho 197"/>
   <path d="m239.64 161.11a0.64542 0.64542 0 1 0 0.142-1.283l-0.227-0.025c-7.248-0.908-13.57-11.666-14.069-18.068-0.456-0.255-0.9-0.529-1.342-0.835 0.338 7.215 7.12 19.169 15.256 20.185z" data-name="Caminho 198"/>
   <path d="m295.86 161.11a0.64536 0.64536 0 1 1-0.141-1.283l0.226-0.025c7.248-0.908 14.9-11.666 15.394-18.068 0.455-0.255 0.9-0.529 1.345-0.835-0.34 7.215-8.448 19.169-16.583 20.185z" data-name="Caminho 199"/>
  </g>
  <path d="m267.81 134.03 29.437 1.572s1.176 0.339 1.139 1.42-1.065 21.936-1.065 21.936a6.977 6.977 0 0 1-1.218 3.5c-1.164 1.624-10.429 16.89-28.293 16.89s-27.128-15.266-28.294-16.89a6.989 6.989 0 0 1-1.218-3.5s-1.031-20.854-1.065-21.936 1.141-1.42 1.141-1.42z" fill="#fff" data-name="Caminho 200"/>
  <path d="m267.81 136.29-28.288 1.51c0.249 7.005 0.723 14.046 1.036 21.052a4.658 4.658 0 0 0 0.793 2.28c0.789 1.1 1.492 2.17 2.339 3.24a38.693 38.693 0 0 0 5.182 5.416 28.235 28.235 0 0 0 37.874 0 38.7 38.7 0 0 0 5.183-5.416c0.847-1.07 1.548-2.143 2.338-3.24a4.648 4.648 0 0 0 0.793-2.28c0.314-7.006 0.787-14.047 1.038-21.052z" fill="#d3e4ec" data-name="Caminho 201"/>
  <path d="m239.94 146.9c0.146 2.738 0.3 5.477 0.438 8.213l26.1-10.066zm0.577 11.025 0.042 0.926a4.658 4.658 0 0 0 0.793 2.28c0.789 1.1 1.492 2.17 2.339 3.24a38.693 38.693 0 0 0 5.182 5.416 28.235 28.235 0 0 0 37.874 0 38.7 38.7 0 0 0 5.183-5.416c0.847-1.07 1.548-2.143 2.338-3.24a3.8 3.8 0 0 0 0.327-0.556s-4.587 4.963-20.513 4.963-33.565-7.613-33.565-7.613zm54.635-1.03q0.146-3.01 0.315-6.025l-19.459-1.36z" fill="#accbdb" data-name="Caminho 202"/>
  <path d="m228.12 130.28s4.6-3.309 4.6-11.335c0 0 7.364-6.849 6.776-14.066s-8.729-16.806-8.729-16.806-7.325 4.58-9.976 9.589 0.735 25.627 0.735 25.627 5.005-3.686 6.594 6.991z" fill="#9c2f40" data-name="Caminho 203"/>
  <path d="m307.49 130.28s-4.6-3.309-4.6-11.335c0 0-7.365-6.849-6.776-14.066s8.73-16.806 8.73-16.806 7.323 4.58 9.976 9.589-0.739 25.627-0.739 25.627-5.003-3.686-6.591 6.991z" fill="#9c2f40" data-name="Caminho 204"/>
  <path d="m284.1 84.6-0.171-0.073a0.892 0.892 0 0 1-0.809-0.047c-7.244-4.235-13.924 1.852-21.764 9-7.922 7.222-16.979 15.475-29.192 15.931a22.48 22.48 0 0 1-3.363 0.665c-20.92 2.439-30.485-26.023-11.105-44.886 20.784-20.229 66.2-23.2 71.4 9.277 0 0 0.948 6.963-5 10.131zm-13.18-1.115c-11.28 3.216-20.489 16.273-31.73 22.874 8.225-2.594 14.934-8.705 20.96-14.2 3.763-3.434 7.275-6.636 10.767-8.676z" fill="#ba3147" data-name="Caminho 205"/>
  <path d="m275.47 79.847 0.109 0.024a0.536 0.536 0 0 0 0.411 0.263c5 0.483 6.11 5.782 7.41 12 1.315 6.285 2.818 13.47 8.589 17.975a13.764 13.764 0 0 0 1.4 1.5c9.3 8.522 23.931-1.946 21.137-17.9-3-17.113-24.012-34.488-37.928-20.538 0 0-2.9 3.047-1.127 6.672zm6.793 4.082c4.349 5.518 4.242 15.089 7.385 22.236-3.086-4.145-4.2-9.464-5.2-14.247a41.8 41.8 0 0 0-2.185-7.989z" fill="#ba3147" data-name="Caminho 206"/>
 </g>
 <g transform="translate(-15.838,-49.938)" fill-rule="evenodd" data-name="Grupo 424">
  <path d="m465.52 133.9-6.667 2.82s0.925 29.127-5.848 49.184-1.385 37.006 9.545 32.948c0 0 0.637 12.217 9.7 15.041s20.317 5.007 20.317 5.007l30.483 1.91s28.941 9.072 31.1-29.367c0 0 9.852-0.477 10.006-13.848s-13.391-35.1-13.391-62.793-85.245-0.902-85.245-0.902z" fill="#8e472a" data-name="Caminho 207"/>
  <path d="m505.64 128.44c-11.992 0-21.8 16.775-21.8 37.279v19.929c0 1.143-1.5 1.769-1.5 1.769l-5.941 2.43 0.3 9.146 9.8 16.56 0.436-0.468c3.819 10.875 10.783 18.191 18.7 18.191 7.947 0 14.935-7.372 18.744-18.313l0.55 0.59 9.8-16.56 0.3-9.146-5.944-2.43s-1.5-0.626-1.5-1.769l-0.157 0.067v-20c0.012-20.5-9.798-37.275-21.788-37.275z" fill="#e6ad83" data-name="Caminho 208"/>
  <path d="m483.84 182.2v3.451c0 1.143-1.5 1.769-1.5 1.769l-5.941 2.43 0.3 9.146 9.8 16.56 0.436-0.468a34.707 34.707 0 0 0 7.858 13.216c13.3 0.789 23.76-2.512 16.147-5.011-14.63-4.8-24.46-16-24-25.6s4.114-10.518 17.833-9.831a72.132 72.132 0 0 0-20.933-5.662z" fill="#d7766d" data-name="Caminho 209"/>
  <path d="m483.84 166.97v18.64c22.076 10.467 37.279-0.045 43.6-6.093v-8.344c-6.505-3.62-21.633-3.493-36.039-4.1-2.529-0.108-5.097-0.149-7.561-0.103z" fill="#d7766d" data-name="Caminho 210"/>
  <path d="m581.89 208.74 8.385 4.679a19.164 19.164 0 0 1 5.558 7.953c2.067 5.339 31.373 98.808 31.373 98.808s4.792 18.956-5.01 35.08-44.608 60.091-44.608 60.091l-20.977-39.392 32.03-39.437s-3.27-3.6-0.218-6.209l-15.68-49.493-2.586-44.889z" fill="#ff8743" data-name="Caminho 211"/>
  <path d="m595.53 392.24c-7.828 10.243-14.775 19.088-17.113 22.053l-2.83-2.687-12.291-23.089-1.571-12.012 10.208-18.077 23.6 33.816zm-6.894-55.717s-1.9-2.092-1.45-4.245l10.6 1.735-9.148 2.51zm-4.163-18.661-11.735-37.041-1.471-25.516 6.952-7.507z" fill="#e57333" data-name="Caminho 212"/>
  <path d="m429.39 208.74-8.389 4.679a19.185 19.185 0 0 0-5.555 7.953c-2.071 5.339-31.373 98.808-31.373 98.808s-4.795 18.956 5.01 35.08 44.608 60.091 44.608 60.091l20.974-39.392-32.029-39.437s3.268-3.6 0.218-6.209l15.678-49.493 2.588-44.889z" fill="#ff8743" data-name="Caminho 213"/>
  <path d="m415.74 392.24c7.827 10.243 14.778 19.088 17.113 22.053l2.831-2.687 12.293-23.089 1.568-12.016-10.209-18.077-23.6 33.816zm6.9-55.717s1.9-2.092 1.451-4.245l-10.6 1.735zm4.163-18.661 11.733-37.041 1.464-25.516-6.952-7.507z" fill="#e57333" data-name="Caminho 214"/>
  <path d="m561.12 395.32 3.635 9.152s3.486 6.535 3.922 8.824c0.292 1.54 2.707 18.35 4.255 29.2 0.752 5.277 8.4596 129.33 8.4596 129.33l-141.18-2.1762s-2.7628-120.97-2.1558-125.24c1.518-10.65 4.217-29.476 4.527-31.107 0.435-2.289 3.924-8.824 3.924-8.824l3.629-9.152 55.492 2.122z" fill="#9e9e9e" data-name="Caminho 215"/>
  <path d="m561.13 395.32 3.631 9.152s3.486 6.535 3.922 8.824c0.235 1.234 1.833 12.284 3.254 22.206l-135.49 20.214c0.838-5.826 1.467-10.191 1.625-11.313 1.518-10.65 4.217-29.476 4.527-31.107 0.435-2.289 3.924-8.824 3.924-8.824l3.629-9.152 55.492 2.122z" fill="#707070" data-name="Caminho 216"/>
  <path d="m535.1 189.94 41.9 16.963-1.67 41.183c-3.378 43.1-10.069 106.49-10.069 109.14s2.486 10.895 5.436 20.807a7.187 7.187 0 0 1-2.162 6.419 39.52 39.52 0 0 1-7.411 5.011c-47.7 5.62-63.271 5.62-110.98 0a39.517 39.517 0 0 1-7.407-5.011 7.172 7.172 0 0 1-2.161-6.419c2.949-9.913 5.435-18.153 5.435-20.807s-5.82-64.3-9.2-107.4l-2.542-42.925 42.12-17.054-0.062 0.088s4.971 27.85 29.388 27.85 29.383-27.831 29.383-27.847z" fill="#fff" data-name="Caminho 217"/>
  <path d="m566.54 343.22c-0.787 8.07-1.282 13.287-1.282 14.007 0 2.654 2.486 10.895 5.436 20.807a7.186 7.186 0 0 1-2.162 6.418 39.52 39.52 0 0 1-7.411 5.011c-47.7 5.62-63.271 5.62-110.98 0a39.517 39.517 0 0 1-7.407-5.011 7.171 7.171 0 0 1-2.161-6.418c2.949-9.913 5.435-18.153 5.435-20.807s-5.82-64.3-9.2-107.4l-2.179-36.82c10.2-6.961 19.523-12.761 26.938-17.162l14.817-6-0.062 0.088a44.625 44.625 0 0 0 4.959 12.951c6.963 47.051 8.093 84.253 26.133 102.7 20.116 20.575 46.18 14.631 46.18 14.631s5.23 8.96 12.944 23.005z" fill="#cfd0d2" data-name="Caminho 218"/>
  <path d="m478.07 189.17s-2.763-1.406-3.745-1.079-43.087 19.5-44.936 20.646c0 0 7.149 68.655 5.861 82.969l6.773 51.572a4.223 4.223 0 0 0-0.326 5.774l-18.52 73.535a3.389 3.389 0 0 0 2.4 3.92c3.053 1.091 57.3 10.242 57.3 10.242s5.665 0 6.535-3.7 7.335-95.184 7.335-95.184l-23.638-146.69z" fill="#ff8743" data-name="Caminho 219"/>
  <path d="m533.2 189.17s2.764-1.406 3.744-1.079 43.088 19.5 44.941 20.646c0 0-7.153 68.655-5.866 82.969l-6.773 51.572a4.22 4.22 0 0 1 0.327 5.774l18.52 73.535a3.389 3.389 0 0 1-2.4 3.92c-3.049 1.091-57.3 10.242-57.3 10.242s-5.664 0-6.535-3.7-7.333-95.184-7.333-95.184l23.639-146.68z" fill="#ff8743" data-name="Caminho 220"/>
  <path d="m533.2 189.17s2.764-1.406 3.744-1.079c0.321 0.107 4.968 2.2 11.167 5.013l7.267 55.219-40.6 87.942 23.384-145.09z" fill="#e57333" data-name="Caminho 221"/>
  <path d="m478.07 189.17s-2.763-1.406-3.745-1.079c-0.316 0.107-4.968 2.2-11.166 5.013l-7.267 55.219 40.6 87.942-23.383-145.09z" fill="#e57333" data-name="Caminho 222"/>
  <path d="m544.89 125.24c0.281 0.04 0.561 0.089 0.836 0.149h7e-3a11.436 11.436 0 1 1-9.556 2.233c-0.315 3.373 0.193 7.553 4.5 8l-0.079-6.592c-0.035-2.667 2.463-3.876 4.292-3.79z" fill="#d7766d" data-name="Caminho 223"/>
  <path d="m466.71 124.7c-0.284 0.036-0.561 0.081-0.838 0.137h-9e-3a11.434 11.434 0 1 0 9.526 2.364c0.267 3.378-0.3 7.551-4.61 7.939l0.171-6.591c0.071-2.668-2.41-3.912-4.24-3.849z" fill="#d7766d" data-name="Caminho 224"/>
  <path d="m505.72 182.49c-21.339 0-39.143-26.331-39.143-47.12v-27.618a39.255 39.255 0 0 1 39.138-39.137 39.252 39.252 0 0 1 39.134 39.137v27.033c5e-3 22.783-15.523 47.705-39.129 47.705z" fill="#e6ad83" data-name="Caminho 225"/>
  <path d="m538.22 111.62-67.107 2.832 0.435-10.023 31.594-6.537 21.354-9.368z" fill="#dc8b78" data-name="Caminho 226"/>
  <path d="m534.02 142.78a6.458 6.458 0 1 0 6.577 6.338 6.459 6.459 0 0 0-6.577-6.338z" fill="#d7766d" data-name="Caminho 227"/>
  <path d="m477.18 143.81a6.458 6.458 0 1 0 6.575 6.337 6.456 6.456 0 0 0-6.575-6.337z" fill="#d7766d" data-name="Caminho 228"/>
  <path d="m494.09 119.12a1.64 1.64 0 0 1-1.355 2.986 10.741 10.741 0 0 0-9.678 0.622 1.6461 1.6461 0 0 1-1.754-2.786c6.233-3.92 12.769-0.83 12.787-0.822z" fill="#2c2930" data-name="Caminho 229"/>
  <path d="m532.79 119.85a1.64 1.64 0 1 1-1.592 2.867 10.734 10.734 0 0 0-9.7-0.167 1.646 1.646 0 0 1-1.519-2.92c6.537-3.4 12.797 0.21 12.811 0.22z" fill="#2c2930" data-name="Caminho 230"/>
  <g fill="#fff">
   <path d="m496.02 154.36a11.586 11.586 0 1 0 23.171 0.21h-0.02a2 2 0 0 0-1.981-2.018l-19.132-0.174a2.008 2.008 0 0 0-2.018 1.983z" data-name="Caminho 231"/>
   <path d="m500.26 163.42a11.585 11.585 0 0 0 13.385 0.938 7.208 7.208 0 0 0-6.585-4.333 7.3 7.3 0 0 0-6.8 3.395z" data-name="Caminho 232"/>
   <path d="m516.55 152.55-17.98-0.163c-0.3 1.985 0.6 4 1.934 4.452 1.623 0.547 14.638 0.327 15.566-0.691 0.451-0.491 0.526-2.083 0.48-3.598z" data-name="Caminho 233"/>
  </g>
  <path d="m508.38 136.21c0.839 2.387 2.305 6.7 2.178 7.375-0.175 0.944-5.158 1.192-6.466-0.25-0.871-0.958 0.209-4.536 1.154-6.918 1.288-3.245 2.004-3.415 3.134-0.207z" fill="#f1d3c8" data-name="Caminho 234"/>
  <path d="m485.21 128.37a5.035 5.035 0 0 0-3.076 1.043 1.494 1.494 0 0 1-0.944-0.744 0.583 0.583 0 1 0-1.038 0.531 2.533 2.533 0 0 0 1.093 1.093l-0.042 0.054a2.7 2.7 0 0 1-1.417-0.916 0.584 0.584 0 0 0-0.909 0.733 3.793 3.793 0 0 0 1.717 1.2l-8e-3 9e-3a3.621 3.621 0 0 1-1.753-0.572 0.584 0.584 0 1 0-0.627 0.985 4.679 4.679 0 0 0 1.808 0.7l0.224 0.032a5.307 5.307 0 0 0-0.079 0.9 5.051 5.051 0 1 0 5.051-5.049zm41.012 0a5.033 5.033 0 1 0 4.965 4.134l0.149-0.022a4.675 4.675 0 0 0 1.81-0.7 0.58408 0.58408 0 0 0-0.628-0.985 3.62 3.62 0 0 1-1.682 0.567l-0.012-0.029a3.791 3.791 0 0 0 1.652-1.176 0.58425 0.58425 0 0 0-0.91-0.733 2.7 2.7 0 0 1-1.351 0.9l-0.053-0.066a2.5 2.5 0 0 0 1.035-1.057 0.583 0.583 0 1 0-1.037-0.531 1.48 1.48 0 0 1-0.887 0.727 5.022 5.022 0 0 0-3.051-1.029z" fill="#2c2930" data-name="Caminho 235"/>
  <g fill="#accbdb">
   <path d="m535.23 142.09a0.637 0.637 0 0 1-1.221-0.363c0.01-0.039 9.262-15.6 14.163-14.824l-1.383 1.076c-4.878 4.394-11.55 14.075-11.559 14.111z" data-name="Caminho 236"/>
   <path d="m476.45 141.87a0.63849 0.63849 0 0 0 1.224-0.364c-0.013-0.038-9.366-14.133-14.268-13.359l0.756 0.322 0.6 0.4c4.879 4.397 11.678 12.965 11.688 13.001z" data-name="Caminho 237"/>
   <path d="m477.93 165.78a0.63625 0.63625 0 1 0 0.138-1.265l-0.221-0.023c-7.151-0.9-13.384-11.506-13.877-17.82-0.449-0.252-0.884-0.523-1.323-0.823 0.332 7.116 7.021 18.9 15.045 19.906z" data-name="Caminho 238"/>
   <path d="m533.38 165.78a0.63647 0.63647 0 1 1-0.142-1.265l0.226-0.023c7.146-0.9 14.69-11.506 15.18-17.82 0.452-0.252 0.887-0.523 1.327-0.823-0.335 7.116-8.33 18.9-16.354 19.906z" data-name="Caminho 239"/>
  </g>
  <path d="m505.72 139.06 29.029 1.55s1.159 0.335 1.126 1.4-1.051 21.634-1.051 21.634a6.866 6.866 0 0 1-1.2 3.451c-1.149 1.6-10.285 16.657-27.9 16.657s-26.759-15.056-27.91-16.656a6.875 6.875 0 0 1-1.2-3.451s-1.018-20.568-1.053-21.634 1.125-1.4 1.125-1.4z" fill="#fff" data-name="Caminho 240"/>
  <path d="m505.72 141.3-27.9 1.49c0.245 6.908 0.714 13.852 1.02 20.762a4.612 4.612 0 0 0 0.783 2.249c0.778 1.08 1.472 2.14 2.309 3.2a38.285 38.285 0 0 0 5.109 5.341 27.853 27.853 0 0 0 37.354 0 38.4 38.4 0 0 0 5.109-5.341c0.837-1.056 1.53-2.116 2.308-3.2a4.612 4.612 0 0 0 0.783-2.249c0.306-6.91 0.775-13.854 1.02-20.762z" fill="#d3e4ec" data-name="Caminho 241"/>
  <path d="m478.23 151.76c0.143 2.7 0.294 5.4 0.433 8.1l25.735-9.929-26.168 1.828zm0.57 10.873 0.039 0.914a4.612 4.612 0 0 0 0.783 2.249c0.778 1.08 1.472 2.14 2.309 3.2a38.285 38.285 0 0 0 5.109 5.341 27.853 27.853 0 0 0 37.354 0 38.4 38.4 0 0 0 5.109-5.341c0.837-1.056 1.53-2.116 2.308-3.2a3.665 3.665 0 0 0 0.322-0.55s-4.522 4.9-20.231 4.9-33.1-7.509-33.1-7.509zm53.883-1.015q0.144-2.97 0.309-5.943l-19.193-1.341z" fill="#accbdb" data-name="Caminho 242"/>
  <g fill="#bf5c35">
   <path d="m468.67 148.76s0.389-14.4 0.389-22.537c0 0 7.687-6.944 7.071-14.26s-9.111-17.039-9.111-17.039-7.646 4.645-10.413 9.722c-4.843 8.887 5.469 33.518 12.064 44.114z" data-name="Caminho 243"/>
   <path d="m543.54 147.71s-0.55-13.347-1.236-21.485c0 0-7.687-6.944-7.073-14.26s9.114-17.039 9.114-17.039 7.642 4.645 10.411 9.722c7.284 13.365-7.221 33.049-11.216 43.062z" data-name="Caminho 244"/>
   <path d="m455.48 111.46c-2.128-40.107 33.644-68.594 62.773-58.049 5.582 2.019 11.335 12.311 11.335 12.311s3.772-6.474 12.526-2.441c8.256 3.8 16.986 30.153 14.933 50.529l-25.581-2.35h-9.463c-0.914 0-1.8-1.071-2-2.118s-0.812-8-1.015-9.649-0.711-2.482-1.015-2.041-0.508 6.175-1.016 9.87c-0.5 3.636-2.771 3.93-2.842 3.938z" data-name="Caminho 245"/>
  </g>
 </g>
 <rect x="116.61" y="337.38" width="174.48" height="7.05" fill-opacity="0" stop-color="#000000" style="font-variation-settings:normal"/>
</svg>
