<?xml version="1.0" encoding="UTF-8"?>
<svg width="723.88" height="519.01" version="1.1" viewBox="0 0 723.88 519.01" xmlns="http://www.w3.org/2000/svg" xmlns:cc="http://creativecommons.org/ns#" xmlns:dc="http://purl.org/dc/elements/1.1/" xmlns:rdf="http://www.w3.org/1999/02/22-rdf-syntax-ns#" xmlns:xlink="http://www.w3.org/1999/xlink">
 <metadata>
  <rdf:RDF>
   <cc:Work rdf:about="">
    <dc:format>image/svg+xml</dc:format>
    <dc:type rdf:resource="http://purl.org/dc/dcmitype/StillImage"/>
    <dc:title/>
   </cc:Work>
  </rdf:RDF>
 </metadata>
 <g fill-rule="evenodd">
  <g transform="translate(-13.503,18.8)" data-name="Grupo 431">
   <path d="m672.72 446.92 5.552-0.68 21.448-59.652-9.125-54.609 33.371-10.877 10.182 65.773s1.6 12.628-3.836 20.786-41.7 54.609-41.7 54.609-4.982 10.2-12.462 10.2-3.43-25.55-3.43-25.55z" fill="#d7766d" data-name="Caminho 246"/>
   <path d="m693.81 351.19-3.21-19.211 32.922-10.732 0.718 1.6 1.048 6.768z" fill="#d7766d" data-name="Caminho 247"/>
   <path d="m688.02 245.49s13.056 5.77 16 10.3c1.612 2.481 9.579 22.258 16.463 39.653 15.54 28.154 20.659 98.251 12.852 110.01l-38.516 58.011-15.214-21.872s18.068-50.4 18.068-55.158c0-19.859-3.519-32.48-9.4-49.125-0.676-1.927-22.994-60.843-0.253-91.819z" fill="#5e90cc" data-name="Caminho 248"/>
   <path d="m690.4 342.78c-3.346-5.9-15.015-35.283-15.224-38.835l12.572-32.935z" fill="#3861a6" data-name="Caminho 249"/>
   <path d="m558.2 444.54-10.3-1.631-20.024-56.323 9.124-54.609-33.372-10.877-10.183 65.773s-1.6 12.628 3.836 20.786 41.693 54.609 41.693 54.609 4.985 10.2 12.463 10.2 6.763-27.928 6.763-27.928z" fill="#d7766d" data-name="Caminho 250"/>
   <path d="m539.58 245.49s-13.054 5.77-16 10.3c-21.166 32.568-30.261 76.165-32.93 116.18-2.55 38.234 17.333 57.372 45.111 92.678l14.027-23.063s-20.922-48.976-20.922-53.731c-2e-3 -44.797 37.55-105.82 10.714-142.37z" fill="#5e90cc" data-name="Caminho 251"/>
   <path d="m538.09 343.97c2.928-0.623 11.33-51.751 11.478-54.289l-9.245-18.193z" fill="#3861a6" data-name="Caminho 252"/>
   <path d="m556.09 441.43-3.779 9.518s-3.626 6.8-4.079 9.177-5.778 39.871-5.778 39.871h142.69s-5.327-37.492-5.781-39.871-4.076-9.177-4.076-9.177l-3.779-9.518v-6.082l-57.706 0.648-57.707-0.645z" fill="#ff4b5a" data-name="Caminho 253"/>
   <path d="m556.09 441.43-3.779 9.518s-3.626 6.8-4.079 9.177c-0.094 0.492-0.4 2.491-0.818 5.347l125.04-21.649-0.951-2.393v-6.082l-57.706 0.648-57.707-0.645z" fill="#bf3642" data-name="Caminho 254"/>
   <path d="m613.43 163.89c12.468 0 22.671 17.445 22.671 38.768v31.49c0 21.323-10.2 38.769-22.671 38.769-12.47 0-22.67-17.446-22.67-38.769v-31.49c0-21.323 10.2-38.768 22.67-38.768z" fill="#d7766d" data-name="Caminho 255"/>
   <path d="m619.38 243.44-3.078 0.2-3.093 11.287-2.505-10.922-2.483-0.561-21.638-16.978-47 19.031c-3.129 60.342 12.211 107.43 12.211 156.33 0 2.76-2.582 11.329-5.651 21.638a7.472 7.472 0 0 0 2.249 6.675 41.117 41.117 0 0 0 7.706 5.213c49.611 5.843 65.8 5.843 115.41 0a41.063 41.063 0 0 0 7.7-5.213 7.461 7.461 0 0 0 2.25-6.675c-3.069-10.309-5.652-18.878-5.652-21.638 0-48.9 15.339-95.991 12.207-156.34l-47-19.031z" fill="#5e90cc" data-name="Caminho 256"/>
   <path d="m618.5 255.26 1.014 5.4 10.248 133.61-16.332 34.718-16.33-34.721 10.248-133.61 1.011-5.4 5.066 3.282z" fill="#cf4a60" data-name="Caminho 257"/>
   <path d="m618.5 255.26 1.014 5.4 10.248 133.61-16.332 34.72s9.59-29.9 9.97-34.537-5.77-132.06-7.578-133.25-5.4-1.073-5.4-1.073l2.3-2.047 0.708 0.459z" fill="#ba3147" data-name="Caminho 258"/>
   <path d="m607.35 260.65-4.788-10.5c4.139-3.893 17.594-3.893 21.733 0l-4.787 10.5a27.923 27.923 0 0 0-12.158 0z" fill="#cf4a60" data-name="Caminho 259"/>
   <path d="m613.54 247.24c4.361 0.015 8.705 0.988 10.759 2.918l-4.787 10.5c-1.3-0.345-5.822-0.318-7.495-0.4 0.9-0.726 4.22-2.362 4.272-2.674s0.758-8.946 0.377-9.1z" fill="#ba3147" data-name="Caminho 260"/>
   <path d="m636.1 220.14a7.629 7.629 0 0 1 2.629 0c0.674 0.293 2.965 7.55 4.381 9.544a4.785 4.785 0 0 1 0.339 4.4c-0.945 2.756-13.283 25.4-13.283 25.4s-0.877 1.2-2.294 0.029-12.17-15.631-12.17-15.631l20.4-21.919z" fill="#3861a6" data-name="Caminho 261"/>
   <path d="m590.76 218.42a7.664 7.664 0 0 0-2.63 0c-0.675 0.293-2.967 9.274-4.385 11.268a4.791 4.791 0 0 0-0.336 4.4c0.944 2.756 13.284 25.4 13.284 25.4s0.876 1.2 2.29 0.029 12.173-15.631 12.173-15.631l-20.4-23.644z" fill="#3861a6" data-name="Caminho 262"/>
   <g fill="#d77f68" data-name="Grupo 425">
    <path d="m654.59 157.44c0.307 0.044 0.607 0.1 0.907 0.16h7e-3a12.359 12.359 0 1 1-10.329 2.412c-0.339 3.645 0.208 8.164 4.86 8.648l-0.086-7.125c-0.035-2.881 2.665-4.189 4.641-4.095z" data-name="Caminho 263"/>
    <path d="m573.17 157.43c-0.307 0.04-0.609 0.088-0.906 0.149h-0.01a12.354 12.354 0 1 0 10.3 2.555c0.288 3.651-0.326 8.161-4.984 8.58l0.187-7.122c0.071-2.882-2.608-4.228-4.587-4.162z" data-name="Caminho 264"/>
   </g>
   <path d="m613.8 219.31c-23.065 0-42.3-28.46-42.3-50.93v-29.849a42.427 42.427 0 0 1 42.3-42.3h8e-3a42.429 42.429 0 0 1 42.3 42.3v29.217c-8e-3 24.625-16.79 51.562-42.308 51.562z" fill="#e6ad83" data-name="Caminho 265"/>
   <path d="m571.51 136.62a41.968 41.968 0 0 1 6.208-21.184 23.589 23.589 0 0 1 4.293-1.78c1.119 0 63.673 4.985 59.82 16.766 0 0-29.911 22.66-62.54 9.97a46.422 46.422 0 0 1-7.781-3.772z" fill="#d7766d" data-name="Caminho 266"/>
   <g fill="#d7766d" data-name="Grupo 426">
    <path d="m642.84 167.28a7.131 7.131 0 1 0 7.262 7 7.133 7.133 0 0 0-7.262-7z" data-name="Caminho 267"/>
    <path d="m584.49 168.42a7.131 7.131 0 1 0 7.263 7 7.131 7.131 0 0 0-7.263-7z" data-name="Caminho 268"/>
   </g>
   <g fill="#2c2930" data-name="Grupo 427">
    <path d="m599.75 147.66a1.7722 1.7722 0 0 1-1.464 3.228 11.609 11.609 0 0 0-10.461 0.673 1.779 1.779 0 0 1-1.894-3.012c6.736-4.238 13.799-0.898 13.819-0.889z" data-name="Caminho 269"/>
    <path d="m641.58 148.45a1.7731 1.7731 0 0 1-1.722 3.1 11.61 11.61 0 0 0-10.48-0.181 1.778 1.778 0 1 1-1.642-3.154c7.06-3.678 13.824 0.223 13.844 0.235z" data-name="Caminho 270"/>
   </g>
   <path d="m614.94 169.34c0.788 2.141 2.167 6.017 2.048 6.668-0.166 0.909-4.849 1.749-6.079 0.553-0.82-0.795 0.2-4.291 1.084-6.644 1.209-3.208 1.885-3.459 2.947-0.577z" fill="#ebbf9e" data-name="Caminho 271"/>
   <g data-name="Grupo 428">
    <path d="m622.69 186.25a8.889 8.889 0 1 1-17.777 0 1.639 1.639 0 0 1 1.636-1.636h14.505a1.639 1.639 0 0 1 1.636 1.636z" fill="#12151d" data-name="Caminho 272"/>
    <path d="m607.44 184.61h12.716v1.5a1.43 1.43 0 0 1-1.425 1.424h-9.866a1.43 1.43 0 0 1-1.425-1.424z" fill="#fff" data-name="Caminho 273"/>
    <path d="m620.24 192.37a8.886 8.886 0 0 1-12.883 0 8.884 8.884 0 0 1 12.883 0z" fill="#d26070" data-name="Caminho 274"/>
   </g>
   <g fill="#2c2930" data-name="Grupo 429">
    <path d="m593.11 166.28a5.1 5.1 0 1 0-5.093-5.1 5.107 5.107 0 0 0 5.093 5.1z" data-name="Caminho 275"/>
    <path d="m634.49 166.28a5.1 5.1 0 1 0-5.1-5.1 5.1 5.1 0 0 0 5.1 5.1z" data-name="Caminho 276"/>
   </g>
   <g fill="#accbdb">
    <path d="m646.65 175.62a0.643 0.643 0 1 1-1.231-0.369c0.013-0.036 3.252-11.021 8.818-15.59l0.338 1.361c-4.924 4.433-7.912 14.561-7.925 14.598z" data-name="Caminho 277"/>
    <path d="m645.08 201.06a0.64238 0.64238 0 0 1-0.141-1.277l0.228-0.024c3.834-0.481 6.972-4.016 9.082-8.3a29.2 29.2 0 0 0 2.88-10.18 12.49 12.49 0 0 0 1.32-0.573 30.163 30.163 0 0 1-3.049 11.323c-2.28 4.628-5.748 8.461-10.08 9z" data-name="Caminho 278"/>
    <path d="m580.95 175.62a0.64447 0.64447 0 0 0 1.235-0.369c-0.013-0.036-3.253-11.021-8.82-15.59l-0.337 1.361c4.923 4.433 7.913 14.561 7.922 14.598z" data-name="Caminho 279"/>
    <path d="m582.52 201.06a0.64233 0.64233 0 1 0 0.14-1.277l-0.224-0.024c-3.834-0.481-6.974-4.016-9.082-8.3a29.227 29.227 0 0 1-2.883-10.18 12.551 12.551 0 0 1-1.318-0.573 30.163 30.163 0 0 0 3.049 11.323c2.281 4.628 5.745 8.461 10.077 9z" data-name="Caminho 280"/>
   </g>
   <g data-name="Grupo 430">
    <path d="m613.8 170.7 32.949 1.759s1.317 0.38 1.277 1.589-1.194 24.555-1.194 24.555a7.829 7.829 0 0 1-1.361 3.918c-1.306 1.816-11.675 18.9-31.671 18.9s-30.368-17.089-31.673-18.9a7.8 7.8 0 0 1-1.359-3.918s-1.155-23.344-1.2-24.555 1.279-1.589 1.279-1.589z" fill="#fff" data-name="Caminho 281"/>
    <path d="m613.8 173.24-31.663 1.691c0.277 7.842 0.807 15.723 1.159 23.565a5.2 5.2 0 0 0 0.887 2.552c0.883 1.228 1.67 2.429 2.62 3.628a43.32 43.32 0 0 0 5.8 6.06 31.605 31.605 0 0 0 42.4 0 43.337 43.337 0 0 0 5.8-6.06c0.948-1.2 1.735-2.4 2.617-3.628a5.215 5.215 0 0 0 0.89-2.552c0.348-7.842 0.881-15.723 1.159-23.565z" fill="#d3e4ec" data-name="Caminho 282"/>
    <path d="m582.6 185.12c0.164 3.063 0.334 6.13 0.49 9.192l29.212-11.268-29.7 2.076zm0.646 12.339 0.048 1.038a5.2 5.2 0 0 0 0.887 2.552c0.883 1.228 1.67 2.429 2.62 3.628a43.32 43.32 0 0 0 5.8 6.06 31.605 31.605 0 0 0 42.4 0 43.337 43.337 0 0 0 5.8-6.06c0.948-1.2 1.735-2.4 2.617-3.628a4.267 4.267 0 0 0 0.367-0.623s-5.134 5.556-22.96 5.556-37.573-8.523-37.573-8.523zm61.157-1.152q0.164-3.37 0.352-6.745l-21.775-1.521z" fill="#accbdb" data-name="Caminho 283"/>
   </g>
   <path d="m583.13 142.42c-0.414 7.445-2.368 12.944-7.43 12.944v7.127c0 3.983-0.388 8.013-4.151 8.013 0-8.571-2.61-11.939-2.61-11.939v-21.491c0-10.024 2.819-23.492 15.974-32.734a51.009 51.009 0 0 1 57.776 0c13.158 9.242 15.977 22.71 15.977 32.734v21.491s-2.613 3.368-2.613 11.939c-3.762 0-4.149-4.03-4.149-8.013v-7.127c-5.144 0-7.078-5.672-7.449-13.295v-30.946h-61.325z" fill="#802534" data-name="Caminho 284"/>
   <path d="m652.08 123.69c-4.73 27.11-20.259 18.044-11.955 6.8-67.795 39.274-99.36-44.522-61.164-25.517 19.327-24.022 64.036-30.991 68.489-2.642 7.871-18.867 23.714 12.566 4.63 21.359z" fill="#802534" data-name="Caminho 285"/>
  </g>
  <g transform="translate(280.62 -479.97)">
   <path d="m-68.4 738.88 9.026 5.035a20.62 20.62 0 0 1 5.98 8.559c2.228 5.745 33.768 106.34 33.768 106.34s5.159 20.4-5.392 37.756-48.008 64.674-48.008 64.674l-22.575-42.4c4.362-5.37 33.178-48.219 34.238-49.128l-16.875-53.266-2.788-48.313z" fill="#ff4b5a" data-name="Caminho 286"/>
   <path d="m-53.711 936.37c-8.426 11.025-15.9 20.544-18.419 23.734l-3.047-2.89-13.232-24.85-1.686-12.934 10.986-19.455 25.4 36.4zm-11.9-80.051-12.629-39.865-1.586-27.459 7.482-8.08z" fill="#bf3642" data-name="Caminho 287"/>
   <path d="m-232.53 738.88-9.026 5.035a20.63 20.63 0 0 0-5.98 8.559c-2.227 5.745-33.766 106.34-33.766 106.34s-5.16 20.4 5.393 37.756 48.01 64.674 48.01 64.674l22.574-42.4c-4.36-5.37-33.177-48.219-34.237-49.128l16.876-53.266 2.783-48.316z" fill="#ff4b5a" data-name="Caminho 288"/>
   <path d="m-247.22 936.37c8.426 11.025 15.9 20.544 18.418 23.734l3.047-2.89 13.229-24.85 1.688-12.934-10.988-19.455-25.4 36.4zm11.9-80.051 12.631-39.865 1.583-27.459-7.481-8.08z" fill="#bf3642" data-name="Caminho 289"/>
   <path d="m-90.744 939.69 3.908 9.851s3.752 7.034 4.221 9.5 5.981 41.259 5.981 41.259h-147.66s5.51-38.8 5.981-41.261 4.22-9.5 4.22-9.5l3.909-9.851 59.721 2.285z" fill="#7a6e91" data-name="Caminho 290"/>
   <path d="m-90.744 939.69 3.908 9.851s3.752 7.034 4.221 9.5c0.242 1.269 1.827 12.213 3.3 22.51l-40.809 1.743-7.966-29.98-40.1 10.554-6.116 20.385-48.407 4.9c1.667-11.667 4.088-28.515 4.393-30.109 0.467-2.464 4.22-9.5 4.22-9.5l2.2-5.542c2.372-1.29 5.03-2.712 7.669-4.081l53.762 2.057z" fill="#564d7b" data-name="Caminho 291"/>
   <path d="m-210.19 933.4v6.294s32.441 5.863 59.721 5.863 59.723-5.863 59.723-5.863v-6.294l-59.723 0.666z" fill="#36306a" data-name="Caminho 292"/>
   <path d="m-150.08 652.46c-12.9 0-23.464 18.055-23.464 40.122v32.589c0 22.067 10.559 40.121 23.464 40.121 12.9 0 23.463-18.054 23.463-40.121v-32.589c-4e-3 -22.067-10.558-40.122-23.463-40.122z" fill="#d7766d" data-name="Caminho 293"/>
   <path d="m-156.24 734.78 3.8 0.456 1.971 1.348 1.973-1.348 3.8-0.456 22.4-17.57 48.637 19.693-1.8 44.326c-3.633 46.383-10.836 114.61-10.836 117.47s2.675 11.725 5.85 22.392a7.72 7.72 0 0 1-2.328 6.908 42.631 42.631 0 0 1-7.972 5.394c-51.344 6.048-68.1 6.048-119.44 0a42.624 42.624 0 0 1-7.973-5.394 7.721 7.721 0 0 1-2.327-6.908c3.174-10.667 5.848-19.537 5.848-22.392s-6.264-69.21-9.9-115.59l-2.736-46.2 48.637-19.693z" fill="#7a6e91" data-name="Caminho 294"/>
   <path d="m-155.33 747.02-1.046 5.586-10.611 138.27 16.9 35.933 16.9-35.933-10.612-138.27-1.047-5.586-5.243 3.4z" fill="#cf4a60" data-name="Caminho 295"/>
   <path d="m-155.33 747.02-1.05 5.583-10.607 138.27 16.9 35.932s-9.924-30.946-10.318-35.742 5.975-136.66 7.839-137.89 5.59-1.111 5.59-1.111l-2.38-2.119-0.733 0.476z" fill="#ba3147" data-name="Caminho 296"/>
   <path d="m-145.46 735.57-2.275-0.332a1.884 1.884 0 0 0-0.516 1.131c-0.064 0.714-0.113 2.813-0.113 2.813l1.738 0.542a29.8 29.8 0 0 0 3.413-0.044c-0.033-0.129-2.247-4.11-2.247-4.11z" fill="#433d72" data-name="Caminho 297"/>
   <path d="m-154.71 735.57 2.275-0.332a1.876 1.876 0 0 1 0.514 1.131c0.067 0.714 0.116 2.813 0.116 2.813l-1.739 0.542a29.8 29.8 0 0 1-3.413-0.044c0.035-0.129 2.247-4.11 2.247-4.11z" fill="#433d72" data-name="Caminho 298"/>
   <path d="m-143.79 752.6 4.955-10.866c-4.283-4.028-18.209-4.028-22.491 0l4.955 10.866a28.9 28.9 0 0 1 12.581 0z" fill="#cf4a60" data-name="Caminho 299"/>
   <path d="m-140.81 746.06 1.973-4.328c-1.54-1.449-4.329-2.377-7.469-2.784l5.5 7.112zm-9.385-7.348c-4.513 0.016-9.01 1.023-11.133 3.02l4.955 10.864a23.391 23.391 0 0 1 4.74-0.657 12.129 12.129 0 0 1-2.206-2.031c-0.066-0.4 0.017-9.748 0.411-9.906z" fill="#ba3147" data-name="Caminho 300"/>
   <path d="m-173.55 713.99a7.911 7.911 0 0 0-2.722 0c-0.7 0.3-3.071 4.492-4.535 6.556a4.953 4.953 0 0 0-0.35 4.552c0.977 2.853 13.747 26.282 13.747 26.282s0.908 1.246 2.373 0.031 12.6-16.176 12.6-16.176l-21.109-19.363z" fill="#5f5683" data-name="Caminho 301"/>
   <path d="m-126.63 713.99a7.91 7.91 0 0 1 2.722 0c0.7 0.3 3.069 4.492 4.534 6.556a4.951 4.951 0 0 1 0.349 4.552c-0.975 2.853-13.746 26.282-13.746 26.282s-0.907 1.246-2.372 0.031-12.6-16.176-12.6-16.176l21.113-19.363z" fill="#5f5683" data-name="Caminho 302"/>
   <g transform="translate(-295.63,500.3)" fill="#d77f68" data-name="Grupo 432">
    <path d="m102.94 145.49c-0.317 0.045-0.629 0.1-0.936 0.166h-0.01a12.789 12.789 0 1 0 10.692 2.5c0.351 3.773-0.217 8.449-5.031 8.95l0.088-7.374c0.036-2.985-2.757-4.339-4.803-4.242z" data-name="Caminho 303"/>
    <path d="m187.2 145.48c0.317 0.041 0.629 0.09 0.939 0.152h8e-3a12.79 12.79 0 1 1-10.655 2.645c-0.3 3.777 0.334 8.445 5.155 8.88l-0.191-7.371c-0.074-2.981 2.7-4.374 4.744-4.306z" data-name="Caminho 304"/>
   </g>
   <path d="m-150.47 709.82c23.869 0 43.78-29.453 43.78-52.706v-30.891a43.905 43.905 0 0 0-43.774-43.778h-6e-3a43.907 43.907 0 0 0-43.776 43.778v30.237c0 25.484 17.371 53.36 43.776 53.36z" fill="#e6ad83" data-name="Caminho 305"/>
   <g transform="translate(-295.63,500.3)" fill="#d7766d" data-name="Grupo 433">
    <path d="m115.11 155.67a7.38 7.38 0 1 1-7.515 7.241 7.378 7.378 0 0 1 7.515-7.241z" data-name="Caminho 306"/>
    <path d="m175.49 156.84a7.38 7.38 0 1 1-7.515 7.242 7.381 7.381 0 0 1 7.515-7.242z" data-name="Caminho 307"/>
   </g>
   <g transform="translate(-295.63,500.3)" fill="#675243" data-name="Grupo 434">
    <path d="m159.7 135.36a1.8342 1.8342 0 0 0 1.515 3.341 12.016 12.016 0 0 1 10.826 0.7 1.8424 1.8424 0 1 0 1.959-3.121c-6.975-4.383-14.283-0.929-14.3-0.92z" data-name="Caminho 308"/>
    <path d="m116.41 136.18a1.834 1.834 0 0 0 1.781 3.206 12.01 12.01 0 0 1 10.846-0.186 1.841 1.841 0 1 0 1.7-3.266c-7.306-3.803-14.308 0.235-14.327 0.246z" data-name="Caminho 309"/>
   </g>
   <path d="m-151.65 658.1c-0.814 2.215-2.241 6.226-2.12 6.9 0.173 0.94 5.021 1.809 6.293 0.572 0.849-0.823-0.2-4.442-1.121-6.876-1.255-3.317-1.952-3.576-3.052-0.596z" fill="#ebbf9e" data-name="Caminho 310"/>
   <g transform="translate(-295.63,500.3)" data-name="Grupo 435">
    <path d="m135.96 175.3a9.2 9.2 0 0 0 18.4 0 1.7 1.7 0 0 0-1.692-1.694h-15.015a1.7 1.7 0 0 0-1.693 1.694z" fill="#12151d" data-name="Caminho 311"/>
    <path d="m151.74 173.61h-13.157v1.557a1.477 1.477 0 0 0 1.473 1.473h10.21a1.478 1.478 0 0 0 1.474-1.473z" fill="#fff" data-name="Caminho 312"/>
    <path d="m138.49 181.64a9.2 9.2 0 0 0 13.334 0 9.2 9.2 0 0 0-13.334 0z" fill="#d26070" data-name="Caminho 313"/>
   </g>
   <g transform="translate(-295.63,500.3)" fill="#2c2930" data-name="Grupo 436">
    <path d="m166.57 154.64a5.272 5.272 0 1 0-5.273-5.272 5.281 5.281 0 0 0 5.273 5.272z" data-name="Caminho 314"/>
    <path d="m123.75 154.64a5.272 5.272 0 1 0-5.274-5.272 5.282 5.282 0 0 0 5.274 5.272z" data-name="Caminho 315"/>
   </g>
   <g fill="#accbdb">
    <path d="m-184.47 664.6a0.66507 0.66507 0 1 0 1.275-0.379c-0.012-0.04-3.365-11.407-9.127-16.133l-0.347 1.407c5.094 4.59 8.187 15.072 8.199 15.105z" data-name="Caminho 316"/>
    <path d="m-182.84 690.93a0.665 0.665 0 1 0 0.146-1.321l-0.235-0.026c-3.967-0.5-7.215-4.156-9.4-8.585a30.26 30.26 0 0 1-2.982-10.535 12.638 12.638 0 0 1-1.364-0.6 31.2 31.2 0 0 0 3.155 11.718c2.36 4.791 5.948 8.758 10.43 9.319z" data-name="Caminho 317"/>
    <path d="m-116.47 664.6a0.66507 0.66507 0 1 1-1.275-0.379c0.011-0.04 3.366-11.407 9.126-16.133l0.348 1.407c-5.094 4.59-8.188 15.072-8.199 15.105z" data-name="Caminho 318"/>
    <path d="m-118.1 690.93a0.66441 0.66441 0 0 1-0.144-1.321l0.234-0.026c3.967-0.5 7.217-4.156 9.4-8.585a30.236 30.236 0 0 0 2.98-10.535 12.569 12.569 0 0 0 1.365-0.6 31.17 31.17 0 0 1-3.156 11.718c-2.359 4.791-5.945 8.758-10.428 9.319z" data-name="Caminho 319"/>
   </g>
   <g transform="translate(-295.63,500.3)" data-name="Grupo 437">
    <path d="m145.16 159.21-34.1 1.822s-1.364 0.393-1.323 1.644 1.236 25.413 1.236 25.413a8.076 8.076 0 0 0 1.409 4.052c1.351 1.881 12.082 19.567 32.776 19.567s31.425-17.686 32.778-19.567a8.076 8.076 0 0 0 1.409-4.052s1.194-24.159 1.236-25.413-1.322-1.644-1.322-1.644z" fill="#fff" data-name="Caminho 320"/>
    <path d="m145.16 161.84 32.77 1.751c-0.289 8.115-0.84 16.27-1.2 24.387a5.422 5.422 0 0 1-0.919 2.642c-0.914 1.269-1.728 2.512-2.709 3.754a45.015 45.015 0 0 1-6 6.272 32.711 32.711 0 0 1-43.876 0 45 45 0 0 1-6-6.272c-0.983-1.242-1.8-2.485-2.71-3.754a5.413 5.413 0 0 1-0.92-2.642c-0.361-8.117-0.911-16.272-1.2-24.387z" fill="#d3e4ec" data-name="Caminho 321"/>
    <path d="m177.44 174.13c-0.168 3.171-0.346 6.345-0.507 9.514l-30.229-11.661zm-0.666 12.772-0.049 1.073a5.422 5.422 0 0 1-0.919 2.642c-0.914 1.269-1.728 2.512-2.709 3.754a45.015 45.015 0 0 1-6 6.272 32.711 32.711 0 0 1-43.876 0 45 45 0 0 1-6-6.272c-0.983-1.242-1.8-2.485-2.71-3.754a4.393 4.393 0 0 1-0.379-0.646s5.312 5.75 23.763 5.75 38.883-8.819 38.883-8.819zm-63.293-1.194q-0.168-3.486-0.362-6.98l22.539-1.574z" fill="#accbdb" data-name="Caminho 322"/>
   </g>
   <path d="m-180.14 717.82s-2.974-1.511-4.03-1.16-46.373 20.99-48.366 22.221c0 0 7.7 73.892 6.312 89.3l7.289 55.505c-0.148 0.143-18.271 77.364-20.284 85.357a3.652 3.652 0 0 0 2.58 4.222c3.282 1.172 61.674 11.02 61.674 11.02s6.1 0 7.034-3.986 7.893-102.44 7.893-102.44l-25.442-157.87z" fill="#ff4b5a" data-name="Caminho 323"/>
   <path d="m-120.79 717.82s2.973-1.511 4.029-1.16 46.372 20.99 48.365 22.221c0 0-7.695 73.892-6.31 89.3l-7.291 55.505c0.149 0.143 18.271 77.364 20.285 85.357a3.652 3.652 0 0 1-2.58 4.222c-3.282 1.172-61.674 11.02-61.674 11.02s-6.1 0-7.034-3.986-7.894-102.44-7.894-102.44l25.441-157.87z" fill="#ff4b5a" data-name="Caminho 324"/>
   <path d="m-120.79 717.82s2.973-1.511 4.029-1.16c0.342 0.114 5.347 2.366 12.018 5.394l7.821 59.431-43.7 94.651 25.165-156.15z" fill="#bf3642" data-name="Caminho 325"/>
   <path d="m-180.14 717.82s-2.974-1.511-4.03-1.16c-0.341 0.114-5.346 2.366-12.018 5.394l-7.821 59.431 43.695 94.651-25.166-156.15z" fill="#bf3642" data-name="Caminho 326"/>
   <path d="m-178.24 618.31a10.265 10.265 0 0 0-3.881 8.466c0 9.4-1.783 16.858-7.78 16.858v7.375c0 4.122-0.4 8.294-4.293 8.294 0-8.871-2.7-12.356-2.7-12.356v-22.241c0-10.374 2.917-24.313 16.534-33.876a52.785 52.785 0 0 1 59.791 0c13.615 9.563 16.533 23.5 16.533 33.876v22.241s-2.7 3.485-2.7 12.356c-3.892 0-4.294-4.172-4.294-8.294v-7.375c-6 0-7.781-7.456-7.781-16.858a10.268 10.268 0 0 0-4-8.56c2.93 5.519 1.483 9.773-6.03 2.943 4.929 9.692-12.2 9.661-17.24 0.53 0 0-1.454 5.073-4.054 4.2s-2.734-6.9-2.734-6.9c-4.286 8.81-16.573 9.7-17.441 0.3-3.308 5.71-10.889 5.348-7.93-0.979z" fill="#675243" data-name="Caminho 327"/>
  </g>
  <g transform="translate(-11.419 -12.218)">
   <path d="m342.95 215.95-12.363 5.828s-1.577 19.408 1.548 32.385a16.52 16.52 0 0 0 15.141 13.22s-0.239 8.411 1.683 11.055 29.082 16.585 76.669-0.961c0 0 1.2-0.481 1.32-2.523a35.793 35.793 0 0 0-0.48-5.768s19.349-13.821 19.83-22.232-2.885-25.237-7.213-48.069-11.775-36.052-30.522-35.57-65.613 52.635-65.613 52.635z" fill="#952730" data-name="Caminho 328"/>
   <path d="m439.58 473.16c-2.006-14.344-1.57-29.6 1.3-49.874 2.445-17.3 3.757-31.071 4.005-42.96 0.133-6.412 3.179-15.5 2.7-21.074a105.33 105.33 0 0 0-2.031-14.63c-4.29-20.487 8.385-38.523 8.385-38.523s-40.368-8.888-43.943-10.676-3.9-9.291-3.9-9.291l-17.26-3.707h-3.193l-17.259 3.707s-0.327 7.505-3.9 9.291-43.948 10.674-43.948 10.674 12.675 18.036 8.389 38.523a104.74 104.74 0 0 0-2.034 14.63c-0.476 5.574 2.573 14.662 2.705 21.074 0.247 11.889 1.562 25.664 4.006 42.96 2.876 20.276 3.31 35.53 1.3 49.874h104.68z" fill="#e6ad83" data-name="Caminho 329"/>
   <path d="m387.25 238.61a18.93 18.93 0 0 1 18.874 18.873v36.13a18.929 18.929 0 0 1-18.874 18.872 18.925 18.925 0 0 1-18.871-18.872v-36.13a18.927 18.927 0 0 1 18.871-18.873z" fill="#e6ad83" data-name="Caminho 330"/>
   <g transform="translate(0,36)" fill="#d7766d" data-name="Grupo 439">
    <path d="m428.41 185.98c0.3 0.043 0.59 0.093 0.88 0.156h0.01a12.016 12.016 0 1 1-10.042 2.346c-0.329 3.544 0.2 7.938 4.725 8.409l-0.081-6.928c-0.039-2.801 2.586-4.068 4.508-3.983z" data-name="Caminho 331"/>
    <path d="m346.25 185.42c-0.3 0.037-0.592 0.084-0.884 0.142h-7e-3a12.012 12.012 0 1 0 10.011 2.484c0.279 3.549-0.315 7.935-4.845 8.343l0.181-6.926c0.072-2.8-2.534-4.108-4.456-4.043z" data-name="Caminho 332"/>
   </g>
   <path d="m441.58 326 26.168 3.04s-1.131-6.864 4.766 1.611 35.2 54.118 43.309 73.274c1.667 3.945 3.027 7.393 4.062 10.562 8.547 26.114-33.433 66.449-55.869 81.625-8.146 5.51-13.1 4.814-12.992 3l0.53-9.029c6.179-6.894 40.856-64.226 39.172-67.593-1.843-3.685-46.723-65.773-46.723-65.773z" fill="#e6ad83" data-name="Caminho 333"/>
   <path d="m511.73 394.7q0.633 1.384 1.212 2.677l-23.338 23.339c-2.82-4.251-10.353-14.887-18.506-26.3z" fill="#d7766d" data-name="Caminho 334"/>
   <path d="m387.25 282.14c-22.426 0-41.134-27.668-41.134-49.516v-29.025a41.25 41.25 0 0 1 41.127-41.128h7e-3a41.248 41.248 0 0 1 41.123 41.128v28.41c0 23.943-16.318 50.131-41.123 50.131z" fill="#e6ad83" data-name="Caminho 335"/>
   <path d="m346.12 230.06v-26.459a40.758 40.758 0 0 1 0.568-6.789c18.244-0.689 41.973-1.54 41.973-1.54s-3.076 39.001-42.541 34.788z" fill="#d7766d" data-name="Caminho 336"/>
   <path d="m333.67 326-26.167 3.04s1.132-6.864-4.765 1.611-35.2 54.118-43.31 73.274c-1.668 3.945-3.026 7.393-4.063 10.562-8.545 26.114 33.435 66.449 55.87 81.625 8.145 5.51 13.1 4.814 12.992 3l-0.53-9.029c-6.177-6.894-40.853-64.226-39.172-67.593 1.843-3.685 46.721-65.773 46.721-65.773z" fill="#e6ad83" data-name="Caminho 337"/>
   <path d="m263.52 394.7q-0.631 1.384-1.212 2.677l23.337 23.339c2.821-4.251 10.355-14.887 18.507-26.3z" fill="#d7766d" data-name="Caminho 338"/>
   <path d="m510.71 392.98c0.64 1.391 1.243 2.723 1.812 3.986l-23.127 23.127c-3.792-5.5-11.287-15.966-19.127-26.834z" fill="#d7766d" data-name="Caminho 339"/>
   <path d="m442.46 461.3c2.873 17.418 11.492 51.127 13.733 74.7h-140.7c2.241-23.569 10.862-57.278 17.061-74.7z" fill="#ff8743" data-name="Caminho 340"/>
   <path d="m442.46 461.3c1.78 10.8 5.768 27.848 9.077 44.867-6.439-5.049-9.3-18.386-9.3-18.386l-122.02 18.975a388.66 388.66 0 0 1 12.127-44.837l4.983-0.615z" fill="#e57333" data-name="Caminho 341"/>
   <path d="m406.12 281.81v-5.331a34.3 34.3 0 0 1-18.619 5.663h-0.253c-6.766 0-13.2-2.519-18.873-6.641v14.3c-0.486 2.074-1.4 4.451-3.109 5.479 0.085 0.994 34.313-10.889 40.854-13.47z" fill="#d7766d" data-name="Caminho 342"/>
   <g transform="translate(0,36)" fill="#d7766d" data-name="Grupo 440">
    <path d="m415.33 204.94a6.546 6.546 0 1 0 6.666 6.423 6.547 6.547 0 0 0-6.666-6.423z" data-name="Caminho 343"/>
    <path d="m357.72 205.99a6.547 6.547 0 1 0 6.664 6.425 6.545 6.545 0 0 0-6.664-6.425z" data-name="Caminho 344"/>
   </g>
   <g transform="translate(0,36)" fill="#952730" data-name="Grupo 441">
    <path d="m374.07 177.43a1.663 1.663 0 1 1-1.375 3.028 10.885 10.885 0 0 0-9.809 0.63 1.6684 1.6684 0 1 1-1.776-2.825c6.318-3.972 12.94-0.84 12.96-0.833z" data-name="Caminho 345"/>
    <path d="m413.31 178.17a1.662 1.662 0 0 1-1.615 2.9 10.888 10.888 0 0 0-9.83-0.168 1.669 1.669 0 1 1-1.54-2.961c6.62-3.439 12.967 0.218 12.985 0.229z" data-name="Caminho 346"/>
   </g>
   <path d="m389.35 234.29c0.851 2.418 2.335 6.791 2.208 7.475-0.178 0.957-5.231 1.207-6.558-0.253-0.882-0.973 0.213-4.6 1.172-7.013 1.305-3.29 2.03-3.465 3.178-0.209z" fill="#f1d3c8" data-name="Caminho 347"/>
   <path d="m366.5 224.73a5.081 5.081 0 0 0-3.114 1.059 1.5 1.5 0 0 1-0.957-0.755 0.593 0.593 0 1 0-1.055 0.54 2.593 2.593 0 0 0 1.106 1.106l-0.042 0.054a2.748 2.748 0 0 1-1.436-0.927 0.59136 0.59136 0 1 0-0.921 0.742 3.832 3.832 0 0 0 1.741 1.217l-7e-3 9e-3a3.673 3.673 0 0 1-1.776-0.576 0.59336 0.59336 0 1 0-0.639 1 4.759 4.759 0 0 0 1.835 0.7l0.229 0.034a5.252 5.252 0 0 0-0.083 0.918 5.119 5.119 0 1 0 5.119-5.12zm41.574 0a5.108 5.108 0 1 0 5.036 4.191l0.15-0.023a4.749 4.749 0 0 0 1.834-0.7 0.59309 0.59309 0 1 0-0.638-1 3.672 3.672 0 0 1-1.7 0.571l-0.013-0.028a3.823 3.823 0 0 0 1.672-1.193 0.59136 0.59136 0 1 0-0.921-0.742 2.748 2.748 0 0 1-1.37 0.908l-0.052-0.066a2.534 2.534 0 0 0 1.05-1.075 0.59125 0.59125 0 1 0-1.052-0.54 1.49 1.49 0 0 1-0.9 0.737 5.106 5.106 0 0 0-3.096-1.04z" fill="#2c2930" data-name="Caminho 348"/>
   <g transform="translate(0,36)" data-name="Grupo 443">
    <g fill="#accbdb">
     <path d="m416.56 204.25a0.646 0.646 0 1 1-1.238-0.368c0.01-0.038 9.392-15.81 14.36-15.025l-1.4 1.09c-4.948 4.454-11.712 14.267-11.722 14.303z" data-name="Caminho 349"/>
     <path d="m356.98 204.03a0.646 0.646 0 1 0 1.238-0.369c-9e-3 -0.036-9.492-14.326-14.46-13.54l0.765 0.325 0.607 0.411c4.945 4.452 11.841 13.137 11.85 13.173z" data-name="Caminho 350"/>
     <path d="m358.48 228.26a0.64536 0.64536 0 1 0 0.141-1.283l-0.226-0.023c-7.248-0.908-13.568-11.663-14.066-18.063-0.456-0.257-0.9-0.53-1.342-0.835 0.339 7.212 7.117 19.163 15.251 20.179z" data-name="Caminho 351"/>
     <path d="m414.69 228.26a0.64547 0.64547 0 0 1-0.143-1.283l0.228-0.023c7.247-0.908 14.892-11.663 15.389-18.063 0.459-0.257 0.9-0.53 1.346-0.835-0.341 7.212-8.446 19.163-16.579 20.179z" data-name="Caminho 352"/>
    </g>
    <g data-name="Grupo 442">
     <path d="m386.64 201.18 29.429 1.571s1.175 0.339 1.142 1.419-1.068 21.931-1.068 21.931a6.971 6.971 0 0 1-1.216 3.5c-1.166 1.622-10.427 16.883-28.287 16.883s-27.122-15.261-28.288-16.883a6.98 6.98 0 0 1-1.214-3.5s-1.033-20.849-1.067-21.931 1.139-1.419 1.139-1.419z" fill="#fff" data-name="Caminho 353"/>
     <path d="m386.64 203.44-28.28 1.51c0.247 7 0.723 14.042 1.035 21.047a4.67 4.67 0 0 0 0.8 2.278c0.787 1.1 1.491 2.17 2.338 3.241a38.766 38.766 0 0 0 5.179 5.414 28.231 28.231 0 0 0 37.866 0 38.894 38.894 0 0 0 5.181-5.414c0.847-1.071 1.549-2.144 2.338-3.241a4.648 4.648 0 0 0 0.788-2.28c0.311-7.005 0.788-14.044 1.037-21.047z" fill="#d3e4ec" data-name="Caminho 354"/>
     <path d="m358.78 214.05c0.144 2.739 0.3 5.477 0.439 8.213l26.088-10.065zm0.574 11.024 0.043 0.926a4.67 4.67 0 0 0 0.8 2.278c0.787 1.1 1.491 2.17 2.338 3.241a38.766 38.766 0 0 0 5.179 5.414 28.231 28.231 0 0 0 37.866 0 38.894 38.894 0 0 0 5.181-5.414c0.847-1.071 1.549-2.144 2.338-3.241a3.972 3.972 0 0 0 0.328-0.556s-4.585 4.964-20.51 4.964-33.558-7.612-33.558-7.612zm54.624-1.029c0.1-2.008 0.206-4.016 0.315-6.025l-19.454-1.359z" fill="#accbdb" data-name="Caminho 355"/>
    </g>
   </g>
   <path d="m387.25 309.27 2.018-2.215 6.065 0.812 17.663-12.98 40.817 10.253c-4.2 27.283-13.351 129.18-7.774 152.37a7.06 7.06 0 0 1-0.4 4.727c-1.122 2.645-3.445 6.891-3.445 6.891l-112.27-0.951c-0.47-0.894-5.968-140.38-8.648-161.61l10.479-3.9 29.746-7.782 17.66 12.98 6.066-0.812z" fill="#fff" data-name="Caminho 356"/>
   <g transform="translate(0,36)" data-name="Grupo 444">
    <path d="m391.74 281.15 0.9 3.824 9.1 94.674-14.493 24.6-14.49-24.6 9.1-94.674 0.9-3.824 4.5 2.327z" fill="#cf4a60" data-name="Caminho 357"/>
    <path d="m391.74 281.15 0.9 3.823 9.1 94.674-14.493 24.6s8.512-21.188 8.849-24.473-5.119-93.576-6.724-94.417-4.8-0.759-4.8-0.759l2.041-1.451 0.629 0.326z" fill="#ba3147" data-name="Caminho 358"/>
    <path d="m381.85 285.94-4.249-9.318c3.672-3.455 15.617-3.455 19.29 0l-4.25 9.318a24.8 24.8 0 0 0-10.791 0z" fill="#cf4a60" data-name="Caminho 359"/>
    <path d="m379.3 280.33-1.691-3.71c1.319-1.244 3.711-2.037 6.4-2.387l-4.713 6.1zm8.049-6.3c3.873 0.014 7.726 0.878 9.55 2.591l-4.25 9.318a20.3 20.3 0 0 0-4.068-0.563 10.315 10.315 0 0 0 1.893-1.741c0.057-0.343-0.015-8.361-0.352-8.495z" fill="#ba3147" data-name="Caminho 360"/>
    <path d="m406.54 251.64a6.774 6.774 0 0 1 2.333 0c0.6 0.26 2.633 3.852 3.891 5.621 0 0 1.968 2.647 1.132 5.094s-11.795 22.543-11.795 22.543-0.778 1.067-2.034 0.026-10.8-13.873-10.8-13.873l17.274-17.8z" fill="#ff8743" data-name="Caminho 361"/>
    <path d="m368.31 251.46a6.8 6.8 0 0 0-2.333 0c-0.6 0.26-2.634 3.853-3.889 5.623 0 0-2.328 2.824-1.488 5.271s11.788 22.543 11.788 22.543 0.778 1.067 2.036 0.026 10.8-13.873 10.8-13.873l-16.917-17.974z" fill="#ff8743" data-name="Caminho 362"/>
   </g>
   <path d="m453.81 305.14s12.334 2.44 19.384 11.734 41.98 72.741 41.98 72.741 0.961 2.084 0.159 3.364-24.194 20.671-31.245 22.434a5.265 5.265 0 0 1-3.524-1.122c-1.442-1.283-28.73-41.171-28.73-41.171s-7.051-40.23 1.976-67.98z" fill="#fff" data-name="Caminho 363"/>
   <path d="m468.37 397.15c-7.836-11.306-20.82-29.615-20.82-29.615a232.28 232.28 0 0 1 1.731-32.4z" fill="#f2d8d9" data-name="Caminho 364"/>
   <path d="m336.49 301.33c-4.279 0-28.143 8.147-35.192 17.439s-41.98 70.84-41.98 70.84-0.961 2.084-0.16 3.364 24.2 20.671 31.243 22.434a5.275 5.275 0 0 0 3.527-1.122c1.441-1.283 28.731-41.171 28.731-41.171s22.858-44.034 13.831-71.784z" fill="#fff" data-name="Caminho 365"/>
   <path d="m306.12 397.15c7.836-11.306 19.275-27.953 19.275-27.953s0.394-13.933-0.189-34.058z" fill="#f2d8d9" data-name="Caminho 366"/>
   <path d="m346.03 227.8v5.8c1.962 0 4.337-2.851 4.337-5.41v-5.312s4.606-7.3 4.606-14.975 1.786-12.246 8.356-12.246 13.147 3.439 23.914 3.439 17.346-3.439 23.916-3.439 8.354 4.572 8.354 12.246 4.609 14.975 4.609 14.975v5.312c0 2.559 2.375 5.41 4.336 5.41v-5.8c-0.027-4.008 1.436-5.472 1.436-5.472v-17.249c0-58.712-85.3-58.712-85.3 0v17.247s1.461 1.464 1.436 5.474z" fill="#952730" data-name="Caminho 367"/>
   <path d="m387.42 189.28c-3.207 21.044-12.224 42.725-47.211 35.145l-9.621-2.639s3.4-20.727 12.829-37.794 35.663-34.036 44.91-36.069 19.622 10.364 20.753 12.8 1.183 7.5 0.543 8.88c-14.961 10.262-18.713-3.211-22.203 19.677z" fill="#952730" data-name="Caminho 368"/>
   <path d="m311.12 496.24c7.61 6.182 13.792 7.488 17.12-3.21s4.28-11.294 4.28-11.294 4.874 3.092 7.489 3.566 2.97-1.783 2.375-2.733 2.5 0.594 3.091-0.951-1.3-3.685-1.3-3.685 2.259-1.9 1.426-3.448-16.288-11.769-18.9-9.273-8.916 19.5-8.916 19.5z" fill="#e6ad83" data-name="Caminho 369"/>
   <g transform="translate(0,36)" fill="#d7766d" data-name="Grupo 445">
    <path d="m342.5 445.59a0.448 0.448 0 0 1-0.481 0.755c-2.6-1.652-4.512-2.921-5.976-3.89-4.207-2.786-4.41-2.919-5.059-1.946a0.44848 0.44848 0 1 1-0.748-0.495c1.147-1.72 1.384-1.562 6.3 1.694 1.492 0.991 3.44 2.277 5.964 3.882z" data-name="Caminho 370"/>
    <path d="m344.64 441.31a0.44802 0.44802 0 0 1-0.481 0.756l-2.281-1.454c-8.381-5.348-11.11-7.089-11.964-5.808a0.44986 0.44986 0 1 1-0.748-0.5c1.34-2.013 4.252-0.153 13.192 5.551z" data-name="Caminho 371"/>
    <path d="m319.88 442.78a0.44827 0.44827 0 0 1 0.848 0.291l-4.035 10.02a0.44938 0.44938 0 0 1-0.85-0.292z" data-name="Caminho 372"/>
   </g>
   <path d="m464.13 496.24c-7.608 6.182-13.792 7.488-17.121-3.21s-4.278-11.294-4.278-11.294-4.876 3.092-7.491 3.566-2.969-1.783-2.375-2.733-2.5 0.594-3.091-0.951 1.308-3.685 1.308-3.685-2.259-1.9-1.427-3.448 16.286-11.769 18.9-9.273 8.916 19.5 8.916 19.5z" fill="#e6ad83" data-name="Caminho 373"/>
   <g transform="translate(0,36)" fill="#d7766d" data-name="Grupo 446">
    <path d="m432.75 445.59a0.44733 0.44733 0 0 0 0.48 0.755c2.6-1.652 4.512-2.921 5.976-3.89 4.208-2.786 4.41-2.919 5.06-1.946a0.44806 0.44806 0 1 0 0.747-0.495c-1.146-1.72-1.384-1.562-6.3 1.694-1.49 0.991-3.44 2.277-5.963 3.882z" data-name="Caminho 374"/>
    <path d="m430.61 441.31a0.44802 0.44802 0 0 0 0.481 0.756l2.28-1.454c8.382-5.348 11.111-7.089 11.966-5.808a0.44945 0.44945 0 0 0 0.747-0.5c-1.339-2.013-4.252-0.153-13.192 5.551z" data-name="Caminho 375"/>
    <path d="m454.84 442.24a0.448 0.448 0 1 0-0.847 0.291l4.569 10.556a0.44938 0.44938 0 0 0 0.85-0.292z" data-name="Caminho 376"/>
   </g>
  </g>
 </g>
 <rect x="116.61" y="337.38" width="174.48" height="7.05" fill-opacity="0" stop-color="#000000" style="font-variation-settings:normal"/>
</svg>
