<?xml version="1.0" encoding="UTF-8" standalone="no"?>
<svg
   xmlns:dc="http://purl.org/dc/elements/1.1/"
   xmlns:cc="http://creativecommons.org/ns#"
   xmlns:rdf="http://www.w3.org/1999/02/22-rdf-syntax-ns#"
   xmlns:svg="http://www.w3.org/2000/svg"
   xmlns="http://www.w3.org/2000/svg"
   xmlns:sodipodi="http://sodipodi.sourceforge.net/DTD/sodipodi-0.dtd"
   xmlns:inkscape="http://www.inkscape.org/namespaces/inkscape"
   width="723.879"
   height="450.008"
   viewBox="0 0 723.879 450.008"
   version="1.1"
   id="svg1150"
   sodipodi:docname="universitarios.svg"
   inkscape:version="1.0.2 (e86c870879, 2021-01-15, custom)">
  <metadata
     id="metadata1156">
    <rdf:RDF>
      <cc:Work
         rdf:about="">
        <dc:format>image/svg+xml</dc:format>
        <dc:type
           rdf:resource="http://purl.org/dc/dcmitype/StillImage" />
        <dc:title />
      </cc:Work>
    </rdf:RDF>
  </metadata>
  <defs
     id="defs1154" />
  <sodipodi:namedview
     pagecolor="#ffffff"
     bordercolor="#666666"
     borderopacity="1"
     objecttolerance="10"
     gridtolerance="10"
     guidetolerance="10"
     inkscape:pageopacity="0"
     inkscape:pageshadow="2"
     inkscape:window-width="1366"
     inkscape:window-height="715"
     id="namedview1152"
     showgrid="false"
     inkscape:zoom="0.8359833"
     inkscape:cx="167.39677"
     inkscape:cy="179.50258"
     inkscape:window-x="-8"
     inkscape:window-y="-8"
     inkscape:window-maximized="1"
     inkscape:current-layer="svg1150"
     inkscape:lockguides="false"
     showguides="false"
     inkscape:document-rotation="0" />
  <g
     id="Grupo_448"
     data-name="Grupo 448"
     transform="translate(48.939,-49.992)">
    <g
       id="Grupo_447"
       data-name="Grupo 447"
       transform="translate(-127.021,-55.85)">
      <path
         id="Caminho_328"
         data-name="Caminho 328"
         d="m 342.948,179.953 -12.363,5.828 c 0,0 -1.577,19.408 1.548,32.385 a 16.52,16.52 0 0 0 15.141,13.22 c 0,0 -0.239,8.411 1.683,11.055 1.922,2.644 29.082,16.585 76.669,-0.961 0,0 1.2,-0.481 1.32,-2.523 a 35.793,35.793 0 0 0 -0.48,-5.768 c 0,0 19.349,-13.821 19.83,-22.232 0.481,-8.411 -2.885,-25.237 -7.213,-48.069 -4.328,-22.832 -11.775,-36.052 -30.522,-35.57 -18.747,0.482 -65.613,52.635 -65.613,52.635 z"
         fill="#952730"
         fill-rule="evenodd" />
      <path
         id="Caminho_329"
         data-name="Caminho 329"
         d="m 439.584,437.163 c -2.006,-14.344 -1.57,-29.6 1.3,-49.874 2.445,-17.3 3.757,-31.071 4.005,-42.96 0.133,-6.412 3.179,-15.5 2.7,-21.074 a 105.334,105.334 0 0 0 -2.031,-14.63 c -4.29,-20.487 8.385,-38.523 8.385,-38.523 0,0 -40.368,-8.888 -43.943,-10.676 -3.575,-1.788 -3.9,-9.291 -3.9,-9.291 l -17.26,-3.707 h -3.193 l -17.259,3.707 c 0,0 -0.327,7.505 -3.9,9.291 -3.573,1.786 -43.948,10.674 -43.948,10.674 0,0 12.675,18.036 8.389,38.523 a 104.738,104.738 0 0 0 -2.034,14.63 c -0.476,5.574 2.573,14.662 2.705,21.074 0.247,11.889 1.562,25.664 4.006,42.96 2.876,20.276 3.31,35.53 1.3,49.874 h 104.678 z"
         fill="#e6ad83"
         fill-rule="evenodd" />
      <path
         id="Caminho_330"
         data-name="Caminho 330"
         d="m 387.247,202.609 v 0 a 18.93,18.93 0 0 1 18.874,18.873 v 36.13 a 18.929,18.929 0 0 1 -18.874,18.872 v 0 a 18.925,18.925 0 0 1 -18.871,-18.872 v -36.13 a 18.927,18.927 0 0 1 18.871,-18.873 z"
         fill="#e6ad83"
         fill-rule="evenodd" />
      <g
         id="Grupo_439"
         data-name="Grupo 439">
        <path
           id="Caminho_331"
           data-name="Caminho 331"
           d="m 428.407,185.985 c 0.3,0.043 0.59,0.093 0.88,0.156 h 0.01 v 0 a 12.016,12.016 0 1 1 -10.042,2.346 c -0.329,3.544 0.2,7.938 4.725,8.409 l -0.081,-6.928 c -0.039,-2.801 2.586,-4.068 4.508,-3.983 z"
           fill="#d7766d"
           fill-rule="evenodd" />
        <path
           id="Caminho_332"
           data-name="Caminho 332"
           d="m 346.254,185.415 c -0.3,0.037 -0.592,0.084 -0.884,0.142 h -0.007 v 0 a 12.012,12.012 0 1 0 10.011,2.484 c 0.279,3.549 -0.315,7.935 -4.845,8.343 l 0.181,-6.926 c 0.072,-2.8 -2.534,-4.108 -4.456,-4.043 z"
           fill="#d7766d"
           fill-rule="evenodd" />
      </g>
      <path
         id="Caminho_333"
         data-name="Caminho 333"
         d="m 441.577,290.005 26.168,3.04 c 0,0 -1.131,-6.864 4.766,1.611 5.897,8.475 35.2,54.118 43.309,73.274 1.667,3.945 3.027,7.393 4.062,10.562 8.547,26.114 -33.433,66.449 -55.869,81.625 -8.146,5.51 -13.1,4.814 -12.992,3 l 0.53,-9.029 c 6.179,-6.894 40.856,-64.226 39.172,-67.593 C 488.88,382.81 444,320.722 444,320.722 Z"
         fill="#e6ad83"
         fill-rule="evenodd" />
      <path
         id="Caminho_334"
         data-name="Caminho 334"
         d="m 511.731,358.7 q 0.633,1.384 1.212,2.677 l -23.338,23.339 c -2.82,-4.251 -10.353,-14.887 -18.506,-26.3 z"
         fill="#d7766d"
         fill-rule="evenodd" />
      <path
         id="Caminho_335"
         data-name="Caminho 335"
         d="m 387.252,246.141 c -22.426,0 -41.134,-27.668 -41.134,-49.516 V 167.6 a 41.25,41.25 0 0 1 41.127,-41.128 h 0.007 a 41.248,41.248 0 0 1 41.123,41.128 v 28.41 c 0,23.943 -16.318,50.131 -41.123,50.131 z"
         fill="#e6ad83"
         fill-rule="evenodd" />
      <path
         id="Caminho_336"
         data-name="Caminho 336"
         d="M 346.118,194.059 V 167.6 a 40.758,40.758 0 0 1 0.568,-6.789 c 18.244,-0.689 41.973,-1.54 41.973,-1.54 0,0 -3.076,39.001 -42.541,34.788 z"
         fill="#d7766d"
         fill-rule="evenodd" />
      <path
         id="Caminho_337"
         data-name="Caminho 337"
         d="m 333.673,290.005 -26.167,3.04 c 0,0 1.132,-6.864 -4.765,1.611 -5.897,8.475 -35.2,54.118 -43.31,73.274 -1.668,3.945 -3.026,7.393 -4.063,10.562 -8.545,26.114 33.435,66.449 55.87,81.625 8.145,5.51 13.1,4.814 12.992,3 l -0.53,-9.029 c -6.177,-6.894 -40.853,-64.226 -39.172,-67.593 1.843,-3.685 46.721,-65.773 46.721,-65.773 z"
         fill="#e6ad83"
         fill-rule="evenodd" />
      <path
         id="Caminho_338"
         data-name="Caminho 338"
         d="m 263.52,358.7 q -0.631,1.384 -1.212,2.677 l 23.337,23.339 c 2.821,-4.251 10.355,-14.887 18.507,-26.3 z"
         fill="#d7766d"
         fill-rule="evenodd" />
      <path
         id="Caminho_339"
         data-name="Caminho 339"
         d="m 510.709,356.981 c 0.64,1.391 1.243,2.723 1.812,3.986 l -23.127,23.127 c -3.792,-5.5 -11.287,-15.966 -19.127,-26.834 z"
         fill="#d7766d"
         fill-rule="evenodd" />
      <path
         id="Caminho_340"
         data-name="Caminho 340"
         d="m 442.457,425.3 c 2.873,17.418 19.86537,72.65853 17.32159,130.92122 L 316.6862,558.61361 C 316.5348,502.74732 326.352,442.722 332.551,425.3 Z"
         fill="#ff8743"
         fill-rule="evenodd"
         sodipodi:nodetypes="ccccc" />
      <path
         id="Caminho_341"
         data-name="Caminho 341"
         d="m 442.457,425.3 c 1.78,10.8 5.768,27.848 9.077,44.867 -6.439,-5.049 -9.3,-18.386 -9.3,-18.386 l -122.023,18.975 a 388.656,388.656 0 0 1 12.127,-44.837 l 4.983,-0.615 z"
         fill="#e57333"
         fill-rule="evenodd" />
      <path
         id="Caminho_342"
         data-name="Caminho 342"
         d="m 406.121,245.809 v -5.331 a 34.3,34.3 0 0 1 -18.619,5.663 h -0.253 c -6.766,0 -13.2,-2.519 -18.873,-6.641 v 14.3 c -0.486,2.074 -1.4,4.451 -3.109,5.479 0.085,0.994 34.313,-10.889 40.854,-13.47 z"
         fill="#d7766d"
         fill-rule="evenodd" />
      <g
         id="Grupo_440"
         data-name="Grupo 440">
        <path
           id="Caminho_343"
           data-name="Caminho 343"
           d="m 415.334,204.945 a 6.546,6.546 0 1 0 6.666,6.423 6.547,6.547 0 0 0 -6.666,-6.423 z"
           fill="#d7766d"
           fill-rule="evenodd" />
        <path
           id="Caminho_344"
           data-name="Caminho 344"
           d="m 357.719,205.987 a 6.547,6.547 0 1 0 6.664,6.425 6.545,6.545 0 0 0 -6.664,-6.425 z"
           fill="#d7766d"
           fill-rule="evenodd" />
      </g>
      <g
         id="Grupo_441"
         data-name="Grupo 441">
        <path
           id="Caminho_345"
           data-name="Caminho 345"
           d="m 374.074,177.426 a 1.663,1.663 0 1 1 -1.375,3.028 10.885,10.885 0 0 0 -9.809,0.63 1.6684425,1.6684425 0 1 1 -1.776,-2.825 c 6.318,-3.972 12.94,-0.84 12.96,-0.833 z"
           fill="#952730"
           fill-rule="evenodd" />
        <path
           id="Caminho_346"
           data-name="Caminho 346"
           d="m 413.308,178.168 a 1.662,1.662 0 0 1 -1.615,2.9 10.888,10.888 0 0 0 -9.83,-0.168 1.669,1.669 0 1 1 -1.54,-2.961 c 6.62,-3.439 12.967,0.218 12.985,0.229 z"
           fill="#952730"
           fill-rule="evenodd" />
      </g>
      <path
         id="Caminho_347"
         data-name="Caminho 347"
         d="m 389.348,198.287 c 0.851,2.418 2.335,6.791 2.208,7.475 -0.178,0.957 -5.231,1.207 -6.558,-0.253 -0.882,-0.973 0.213,-4.6 1.172,-7.013 1.305,-3.29 2.03,-3.465 3.178,-0.209 z"
         fill="#f1d3c8"
         fill-rule="evenodd" />
      <path
         id="Caminho_348"
         data-name="Caminho 348"
         d="m 366.5,188.734 a 5.081,5.081 0 0 0 -3.114,1.059 1.5,1.5 0 0 1 -0.957,-0.755 0.593,0.593 0 1 0 -1.055,0.54 2.593,2.593 0 0 0 1.106,1.106 l -0.042,0.054 a 2.748,2.748 0 0 1 -1.436,-0.927 0.59135543,0.59135543 0 1 0 -0.921,0.742 3.832,3.832 0 0 0 1.741,1.217 l -0.007,0.009 a 3.673,3.673 0 0 1 -1.776,-0.576 0.59336351,0.59336351 0 1 0 -0.639,1 4.759,4.759 0 0 0 1.835,0.7 l 0.229,0.034 a 5.252,5.252 0 0 0 -0.083,0.918 5.119,5.119 0 1 0 5.119,-5.12 z m 41.574,0 a 5.108,5.108 0 1 0 5.036,4.191 l 0.15,-0.023 a 4.749,4.749 0 0 0 1.834,-0.7 0.59309443,0.59309443 0 1 0 -0.638,-1 3.672,3.672 0 0 1 -1.7,0.571 l -0.013,-0.028 a 3.823,3.823 0 0 0 1.672,-1.193 0.59135543,0.59135543 0 1 0 -0.921,-0.742 2.748,2.748 0 0 1 -1.37,0.908 l -0.052,-0.066 a 2.534,2.534 0 0 0 1.05,-1.075 0.59124952,0.59124952 0 1 0 -1.052,-0.54 1.49,1.49 0 0 1 -0.9,0.737 5.106,5.106 0 0 0 -3.096,-1.04 z"
         fill="#2c2930"
         fill-rule="evenodd" />
      <g
         id="Grupo_443"
         data-name="Grupo 443">
        <path
           id="Caminho_349"
           data-name="Caminho 349"
           d="m 416.559,204.249 a 0.646,0.646 0 1 1 -1.238,-0.368 c 0.01,-0.038 9.392,-15.81 14.36,-15.025 l -1.4,1.09 c -4.948,4.454 -11.712,14.267 -11.722,14.303 z"
           fill="#accbdb"
           fill-rule="evenodd" />
        <path
           id="Caminho_350"
           data-name="Caminho 350"
           d="m 356.978,204.028 a 0.646,0.646 0 1 0 1.238,-0.369 c -0.009,-0.036 -9.492,-14.326 -14.46,-13.54 l 0.765,0.325 0.607,0.411 c 4.945,4.452 11.841,13.137 11.85,13.173 z"
           fill="#accbdb"
           fill-rule="evenodd" />
        <path
           id="Caminho_351"
           data-name="Caminho 351"
           d="m 358.481,228.258 a 0.6453623,0.6453623 0 1 0 0.141,-1.283 l -0.226,-0.023 c -7.248,-0.908 -13.568,-11.663 -14.066,-18.063 -0.456,-0.257 -0.9,-0.53 -1.342,-0.835 0.339,7.212 7.117,19.163 15.251,20.179 z"
           fill="#accbdb"
           fill-rule="evenodd" />
        <path
           id="Caminho_352"
           data-name="Caminho 352"
           d="m 414.689,228.258 a 0.64547231,0.64547231 0 0 1 -0.143,-1.283 l 0.228,-0.023 c 7.247,-0.908 14.892,-11.663 15.389,-18.063 0.459,-0.257 0.9,-0.53 1.346,-0.835 -0.341,7.212 -8.446,19.163 -16.579,20.179 z"
           fill="#accbdb"
           fill-rule="evenodd" />
        <g
           id="Grupo_442"
           data-name="Grupo 442">
          <path
             id="Caminho_353"
             data-name="Caminho 353"
             d="m 386.643,201.181 29.429,1.571 c 0,0 1.175,0.339 1.142,1.419 -0.033,1.08 -1.068,21.931 -1.068,21.931 a 6.971,6.971 0 0 1 -1.216,3.5 c -1.166,1.622 -10.427,16.883 -28.287,16.883 -17.86,0 -27.122,-15.261 -28.288,-16.883 a 6.98,6.98 0 0 1 -1.214,-3.5 c 0,0 -1.033,-20.849 -1.067,-21.931 -0.034,-1.082 1.139,-1.419 1.139,-1.419 z"
             fill="#ffffff"
             fill-rule="evenodd" />
          <path
             id="Caminho_354"
             data-name="Caminho 354"
             d="m 386.645,203.445 -28.28,1.51 c 0.247,7 0.723,14.042 1.035,21.047 a 4.67,4.67 0 0 0 0.8,2.278 c 0.787,1.1 1.491,2.17 2.338,3.241 a 38.766,38.766 0 0 0 5.179,5.414 28.231,28.231 0 0 0 37.866,0 38.894,38.894 0 0 0 5.181,-5.414 c 0.847,-1.071 1.549,-2.144 2.338,-3.241 A 4.648,4.648 0 0 0 413.89,226 c 0.311,-7.005 0.788,-14.044 1.037,-21.047 z"
             fill="#d3e4ec"
             fill-rule="evenodd" />
          <path
             id="Caminho_355"
             data-name="Caminho 355"
             d="m 358.783,214.052 c 0.144,2.739 0.3,5.477 0.439,8.213 L 385.31,212.2 Z m 0.574,11.024 0.043,0.926 a 4.67,4.67 0 0 0 0.8,2.278 c 0.787,1.1 1.491,2.17 2.338,3.241 a 38.766,38.766 0 0 0 5.179,5.414 28.231,28.231 0 0 0 37.866,0 38.894,38.894 0 0 0 5.181,-5.414 c 0.847,-1.071 1.549,-2.144 2.338,-3.241 a 3.972,3.972 0 0 0 0.328,-0.556 c 0,0 -4.585,4.964 -20.51,4.964 -15.925,0 -33.558,-7.612 -33.558,-7.612 z m 54.624,-1.029 c 0.1,-2.008 0.206,-4.016 0.315,-6.025 l -19.454,-1.359 z"
             fill="#accbdb"
             fill-rule="evenodd" />
        </g>
      </g>
      <path
         id="Caminho_356"
         data-name="Caminho 356"
         d="m 387.247,273.266 2.018,-2.215 6.065,0.812 17.663,-12.98 40.817,10.253 c -4.2,27.283 -13.351,129.177 -7.774,152.366 a 7.06,7.06 0 0 1 -0.4,4.727 c -1.122,2.645 -3.445,6.891 -3.445,6.891 l -112.266,-0.951 c -0.47,-0.894 -5.968,-140.381 -8.648,-161.606 l 10.479,-3.9 29.746,-7.782 17.66,12.98 6.066,-0.812 z"
         fill="#ffffff"
         fill-rule="evenodd" />
      <g
         id="Grupo_444"
         data-name="Grupo 444">
        <path
           id="Caminho_357"
           data-name="Caminho 357"
           d="m 391.744,281.152 0.9,3.824 9.1,94.674 -14.493,24.6 -14.49,-24.6 9.1,-94.674 0.9,-3.824 4.5,2.327 z"
           fill="#cf4a60"
           fill-rule="evenodd" />
        <path
           id="Caminho_358"
           data-name="Caminho 358"
           d="m 391.744,281.153 0.9,3.823 9.1,94.674 -14.493,24.6 c 0,0 8.512,-21.188 8.849,-24.473 0.337,-3.285 -5.119,-93.576 -6.724,-94.417 -1.605,-0.841 -4.8,-0.759 -4.8,-0.759 l 2.041,-1.451 0.629,0.326 z"
           fill="#ba3147"
           fill-rule="evenodd" />
        <path
           id="Caminho_359"
           data-name="Caminho 359"
           d="m 381.853,285.941 -4.249,-9.318 c 3.672,-3.455 15.617,-3.455 19.29,0 l -4.25,9.318 a 24.8,24.8 0 0 0 -10.791,0 z"
           fill="#cf4a60"
           fill-rule="evenodd" />
        <path
           id="Caminho_360"
           data-name="Caminho 360"
           d="m 379.3,280.333 -1.691,-3.71 c 1.319,-1.244 3.711,-2.037 6.4,-2.387 l -4.713,6.1 z m 8.049,-6.3 c 3.873,0.014 7.726,0.878 9.55,2.591 l -4.25,9.318 a 20.3,20.3 0 0 0 -4.068,-0.563 10.315,10.315 0 0 0 1.893,-1.741 c 0.057,-0.343 -0.015,-8.361 -0.352,-8.495 z"
           fill="#ba3147"
           fill-rule="evenodd" />
        <path
           id="Caminho_361"
           data-name="Caminho 361"
           d="m 406.539,251.642 a 6.774,6.774 0 0 1 2.333,0 c 0.6,0.26 2.633,3.852 3.891,5.621 0,0 1.968,2.647 1.132,5.094 -0.836,2.447 -11.795,22.543 -11.795,22.543 0,0 -0.778,1.067 -2.034,0.026 -1.256,-1.041 -10.8,-13.873 -10.8,-13.873 l 17.274,-17.8 z"
           fill="#ff8743"
           fill-rule="evenodd" />
        <path
           id="Caminho_362"
           data-name="Caminho 362"
           d="m 368.312,251.463 a 6.8,6.8 0 0 0 -2.333,0 c -0.6,0.26 -2.634,3.853 -3.889,5.623 0,0 -2.328,2.824 -1.488,5.271 0.84,2.447 11.788,22.543 11.788,22.543 0,0 0.778,1.067 2.036,0.026 1.258,-1.041 10.8,-13.873 10.8,-13.873 l -16.917,-17.974 z"
           fill="#ff8743"
           fill-rule="evenodd" />
      </g>
      <path
         id="Caminho_363"
         data-name="Caminho 363"
         d="m 453.81,269.136 c 0,0 12.334,2.44 19.384,11.734 7.05,9.294 41.98,72.741 41.98,72.741 0,0 0.961,2.084 0.159,3.364 -0.802,1.28 -24.194,20.671 -31.245,22.434 a 5.265,5.265 0 0 1 -3.524,-1.122 c -1.442,-1.283 -28.73,-41.171 -28.73,-41.171 0,0 -7.051,-40.23 1.976,-67.98 z"
         fill="#ffffff"
         fill-rule="evenodd" />
      <path
         id="Caminho_364"
         data-name="Caminho 364"
         d="m 468.374,361.146 c -7.836,-11.306 -20.82,-29.615 -20.82,-29.615 a 232.281,232.281 0 0 1 1.731,-32.4 z"
         fill="#f2d8d9"
         fill-rule="evenodd" />
      <path
         id="Caminho_365"
         data-name="Caminho 365"
         d="m 336.494,265.332 c -4.279,0 -28.143,8.147 -35.192,17.439 -7.049,9.292 -41.98,70.84 -41.98,70.84 0,0 -0.961,2.084 -0.16,3.364 0.801,1.28 24.2,20.671 31.243,22.434 a 5.275,5.275 0 0 0 3.527,-1.122 c 1.441,-1.283 28.731,-41.171 28.731,-41.171 0,0 22.858,-44.034 13.831,-71.784 z"
         fill="#ffffff"
         fill-rule="evenodd" />
      <path
         id="Caminho_366"
         data-name="Caminho 366"
         d="m 306.122,361.146 c 7.836,-11.306 19.275,-27.953 19.275,-27.953 0,0 0.394,-13.933 -0.189,-34.058 z"
         fill="#f2d8d9"
         fill-rule="evenodd" />
      <path
         id="Caminho_367"
         data-name="Caminho 367"
         d="m 346.034,191.8 v 5.8 c 1.962,0 4.337,-2.851 4.337,-5.41 v -5.312 c 0,0 4.606,-7.3 4.606,-14.975 0,-7.675 1.786,-12.246 8.356,-12.246 6.57,0 13.147,3.439 23.914,3.439 10.767,0 17.346,-3.439 23.916,-3.439 6.57,0 8.354,4.572 8.354,12.246 0,7.674 4.609,14.975 4.609,14.975 v 5.312 c 0,2.559 2.375,5.41 4.336,5.41 v -5.8 c -0.027,-4.008 1.436,-5.472 1.436,-5.472 v -17.249 c 0,-58.712 -85.3,-58.712 -85.3,0 v 17.247 c 0,0 1.461,1.464 1.436,5.474 z"
         fill="#952730"
         fill-rule="evenodd" />
      <path
         id="Caminho_368"
         data-name="Caminho 368"
         d="M 387.417,153.275 C 384.21,174.319 375.193,196 340.206,188.42 l -9.621,-2.639 c 0,0 3.4,-20.727 12.829,-37.794 9.429,-17.067 35.663,-34.036 44.91,-36.069 9.247,-2.033 19.622,10.364 20.753,12.8 1.131,2.436 1.183,7.5 0.543,8.88 -14.961,10.262 -18.713,-3.211 -22.203,19.677 z"
         fill="#952730"
         fill-rule="evenodd" />
      <path
         id="Caminho_369"
         data-name="Caminho 369"
         d="m 311.122,460.236 c 7.61,6.182 13.792,7.488 17.12,-3.21 3.328,-10.698 4.28,-11.294 4.28,-11.294 0,0 4.874,3.092 7.489,3.566 2.615,0.474 2.97,-1.783 2.375,-2.733 -0.595,-0.95 2.5,0.594 3.091,-0.951 0.591,-1.545 -1.3,-3.685 -1.3,-3.685 0,0 2.259,-1.9 1.426,-3.448 -0.833,-1.548 -16.288,-11.769 -18.9,-9.273 -2.612,2.496 -8.916,19.5 -8.916,19.5 z"
         fill="#e6ad83"
         fill-rule="evenodd" />
      <g
         id="Grupo_445"
         data-name="Grupo 445">
        <path
           id="Caminho_370"
           data-name="Caminho 370"
           d="m 342.505,445.591 a 0.448,0.448 0 0 1 -0.481,0.755 c -2.6,-1.652 -4.512,-2.921 -5.976,-3.89 -4.207,-2.786 -4.41,-2.919 -5.059,-1.946 a 0.4484777,0.4484777 0 1 1 -0.748,-0.495 c 1.147,-1.72 1.384,-1.562 6.3,1.694 1.492,0.991 3.44,2.277 5.964,3.882 z"
           fill="#d7766d"
           fill-rule="evenodd" />
        <path
           id="Caminho_371"
           data-name="Caminho 371"
           d="m 344.645,441.312 a 0.4480226,0.4480226 0 0 1 -0.481,0.756 l -2.281,-1.454 c -8.381,-5.348 -11.11,-7.089 -11.964,-5.808 a 0.4498622,0.4498622 0 1 1 -0.748,-0.5 c 1.34,-2.013 4.252,-0.153 13.192,5.551 z"
           fill="#d7766d"
           fill-rule="evenodd" />
        <path
           id="Caminho_372"
           data-name="Caminho 372"
           d="m 319.876,442.775 a 0.44827029,0.44827029 0 0 1 0.848,0.291 l -4.035,10.02 a 0.44937846,0.44937846 0 0 1 -0.85,-0.292 z"
           fill="#d7766d"
           fill-rule="evenodd" />
      </g>
      <path
         id="Caminho_373"
         data-name="Caminho 373"
         d="m 464.13,460.236 c -7.608,6.182 -13.792,7.488 -17.121,-3.21 -3.329,-10.698 -4.278,-11.294 -4.278,-11.294 0,0 -4.876,3.092 -7.491,3.566 -2.615,0.474 -2.969,-1.783 -2.375,-2.733 0.594,-0.95 -2.5,0.594 -3.091,-0.951 -0.591,-1.545 1.308,-3.685 1.308,-3.685 0,0 -2.259,-1.9 -1.427,-3.448 0.832,-1.548 16.286,-11.769 18.9,-9.273 2.614,2.496 8.916,19.5 8.916,19.5 z"
         fill="#e6ad83"
         fill-rule="evenodd" />
      <g
         id="Grupo_446"
         data-name="Grupo 446">
        <path
           id="Caminho_374"
           data-name="Caminho 374"
           d="m 432.747,445.591 a 0.44733237,0.44733237 0 0 0 0.48,0.755 c 2.6,-1.652 4.512,-2.921 5.976,-3.89 4.208,-2.786 4.41,-2.919 5.06,-1.946 a 0.44806082,0.44806082 0 1 0 0.747,-0.495 c -1.146,-1.72 -1.384,-1.562 -6.3,1.694 -1.49,0.991 -3.44,2.277 -5.963,3.882 z"
           fill="#d7766d"
           fill-rule="evenodd" />
        <path
           id="Caminho_375"
           data-name="Caminho 375"
           d="m 430.606,441.312 a 0.4480226,0.4480226 0 0 0 0.481,0.756 l 2.28,-1.454 c 8.382,-5.348 11.111,-7.089 11.966,-5.808 a 0.4494466,0.4494466 0 0 0 0.747,-0.5 c -1.339,-2.013 -4.252,-0.153 -13.192,5.551 z"
           fill="#d7766d"
           fill-rule="evenodd" />
        <path
           id="Caminho_376"
           data-name="Caminho 376"
           d="m 454.84,442.239 a 0.448,0.448 0 1 0 -0.847,0.291 l 4.569,10.556 a 0.44937846,0.44937846 0 0 0 0.85,-0.292 z"
           fill="#d7766d"
           fill-rule="evenodd" />
      </g>
    </g>
    <g
       id="Grupo_423"
       data-name="Grupo 423"
       transform="translate(116.395,65.537)">
      <path
         id="Caminho_166"
         data-name="Caminho 166"
         d="M 284.025,88.776 A 14.549,14.549 0 1 0 269.476,74.227 14.579,14.579 0 0 0 284.025,88.776 Z"
         fill="#2c2930"
         fill-rule="evenodd" />
      <path
         id="Caminho_167"
         data-name="Caminho 167"
         d="m 267.727,123.256 v 0 c -12.157,0 -22.1,17.01 -22.1,37.8 v 20.207 c 0,1.16 -1.526,1.8 -1.526,1.8 l -6.025,2.464 0.309,9.273 9.941,16.79 0.441,-0.473 c 3.872,11.026 10.934,18.444 18.963,18.444 v 0 c 8.059,0 15.145,-7.473 19.008,-18.567 l 0.555,0.6 9.94,-16.79 0.311,-9.273 -6.026,-2.464 c 0,0 -1.526,-0.635 -1.526,-1.8 l -0.158,0.069 v -20.281 c -0.003,-20.789 -9.95,-37.799 -22.107,-37.799 z"
         fill="#e6ad83"
         fill-rule="evenodd"
         style="fill:#a05a2c" />
      <path
         id="Caminho_168"
         data-name="Caminho 168"
         d="m 245.871,155.4 q -0.246,2.771 -0.249,5.658 v 20.207 c 0,1.16 -1.526,1.8 -1.526,1.8 l -6.025,2.464 0.309,9.273 9.941,16.79 0.441,-0.473 c 3.46,9.851 9.466,16.822 16.431,18.2 1.982,0.025 3.864,-0.026 5.622,-0.122 a 17,17 0 0 0 7.774,-4.544 c -2.84,-1.751 -1.726,-1.055 -14.616,-9.033 C 253.747,209.281 248,191.7 252.83,183.425 a 8.552,8.552 0 0 1 6.043,-4.211 c -0.78,-4.381 -8.165,-16.989 -13.002,-23.814 z"
         fill="#d7766d"
         fill-rule="evenodd"
         style="fill:#784421" />
      <path
         id="Caminho_169"
         data-name="Caminho 169"
         d="m 245.622,162.325 v 18.9 c 22.385,10.615 37.8,-0.044 44.209,-6.178 v -8.46 c -6.6,-3.67 -21.933,-3.542 -36.54,-4.158 -2.567,-0.107 -5.165,-0.149 -7.669,-0.104 z"
         fill="#d7766d"
         fill-rule="evenodd"
         style="fill:#784421" />
      <path
         id="Caminho_170"
         data-name="Caminho 170"
         d="m 345.042,204.671 8.5,4.744 a 19.441,19.441 0 0 1 5.635,8.064 c 2.1,5.412 31.811,100.189 31.811,100.189 0,0 4.86,19.218 -5.081,35.568 -9.941,16.35 -45.23,60.931 -45.23,60.931 l -21.269,-39.944 32.478,-39.987 c 0,0 -3.317,-3.645 -0.223,-6.295 l -15.9,-50.184 -2.623,-45.517 z"
         fill="#5e90cc"
         fill-rule="evenodd"
         style="fill:#000000" />
      <path
         id="Caminho_171"
         data-name="Caminho 171"
         d="m 358.88,390.73 c -7.938,10.388 -14.984,19.354 -17.353,22.361 l -2.871,-2.724 -12.464,-23.41 -1.59,-12.184 10.35,-18.33 z m -6.991,-56.494 c 0,0 -1.929,-2.12 -1.472,-4.3 l 10.748,1.759 -9.276,2.545 z m -4.223,-18.921 -11.9,-37.558 -1.492,-25.87 7.049,-7.612 z"
         fill="#3861a6"
         fill-rule="evenodd"
         style="fill:#4d4d4d" />
      <path
         id="Caminho_172"
         data-name="Caminho 172"
         d="m 190.413,204.671 -8.5,4.744 a 19.434,19.434 0 0 0 -5.634,8.064 c -2.1,5.412 -31.811,100.189 -31.811,100.189 0,0 -4.862,19.218 5.08,35.568 9.942,16.35 45.231,60.931 45.231,60.931 l 21.268,-39.944 -32.477,-39.987 c 0,0 3.314,-3.645 0.221,-6.295 l 15.9,-50.184 2.622,-45.517 z"
         fill="#5e90cc"
         fill-rule="evenodd"
         style="fill:#000000" />
      <path
         id="Caminho_173"
         data-name="Caminho 173"
         d="m 176.575,390.73 c 7.937,10.388 14.983,19.354 17.35,22.361 l 2.872,-2.724 12.466,-23.41 1.589,-12.184 -10.352,-18.33 z m 6.991,-56.494 c 0,0 1.929,-2.12 1.47,-4.3 l -10.747,1.759 9.277,2.545 z m 4.222,-18.921 11.9,-37.558 1.49,-25.87 -7.047,-7.612 z"
         fill="#3861a6"
         fill-rule="evenodd"
         style="fill:#4d4d4d" />
      <path
         id="Caminho_174"
         data-name="Caminho 174"
         d="m 329.668,393.854 4.067,9.28 c 0,0 3.9,6.628 4.391,8.948 0.327,1.56 3.029,18.606 4.762,29.6 0.843,5.353 -1.078,-6.836 -1.078,-6.836 l -141.37643,-1.25136 c 0,0 -0.681,4.333 0,0 1.7,-10.8 -3.79557,-19.85964 -3.44857,-21.51464 0.487,-2.32 4.39,-8.948 4.39,-8.948 l 4.066,-9.28 62.115,2.153 z"
         fill="#3861a6"
         fill-rule="evenodd"
         sodipodi:nodetypes="cccccccccccc" />
      <path
         id="Caminho_175"
         data-name="Caminho 175"
         d="m 329.668,393.854 4.067,9.28 c 0,0 3.9,6.628 4.391,8.948 0.265,1.26 2.08,12.641 3.684,22.764 l -141.37643,-1.25136 c 0.961,-6.048 -0.181,1.15 0,0 1.7,-10.8 -3.79557,-19.85764 -3.44657,-21.51264 0.485,-2.32 4.388,-8.948 4.388,-8.948 l 4.066,-9.28 62.115,2.153 z"
         fill="#325497"
         fill-rule="evenodd"
         sodipodi:nodetypes="ccccccccccc"
         style="fill:#24221c" />
      <path
         id="Caminho_176"
         data-name="Caminho 176"
         d="m 211.462,387.923 v 5.931 c 0,0 30.563,5.523 56.265,5.523 25.702,0 56.263,-5.523 56.263,-5.523 v -5.931 l -56.263,0.628 z"
         fill="#bf5c35"
         fill-rule="evenodd" />
      <path
         id="Caminho_177"
         data-name="Caminho 177"
         d="m 297.6,185.609 42.485,17.2 -1.694,41.76 c -3.423,43.7 -10.208,107.974 -10.208,110.665 0,2.691 2.518,11.045 5.51,21.1 v 0 a 7.287,7.287 0 0 1 -2.191,6.51 40.173,40.173 0 0 1 -7.512,5.079 c -48.372,5.7 -64.157,5.7 -112.528,0 a 40.18,40.18 0 0 1 -7.511,-5.079 7.28,7.28 0 0 1 -2.192,-6.51 v 0 c 2.992,-10.051 5.511,-18.4 5.511,-21.1 0,-2.7 -5.9,-65.2 -9.325,-108.9 l -2.578,-43.527 42.7,-17.29 -0.059,0.088 c 0,0 5.037,28.24 29.794,28.24 24.757,0 29.798,-28.219 29.798,-28.236 z"
         fill="#ffffff"
         fill-rule="evenodd" />
      <path
         id="Caminho_178"
         data-name="Caminho 178"
         d="m 329.417,341.711 c -0.761,7.8 -1.234,12.815 -1.234,13.525 0,2.691 2.518,11.047 5.51,21.1 v 0 a 7.273,7.273 0 0 1 -2.191,6.508 40.121,40.121 0 0 1 -7.512,5.081 c -48.372,5.7 -64.157,5.7 -112.528,0 a 40.128,40.128 0 0 1 -7.511,-5.081 7.269,7.269 0 0 1 -2.192,-6.508 v 0 c 2.992,-10.051 5.511,-18.4 5.511,-21.1 0,-2.7 -5.9,-65.2 -9.325,-108.9 l -2.229,-37.62 c 9.758,-6.645 18.707,-12.232 25.966,-16.561 l 16.389,-6.636 -0.059,0.088 a 45.011,45.011 0 0 0 4.43,12.067 c 7.2,48.21 8.227,86.356 26.655,105.2 20.4,20.862 46.824,14.835 46.824,14.835 0,0 5.474,9.378 13.496,24.002 z"
         fill="#cfd0d2"
         fill-rule="evenodd" />
      <path
         id="Caminho_179"
         data-name="Caminho 179"
         d="m 239.774,184.832 c 0,0 -2.8,-1.426 -3.8,-1.094 -1,0.332 -43.687,19.773 -45.565,20.933 0,0 7.25,69.614 5.945,84.127 l 6.868,52.291 a 4.281,4.281 0 0 0 -0.331,5.855 l -18.779,74.561 a 3.44,3.44 0 0 0 2.431,3.977 c 3.092,1.1 58.1,10.383 58.1,10.383 0,0 5.745,0 6.628,-3.756 0.883,-3.756 7.436,-96.512 7.436,-96.512 l -23.968,-148.73 z"
         fill="#5e90cc"
         fill-rule="evenodd"
         style="fill:#000000" />
      <path
         id="Caminho_180"
         data-name="Caminho 180"
         d="m 295.68,184.832 c 0,0 2.8,-1.426 3.8,-1.094 1,0.332 43.689,19.773 45.567,20.933 0,0 -7.253,69.614 -5.948,84.127 l -6.866,52.291 a 4.281,4.281 0 0 1 0.331,5.855 l 18.778,74.561 a 3.439,3.439 0 0 1 -2.431,3.977 c -3.093,1.1 -58.1,10.383 -58.1,10.383 0,0 -5.743,0 -6.627,-3.756 -0.884,-3.756 -7.438,-96.512 -7.438,-96.512 l 23.971,-148.73 z"
         fill="#5e90cc"
         fill-rule="evenodd"
         style="fill:#000000" />
      <path
         id="Caminho_181"
         data-name="Caminho 181"
         d="m 295.68,184.832 c 0,0 2.8,-1.426 3.8,-1.094 0.324,0.107 5.037,2.227 11.322,5.083 l 7.368,55.988 -41.17,89.17 v 0 l 23.71,-147.112 z"
         fill="#83aede"
         fill-rule="evenodd"
         style="fill:#e3dbdb" />
      <path
         id="Caminho_182"
         data-name="Caminho 182"
         d="m 239.774,184.832 c 0,0 -2.8,-1.426 -3.8,-1.094 -0.322,0.107 -5.038,2.227 -11.323,5.083 l -7.367,55.988 41.165,89.17 v 0 L 234.745,186.867 Z"
         fill="#83aede"
         fill-rule="evenodd"
         style="fill:#e3dbdb" />
      <path
         id="Caminho_183"
         data-name="Caminho 183"
         d="m 307.523,120.011 c 0.288,0.04 0.57,0.09 0.85,0.151 h 0.007 v 0 a 11.595,11.595 0 1 1 -9.691,2.264 c -0.319,3.42 0.2,7.659 4.56,8.113 l -0.08,-6.684 c -0.032,-2.705 2.499,-3.931 4.354,-3.844 z"
         fill="#d7766d"
         fill-rule="evenodd"
         style="fill:#502d16" />
      <path
         id="Caminho_184"
         data-name="Caminho 184"
         d="m 228.254,119.459 c -0.288,0.038 -0.57,0.083 -0.852,0.139 h -0.008 v 0 a 11.593,11.593 0 1 0 9.659,2.4 c 0.271,3.424 -0.3,7.655 -4.674,8.049 l 0.174,-6.683 c 0.072,-2.704 -2.444,-3.964 -4.299,-3.905 z"
         fill="#d7766d"
         fill-rule="evenodd"
         style="fill:#784421" />
      <path
         id="Caminho_185"
         data-name="Caminho 185"
         d="m 267.812,178.055 c -21.637,0 -39.688,-26.7 -39.688,-47.778 v -28 a 39.8,39.8 0 0 1 39.682,-39.683 h 0.006 a 39.8,39.8 0 0 1 39.681,39.683 v 27.411 c 0,23.098 -15.745,48.367 -39.681,48.367 z"
         fill="#e6ad83"
         fill-rule="evenodd"
         style="fill:#a05a2c" />
      <path
         id="Caminho_186"
         data-name="Caminho 186"
         d="m 230.457,88.909 0.012,-0.036 c 0.105,-0.038 48.6,-17.231 49.629,-16.055 1.029,1.176 7.362,11.636 7.362,11.636 0,0 -10.9,-3.388 -21.65,7.805 -10.75,11.193 -22.386,19.741 -32.254,19.59 -9.656,-0.149 -3.374,-22.001 -3.099,-22.94 z"
         fill="#d7766d"
         fill-rule="evenodd"
         style="fill:#784421" />
      <path
         id="Caminho_187"
         data-name="Caminho 187"
         d="m 296.5,137.792 a 6.548,6.548 0 1 0 6.667,6.426 6.544,6.544 0 0 0 -6.667,-6.426 z"
         fill="#d7766d"
         fill-rule="evenodd"
         style="fill:#784421" />
      <path
         id="Caminho_188"
         data-name="Caminho 188"
         d="m 238.873,138.835 a 6.547,6.547 0 1 0 6.667,6.425 6.549,6.549 0 0 0 -6.667,-6.425 z"
         fill="#d7766d"
         fill-rule="evenodd"
         style="fill:#784421" />
      <path
         id="Caminho_189"
         data-name="Caminho 189"
         d="m 256.014,113.8 a 1.6623713,1.6623713 0 0 1 -1.373,3.028 10.891,10.891 0 0 0 -9.814,0.631 1.669,1.669 0 1 1 -1.776,-2.826 c 6.321,-3.972 12.949,-0.839 12.963,-0.833 z"
         fill="#2c2930"
         fill-rule="evenodd" />
      <path
         id="Caminho_190"
         data-name="Caminho 190"
         d="m 295.257,114.542 a 1.663,1.663 0 1 1 -1.615,2.907 10.889,10.889 0 0 0 -9.832,-0.169 1.669,1.669 0 1 1 -1.54,-2.961 c 6.622,-3.447 12.969,0.215 12.987,0.223 z"
         fill="#2c2930"
         fill-rule="evenodd" />
      <path
         id="Caminho_191"
         data-name="Caminho 191"
         d="m 257.981,149.54 a 11.747487,11.747487 0 1 0 23.494,0.214 h -0.02 a 2.034,2.034 0 0 0 -2.009,-2.046 l -19.4,-0.177 A 2.036,2.036 0 0 0 258,149.54 Z"
         fill="#ffffff"
         fill-rule="evenodd" />
      <path
         id="Caminho_192"
         data-name="Caminho 192"
         d="m 262.274,158.726 a 11.744,11.744 0 0 0 13.571,0.951 7.3,7.3 0 0 0 -6.677,-4.394 7.407,7.407 0 0 0 -6.894,3.443 z"
         fill="#ffffff"
         fill-rule="evenodd" />
      <path
         id="Caminho_193"
         data-name="Caminho 193"
         d="m 278.79,147.7 -18.232,-0.166 c -0.307,2.012 0.607,4.059 1.958,4.515 1.647,0.554 14.842,0.33 15.786,-0.7 0.456,-0.497 0.53,-2.113 0.488,-3.649 z"
         fill="#ffffff"
         fill-rule="evenodd" />
      <path
         id="Caminho_194"
         data-name="Caminho 194"
         d="m 270.508,131.131 c 0.852,2.42 2.338,6.792 2.212,7.479 -0.181,0.956 -5.233,1.207 -6.558,-0.254 -0.884,-0.974 0.211,-4.6 1.169,-7.014 1.305,-3.292 2.033,-3.467 3.177,-0.211 z"
         fill="#f1d3c8"
         fill-rule="evenodd" />
      <path
         id="Caminho_195"
         data-name="Caminho 195"
         d="m 247.016,123.18 a 5.106,5.106 0 0 0 -3.117,1.058 1.507,1.507 0 0 1 -0.957,-0.756 0.59147802,0.59147802 0 0 0 -1.052,0.541 2.536,2.536 0 0 0 1.11,1.106 l -0.044,0.055 a 2.743,2.743 0 0 1 -1.437,-0.928 0.592,0.592 0 0 0 -0.921,0.743 3.852,3.852 0 0 0 1.74,1.218 l -0.007,0.01 a 3.671,3.671 0 0 1 -1.776,-0.579 0.59282565,0.59282565 0 0 0 -0.637,1 4.749,4.749 0 0 0 1.834,0.705 l 0.23,0.033 a 5.052,5.052 0 0 0 -0.082,0.917 5.119,5.119 0 1 0 5.119,-5.12 z m 41.584,0 a 5.12,5.12 0 1 0 5.121,5.12 5.178,5.178 0 0 0 -0.084,-0.929 l 0.151,-0.021 a 4.745,4.745 0 0 0 1.833,-0.705 0.59282565,0.59282565 0 1 0 -0.637,-1 3.681,3.681 0 0 1 -1.7,0.573 l -0.013,-0.029 a 3.821,3.821 0 0 0 1.669,-1.189 0.592,0.592 0 1 0 -0.921,-0.743 2.755,2.755 0 0 1 -1.371,0.91 l -0.051,-0.067 a 2.559,2.559 0 0 0 1.05,-1.076 0.592,0.592 0 0 0 -1.053,-0.541 1.493,1.493 0 0 1 -0.9,0.739 5.1,5.1 0 0 0 -3.094,-1.042 z"
         fill="#2c2930"
         fill-rule="evenodd" />
      <path
         id="Caminho_196"
         data-name="Caminho 196"
         d="m 297.729,137.1 a 0.64639036,0.64639036 0 0 1 -1.239,-0.369 c 0.012,-0.038 9.393,-15.814 14.362,-15.029 l -1.4,1.091 c -4.952,4.45 -11.714,14.268 -11.723,14.307 z"
         fill="#accbdb"
         fill-rule="evenodd" />
      <path
         id="Caminho_197"
         data-name="Caminho 197"
         d="m 238.134,136.874 a 0.646,0.646 0 1 0 1.238,-0.367 c -0.011,-0.038 -9.495,-14.331 -14.464,-13.546 l 0.765,0.326 0.607,0.411 c 4.948,4.454 11.844,13.142 11.854,13.176 z"
         fill="#accbdb"
         fill-rule="evenodd" />
      <path
         id="Caminho_198"
         data-name="Caminho 198"
         d="m 239.636,161.112 a 0.64541711,0.64541711 0 1 0 0.142,-1.283 l -0.227,-0.025 c -7.248,-0.908 -13.57,-11.666 -14.069,-18.068 -0.456,-0.255 -0.9,-0.529 -1.342,-0.835 0.338,7.215 7.12,19.169 15.256,20.185 z"
         fill="#accbdb"
         fill-rule="evenodd" />
      <path
         id="Caminho_199"
         data-name="Caminho 199"
         d="m 295.858,161.112 a 0.6453623,0.6453623 0 1 1 -0.141,-1.283 l 0.226,-0.025 c 7.248,-0.908 14.9,-11.666 15.394,-18.068 0.455,-0.255 0.9,-0.529 1.345,-0.835 -0.34,7.215 -8.448,19.169 -16.583,20.185 z"
         fill="#accbdb"
         fill-rule="evenodd" />
      <path
         id="Caminho_200"
         data-name="Caminho 200"
         d="m 267.806,134.027 29.437,1.572 c 0,0 1.176,0.339 1.139,1.42 -0.037,1.081 -1.065,21.936 -1.065,21.936 a 6.977,6.977 0 0 1 -1.218,3.5 c -1.164,1.624 -10.429,16.89 -28.293,16.89 -17.864,0 -27.128,-15.266 -28.294,-16.89 a 6.989,6.989 0 0 1 -1.218,-3.5 c 0,0 -1.031,-20.854 -1.065,-21.936 -0.034,-1.082 1.141,-1.42 1.141,-1.42 z"
         fill="#ffffff"
         fill-rule="evenodd" />
      <path
         id="Caminho_201"
         data-name="Caminho 201"
         d="m 267.809,136.292 -28.288,1.51 c 0.249,7.005 0.723,14.046 1.036,21.052 a 4.658,4.658 0 0 0 0.793,2.28 c 0.789,1.1 1.492,2.17 2.339,3.24 a 38.693,38.693 0 0 0 5.182,5.416 28.235,28.235 0 0 0 37.874,0 38.7,38.7 0 0 0 5.183,-5.416 c 0.847,-1.07 1.548,-2.143 2.338,-3.24 a 4.648,4.648 0 0 0 0.793,-2.28 c 0.314,-7.006 0.787,-14.047 1.038,-21.052 z"
         fill="#d3e4ec"
         fill-rule="evenodd" />
      <path
         id="Caminho_202"
         data-name="Caminho 202"
         d="m 239.938,146.9 c 0.146,2.738 0.3,5.477 0.438,8.213 l 26.1,-10.066 z m 0.577,11.025 0.042,0.926 a 4.658,4.658 0 0 0 0.793,2.28 c 0.789,1.1 1.492,2.17 2.339,3.24 a 38.693,38.693 0 0 0 5.182,5.416 28.235,28.235 0 0 0 37.874,0 38.7,38.7 0 0 0 5.183,-5.416 c 0.847,-1.07 1.548,-2.143 2.338,-3.24 a 3.8,3.8 0 0 0 0.327,-0.556 c 0,0 -4.587,4.963 -20.513,4.963 -15.926,0 -33.565,-7.613 -33.565,-7.613 z m 54.635,-1.03 q 0.146,-3.01 0.315,-6.025 l -19.459,-1.36 z"
         fill="#accbdb"
         fill-rule="evenodd" />
      <path
         id="Caminho_203"
         data-name="Caminho 203"
         d="m 228.124,130.277 c 0,0 4.6,-3.309 4.6,-11.335 0,0 7.364,-6.849 6.776,-14.066 -0.588,-7.217 -8.729,-16.806 -8.729,-16.806 0,0 -7.325,4.58 -9.976,9.589 -2.651,5.009 0.735,25.627 0.735,25.627 0,0 5.005,-3.686 6.594,6.991 z"
         fill="#9c2f40"
         fill-rule="evenodd"
         style="fill:#2b1100" />
      <path
         id="Caminho_204"
         data-name="Caminho 204"
         d="m 307.493,130.277 c 0,0 -4.6,-3.309 -4.6,-11.335 0,0 -7.365,-6.849 -6.776,-14.066 0.589,-7.217 8.73,-16.806 8.73,-16.806 0,0 7.323,4.58 9.976,9.589 2.653,5.009 -0.739,25.627 -0.739,25.627 0,0 -5.003,-3.686 -6.591,6.991 z"
         fill="#9c2f40"
         fill-rule="evenodd"
         style="fill:#2b1100" />
      <path
         id="Caminho_205"
         data-name="Caminho 205"
         d="m 284.1,84.6 -0.171,-0.073 A 0.892,0.892 0 0 1 283.12,84.48 c -7.244,-4.235 -13.924,1.852 -21.764,9 -7.922,7.222 -16.979,15.475 -29.192,15.931 a 22.48,22.48 0 0 1 -3.363,0.665 c -20.92,2.439 -30.485,-26.023 -11.105,-44.886 20.784,-20.229 66.2,-23.2 71.4,9.277 0,0 0.948,6.963 -5,10.131 z m -13.18,-1.115 c -11.28,3.216 -20.489,16.273 -31.73,22.874 8.225,-2.594 14.934,-8.705 20.96,-14.2 3.763,-3.434 7.275,-6.636 10.767,-8.676 z"
         fill="#ba3147"
         fill-rule="evenodd"
         style="fill:#2b1100" />
      <path
         id="Caminho_206"
         data-name="Caminho 206"
         d="m 275.474,79.847 0.109,0.024 a 0.536,0.536 0 0 0 0.411,0.263 c 5,0.483 6.11,5.782 7.41,12 1.315,6.285 2.818,13.47 8.589,17.975 a 13.764,13.764 0 0 0 1.4,1.5 c 9.3,8.522 23.931,-1.946 21.137,-17.9 -3,-17.113 -24.012,-34.488 -37.928,-20.538 0,0 -2.9,3.047 -1.127,6.672 z m 6.793,4.082 c 4.349,5.518 4.242,15.089 7.385,22.236 -3.086,-4.145 -4.2,-9.464 -5.2,-14.247 a 41.8,41.8 0 0 0 -2.185,-7.989 z"
         fill="#ba3147"
         fill-rule="evenodd"
         style="fill:#2b1100" />
    </g>
    <g
       id="Grupo_431"
       data-name="Grupo 431"
       transform="translate(-444.598,22.136)">
      <path
         id="Caminho_246"
         data-name="Caminho 246"
         d="m 672.725,446.918 5.552,-0.68 21.448,-59.652 -9.125,-54.609 33.371,-10.877 10.182,65.773 c 0,0 1.6,12.628 -3.836,20.786 -5.436,8.158 -41.7,54.609 -41.7,54.609 0,0 -4.982,10.2 -12.462,10.2 -7.48,0 -3.43,-25.55 -3.43,-25.55 z"
         fill="#d7766d"
         fill-rule="evenodd" />
      <path
         id="Caminho_247"
         data-name="Caminho 247"
         d="m 693.813,351.188 -3.21,-19.211 32.922,-10.732 0.718,1.6 1.048,6.768 z"
         fill="#d7766d"
         fill-rule="evenodd" />
      <path
         id="Caminho_248"
         data-name="Caminho 248"
         d="m 688.015,245.488 c 0,0 13.056,5.77 16,10.3 1.612,2.481 9.579,22.258 16.463,39.653 15.54,28.154 20.659,98.251 12.852,110.01 L 694.814,463.462 679.6,441.59 c 0,0 18.068,-50.4 18.068,-55.158 0,-19.859 -3.519,-32.48 -9.4,-49.125 -0.676,-1.927 -22.994,-60.843 -0.253,-91.819 z"
         fill="#5e90cc"
         fill-rule="evenodd"
         style="fill:#1a1a1a" />
      <path
         id="Caminho_249"
         data-name="Caminho 249"
         d="m 690.4,342.78 c -3.346,-5.9 -15.015,-35.283 -15.224,-38.835 l 12.572,-32.935 z"
         fill="#3861a6"
         fill-rule="evenodd"
         style="fill:#000000" />
      <path
         id="Caminho_250"
         data-name="Caminho 250"
         d="M 558.2,444.54 547.9,442.909 527.876,386.586 537,331.977 503.628,321.1 493.445,386.873 c 0,0 -1.6,12.628 3.836,20.786 5.436,8.158 41.693,54.609 41.693,54.609 0,0 4.985,10.2 12.463,10.2 7.478,0 6.763,-27.928 6.763,-27.928 z"
         fill="#d7766d"
         fill-rule="evenodd" />
      <path
         id="Caminho_251"
         data-name="Caminho 251"
         d="m 539.581,245.488 c 0,0 -13.054,5.77 -16,10.3 -21.166,32.568 -30.261,76.165 -32.93,116.185 -2.55,38.234 17.333,57.372 45.111,92.678 l 14.027,-23.063 c 0,0 -20.922,-48.976 -20.922,-53.731 -0.002,-44.797 37.55,-105.816 10.714,-142.369 z"
         fill="#5e90cc"
         fill-rule="evenodd"
         style="fill:#1a1a1a" />
      <path
         id="Caminho_252"
         data-name="Caminho 252"
         d="m 538.093,343.968 c 2.928,-0.623 11.33,-51.751 11.478,-54.289 l -9.245,-18.193 z"
         fill="#3861a6"
         fill-rule="evenodd"
         style="fill:#000000" />
      <path
         id="Caminho_253"
         data-name="Caminho 253"
         d="m 556.092,441.434 -3.779,9.518 c 0,0 -3.626,6.8 -4.079,9.177 -0.453,2.377 -6.94297,16.57158 -6.94297,16.57158 l 139.19109,1.16497 c 0,0 -0.66712,-15.35755 -1.12112,-17.73655 -0.454,-2.379 -4.076,-9.177 -4.076,-9.177 l -3.779,-9.518 v -6.082 L 613.8,436 556.093,435.355 Z"
         fill="#ff4b5a"
         fill-rule="evenodd"
         sodipodi:nodetypes="ccsccscccccc" />
      <path
         id="Caminho_254"
         data-name="Caminho 254"
         d="m 556.092,441.434 -3.779,9.518 c 0,0 -3.626,6.8 -4.079,9.177 -0.094,0.492 -0.4,2.491 -0.818,5.347 l 125.041,-21.649 -0.951,-2.393 v -6.082 L 613.8,436 556.093,435.355 Z"
         fill="#bf3642"
         fill-rule="evenodd" />
      <path
         id="Caminho_255"
         data-name="Caminho 255"
         d="m 613.43,163.891 v 0 c 12.468,0 22.671,17.445 22.671,38.768 v 31.49 c 0,21.323 -10.2,38.769 -22.671,38.769 v 0 c -12.47,0 -22.67,-17.446 -22.67,-38.769 v -31.49 c 0,-21.323 10.2,-38.768 22.67,-38.768 z"
         fill="#d7766d"
         fill-rule="evenodd"
         style="fill:#ffeeaa" />
      <path
         id="Caminho_256"
         data-name="Caminho 256"
         d="m 619.376,243.435 -3.078,0.2 -3.093,11.287 L 610.7,244 l -2.483,-0.561 -21.638,-16.978 -47,19.031 c -3.129,60.342 12.211,107.428 12.211,156.332 0,2.76 -2.582,11.329 -5.651,21.638 v 0 a 7.472,7.472 0 0 0 2.249,6.675 41.117,41.117 0 0 0 7.706,5.213 c 49.611,5.843 65.8,5.843 115.414,0 a 41.063,41.063 0 0 0 7.7,-5.213 7.461,7.461 0 0 0 2.25,-6.675 v 0 c -3.069,-10.309 -5.652,-18.878 -5.652,-21.638 0,-48.9 15.339,-95.991 12.207,-156.336 l -47,-19.031 z"
         fill="#5e90cc"
         fill-rule="evenodd"
         style="fill:#1a1a1a" />
      <path
         id="Caminho_257"
         data-name="Caminho 257"
         d="m 618.5,255.257 1.014,5.4 10.248,133.609 -16.332,34.718 -16.33,-34.721 10.248,-133.609 1.011,-5.4 5.066,3.282 z"
         fill="#cf4a60"
         fill-rule="evenodd" />
      <path
         id="Caminho_258"
         data-name="Caminho 258"
         d="m 618.5,255.257 1.014,5.4 10.248,133.607 -16.332,34.72 c 0,0 9.59,-29.9 9.97,-34.537 0.38,-4.637 -5.77,-132.061 -7.578,-133.246 -1.808,-1.185 -5.4,-1.073 -5.4,-1.073 l 2.3,-2.047 0.708,0.459 z"
         fill="#ba3147"
         fill-rule="evenodd" />
      <path
         id="Caminho_259"
         data-name="Caminho 259"
         d="m 607.353,260.654 -4.788,-10.5 c 4.139,-3.893 17.594,-3.893 21.733,0 l -4.787,10.5 a 27.923,27.923 0 0 0 -12.158,0 z"
         fill="#cf4a60"
         fill-rule="evenodd" />
      <path
         id="Caminho_260"
         data-name="Caminho 260"
         d="m 613.539,247.236 c 4.361,0.015 8.705,0.988 10.759,2.918 l -4.787,10.5 c -1.3,-0.345 -5.822,-0.318 -7.495,-0.4 0.9,-0.726 4.22,-2.362 4.272,-2.674 0.052,-0.312 0.758,-8.946 0.377,-9.1 z"
         fill="#ba3147"
         fill-rule="evenodd" />
      <path
         id="Caminho_261"
         data-name="Caminho 261"
         d="m 636.1,220.139 a 7.629,7.629 0 0 1 2.629,0 c 0.674,0.293 2.965,7.55 4.381,9.544 a 4.785,4.785 0 0 1 0.339,4.4 c -0.945,2.756 -13.283,25.4 -13.283,25.4 0,0 -0.877,1.2 -2.294,0.029 -1.417,-1.171 -12.17,-15.631 -12.17,-15.631 l 20.4,-21.919 z"
         fill="#3861a6"
         fill-rule="evenodd"
         style="fill:#333333" />
      <path
         id="Caminho_262"
         data-name="Caminho 262"
         d="m 590.76,218.415 a 7.664,7.664 0 0 0 -2.63,0 c -0.675,0.293 -2.967,9.274 -4.385,11.268 a 4.791,4.791 0 0 0 -0.336,4.4 c 0.944,2.756 13.284,25.4 13.284,25.4 0,0 0.876,1.2 2.29,0.029 1.414,-1.171 12.173,-15.631 12.173,-15.631 l -20.4,-23.644 z"
         fill="#3861a6"
         fill-rule="evenodd"
         style="fill:#333333" />
      <g
         id="Grupo_425"
         data-name="Grupo 425">
        <path
           id="Caminho_263"
           data-name="Caminho 263"
           d="m 654.593,157.441 c 0.307,0.044 0.607,0.1 0.907,0.16 h 0.007 v 0 a 12.359,12.359 0 1 1 -10.329,2.412 c -0.339,3.645 0.208,8.164 4.86,8.648 l -0.086,-7.125 c -0.035,-2.881 2.665,-4.189 4.641,-4.095 z"
           fill="#d77f68"
           fill-rule="evenodd"
           style="fill:#ffe680" />
        <path
           id="Caminho_264"
           data-name="Caminho 264"
           d="m 573.173,157.428 c -0.307,0.04 -0.609,0.088 -0.906,0.149 h -0.01 v 0 a 12.354,12.354 0 1 0 10.3,2.555 c 0.288,3.651 -0.326,8.161 -4.984,8.58 l 0.187,-7.122 c 0.071,-2.882 -2.608,-4.228 -4.587,-4.162 z"
           fill="#d77f68"
           fill-rule="evenodd"
           style="fill:#ffe680" />
      </g>
      <path
         id="Caminho_265"
         data-name="Caminho 265"
         d="m 613.8,219.314 c -23.065,0 -42.3,-28.46 -42.3,-50.93 v -29.849 a 42.427,42.427 0 0 1 42.3,-42.3 h 0.008 a 42.429,42.429 0 0 1 42.3,42.3 v 29.217 c -0.008,24.625 -16.79,51.562 -42.308,51.562 z"
         fill="#e6ad83"
         fill-rule="evenodd"
         style="fill:#ffeeaa" />
      <path
         id="Caminho_266"
         data-name="Caminho 266"
         d="m 571.507,136.624 a 41.968,41.968 0 0 1 6.208,-21.184 23.589,23.589 0 0 1 4.293,-1.78 c 1.119,0 63.673,4.985 59.82,16.766 0,0 -29.911,22.66 -62.54,9.97 a 46.422,46.422 0 0 1 -7.781,-3.772 z"
         fill="#d7766d"
         fill-rule="evenodd"
         style="fill:#ffe680" />
      <g
         id="Grupo_426"
         data-name="Grupo 426">
        <path
           id="Caminho_267"
           data-name="Caminho 267"
           d="m 642.84,167.281 a 7.131,7.131 0 1 0 7.262,7 7.133,7.133 0 0 0 -7.262,-7 z"
           fill="#d7766d"
           fill-rule="evenodd"
           style="fill:#ffe680" />
        <path
           id="Caminho_268"
           data-name="Caminho 268"
           d="m 584.494,168.416 a 7.131,7.131 0 1 0 7.263,7 7.131,7.131 0 0 0 -7.263,-7 z"
           fill="#d7766d"
           fill-rule="evenodd"
           style="fill:#ffe680" />
      </g>
      <g
         id="Grupo_427"
         data-name="Grupo 427">
        <path
           id="Caminho_269"
           data-name="Caminho 269"
           d="m 599.752,147.658 a 1.7722359,1.7722359 0 0 1 -1.464,3.228 11.609,11.609 0 0 0 -10.461,0.673 1.7790011,1.7790011 0 0 1 -1.894,-3.012 c 6.736,-4.238 13.799,-0.898 13.819,-0.889 z"
           fill="#2c2930"
           fill-rule="evenodd" />
        <path
           id="Caminho_270"
           data-name="Caminho 270"
           d="m 641.584,148.448 a 1.7730823,1.7730823 0 0 1 -1.722,3.1 11.61,11.61 0 0 0 -10.48,-0.181 1.778,1.778 0 1 1 -1.642,-3.154 c 7.06,-3.678 13.824,0.223 13.844,0.235 z"
           fill="#2c2930"
           fill-rule="evenodd" />
      </g>
      <path
         id="Caminho_271"
         data-name="Caminho 271"
         d="m 614.938,169.34 c 0.788,2.141 2.167,6.017 2.048,6.668 -0.166,0.909 -4.849,1.749 -6.079,0.553 -0.82,-0.795 0.2,-4.291 1.084,-6.644 1.209,-3.208 1.885,-3.459 2.947,-0.577 z"
         fill="#ebbf9e"
         fill-rule="evenodd"
         style="fill:#ffe680" />
      <g
         id="Grupo_428"
         data-name="Grupo 428">
        <path
           id="Caminho_272"
           data-name="Caminho 272"
           d="m 622.687,186.249 a 8.889,8.889 0 1 1 -17.777,0 1.639,1.639 0 0 1 1.636,-1.636 h 14.505 a 1.639,1.639 0 0 1 1.636,1.636 z"
           fill="#12151d"
           fill-rule="evenodd" />
        <path
           id="Caminho_273"
           data-name="Caminho 273"
           d="m 607.441,184.613 h 12.716 v 1.5 a 1.43,1.43 0 0 1 -1.425,1.424 h -9.866 a 1.43,1.43 0 0 1 -1.425,-1.424 z"
           fill="#ffffff"
           fill-rule="evenodd" />
        <path
           id="Caminho_274"
           data-name="Caminho 274"
           d="m 620.24,192.374 a 8.886,8.886 0 0 1 -12.883,0 8.884,8.884 0 0 1 12.883,0 z"
           fill="#d26070"
           fill-rule="evenodd" />
      </g>
      <g
         id="Grupo_429"
         data-name="Grupo 429">
        <path
           id="Caminho_275"
           data-name="Caminho 275"
           d="m 594.05432,165.64845 c 4.54561,0.006 5.74792,-4.72942 2.66822,-8.07203 -2.81803,-3.0586 -4.80415,0.94332 -8.16921,4.14291 0.003,2.27773 -0.20428,0.72731 2.4503,2.37371 0.62303,0.38642 2.18509,0.68848 3.05069,1.55541 z"
           fill="#2c2930"
           fill-rule="evenodd"
           sodipodi:nodetypes="cscsc" />
        <path
           id="Caminho_276"
           data-name="Caminho 276"
           d="m 634.489,166.28 c 1.12567,-0.61094 2.21177,-2.13071 3.30851,-2.86447 3.33043,-2.2282 3.97201,-2.76639 -1.35628,-4.60122 -4.29581,-1.47929 -7.05223,-2.17824 -7.05223,2.36569 0,2.81665 2.62445,6.44358 5.1,5.1 z"
           fill="#2c2930"
           fill-rule="evenodd"
           sodipodi:nodetypes="sssss" />
      </g>
      <path
         id="Caminho_277"
         data-name="Caminho 277"
         d="m 646.651,175.624 a 0.643,0.643 0 1 1 -1.231,-0.369 c 0.013,-0.036 3.252,-11.021 8.818,-15.59 l 0.338,1.361 c -4.924,4.433 -7.912,14.561 -7.925,14.598 z"
         fill="#accbdb"
         fill-rule="evenodd" />
      <path
         id="Caminho_278"
         data-name="Caminho 278"
         d="m 645.083,201.059 a 0.64238034,0.64238034 0 0 1 -0.141,-1.277 l 0.228,-0.024 c 3.834,-0.481 6.972,-4.016 9.082,-8.3 a 29.2,29.2 0 0 0 2.88,-10.18 12.49,12.49 0 0 0 1.32,-0.573 30.163,30.163 0 0 1 -3.049,11.323 c -2.28,4.628 -5.748,8.461 -10.08,9 z"
         fill="#accbdb"
         fill-rule="evenodd" />
      <path
         id="Caminho_279"
         data-name="Caminho 279"
         d="m 580.949,175.624 a 0.64447382,0.64447382 0 0 0 1.235,-0.369 c -0.013,-0.036 -3.253,-11.021 -8.82,-15.59 l -0.337,1.361 c 4.923,4.433 7.913,14.561 7.922,14.598 z"
         fill="#accbdb"
         fill-rule="evenodd" />
      <path
         id="Caminho_280"
         data-name="Caminho 280"
         d="m 582.518,201.059 a 0.64232566,0.64232566 0 1 0 0.14,-1.277 l -0.224,-0.024 c -3.834,-0.481 -6.974,-4.016 -9.082,-8.3 a 29.227,29.227 0 0 1 -2.883,-10.18 12.551,12.551 0 0 1 -1.318,-0.573 30.163,30.163 0 0 0 3.049,11.323 c 2.281,4.628 5.745,8.461 10.077,9 z"
         fill="#accbdb"
         fill-rule="evenodd" />
      <g
         id="Grupo_430"
         data-name="Grupo 430">
        <path
           id="Caminho_281"
           data-name="Caminho 281"
           d="m 613.8,170.705 32.949,1.759 c 0,0 1.317,0.38 1.277,1.589 -0.04,1.209 -1.194,24.555 -1.194,24.555 a 7.829,7.829 0 0 1 -1.361,3.918 c -1.306,1.816 -11.675,18.9 -31.671,18.9 -19.996,0 -30.368,-17.089 -31.673,-18.9 a 7.8,7.8 0 0 1 -1.359,-3.918 c 0,0 -1.155,-23.344 -1.2,-24.555 -0.045,-1.211 1.279,-1.589 1.279,-1.589 z"
           fill="#ffffff"
           fill-rule="evenodd" />
        <path
           id="Caminho_282"
           data-name="Caminho 282"
           d="m 613.8,173.24 -31.663,1.691 c 0.277,7.842 0.807,15.723 1.159,23.565 a 5.2,5.2 0 0 0 0.887,2.552 c 0.883,1.228 1.67,2.429 2.62,3.628 a 43.32,43.32 0 0 0 5.8,6.06 31.605,31.605 0 0 0 42.4,0 43.337,43.337 0 0 0 5.8,-6.06 c 0.948,-1.2 1.735,-2.4 2.617,-3.628 a 5.215,5.215 0 0 0 0.89,-2.552 c 0.348,-7.842 0.881,-15.723 1.159,-23.565 z"
           fill="#d3e4ec"
           fill-rule="evenodd" />
        <path
           id="Caminho_283"
           data-name="Caminho 283"
           d="m 582.6,185.119 c 0.164,3.063 0.334,6.13 0.49,9.192 l 29.212,-11.268 -29.7,2.076 z m 0.646,12.339 0.048,1.038 a 5.2,5.2 0 0 0 0.887,2.552 c 0.883,1.228 1.67,2.429 2.62,3.628 a 43.32,43.32 0 0 0 5.8,6.06 31.605,31.605 0 0 0 42.4,0 43.337,43.337 0 0 0 5.8,-6.06 c 0.948,-1.2 1.735,-2.4 2.617,-3.628 a 4.267,4.267 0 0 0 0.367,-0.623 c 0,0 -5.134,5.556 -22.96,5.556 -17.826,0 -37.573,-8.523 -37.573,-8.523 z m 61.157,-1.152 q 0.164,-3.37 0.352,-6.745 L 622.98,188.04 Z"
           fill="#accbdb"
           fill-rule="evenodd" />
      </g>
      <path
         id="Caminho_284"
         data-name="Caminho 284"
         d="m 583.127,142.417 c -0.414,7.445 -2.368,12.944 -7.43,12.944 v 7.127 c 0,3.983 -0.388,8.013 -4.151,8.013 0,-8.571 -2.61,-11.939 -2.61,-11.939 v -21.491 c 0,-10.024 2.819,-23.492 15.974,-32.734 a 51.009,51.009 0 0 1 57.776,0 c 13.158,9.242 15.977,22.71 15.977,32.734 v 21.491 c 0,0 -2.613,3.368 -2.613,11.939 -3.762,0 -4.149,-4.03 -4.149,-8.013 v -7.127 c -5.144,0 -7.078,-5.672 -7.449,-13.295 V 111.12 h -61.325 z"
         fill="#802534"
         fill-rule="evenodd"
         style="fill:#000000" />
      <path
         id="Caminho_285"
         data-name="Caminho 285"
         d="m 652.083,123.687 c -4.73,27.11 -20.259,18.044 -11.955,6.8 -59.07439,34.2221 -59.76235,-12.70855 -61.55068,5.61736 -0.91371,9.3632 -8.27555,-5.60901 -3.36232,-3.16436 5.41745,-6.73348 -2.68243,-13.87476 5.67482,-20.72277 9.32722,-7.64282 -1.23557,-8.30586 9.79719,-11.45747 14.13476,-4.037719 49.57733,-8.543243 56.76599,1.56824 2.66333,-6.384081 9.29231,13.7401 9.06628,17.3827 -0.30594,4.93026 8.19021,-1.84139 -4.43628,3.9763 z"
         fill="#802534"
         fill-rule="evenodd"
         style="fill:#000000"
         sodipodi:nodetypes="ccscsscsc" />
    </g>
  </g>
  <path
     style="fill:none;stroke:#000000;stroke-width:1px;stroke-linecap:butt;stroke-linejoin:miter;stroke-opacity:1"
     d="M 796.66663,68.18318 Z"
     id="path1212" />
</svg>
