<?xml version="1.0" encoding="UTF-8" standalone="no"?>
<svg
   xmlns:dc="http://purl.org/dc/elements/1.1/"
   xmlns:cc="http://creativecommons.org/ns#"
   xmlns:rdf="http://www.w3.org/1999/02/22-rdf-syntax-ns#"
   xmlns:svg="http://www.w3.org/2000/svg"
   xmlns="http://www.w3.org/2000/svg"
   xmlns:sodipodi="http://sodipodi.sourceforge.net/DTD/sodipodi-0.dtd"
   xmlns:inkscape="http://www.inkscape.org/namespaces/inkscape"
   width="210mm"
   height="297mm"
   viewBox="0 0 210 297"
   version="1.1"
   id="svg8"
   inkscape:version="1.0.2 (e86c870879, 2021-01-15, custom)"
   sodipodi:docname="desenhando.svg">
  <defs
     id="defs2">
    <inkscape:perspective
       sodipodi:type="inkscape:persp3d"
       inkscape:vp_x="0 : 148.5 : 1"
       inkscape:vp_y="0 : 1000 : 0"
       inkscape:vp_z="210 : 148.5 : 1"
       inkscape:persp3d-origin="105 : 99 : 1"
       id="perspective10" />
    <meshgradient
       inkscape:collect="always"
       id="meshgradient558"
       gradientUnits="userSpaceOnUse"
       x="205.53101"
       y="280.62">
      <meshrow
         id="meshrow560">
        <meshpatch
           id="meshpatch562">
          <stop
             path="c 12.1287,0  24.2573,0  36.386,0"
             style="stop-color:#ffffff;stop-opacity:1"
             id="stop564" />
          <stop
             path="c 0,59.7297  0,119.459  0,179.189"
             style="stop-color:#241c1c;stop-opacity:1"
             id="stop566" />
          <stop
             path="c -12.1287,0  -24.2573,0  -36.386,0"
             style="stop-color:#ffffff;stop-opacity:1"
             id="stop568" />
          <stop
             path="c 0,-59.7297  0,-119.459  0,-179.189"
             style="stop-color:#241c1c;stop-opacity:1"
             id="stop570" />
        </meshpatch>
      </meshrow>
    </meshgradient>
    <meshgradient
       inkscape:collect="always"
       id="meshgradient642"
       gradientUnits="userSpaceOnUse"
       x="48.400002"
       y="280.62">
      <meshrow
         id="meshrow644">
        <meshpatch
           id="meshpatch646">
          <stop
             path="c 12.1293,0  24.2587,0  36.388,0"
             style="stop-color:#ffffff;stop-opacity:1"
             id="stop648" />
          <stop
             path="c 0,59.7297  0,119.459  0,179.189"
             style="stop-color:#241c1c;stop-opacity:1"
             id="stop650" />
          <stop
             path="c -12.1293,0  -24.2587,0  -36.388,0"
             style="stop-color:#ffffff;stop-opacity:1"
             id="stop652" />
          <stop
             path="c 0,-59.7297  0,-119.459  0,-179.189"
             style="stop-color:#241c1c;stop-opacity:1"
             id="stop654" />
        </meshpatch>
      </meshrow>
    </meshgradient>
    <meshgradient
       inkscape:collect="always"
       id="meshgradient948"
       gradientUnits="userSpaceOnUse"
       x="134.295"
       y="238.41299">
      <meshrow
         id="meshrow950">
        <meshpatch
           id="meshpatch952">
          <stop
             path="c 7.497,0  14.994,0  22.491,0"
             style="stop-color:#ffffff;stop-opacity:1"
             id="stop954" />
          <stop
             path="c 0,4.629  0,9.258  0,13.887"
             style="stop-color:#e6e6e6;stop-opacity:1"
             id="stop956" />
          <stop
             path="c -7.497,0  -14.994,0  -22.491,0"
             style="stop-color:#ffffff;stop-opacity:1"
             id="stop958" />
          <stop
             path="c 0,-4.629  0,-9.258  0,-13.887"
             style="stop-color:#e6e6e6;stop-opacity:1"
             id="stop960" />
        </meshpatch>
      </meshrow>
    </meshgradient>
    <meshgradient
       inkscape:collect="always"
       id="meshgradient934"
       gradientUnits="userSpaceOnUse"
       x="134.295"
       y="238.416">
      <meshrow
         id="meshrow936">
        <meshpatch
           id="meshpatch938">
          <stop
             path="c 7.497,0  14.994,0  22.491,0"
             style="stop-color:#ffffff;stop-opacity:1"
             id="stop940" />
          <stop
             path="c 0,4.628  0,9.256  0,13.884"
             style="stop-color:#cccccc;stop-opacity:1"
             id="stop942" />
          <stop
             path="c -7.497,0  -14.994,0  -22.491,0"
             style="stop-color:#ffffff;stop-opacity:1"
             id="stop944" />
          <stop
             path="c 0,-4.628  0,-9.256  0,-13.884"
             style="stop-color:#cccccc;stop-opacity:1"
             id="stop946" />
        </meshpatch>
      </meshrow>
    </meshgradient>
    <meshgradient
       inkscape:collect="always"
       id="meshgradient878"
       gradientUnits="userSpaceOnUse"
       x="155"
       y="216.30711">
      <meshrow
         id="meshrow880">
        <meshpatch
           id="meshpatch882">
          <stop
             path="c 14.5667,0  29.1333,0  43.7,0"
             style="stop-color:#ffffff;stop-opacity:1"
             id="stop884" />
          <stop
             path="c 0,53.1763  0,106.353  0,159.529"
             style="stop-color:#1a1a1a;stop-opacity:1"
             id="stop886" />
          <stop
             path="c -14.5667,0  -29.1333,0  -43.7,0"
             style="stop-color:#ffffff;stop-opacity:1"
             id="stop888" />
          <stop
             path="c 0,-53.1763  0,-106.353  0,-159.529"
             style="stop-color:#1a1a1a;stop-opacity:1"
             id="stop890" />
        </meshpatch>
      </meshrow>
    </meshgradient>
    <meshgradient
       inkscape:collect="always"
       id="meshgradient836"
       gradientUnits="userSpaceOnUse"
       x="91.621002"
       y="216.30711">
      <meshrow
         id="meshrow838">
        <meshpatch
           id="meshpatch840">
          <stop
             path="c 14.565,0  29.13,0  43.695,0"
             style="stop-color:#ffffff;stop-opacity:1"
             id="stop842" />
          <stop
             path="c 0,53.1763  0,106.353  0,159.529"
             style="stop-color:#333333;stop-opacity:1"
             id="stop844" />
          <stop
             path="c -14.565,0  -29.13,0  -43.695,0"
             style="stop-color:#ffffff;stop-opacity:1"
             id="stop846" />
          <stop
             path="c 0,-53.1763  0,-106.353  0,-159.529"
             style="stop-color:#333333;stop-opacity:1"
             id="stop848" />
        </meshpatch>
      </meshrow>
    </meshgradient>
  </defs>
  <sodipodi:namedview
     id="base"
     pagecolor="#ffffff"
     bordercolor="#666666"
     borderopacity="1.0"
     inkscape:pageopacity="0.0"
     inkscape:pageshadow="2"
     inkscape:zoom="0.35"
     inkscape:cx="400"
     inkscape:cy="380.40057"
     inkscape:document-units="mm"
     inkscape:current-layer="layer1"
     inkscape:document-rotation="0"
     showgrid="false"
     inkscape:window-width="1366"
     inkscape:window-height="738"
     inkscape:window-x="0"
     inkscape:window-y="0"
     inkscape:window-maximized="0" />
  <metadata
     id="metadata5">
    <rdf:RDF>
      <cc:Work
         rdf:about="">
        <dc:format>image/svg+xml</dc:format>
        <dc:type
           rdf:resource="http://purl.org/dc/dcmitype/StillImage" />
        <dc:title />
      </cc:Work>
    </rdf:RDF>
  </metadata>
  <g
     inkscape:label="Layer 1"
     inkscape:groupmode="layer"
     id="layer1">
    <g
       id="Grupo_438"
       data-name="Grupo 438"
       transform="matrix(0.78533688,0,0,0.66891276,-7.5620905,-39.704821)">
      <path
         id="Caminho_286"
         data-name="Caminho 286"
         d="m 227.226,238.581 9.026,5.035 a 20.62,20.62 0 0 1 5.98,8.559 C 244.46,257.92 276,358.52 276,358.52 c 0,0 5.159,20.4 -5.392,37.756 C 260.057,413.632 222.6,460.95 222.6,460.95 l -22.575,-42.4 c 4.362,-5.37 33.178,-48.219 34.238,-49.128 L 217.388,316.156 214.6,267.843 Z"
         fill="#ff4b5a"
         fill-rule="evenodd"
         style="fill:#241c1c" />
      <path
         id="Caminho_287"
         data-name="Caminho 287"
         d="m 241.915,436.075 c -8.426,11.025 -15.9,20.544 -18.419,23.734 l -3.047,-2.89 -13.232,-24.85 -1.686,-12.934 10.986,-19.455 25.4,36.4 z m -11.9,-80.051 -12.629,-39.865 -1.586,-27.459 7.482,-8.08 z"
         fill="#bf3642"
         fill-rule="evenodd"
         style="fill:url(#meshgradient558);fill-opacity:1" />
      <path
         id="Caminho_288"
         data-name="Caminho 288"
         d="m 63.094,238.581 -9.026,5.035 a 20.63,20.63 0 0 0 -5.98,8.559 C 45.861,257.92 14.322,358.52 14.322,358.52 c 0,0 -5.16,20.4 5.393,37.756 10.553,17.356 48.01,64.674 48.01,64.674 l 22.574,-42.4 c -4.36,-5.37 -33.177,-48.219 -34.237,-49.128 l 16.876,-53.266 2.783,-48.316 z"
         fill="#ff4b5a"
         fill-rule="evenodd"
         style="fill:#241c1c" />
      <path
         id="Caminho_289"
         data-name="Caminho 289"
         d="m 48.406,436.075 c 8.426,11.025 15.9,20.544 18.418,23.734 l 3.047,-2.89 L 83.1,432.069 84.788,419.135 73.8,399.68 48.4,436.08 Z m 11.9,-80.051 12.631,-39.865 1.583,-27.459 -7.481,-8.08 z"
         fill="#bf3642"
         fill-rule="evenodd"
         style="fill:url(#meshgradient642);fill-opacity:1" />
      <path
         id="Caminho_290"
         data-name="Caminho 290"
         d="m 204.882,439.39 3.908,9.851 c 0,0 3.752,7.034 4.221,9.5 0.469,2.466 5.981,41.259 5.981,41.259 H 71.328 c 0,0 5.51,-38.8 5.981,-41.261 0.471,-2.461 4.22,-9.5 4.22,-9.5 l 3.909,-9.851 59.721,2.285 z"
         fill="#7a6e91"
         fill-rule="evenodd"
         style="fill:#000000" />
      <path
         id="Caminho_291"
         data-name="Caminho 291"
         d="m 204.882,439.39 3.908,9.851 c 0,0 3.752,7.034 4.221,9.5 0.242,1.269 1.827,12.213 3.3,22.51 l -40.809,1.743 -7.966,-29.98 -40.1,10.554 -6.116,20.385 -48.407,4.9 c 1.667,-11.667 4.088,-28.515 4.393,-30.109 0.467,-2.464 4.22,-9.5 4.22,-9.5 l 2.2,-5.542 c 2.372,-1.29 5.03,-2.712 7.669,-4.081 l 53.762,2.057 z"
         fill="#564d7b"
         fill-rule="evenodd"
         style="fill:#000000" />
      <path
         id="Caminho_292"
         data-name="Caminho 292"
         d="m 85.438,433.1 v 6.294 c 0,0 32.441,5.863 59.721,5.863 27.28,0 59.723,-5.863 59.723,-5.863 V 433.1 l -59.723,0.666 z"
         fill="#36306a"
         fill-rule="evenodd"
         style="fill:#4d4d4d" />
      <path
         id="Caminho_293"
         data-name="Caminho 293"
         d="m 145.541,152.161 v 0 c -12.9,0 -23.464,18.055 -23.464,40.122 v 32.589 c 0,22.067 10.559,40.121 23.464,40.121 v 0 c 12.9,0 23.463,-18.054 23.463,-40.121 V 192.283 C 169,170.216 158.446,152.161 145.541,152.161 Z"
         fill="#d7766d"
         fill-rule="evenodd"
         style="fill:#e6ad83;fill-opacity:1" />
      <path
         id="Caminho_294"
         data-name="Caminho 294"
         d="m 139.386,234.483 3.8,0.456 1.971,1.348 1.973,-1.348 3.8,-0.456 22.4,-17.57 48.637,19.693 -1.8,44.326 c -3.633,46.383 -10.836,114.61 -10.836,117.467 0,2.857 2.675,11.725 5.85,22.392 v 0 a 7.72,7.72 0 0 1 -2.328,6.908 42.631,42.631 0 0 1 -7.972,5.394 c -51.344,6.048 -68.1,6.048 -119.444,0 a 42.624,42.624 0 0 1 -7.973,-5.394 7.721,7.721 0 0 1 -2.327,-6.908 v 0 c 3.174,-10.667 5.848,-19.537 5.848,-22.392 0,-2.855 -6.264,-69.21 -9.9,-115.592 l -2.736,-46.2 48.637,-19.693 z"
         fill="#7a6e91"
         fill-rule="evenodd"
         style="fill:#000000;fill-opacity:1" />
      <path
         id="Caminho_295"
         data-name="Caminho 295"
         d="m 140.3,246.717 -1.046,5.586 -10.611,138.27 16.9,35.933 16.9,-35.933 -10.612,-138.273 -1.047,-5.586 -5.243,3.4 z"
         fill="#cf4a60"
         fill-rule="evenodd"
         style="fill:#ffffff" />
      <path
         id="Caminho_296"
         data-name="Caminho 296"
         d="m 140.3,246.717 -1.05,5.583 -10.607,138.273 16.9,35.932 c 0,0 -9.924,-30.946 -10.318,-35.742 -0.394,-4.796 5.975,-136.663 7.839,-137.894 1.864,-1.231 5.59,-1.111 5.59,-1.111 l -2.38,-2.119 -0.733,0.476 z"
         fill="#ba3147"
         fill-rule="evenodd"
         style="fill:#cccccc" />
      <path
         id="Caminho_297"
         data-name="Caminho 297"
         d="m 150.169,235.271 -2.275,-0.332 a 1.884,1.884 0 0 0 -0.516,1.131 c -0.064,0.714 -0.113,2.813 -0.113,2.813 l 1.738,0.542 a 29.8,29.8 0 0 0 3.413,-0.044 c -0.033,-0.129 -2.247,-4.11 -2.247,-4.11 z"
         fill="#433d72"
         fill-rule="evenodd" />
      <path
         id="Caminho_298"
         data-name="Caminho 298"
         d="m 140.912,235.271 2.275,-0.332 a 1.876,1.876 0 0 1 0.514,1.131 c 0.067,0.714 0.116,2.813 0.116,2.813 l -1.739,0.542 a 29.8,29.8 0 0 1 -3.413,-0.044 c 0.035,-0.129 2.247,-4.11 2.247,-4.11 z"
         fill="#433d72"
         fill-rule="evenodd" />
      <path
         id="Caminho_299"
         data-name="Caminho 299"
         d="m 151.831,252.3 4.955,-10.866 c -4.283,-4.028 -18.209,-4.028 -22.491,0 l 4.955,10.866 a 28.9,28.9 0 0 1 12.581,0 z"
         fill="#cf4a60"
         fill-rule="evenodd"
         style="fill:url(#meshgradient948);fill-opacity:1" />
      <path
         id="Caminho_300"
         data-name="Caminho 300"
         d="m 154.813,245.764 1.973,-4.328 c -1.54,-1.449 -4.329,-2.377 -7.469,-2.784 l 5.5,7.112 z m -9.385,-7.348 c -4.513,0.016 -9.01,1.023 -11.133,3.02 l 4.955,10.864 a 23.391,23.391 0 0 1 4.74,-0.657 12.129,12.129 0 0 1 -2.206,-2.031 c -0.066,-0.4 0.017,-9.748 0.411,-9.906 z"
         fill="#ba3147"
         fill-rule="evenodd"
         style="fill:url(#meshgradient934);fill-opacity:1" />
      <path
         id="Caminho_301"
         data-name="Caminho 301"
         d="m 122.078,213.694 a 7.911,7.911 0 0 0 -2.722,0 c -0.7,0.3 -3.071,4.492 -4.535,6.556 a 4.953,4.953 0 0 0 -0.35,4.552 c 0.977,2.853 13.747,26.282 13.747,26.282 0,0 0.908,1.246 2.373,0.031 1.465,-1.215 12.6,-16.176 12.6,-16.176 l -21.109,-19.363 z"
         fill="#5f5683"
         fill-rule="evenodd"
         style="fill:#1a1a1a;fill-opacity:1" />
      <path
         id="Caminho_302"
         data-name="Caminho 302"
         d="m 169,213.694 a 7.91,7.91 0 0 1 2.722,0 c 0.7,0.3 3.069,4.492 4.534,6.556 a 4.951,4.951 0 0 1 0.349,4.552 c -0.975,2.853 -13.746,26.282 -13.746,26.282 0,0 -0.907,1.246 -2.372,0.031 -1.465,-1.215 -12.6,-16.176 -12.6,-16.176 L 169,215.576 Z"
         fill="#5f5683"
         fill-rule="evenodd"
         style="fill:#1a1a1a;fill-opacity:1" />
      <g
         id="Grupo_432"
         data-name="Grupo 432">
        <path
           id="Caminho_303"
           data-name="Caminho 303"
           d="m 102.941,145.487 c -0.317,0.045 -0.629,0.1 -0.936,0.166 h -0.01 v 0 a 12.789,12.789 0 1 0 10.692,2.5 c 0.351,3.773 -0.217,8.449 -5.031,8.95 l 0.088,-7.374 c 0.036,-2.985 -2.757,-4.339 -4.803,-4.242 z"
           fill="#d77f68"
           fill-rule="evenodd" />
        <path
           id="Caminho_304"
           data-name="Caminho 304"
           d="m 187.2,145.475 c 0.317,0.041 0.629,0.09 0.939,0.152 h 0.008 v 0 a 12.79,12.79 0 1 1 -10.655,2.645 c -0.3,3.777 0.334,8.445 5.155,8.88 l -0.191,-7.371 c -0.074,-2.981 2.7,-4.374 4.744,-4.306 z"
           fill="#d77f68"
           fill-rule="evenodd" />
      </g>
      <path
         id="Caminho_305"
         data-name="Caminho 305"
         d="m 145.157,209.519 c 23.869,0 43.78,-29.453 43.78,-52.706 V 125.922 A 43.905,43.905 0 0 0 145.163,82.144 h -0.006 a 43.907,43.907 0 0 0 -43.776,43.778 v 30.237 c 0,25.484 17.371,53.36 43.776,53.36 z"
         fill="#e6ad83"
         fill-rule="evenodd"
         style="fill:#e6ad83;fill-opacity:1" />
      <g
         id="Grupo_433"
         data-name="Grupo 433">
        <path
           id="Caminho_306"
           data-name="Caminho 306"
           d="m 115.106,155.671 a 7.38,7.38 0 1 1 -7.515,7.241 7.378,7.378 0 0 1 7.515,-7.241 z"
           fill="#d7766d"
           fill-rule="evenodd" />
        <path
           id="Caminho_307"
           data-name="Caminho 307"
           d="m 175.486,156.845 a 7.38,7.38 0 1 1 -7.515,7.242 7.381,7.381 0 0 1 7.515,-7.242 z"
           fill="#d7766d"
           fill-rule="evenodd" />
      </g>
      <g
         id="Grupo_434"
         data-name="Grupo 434">
        <path
           id="Caminho_308"
           data-name="Caminho 308"
           d="m 159.7,135.363 a 1.8342237,1.8342237 0 0 0 1.515,3.341 12.016,12.016 0 0 1 10.826,0.7 1.8424387,1.8424387 0 1 0 1.959,-3.121 c -6.975,-4.383 -14.283,-0.929 -14.3,-0.92 z"
           fill="#675243"
           fill-rule="evenodd" />
        <path
           id="Caminho_309"
           data-name="Caminho 309"
           d="m 116.406,136.18 a 1.834,1.834 0 0 0 1.781,3.206 12.01,12.01 0 0 1 10.846,-0.186 1.841,1.841 0 1 0 1.7,-3.266 c -7.306,-3.803 -14.308,0.235 -14.327,0.246 z"
           fill="#675243"
           fill-rule="evenodd" />
      </g>
      <path
         id="Caminho_310"
         data-name="Caminho 310"
         d="m 143.98,157.8 c -0.814,2.215 -2.241,6.226 -2.12,6.9 0.173,0.94 5.021,1.809 6.293,0.572 0.849,-0.823 -0.2,-4.442 -1.121,-6.876 -1.255,-3.317 -1.952,-3.576 -3.052,-0.596 z"
         fill="#ebbf9e"
         fill-rule="evenodd" />
      <g
         id="Grupo_435"
         data-name="Grupo 435">
        <path
           id="Caminho_311"
           data-name="Caminho 311"
           d="m 135.961,175.3 a 9.2,9.2 0 0 0 18.4,0 1.7,1.7 0 0 0 -1.692,-1.694 h -15.015 a 1.7,1.7 0 0 0 -1.693,1.694 z"
           fill="#12151d"
           fill-rule="evenodd" />
        <path
           id="Caminho_312"
           data-name="Caminho 312"
           d="m 151.739,173.607 h -13.157 v 1.557 a 1.477,1.477 0 0 0 1.473,1.473 h 10.21 a 1.478,1.478 0 0 0 1.474,-1.473 z"
           fill="#ffffff"
           fill-rule="evenodd" />
        <path
           id="Caminho_313"
           data-name="Caminho 313"
           d="m 138.492,181.639 a 9.2,9.2 0 0 0 13.334,0 9.2,9.2 0 0 0 -13.334,0 z"
           fill="#d26070"
           fill-rule="evenodd" />
      </g>
      <g
         id="Grupo_436"
         data-name="Grupo 436">
        <path
           id="Caminho_314"
           data-name="Caminho 314"
           d="m 166.572,154.635 a 5.272,5.272 0 1 0 -5.273,-5.272 5.281,5.281 0 0 0 5.273,5.272 z"
           fill="#2c2930"
           fill-rule="evenodd" />
        <path
           id="Caminho_315"
           data-name="Caminho 315"
           d="m 123.75,154.635 a 5.272,5.272 0 1 0 -5.274,-5.272 5.282,5.282 0 0 0 5.274,5.272 z"
           fill="#2c2930"
           fill-rule="evenodd" />
      </g>
      <path
         id="Caminho_316"
         data-name="Caminho 316"
         d="m 111.16,164.3 a 0.66506879,0.66506879 0 1 0 1.275,-0.379 c -0.012,-0.04 -3.365,-11.407 -9.127,-16.133 l -0.347,1.407 c 5.094,4.59 8.187,15.072 8.199,15.105 z"
         fill="#accbdb"
         fill-rule="evenodd" />
      <path
         id="Caminho_317"
         data-name="Caminho 317"
         d="m 112.783,190.627 a 0.665,0.665 0 1 0 0.146,-1.321 l -0.235,-0.026 c -3.967,-0.5 -7.215,-4.156 -9.4,-8.585 a 30.26,30.26 0 0 1 -2.982,-10.535 12.638,12.638 0 0 1 -1.364,-0.6 31.2,31.2 0 0 0 3.155,11.718 c 2.36,4.791 5.948,8.758 10.43,9.319 z"
         fill="#accbdb"
         fill-rule="evenodd" />
      <path
         id="Caminho_318"
         data-name="Caminho 318"
         d="m 179.155,164.3 a 0.66506879,0.66506879 0 1 1 -1.275,-0.379 c 0.011,-0.04 3.366,-11.407 9.126,-16.133 l 0.348,1.407 c -5.094,4.59 -8.188,15.072 -8.199,15.105 z"
         fill="#accbdb"
         fill-rule="evenodd" />
      <path
         id="Caminho_319"
         data-name="Caminho 319"
         d="m 177.53,190.627 a 0.66441271,0.66441271 0 0 1 -0.144,-1.321 l 0.234,-0.026 c 3.967,-0.5 7.217,-4.156 9.4,-8.585 a 30.236,30.236 0 0 0 2.98,-10.535 12.569,12.569 0 0 0 1.365,-0.6 31.17,31.17 0 0 1 -3.156,11.718 c -2.359,4.791 -5.945,8.758 -10.428,9.319 z"
         fill="#accbdb"
         fill-rule="evenodd" />
      <g
         id="Grupo_437"
         data-name="Grupo 437">
        <path
           id="Caminho_320"
           data-name="Caminho 320"
           d="m 145.159,159.213 -34.1,1.822 c 0,0 -1.364,0.393 -1.323,1.644 0.041,1.251 1.236,25.413 1.236,25.413 a 8.076,8.076 0 0 0 1.409,4.052 c 1.351,1.881 12.082,19.567 32.776,19.567 20.694,0 31.425,-17.686 32.778,-19.567 a 8.076,8.076 0 0 0 1.409,-4.052 c 0,0 1.194,-24.159 1.236,-25.413 0.042,-1.254 -1.322,-1.644 -1.322,-1.644 z"
           fill="#fff"
           fill-rule="evenodd"
           style="fill:#ffffff" />
        <path
           id="Caminho_321"
           data-name="Caminho 321"
           d="m 145.157,161.837 32.77,1.751 c -0.289,8.115 -0.84,16.27 -1.2,24.387 a 5.422,5.422 0 0 1 -0.919,2.642 c -0.914,1.269 -1.728,2.512 -2.709,3.754 a 45.015,45.015 0 0 1 -6,6.272 32.711,32.711 0 0 1 -43.876,0 45,45 0 0 1 -6,-6.272 c -0.983,-1.242 -1.8,-2.485 -2.71,-3.754 a 5.413,5.413 0 0 1 -0.92,-2.642 c -0.361,-8.117 -0.911,-16.272 -1.2,-24.387 z"
           fill="#d3e4ec"
           fill-rule="evenodd" />
        <path
           id="Caminho_322"
           data-name="Caminho 322"
           d="m 177.441,174.13 c -0.168,3.171 -0.346,6.345 -0.507,9.514 l -30.229,-11.661 z m -0.666,12.772 -0.049,1.073 a 5.422,5.422 0 0 1 -0.919,2.642 c -0.914,1.269 -1.728,2.512 -2.709,3.754 a 45.015,45.015 0 0 1 -6,6.272 32.711,32.711 0 0 1 -43.876,0 45,45 0 0 1 -6,-6.272 c -0.983,-1.242 -1.8,-2.485 -2.71,-3.754 a 4.393,4.393 0 0 1 -0.379,-0.646 c 0,0 5.312,5.75 23.763,5.75 18.451,0 38.883,-8.819 38.883,-8.819 z m -63.293,-1.194 q -0.168,-3.486 -0.362,-6.98 l 22.539,-1.574 z"
           fill="#accbdb"
           fill-rule="evenodd" />
      </g>
      <path
         id="Caminho_323"
         data-name="Caminho 323"
         d="m 115.49,217.52 c 0,0 -2.974,-1.511 -4.03,-1.16 -1.056,0.351 -46.373,20.99 -48.366,22.221 0,0 7.7,73.892 6.312,89.3 l 7.289,55.505 c -0.148,0.143 -18.271,77.364 -20.284,85.357 a 3.652,3.652 0 0 0 2.58,4.222 c 3.282,1.172 61.674,11.02 61.674,11.02 0,0 6.1,0 7.034,-3.986 0.934,-3.986 7.893,-102.444 7.893,-102.444 L 110.15,219.682 Z"
         fill="#ff4b5a"
         fill-rule="evenodd"
         style="fill:#1a1a1a" />
      <path
         id="Caminho_324"
         data-name="Caminho 324"
         d="m 174.832,217.52 c 0,0 2.973,-1.511 4.029,-1.16 1.056,0.351 46.372,20.99 48.365,22.221 0,0 -7.695,73.892 -6.31,89.3 l -7.291,55.505 c 0.149,0.143 18.271,77.364 20.285,85.357 a 3.652,3.652 0 0 1 -2.58,4.222 c -3.282,1.172 -61.674,11.02 -61.674,11.02 0,0 -6.1,0 -7.034,-3.986 -0.934,-3.986 -7.894,-102.444 -7.894,-102.444 l 25.441,-157.87 z"
         fill="#ff4b5a"
         fill-rule="evenodd"
         style="fill:#1a1a1a" />
      <path
         id="Caminho_325"
         data-name="Caminho 325"
         d="m 174.832,217.52 c 0,0 2.973,-1.511 4.029,-1.16 0.342,0.114 5.347,2.366 12.018,5.394 l 7.821,59.431 -43.7,94.651 v 0 l 25.165,-156.154 z"
         fill="#bf3642"
         fill-rule="evenodd"
         style="fill:url(#meshgradient878);fill-opacity:1" />
      <path
         id="Caminho_326"
         data-name="Caminho 326"
         d="m 115.49,217.52 c 0,0 -2.974,-1.511 -4.03,-1.16 -0.341,0.114 -5.346,2.366 -12.018,5.394 l -7.821,59.431 43.695,94.651 v 0 L 110.15,219.682 Z"
         fill="#bf3642"
         fill-rule="evenodd"
         style="fill:url(#meshgradient836);fill-opacity:1" />
    </g>
    <path
       id="Caminho_284-2"
       data-name="Caminho 284"
       d="m 82.855317,46.813693 c -0.32513,4.980056 -1.859678,8.658407 -5.835053,8.658407 v 4.767341 c 0,2.66428 -0.304711,5.359998 -3.259934,5.359998 0,-5.733251 -2.049729,-7.986149 -2.049729,-7.986149 V 43.237685 c 0,-6.705181 2.213865,-15.714098 12.544971,-21.89619 a 40.059249,34.120571 0 0 1 45.373668,0 c 10.33346,6.182092 12.54733,15.191009 12.54733,21.89619 V 57.61329 c 0,0 -2.05209,2.252898 -2.05209,7.986149 -2.95444,0 -3.25836,-2.695718 -3.25836,-5.359998 V 55.4721 c -4.03978,0 -5.55862,-3.794073 -5.84998,-8.893196 V 25.878731 H 82.855317 Z"
       fill="#802534"
       fill-rule="evenodd"
       style="fill:#000000;stroke-width:0.724791" />
    <path
       id="Caminho_285-6"
       data-name="Caminho 285"
       d="m 141.33455,45.673243 c -3.71464,18.134226 -9.9751,-0.816234 -3.45366,-8.337489 -4.33811,2.140534 -7.11811,-6.479871 -10.81474,-9.397582 -2.1751,-1.716777 -8.50905,4.314936 -5.36047,0.186968 2.19592,-2.878971 -10.55826,1.961961 -15.20536,9.218026 -0.82997,1.295931 8.5803,-9.882745 6.86548,-9.431463 -28.646125,7.538634 -37.644099,0.69987 -29.814816,0.760661 C 109.08762,28.870643 94.070155,19.38444 103.03988,23.185826 82.999175,22.890508 74.046012,37.514648 73.333186,33.024351 68.492845,2.5338097 115.0148,-1.8330153 137.54014,12.382041 c 2.86936,1.810766 -2.31912,-1.376458 -0.0255,1.358975 1.09676,1.308046 -0.95769,-1.557748 0,0 3.9996,-3.230455 4.28462,1.403427 4.28462,1.403427 5.14452,1.68509 3.58099,0.771718 3.47418,2.751866 -0.0493,0.914186 -2.69206,6.919812 -2.60913,9.057598 0.91319,23.539328 -3.38718,50.231482 -1.32972,18.719336 z"
       fill="#802534"
       fill-rule="evenodd"
       sodipodi:nodetypes="ccssssscssscssscc"
       style="fill:#000000;stroke-width:0.724791" />
   
  </g>

</svg>
